<?xml version="1.0" encoding="UTF-8"?>
<svg id="girlnew" data-name="girlnew" xmlns="http://www.w3.org/2000/svg" viewBox="0 0 741.201 574.082">
  <defs>
    <style>
      .gn1, .gn2 {
        fill: #b11e38;
      }

      .gn1, .gn2, .gn3 {
        font-family: Amiri-Bold, Amiri;
        font-weight: 700;
      }

      .gn1, .gn3 {
        font-size: 18.956px;
      }

      .gn4 {
        fill: #b4433d;
      }

      .gn4, .gn5, .gn6, .gn7, .gn8 {
        stroke-width: 0px;
      }

      .gn9 {
        letter-spacing: 0em;
      }

      .gn9, .gn10, .gn11, .gn12, .gn13, .gn14, .gn15, .gn16, .gn17, .gn18 {
        fill: #626363;
      }

      .gn10 {
        letter-spacing: 0em;
      }

      .gn11 {
        letter-spacing: -.008em;
      }

      .gn19 {
        font-size: 24.221px;
        opacity: .66;
      }

      .gn19, .gn20, .gn21 {
        isolation: isolate;
      }

      .gn19, .gn20, .gn21, .gn22 {
        font-family: Amiri-Regular, Amiri;
      }

      .gn19, .gn23, .gn3 {
        fill: #fff;
      }

      .gn24, .gn25 {
        fill: #636363;
      }

      .gn5 {
        fill: #b99439;
      }

      .gn26 {
        stroke: #545454;
        stroke-dasharray: 0 0 0 0 0 0 3.159 3.159 0 0 0 0;
        stroke-width: 2.106px;
      }

      .gn26, .gn27, .gn28, .gn29, .gn30, .gn31, .gn32, .gn33 {
        fill: none;
      }

      .gn34 {
        letter-spacing: 0em;
      }

      .gn35 {
        letter-spacing: -.012em;
      }

      .gn20 {
        fill: #040000;
        font-size: 14.111px;
      }

      .gn27 {
        stroke-width: 2.946px;
      }

      .gn27, .gn28, .gn29, .gn31, .gn32 {
        stroke: #6b6c6b;
      }

      .gn12 {
        letter-spacing: -.006em;
      }

      .gn6 {
        fill: #3a2a11;
      }

      .gn36 {
        letter-spacing: -.004em;
      }

      .gn25 {
        letter-spacing: -.004em;
      }

      .gn13 {
        letter-spacing: -.02em;
      }

      .gn28 {
        stroke-width: 1.961px;
      }

      .gn37 {
        letter-spacing: -.029em;
      }

      .gn7 {
        fill: #98bc98;
      }

      .gn29 {
        stroke-width: 2.167px;
      }

      .gn2 {
        font-size: 14.743px;
      }

      .gn14 {
        letter-spacing: -.009em;
      }

      .gn30, .gn23 {
        stroke-width: 4.98px;
      }

      .gn30, .gn23, .gn33 {
        stroke: #fff;
      }

      .gn21 {
        fill: #070001;
        font-size: 14.195px;
      }

      .gn22 {
        font-size: 13.69px;
      }

      .gn31 {
        stroke-width: 1.72px;
      }

      .gn16 {
        letter-spacing: -.005em;
      }

      .gn17 {
        letter-spacing: -.038em;
      }

      .gn32 {
        stroke-width: 2.219px;
      }

      .gn8 {
        fill: #f9efd1;
      }

      .gn38 {
        letter-spacing: -.005em;
      }

      .gn18 {
        letter-spacing: -.013em;
      }

      .gn33 {
        stroke-miterlimit: 10;
        stroke-width: 3.851px;
      }
    </style>
  </defs>
  <g id="Pathx">
    <line class="gn27" x1="55.354" y1="113.608" x2="517.281" y2="113.608"/>
    <line class="gn32" x1="56.471" y1="193.858" x2="456.781" y2="193.858"/>
    <line class="gn28" x1="56.072" y1="284.526" x2="368.567" y2="284.526"/>
    <line class="gn31" x1="55.735" y1="368.372" x2="296.226" y2="368.372"/>
    <line class="gn29" x1="52.808" y1="457.566" x2="434.602" y2="457.566"/>
  </g>
  <g id="Trackx">
    <rect class="gn4" x="1.066" y="60.958" width="701.682" height="429.056"/>
    <line class="gn30" x1=".011" y1="222.668" x2="703.104" y2="222.668"/>
    <line class="gn30" x1=".011" y1="139.286" x2="703.104" y2="139.286"/>
    <line class="gn30" x1=".011" y1="315.689" x2="703.104" y2="315.689"/>
    <line class="gn30" x1=".011" y1="404.468" x2="703.104" y2="404.468"/>
    <g id="endpointnotex">
      <text class="gn3" transform="translate(536.664 106.029)"><tspan x="0" y="0">1290.0 m</tspan></text>
      <text class="gn3" transform="translate(482.856 185.102)"><tspan x="0" y="0">1274.3 m</tspan></text>
      <text class="gn3" transform="translate(393.886 276.895)"><tspan x="0" y="0">1250.0 m</tspan></text>
      <text class="gn3" transform="translate(322.086 362.984)"><tspan x="0" y="0">1231.6 m</tspan></text>
      <text class="gn3" transform="translate(456.781 453.557)"><tspan x="0" y="0">1268.5 m</tspan></text>
    </g>
    <g id="endpoints22">
      <line class="gn33" x1="517.281" y1="78.661" x2="517.281" y2="122.81"/>
      <line class="gn33" x1="456.781" y1="158.235" x2="456.781" y2="202.385"/>
      <line class="gn33" x1="367.699" y1="249.429" x2="367.699" y2="293.578"/>
      <line class="gn33" x1="434.602" y1="426.788" x2="434.602" y2="471.876"/>
      <line class="gn33" x1="296.226" y1="335.997" x2="296.226" y2="380.147"/>
    </g>
  </g>
  <g id="axisssx">
    <path class="gn23" d="M52.194,60.958v429.056"/>
    <text class="gn19" transform="translate(644.916 105.61)"><tspan x="0" y="0">1999</tspan></text>
    <text class="gn19" transform="translate(644.916 186.17)"><tspan x="0" y="0">2003</tspan></text>
    <text class="gn19" transform="translate(644.916 279.368)"><tspan x="0" y="0">2005</tspan></text>
    <text class="gn19" transform="translate(644.916 367.3)"><tspan x="0" y="0">2010</tspan></text>
    <text class="gn19" transform="translate(644.916 457.445)"><tspan x="0" y="0">2015</tspan></text>
    <text class="gn2" transform="translate(632.074 550.898)"><tspan x="0" y="0">Distance </tspan><tspan class="gn35" x="58.913" y="0">(</tspan><tspan x="65.488" y="0">mete</tspan><tspan class="gn37" x="96.346" y="0">r</tspan><tspan x="102.375" y="0">)</tspan></text>
    <text class="gn2" transform="translate(646.513 43.195)"><tspan x="0" y="0">Gene</tspan><tspan class="gn38" x="32.213" y="0">r</tspan><tspan x="38.597" y="0">at</tspan><tspan class="gn36" x="50.288" y="0">i</tspan><tspan class="gn34" x="54.755" y="0">on</tspan></text>
    <text class="gn21" transform="translate(93.838 523.513)"><tspan x="0" y="0">1180</tspan></text>
    <text class="gn21" transform="translate(167.25 523.513)"><tspan x="0" y="0">1200</tspan></text>
    <text class="gn21" transform="translate(240.769 523.513)"><tspan x="0" y="0">1220</tspan></text>
    <text class="gn21" transform="translate(314.183 523.513)"><tspan x="0" y="0">1240</tspan></text>
    <text class="gn21" transform="translate(387.701 523.513)"><tspan x="0" y="0">1260</tspan></text>
    <text class="gn21" transform="translate(461.116 523.513)"><tspan x="0" y="0">1280</tspan></text>
    <text class="gn21" transform="translate(534.635 523.513)"><tspan x="0" y="0">1300</tspan></text>
    <text class="gn21" transform="translate(608.048 523.513)"><tspan x="0" y="0">1320</tspan></text>
    <text class="gn21" transform="translate(681.46 523.513)"><tspan x="0" y="0">1340</tspan></text>
  </g>
  <g id="GApppx">
    <line class="gn26" x1="434.602" y1="514.897" x2="434.602" y2="38.534"/>
    <text class="gn1" transform="translate(448.517 34.747)"><tspan x="0" y="0">21.5 m</tspan></text>
    <line class="gn26" x1="517.281" y1="510.823" x2="517.281" y2="37.621"/>
    <text class="gn20" transform="translate(465.045 11.614)"><tspan x="0" y="0">Gap</tspan></text>
  </g>
  <text class="gn22" transform="translate(0 561.761)"><tspan class="gn15" x="0" y="0">Sou</tspan><tspan class="gn11" x="20.384" y="0">r</tspan><tspan class="gn15" x="25.395" y="0">ce: P</tspan><tspan class="gn18" x="51.118" y="0">h</tspan><tspan class="gn16" x="57.826" y="0">y</tspan><tspan class="gn15" x="64.028" y="0">sical </tspan><tspan class="gn16" x="91.366" y="0">F</tspan><tspan class="gn10" x="98.444" y="0">itness </tspan><tspan class="gn12" x="132.887" y="0">S</tspan><tspan class="gn15" x="139.513" y="0">tatus of </tspan><tspan class="gn13" x="184.266" y="0">H</tspan><tspan class="gn10" x="193.684" y="0">ong </tspan><tspan class="gn17" x="217.819" y="0">K</tspan><tspan class="gn15" x="226.075" y="0">ong School Pupils, issued </tspan><tspan class="gn14" x="367.039" y="0">b</tspan><tspan class="gn9" x="373.569" y="0">y </tspan><tspan class="gn24" x="383.836" y="0">Education Bu</tspan><tspan class="gn25" x="457.324" y="0">r</tspan><tspan class="gn24" x="462.389" y="0">eau.</tspan></text>
  <g id="GIRL1">
    <path class="gn8" d="M34.051,84.456c0-.04-.01-.8.376-.816h0c-.013-.52-.064-1.02-.478-1.448-.081-.084-.118-.177-.122-.267-.002-.043-.021-.085-.054-.115-.156-.14-.319-.273-.487-.4-2.497-1.817-6.569-1.412-8.226.832-.291.398-.469.824-.595,1.252-.025.084-.112.138-.204.122-.115-.02-.2-.072-.289-.108-.768-.299-1.572-.394-2.413-.265-.53.077-1.06.18-1.581.282-1.59.317-3.016.094-4.286-.71-.194-.123-.356-.275-.554-.39-.151-.088-.333.059-.259.211h0c.503,1.061,1.362,1.865,2.769,2.302,1.389.428,2.723.197,4.058-.145.134-.034.267-.072.406-.104.196-.045.306.203.136.305-1.891,1.147-3.902,1.339-6.121.495-.171-.065-.326.124-.21.258.64.738,1.657,1.28,2.773,1.45,2.529.377,4.27-.501,5.601-2.056l.302.032c.097.186.182.346.266.51.426.798,1.075,1.482,2.015,1.946l.075.019c.168.011.327.074.456.197.016.015.029.031.043.048.098.005.195.035.275.093.017.012.036.023.056.029.13.04.272.496.399.547.309.124.078.185.578.144.042.014.307-.014.349,0,.446-.012.892-.075,1.334-.154.03-.005.059-.016.082-.035.071-.062.176-.081.287-.092.007-.008.015-.016.023-.023.035-.032.07-.064.106-.095.068-.058.076-.153.023-.224-.197-.265.051-.759.504-.676.38.07.772.097,1.162.083.01,0,.02-.002.031-.004.231-.047.466-.075.704-.088.04-.002.078-.016.108-.041.185-.154.372-.311.573-.438.014-.009.029-.017.043-.023.019-.028.039-.056.061-.084.006-.008.014-.015.02-.023.009-.083.044-.167.113-.245.087-.098.171-.196.253-.295.005-.006.009-.012.013-.019.027-.044.056-.088.085-.132.004-.092-.002-.185-.005-.278l-.047-.109c-.329-.342-.537-.768-.528-1.254ZM26.9,82.889c.004-.057.02-.089.052-.088l-.052.088ZM28.89,87.717c.013-.001.025-.003.038-.005.02.04.011.046-.038.005Z"/>
    <g>
      <path class="gn5" d="M17.054,107.485c-.252-.362-.503-.725-.716-1.11-.199-.36-.378-.746-.691-1.034-.046-.042-.079-.087-.101-.133-.035-.01-.071-.02-.108-.034-.539-.197-1.097-.128-1.563.188-.439.308-.576.685-.402,1.129.311.813.585,1.634.914,2.439.183.445.256.916.539,1.335.274.402.74.539,1.279.376.594-.171.868-.633.74-1.275-.124-.631-.063-1.193.268-1.658-.053-.075-.108-.149-.16-.224Z"/>
      <path class="gn5" d="M31.748,109.254c-.201-.402-.439-.796-.649-1.189-.187-.36-.214-.694-.095-1.003-.76-.646-1.531-1.281-2.29-1.928-.088.033-.188.038-.31.013-.704-.137-1.289.034-1.682.488-.43.488-.247.967.192,1.403.713.719,1.435,1.446,2.175,2.19h0c.32.334.603.659.923.967.439.419,1.133.411,1.563-.017.283-.282.347-.599.174-.924Z"/>
    </g>
    <path class="gn8" d="M17.712,97.153c.768.009,1.325-.265,1.746-.779.311-.385.247-.83.475-1.224.567-.958,1.078-1.934,1.709-2.866.311-.456.375-1.1,1.299-1.188-.145-.833-.245-1.669-.237-2.51-.697.051-1.392.12-2.086.19-.375.043-.594.171-.74.453-.786,1.54-1.599,3.063-2.385,4.603-.155.317-.393.548-.786.727-.804.359-1.069,1.129-.649,1.771.338.513.896.813,1.654.821Z"/>
    <path class="gn8" d="M40.383,88.587c-.256-.565-.749-.916-1.49-1.001s-1.389.111-1.81.599c-.402.471-.439.984-.027,1.472.165.197.192.368.046.573-.137.188-.219.385-.356.565-.43.573-.804,1.172-1.508,1.6-.094-.053-.188-.103-.282-.152-.537.708-1.016,1.451-1.446,2.219.333.179.667.356,1.006.526.978.488,1.736.411,2.522-.248.539-.453.932-.984,1.362-1.497.823-.984,1.435-2.036,1.837-3.157.174-.479.384-.975.146-1.497Z"/>
    <path class="gn8" d="M22.246,102.042c-.24.237-.559.423-1.037.516-.283.06-.539.171-.795.265-1.626.599-3.113,1.368-4.554,2.188.493.573.799,1.325,1.218,1.935.044.064.091.127.135.191.173-.104.371-.199.596-.284.073-.026.146-.06.219-.094,1.289-.582,2.641-1.052,4.003-1.523.923-.317,1.846-.642,2.632-1.155.484-.318.928-.66,1.346-1.019-1.277-.259-2.535-.604-3.764-1.02Z"/>
    <path class="gn8" d="M35.749,100.26c-.02-.011-.04-.023-.06-.034-1.105.615-2.237,1.187-3.352,1.787.092.037.183.075.277.113-.073.077-.11.12-.155.154-1.247.835-2.433,1.715-3.522,2.673.716.61,1.443,1.209,2.16,1.817.021-.016.041-.033.064-.049.42-.299.868-.582,1.307-.864,1.106-.71,2.23-1.395,3.327-2.113,1.563-1.035,1.663-2.516-.046-3.482Z"/>
    <path class="gn6" d="M35.112,99.061c-.037-.111-.165-.163-.274-.214-.515-.244-1.031-.489-1.551-.73-3.43-.105-6.861-.222-10.291-.058-.107.005-.194-.019-.262-.062-.862.849-1.897,1.623-3.103,2.323.877.522,1.791.83,2.723,1.172-.082.144-.157.29-.234.433,1.318.434,2.669.787,4.041,1.036.373-.361.73-.733,1.083-1.11.228-.248.411-.24.676-.043.439.325.914.625,1.343.95.256.197.475.214.749.034.448-.291.914-.573,1.362-.873.155-.111.329-.214.539-.128.131.052.262.104.393.157.028-.09.093-.174.205-.235,1.052-.572,2.122-1.113,3.174-1.685-.108-.061-.217-.12-.326-.179-.612-.334-.621-.325-.247-.787Z"/>
    <path class="gn7" d="M34.545,91.334c-1.216-.847-1.088-1.523-2.477-2.216-.088-.042-.235-.102-.405-.171-.088-.071-.175-.131-.259-.184-.804.159-1.62.313-2.437.319-.025.014-.051.026-.079.036-.158.081-.298.127-.421.095-.035-.01-.101-.04-.187-.084-.164-.032-.33-.089-.491-.159-.017-.004-.035-.006-.052-.01-.106-.024-.184-.071-.237-.132-.201-.111-.389-.236-.548-.36-.511-.219-1.029-.376-1.347-.274-.63-.027-1.266-.012-1.899.002-.128.009-.302-.026-.329.12-.055.257-.302.205-.512.214-.026.001-.052.003-.078.004-.011.86.095,1.713.246,2.563.636.02.693.128.901.882.073.257.219.334.548.342.42.009.832-.145,1.298-.026-.321,1.829-1.088,3.457-2.296,4.89,2.726-.11,5.452-.052,8.178.029-.014-.076-.002-.165.039-.273.183-.471.311-.958.439-1.437.119-.445.21-.89.311-1.326.256-.009.393.103.539.18.041.022.081.044.121.065.436-.778.921-1.531,1.467-2.248-.074-.056-.144-.114-.208-.179.146-.222.603-.359.174-.659Z"/>
  </g>
  <g id="GIRL2">
    <path class="gn8" d="M31.808,169.277c0-.04-.01-.8.376-.816h0c-.013-.52-.064-1.02-.478-1.448-.081-.084-.118-.177-.122-.267-.002-.043-.021-.085-.054-.115-.156-.14-.319-.273-.487-.4-2.497-1.817-6.569-1.412-8.226.832-.291.398-.469.824-.595,1.252-.025.084-.112.138-.204.122-.115-.02-.2-.072-.289-.108-.768-.299-1.572-.394-2.413-.265-.53.077-1.06.18-1.581.282-1.59.317-3.016.094-4.286-.71-.194-.123-.356-.275-.554-.39-.151-.088-.333.059-.259.211h0c.503,1.061,1.362,1.865,2.769,2.302,1.389.428,2.723.197,4.058-.145.134-.034.267-.072.406-.104.196-.045.306.203.136.305-1.891,1.147-3.902,1.339-6.121.495-.171-.065-.326.124-.21.258.64.738,1.657,1.28,2.773,1.45,2.529.377,4.27-.501,5.601-2.056l.302.032c.097.186.182.346.266.51.426.798,1.075,1.482,2.015,1.946l.075.019c.168.011.327.074.456.197.016.015.029.031.043.048.098.005.195.035.275.093.017.012.036.023.056.029.13.04.272.496.399.547.309.124.078.185.578.144.042.014.307-.014.349,0,.446-.012.892-.075,1.334-.154.03-.005.059-.016.082-.035.071-.062.176-.081.287-.092.007-.008.015-.016.023-.023.035-.032.07-.064.106-.095.068-.058.076-.153.023-.224-.197-.265.051-.759.504-.676.38.07.772.097,1.162.083.01,0,.02-.002.031-.004.231-.047.466-.075.704-.088.04-.002.078-.016.108-.041.185-.154.372-.311.573-.438.014-.009.029-.017.043-.023.019-.028.039-.056.061-.084.006-.008.014-.015.02-.023.009-.083.044-.167.113-.245.087-.098.171-.196.253-.295.005-.006.009-.012.013-.019.027-.044.056-.088.085-.132.004-.092-.002-.185-.005-.278l-.047-.109c-.329-.342-.537-.768-.528-1.254ZM24.658,167.71c.004-.057.02-.089.052-.088l-.052.088ZM26.648,172.538c.013-.001.025-.003.038-.005.02.04.011.046-.038.005Z"/>
    <g>
      <path class="gn5" d="M14.812,192.306c-.252-.362-.503-.725-.716-1.11-.199-.36-.378-.746-.691-1.034-.046-.042-.079-.087-.101-.133-.035-.01-.071-.02-.108-.034-.539-.197-1.097-.128-1.563.188-.439.308-.576.685-.402,1.129.311.813.585,1.634.914,2.439.183.445.256.916.539,1.335.274.402.74.539,1.279.376.594-.171.868-.633.74-1.275-.124-.631-.063-1.193.268-1.658-.053-.075-.108-.149-.16-.224Z"/>
      <path class="gn5" d="M29.505,194.075c-.201-.402-.439-.796-.649-1.189-.187-.36-.214-.694-.095-1.003-.76-.646-1.531-1.281-2.29-1.928-.088.033-.188.038-.31.013-.704-.137-1.289.034-1.682.488-.43.488-.247.967.192,1.403.713.719,1.435,1.446,2.175,2.19h0c.32.334.603.659.923.967.439.419,1.133.411,1.563-.017.283-.282.347-.599.174-.924Z"/>
    </g>
    <path class="gn8" d="M15.469,181.974c.768.009,1.325-.265,1.746-.779.311-.385.247-.83.475-1.224.567-.958,1.078-1.934,1.709-2.866.311-.456.375-1.1,1.299-1.188-.145-.833-.245-1.669-.237-2.51-.697.051-1.392.12-2.086.19-.375.043-.594.171-.74.453-.786,1.54-1.599,3.063-2.385,4.603-.155.317-.393.548-.786.727-.804.359-1.069,1.129-.649,1.771.338.513.896.813,1.654.821Z"/>
    <path class="gn8" d="M38.14,173.408c-.256-.565-.749-.916-1.49-1.001s-1.389.111-1.81.599c-.402.471-.439.984-.027,1.472.165.197.192.368.046.573-.137.188-.219.385-.356.565-.43.573-.804,1.172-1.508,1.6-.094-.053-.188-.103-.282-.152-.537.708-1.016,1.451-1.446,2.219.333.179.667.356,1.006.526.978.488,1.736.411,2.522-.248.539-.453.932-.984,1.362-1.497.823-.984,1.435-2.036,1.837-3.157.174-.479.384-.975.146-1.497Z"/>
    <path class="gn8" d="M20.003,186.863c-.24.237-.559.423-1.037.516-.283.06-.539.171-.795.265-1.626.599-3.113,1.368-4.554,2.188.493.573.799,1.325,1.218,1.935.044.064.091.127.135.191.173-.104.371-.199.596-.284.073-.026.146-.06.219-.094,1.289-.582,2.641-1.052,4.003-1.523.923-.317,1.846-.642,2.632-1.155.484-.318.928-.66,1.346-1.019-1.277-.259-2.535-.604-3.764-1.02Z"/>
    <path class="gn8" d="M33.507,185.081c-.02-.011-.04-.023-.06-.034-1.105.615-2.237,1.187-3.352,1.787.092.037.183.075.277.113-.073.077-.11.12-.155.154-1.247.835-2.433,1.715-3.522,2.673.716.61,1.443,1.209,2.16,1.817.021-.016.041-.033.064-.049.42-.299.868-.582,1.307-.864,1.106-.71,2.23-1.395,3.327-2.113,1.563-1.035,1.663-2.516-.046-3.482Z"/>
    <path class="gn6" d="M32.869,183.882c-.037-.111-.165-.163-.274-.214-.515-.244-1.031-.489-1.551-.73-3.43-.105-6.861-.222-10.291-.058-.107.005-.194-.019-.262-.062-.862.849-1.897,1.623-3.103,2.323.877.522,1.791.83,2.723,1.172-.082.144-.157.29-.234.433,1.318.434,2.669.787,4.041,1.036.373-.361.73-.733,1.083-1.11.228-.248.411-.24.676-.043.439.325.914.625,1.343.95.256.197.475.214.749.034.448-.291.914-.573,1.362-.873.155-.111.329-.214.539-.128.131.052.262.104.393.157.028-.09.093-.174.205-.235,1.052-.572,2.122-1.113,3.174-1.685-.108-.061-.217-.12-.326-.179-.612-.334-.621-.325-.247-.787Z"/>
    <path class="gn7" d="M32.302,176.155c-1.216-.847-1.088-1.523-2.477-2.216-.088-.042-.235-.102-.405-.171-.088-.071-.175-.131-.259-.184-.804.159-1.62.313-2.437.319-.025.014-.051.026-.079.036-.158.081-.298.127-.421.095-.035-.01-.101-.04-.187-.084-.164-.032-.33-.089-.491-.159-.017-.004-.035-.006-.052-.01-.106-.024-.184-.071-.237-.132-.201-.111-.389-.236-.548-.36-.511-.219-1.029-.376-1.347-.274-.63-.027-1.266-.012-1.899.002-.128.009-.302-.026-.329.12-.055.257-.302.205-.512.214-.026.001-.052.003-.078.004-.011.86.095,1.713.246,2.563.636.02.693.128.901.882.073.257.219.334.548.342.42.009.832-.145,1.298-.026-.321,1.829-1.088,3.457-2.296,4.89,2.726-.11,5.452-.052,8.178.029-.014-.076-.002-.165.039-.273.183-.471.311-.958.439-1.437.119-.445.21-.89.311-1.326.256-.009.393.103.539.18.041.022.081.044.121.065.436-.778.921-1.531,1.467-2.248-.074-.056-.144-.114-.208-.179.146-.222.603-.359.174-.659Z"/>
  </g>
  <g id="GIRL3">
    <path class="gn8" d="M31.331,260.47c0-.04-.01-.8.376-.816h0c-.013-.52-.064-1.02-.478-1.448-.081-.084-.118-.177-.122-.267-.002-.043-.021-.085-.054-.115-.156-.14-.319-.273-.487-.4-2.497-1.817-6.569-1.412-8.226.832-.291.398-.469.824-.595,1.252-.025.084-.112.138-.204.122-.115-.02-.2-.072-.289-.108-.768-.299-1.572-.394-2.413-.265-.53.077-1.06.18-1.581.282-1.59.317-3.016.094-4.286-.71-.194-.123-.356-.275-.554-.39-.151-.088-.333.059-.259.211h0c.503,1.061,1.362,1.865,2.769,2.302,1.389.428,2.723.197,4.058-.145.134-.034.267-.072.406-.104.196-.045.306.203.136.305-1.891,1.147-3.902,1.339-6.121.495-.171-.065-.326.124-.21.258.64.738,1.657,1.28,2.773,1.45,2.529.377,4.27-.501,5.601-2.056l.302.032c.097.186.182.346.266.51.426.798,1.075,1.482,2.015,1.946l.075.019c.168.011.327.074.456.197.016.015.029.031.043.048.098.005.195.035.275.093.017.012.036.023.056.029.13.04.272.496.399.547.309.124.078.185.578.144.042.014.307-.014.349,0,.446-.012.892-.075,1.334-.154.03-.005.059-.016.082-.035.071-.062.176-.081.287-.092.007-.008.015-.016.023-.023.035-.032.07-.064.106-.095.068-.058.076-.153.023-.224-.197-.265.051-.759.504-.676.38.07.772.097,1.162.083.01,0,.02-.002.031-.004.231-.047.466-.075.704-.088.04-.002.078-.016.108-.041.185-.154.372-.311.573-.438.014-.009.029-.017.043-.023.019-.028.039-.056.061-.084.006-.008.014-.015.02-.023.009-.083.044-.167.113-.245.087-.098.171-.196.253-.295.005-.006.009-.012.013-.019.027-.044.056-.088.085-.132.004-.092-.002-.185-.005-.278l-.047-.109c-.329-.342-.537-.768-.528-1.254ZM24.18,258.904c.004-.057.02-.089.052-.088l-.052.088ZM26.17,263.731c.013-.001.025-.003.038-.005.02.04.011.046-.038.005Z"/>
    <g>
      <path class="gn5" d="M14.334,283.5c-.252-.362-.503-.725-.716-1.11-.199-.36-.378-.746-.691-1.034-.046-.042-.079-.087-.101-.133-.035-.01-.071-.02-.108-.034-.539-.197-1.097-.128-1.563.188-.439.308-.576.685-.402,1.129.311.813.585,1.634.914,2.439.183.445.256.916.539,1.335.274.402.74.539,1.279.376.594-.171.868-.633.74-1.275-.124-.631-.063-1.193.268-1.658-.053-.075-.108-.149-.16-.224Z"/>
      <path class="gn5" d="M29.027,285.269c-.201-.402-.439-.796-.649-1.189-.187-.36-.214-.694-.095-1.003-.76-.646-1.531-1.281-2.29-1.928-.088.033-.188.038-.31.013-.704-.137-1.289.034-1.682.488-.43.488-.247.967.192,1.403.713.719,1.435,1.446,2.175,2.19h0c.32.334.603.659.923.967.439.419,1.133.411,1.563-.017.283-.282.347-.599.174-.924Z"/>
    </g>
    <path class="gn8" d="M14.991,273.167c.768.009,1.325-.265,1.746-.779.311-.385.247-.83.475-1.224.567-.958,1.078-1.934,1.709-2.866.311-.456.375-1.1,1.299-1.188-.145-.833-.245-1.669-.237-2.51-.697.051-1.392.12-2.086.19-.375.043-.594.171-.74.453-.786,1.54-1.599,3.063-2.385,4.603-.155.317-.393.548-.786.727-.804.359-1.069,1.129-.649,1.771.338.513.896.813,1.654.821Z"/>
    <path class="gn8" d="M37.662,264.602c-.256-.565-.749-.916-1.49-1.001s-1.389.111-1.81.599c-.402.471-.439.984-.027,1.472.165.197.192.368.046.573-.137.188-.219.385-.356.565-.43.573-.804,1.172-1.508,1.6-.094-.053-.188-.103-.282-.152-.537.708-1.016,1.451-1.446,2.219.333.179.667.356,1.006.526.978.488,1.736.411,2.522-.248.539-.453.932-.984,1.362-1.497.823-.984,1.435-2.036,1.837-3.157.174-.479.384-.975.146-1.497Z"/>
    <path class="gn8" d="M19.526,278.056c-.24.237-.559.423-1.037.516-.283.06-.539.171-.795.265-1.626.599-3.113,1.368-4.554,2.188.493.573.799,1.325,1.218,1.935.044.064.091.127.135.191.173-.104.371-.199.596-.284.073-.026.146-.06.219-.094,1.289-.582,2.641-1.052,4.003-1.523.923-.317,1.846-.642,2.632-1.155.484-.318.928-.66,1.346-1.019-1.277-.259-2.535-.604-3.764-1.02Z"/>
    <path class="gn8" d="M33.029,276.274c-.02-.011-.04-.023-.06-.034-1.105.615-2.237,1.187-3.352,1.787.092.037.183.075.277.113-.073.077-.11.12-.155.154-1.247.835-2.433,1.715-3.522,2.673.716.61,1.443,1.209,2.16,1.817.021-.016.041-.033.064-.049.42-.299.868-.582,1.307-.864,1.106-.71,2.23-1.395,3.327-2.113,1.563-1.035,1.663-2.516-.046-3.482Z"/>
    <path class="gn6" d="M32.391,275.075c-.037-.111-.165-.163-.274-.214-.515-.244-1.031-.489-1.551-.73-3.43-.105-6.861-.222-10.291-.058-.107.005-.194-.019-.262-.062-.862.849-1.897,1.623-3.103,2.323.877.522,1.791.83,2.723,1.172-.082.144-.157.29-.234.433,1.318.434,2.669.787,4.041,1.036.373-.361.73-.733,1.083-1.11.228-.248.411-.24.676-.043.439.325.914.625,1.343.95.256.197.475.214.749.034.448-.291.914-.573,1.362-.873.155-.111.329-.214.539-.128.131.052.262.104.393.157.028-.09.093-.174.205-.235,1.052-.572,2.122-1.113,3.174-1.685-.108-.061-.217-.12-.326-.179-.612-.334-.621-.325-.247-.787Z"/>
    <path class="gn7" d="M31.825,267.349c-1.216-.847-1.088-1.523-2.477-2.216-.088-.042-.235-.102-.405-.171-.088-.071-.175-.131-.259-.184-.804.159-1.62.313-2.437.319-.025.014-.051.026-.079.036-.158.081-.298.127-.421.095-.035-.01-.101-.04-.187-.084-.164-.032-.33-.089-.491-.159-.017-.004-.035-.006-.052-.01-.106-.024-.184-.071-.237-.132-.201-.111-.389-.236-.548-.36-.511-.219-1.029-.376-1.347-.274-.63-.027-1.266-.012-1.899.002-.128.009-.302-.026-.329.12-.055.257-.302.205-.512.214-.026.001-.052.003-.078.004-.011.86.095,1.713.246,2.563.636.02.693.128.901.882.073.257.219.334.548.342.42.009.832-.145,1.298-.026-.321,1.829-1.088,3.457-2.296,4.89,2.726-.11,5.452-.052,8.178.029-.014-.076-.002-.165.039-.273.183-.471.311-.958.439-1.437.119-.445.21-.89.311-1.326.256-.009.393.103.539.18.041.022.081.044.121.065.436-.778.921-1.531,1.467-2.248-.074-.056-.144-.114-.208-.179.146-.222.603-.359.174-.659Z"/>
  </g>
  <g id="GIRL4">
    <path class="gn8" d="M30.855,342.039c0-.04-.01-.8.376-.816h0c-.013-.52-.064-1.02-.478-1.448-.081-.084-.118-.177-.122-.267-.002-.043-.021-.085-.054-.115-.156-.14-.319-.273-.487-.4-2.497-1.817-6.569-1.412-8.226.832-.291.398-.469.824-.595,1.252-.025.084-.112.138-.204.122-.115-.02-.2-.072-.289-.108-.768-.299-1.572-.394-2.413-.265-.53.077-1.06.18-1.581.282-1.59.317-3.016.094-4.286-.71-.194-.123-.356-.275-.554-.39-.151-.088-.333.059-.259.211h0c.503,1.061,1.362,1.865,2.769,2.302,1.389.428,2.723.197,4.058-.145.134-.034.267-.072.406-.104.196-.045.306.203.136.305-1.891,1.147-3.902,1.339-6.121.495-.171-.065-.326.124-.21.258.64.738,1.657,1.28,2.773,1.45,2.529.377,4.27-.501,5.601-2.056l.302.032c.097.186.182.346.266.51.426.798,1.075,1.482,2.015,1.946l.075.019c.168.011.327.074.456.197.016.015.029.031.043.048.098.005.195.035.275.093.017.012.036.023.056.029.13.04.272.496.399.547.309.124.078.185.578.144.042.014.307-.014.349,0,.446-.012.892-.075,1.334-.154.03-.005.059-.016.082-.035.071-.062.176-.081.287-.092.007-.008.015-.016.023-.023.035-.032.07-.064.106-.095.068-.058.076-.153.023-.224-.197-.265.051-.759.504-.676.38.07.772.097,1.162.083.01,0,.02-.002.031-.004.231-.047.466-.075.704-.088.04-.002.078-.016.108-.041.185-.154.372-.311.573-.438.014-.009.029-.017.043-.023.019-.028.039-.056.061-.084.006-.008.014-.015.02-.023.009-.083.044-.167.113-.245.087-.098.171-.196.253-.295.005-.006.009-.012.013-.019.027-.044.056-.088.085-.132.004-.092-.002-.185-.005-.278l-.047-.109c-.329-.342-.537-.768-.528-1.254ZM23.704,340.472c.004-.057.02-.089.052-.088l-.052.088ZM25.694,345.3c.013-.001.025-.003.038-.005.02.04.011.046-.038.005Z"/>
    <g>
      <path class="gn5" d="M13.858,365.068c-.252-.362-.503-.725-.716-1.11-.199-.36-.378-.746-.691-1.034-.046-.042-.079-.087-.101-.133-.035-.01-.071-.02-.108-.034-.539-.197-1.097-.128-1.563.188-.439.308-.576.685-.402,1.129.311.813.585,1.634.914,2.439.183.445.256.916.539,1.335.274.402.74.539,1.279.376.594-.171.868-.633.74-1.275-.124-.631-.063-1.193.268-1.658-.053-.075-.108-.149-.16-.224Z"/>
      <path class="gn5" d="M28.551,366.837c-.201-.402-.439-.796-.649-1.189-.187-.36-.214-.694-.095-1.003-.76-.646-1.531-1.281-2.29-1.928-.088.033-.188.038-.31.013-.704-.137-1.289.034-1.682.488-.43.488-.247.967.192,1.403.713.719,1.435,1.446,2.175,2.19h0c.32.334.603.659.923.967.439.419,1.133.411,1.563-.017.283-.282.347-.599.174-.924Z"/>
    </g>
    <path class="gn8" d="M14.515,354.736c.768.009,1.325-.265,1.746-.779.311-.385.247-.83.475-1.224.567-.958,1.078-1.934,1.709-2.866.311-.456.375-1.1,1.299-1.188-.145-.833-.245-1.669-.237-2.51-.697.051-1.392.12-2.086.19-.375.043-.594.171-.74.453-.786,1.54-1.599,3.063-2.385,4.603-.155.317-.393.548-.786.727-.804.359-1.069,1.129-.649,1.771.338.513.896.813,1.654.821Z"/>
    <path class="gn8" d="M37.186,346.17c-.256-.565-.749-.916-1.49-1.001s-1.389.111-1.81.599c-.402.471-.439.984-.027,1.472.165.197.192.368.046.573-.137.188-.219.385-.356.565-.43.573-.804,1.172-1.508,1.6-.094-.053-.188-.103-.282-.152-.537.708-1.016,1.451-1.446,2.219.333.179.667.356,1.006.526.978.488,1.736.411,2.522-.248.539-.453.932-.984,1.362-1.497.823-.984,1.435-2.036,1.837-3.157.174-.479.384-.975.146-1.497Z"/>
    <path class="gn8" d="M19.05,359.625c-.24.237-.559.423-1.037.516-.283.06-.539.171-.795.265-1.626.599-3.113,1.368-4.554,2.188.493.573.799,1.325,1.218,1.935.044.064.091.127.135.191.173-.104.371-.199.596-.284.073-.026.146-.06.219-.094,1.289-.582,2.641-1.052,4.003-1.523.923-.317,1.846-.642,2.632-1.155.484-.318.928-.66,1.346-1.019-1.277-.259-2.535-.604-3.764-1.02Z"/>
    <path class="gn8" d="M32.553,357.843c-.02-.011-.04-.023-.06-.034-1.105.615-2.237,1.187-3.352,1.787.092.037.183.075.277.113-.073.077-.11.12-.155.154-1.247.835-2.433,1.715-3.522,2.673.716.61,1.443,1.209,2.16,1.817.021-.016.041-.033.064-.049.42-.299.868-.582,1.307-.864,1.106-.71,2.23-1.395,3.327-2.113,1.563-1.035,1.663-2.516-.046-3.482Z"/>
    <path class="gn6" d="M31.915,356.644c-.037-.111-.165-.163-.274-.214-.515-.244-1.031-.489-1.551-.73-3.43-.105-6.861-.222-10.291-.058-.107.005-.194-.019-.262-.062-.862.849-1.897,1.623-3.103,2.323.877.522,1.791.83,2.723,1.172-.082.144-.157.29-.234.433,1.318.434,2.669.787,4.041,1.036.373-.361.73-.733,1.083-1.11.228-.248.411-.24.676-.043.439.325.914.625,1.343.95.256.197.475.214.749.034.448-.291.914-.573,1.362-.873.155-.111.329-.214.539-.128.131.052.262.104.393.157.028-.09.093-.174.205-.235,1.052-.572,2.122-1.113,3.174-1.685-.108-.061-.217-.12-.326-.179-.612-.334-.621-.325-.247-.787Z"/>
    <path class="gn7" d="M31.349,348.917c-1.216-.847-1.088-1.523-2.477-2.216-.088-.042-.235-.102-.405-.171-.088-.071-.175-.131-.259-.184-.804.159-1.62.313-2.437.319-.025.014-.051.026-.079.036-.158.081-.298.127-.421.095-.035-.01-.101-.04-.187-.084-.164-.032-.33-.089-.491-.159-.017-.004-.035-.006-.052-.01-.106-.024-.184-.071-.237-.132-.201-.111-.389-.236-.548-.36-.511-.219-1.029-.376-1.347-.274-.63-.027-1.266-.012-1.899.002-.128.009-.302-.026-.329.12-.055.257-.302.205-.512.214-.026.001-.052.003-.078.004-.011.86.095,1.713.246,2.563.636.02.693.128.901.882.073.257.219.334.548.342.42.009.832-.145,1.298-.026-.321,1.829-1.088,3.457-2.296,4.89,2.726-.11,5.452-.052,8.178.029-.014-.076-.002-.165.039-.273.183-.471.311-.958.439-1.437.119-.445.21-.89.311-1.326.256-.009.393.103.539.18.041.022.081.044.121.065.436-.778.921-1.531,1.467-2.248-.074-.056-.144-.114-.208-.179.146-.222.603-.359.174-.659Z"/>
  </g>
  <g id="GIRL5">
    <path class="gn8" d="M29.851,431.176c0-.04-.01-.8.376-.816h0c-.013-.52-.064-1.02-.478-1.448-.081-.084-.118-.177-.122-.267-.002-.043-.021-.085-.054-.115-.156-.14-.319-.273-.487-.4-2.497-1.817-6.569-1.412-8.226.832-.291.398-.469.824-.595,1.252-.025.084-.112.138-.204.122-.115-.02-.2-.072-.289-.108-.768-.299-1.572-.394-2.413-.265-.53.077-1.06.18-1.581.282-1.59.317-3.016.094-4.286-.71-.194-.123-.356-.275-.554-.39-.151-.088-.333.059-.259.211h0c.503,1.061,1.362,1.865,2.769,2.302,1.389.428,2.723.197,4.058-.145.134-.034.267-.072.406-.104.196-.045.306.203.136.305-1.891,1.147-3.902,1.339-6.121.495-.171-.065-.326.124-.21.258.64.738,1.657,1.28,2.773,1.45,2.529.377,4.27-.501,5.601-2.056l.302.032c.097.186.182.346.266.51.426.798,1.075,1.482,2.015,1.946l.075.019c.168.011.327.074.456.197.016.015.029.031.043.048.098.005.195.035.275.093.017.012.036.023.056.029.13.04.272.496.399.547.309.124.078.185.578.144.042.014.307-.014.349,0,.446-.012.892-.075,1.334-.154.03-.005.059-.016.082-.035.071-.062.176-.081.287-.092.007-.008.015-.016.023-.023.035-.032.07-.064.106-.095.068-.058.076-.153.023-.224-.197-.265.051-.759.504-.676.38.07.772.097,1.162.083.01,0,.02-.002.031-.004.231-.047.466-.075.704-.088.04-.002.078-.016.108-.041.185-.154.372-.311.573-.438.014-.009.029-.017.043-.023.019-.028.039-.056.061-.084.006-.008.014-.015.02-.023.009-.083.044-.167.113-.245.087-.098.171-.196.253-.295.005-.006.009-.012.013-.019.027-.044.056-.088.085-.132.004-.092-.002-.185-.005-.278l-.047-.109c-.329-.342-.537-.768-.528-1.254ZM22.7,429.61c.004-.057.02-.089.052-.088l-.052.088ZM24.69,434.437c.013-.001.025-.003.038-.005.02.04.011.046-.038.005Z"/>
    <g>
      <path class="gn5" d="M12.854,454.206c-.252-.362-.503-.725-.716-1.11-.199-.36-.378-.746-.691-1.034-.046-.042-.079-.087-.101-.133-.035-.01-.071-.02-.108-.034-.539-.197-1.097-.128-1.563.188-.439.308-.576.685-.402,1.129.311.813.585,1.634.914,2.439.183.445.256.916.539,1.335.274.402.74.539,1.279.376.594-.171.868-.633.74-1.275-.124-.631-.063-1.193.268-1.658-.053-.075-.108-.149-.16-.224Z"/>
      <path class="gn5" d="M27.547,455.975c-.201-.402-.439-.796-.649-1.189-.187-.36-.214-.694-.095-1.003-.76-.646-1.531-1.281-2.29-1.928-.088.033-.188.038-.31.013-.704-.137-1.289.034-1.682.488-.43.488-.247.967.192,1.403.713.719,1.435,1.446,2.175,2.19h0c.32.334.603.659.923.967.439.419,1.133.411,1.563-.017.283-.282.347-.599.174-.924Z"/>
    </g>
    <path class="gn8" d="M13.511,443.873c.768.009,1.325-.265,1.746-.779.311-.385.247-.83.475-1.224.567-.958,1.078-1.934,1.709-2.866.311-.456.375-1.1,1.299-1.188-.145-.833-.245-1.669-.237-2.51-.697.051-1.392.12-2.086.19-.375.043-.594.171-.74.453-.786,1.54-1.599,3.063-2.385,4.603-.155.317-.393.548-.786.727-.804.359-1.069,1.129-.649,1.771.338.513.896.813,1.654.821Z"/>
    <path class="gn8" d="M36.182,435.308c-.256-.565-.749-.916-1.49-1.001s-1.389.111-1.81.599c-.402.471-.439.984-.027,1.472.165.197.192.368.046.573-.137.188-.219.385-.356.565-.43.573-.804,1.172-1.508,1.6-.094-.053-.188-.103-.282-.152-.537.708-1.016,1.451-1.446,2.219.333.179.667.356,1.006.526.978.488,1.736.411,2.522-.248.539-.453.932-.984,1.362-1.497.823-.984,1.435-2.036,1.837-3.157.174-.479.384-.975.146-1.497Z"/>
    <path class="gn8" d="M18.046,448.762c-.24.237-.559.423-1.037.516-.283.06-.539.171-.795.265-1.626.599-3.113,1.368-4.554,2.188.493.573.799,1.325,1.218,1.935.044.064.091.127.135.191.173-.104.371-.199.596-.284.073-.026.146-.06.219-.094,1.289-.582,2.641-1.052,4.003-1.523.923-.317,1.846-.642,2.632-1.155.484-.318.928-.66,1.346-1.019-1.277-.259-2.535-.604-3.764-1.02Z"/>
    <path class="gn8" d="M31.549,446.98c-.02-.011-.04-.023-.06-.034-1.105.615-2.237,1.187-3.352,1.787.092.037.183.075.277.113-.073.077-.11.12-.155.154-1.247.835-2.433,1.715-3.522,2.673.716.61,1.443,1.209,2.16,1.817.021-.016.041-.033.064-.049.42-.299.868-.582,1.307-.864,1.106-.71,2.23-1.395,3.327-2.113,1.563-1.035,1.663-2.516-.046-3.482Z"/>
    <path class="gn6" d="M30.911,445.781c-.037-.111-.165-.163-.274-.214-.515-.244-1.031-.489-1.551-.73-3.43-.105-6.861-.222-10.291-.058-.107.005-.194-.019-.262-.062-.862.849-1.897,1.623-3.103,2.323.877.522,1.791.83,2.723,1.172-.082.144-.157.29-.234.433,1.318.434,2.669.787,4.041,1.036.373-.361.73-.733,1.083-1.11.228-.248.411-.24.676-.043.439.325.914.625,1.343.95.256.197.475.214.749.034.448-.291.914-.573,1.362-.873.155-.111.329-.214.539-.128.131.052.262.104.393.157.028-.09.093-.174.205-.235,1.052-.572,2.122-1.113,3.174-1.685-.108-.061-.217-.12-.326-.179-.612-.334-.621-.325-.247-.787Z"/>
    <path class="gn7" d="M30.345,438.055c-1.216-.847-1.088-1.523-2.477-2.216-.088-.042-.235-.102-.405-.171-.088-.071-.175-.131-.259-.184-.804.159-1.62.313-2.437.319-.025.014-.051.026-.079.036-.158.081-.298.127-.421.095-.035-.01-.101-.04-.187-.084-.164-.032-.33-.089-.491-.159-.017-.004-.035-.006-.052-.01-.106-.024-.184-.071-.237-.132-.201-.111-.389-.236-.548-.36-.511-.219-1.029-.376-1.347-.274-.63-.027-1.266-.012-1.899.002-.128.009-.302-.026-.329.12-.055.257-.302.205-.512.214-.026.001-.052.003-.078.004-.011.86.095,1.713.246,2.563.636.02.693.128.901.882.073.257.219.334.548.342.42.009.832-.145,1.298-.026-.321,1.829-1.088,3.457-2.296,4.89,2.726-.11,5.452-.052,8.178.029-.014-.076-.002-.165.039-.273.183-.471.311-.958.439-1.437.119-.445.21-.89.311-1.326.256-.009.393.103.539.18.041.022.081.044.121.065.436-.778.921-1.531,1.467-2.248-.074-.056-.144-.114-.208-.179.146-.222.603-.359.174-.659Z"/>
  </g>
</svg>