<?xml version="1.0" encoding="UTF-8"?>
<svg id="9-minutenew_boy" data-name="9-minutenew_boy" xmlns="http://www.w3.org/2000/svg" viewBox="0 0 741.2 565.63">
  <defs>
    <style>
      .cls-1, .cls-2 {
        fill: #b11e38;
      }

      .cls-1, .cls-2, .cls-3 {
        font-family: Amiri-Bold, Amiri;
        font-weight: 700;
      }

      .cls-1, .cls-3 {
        font-size: 18.96px;
      }

      .cls-4 {
        fill: #b4433d;
      }

      .cls-4, .cls-5, .cls-6, .cls-7, .cls-8, .cls-9, .cls-10 {
        stroke-width: 0px;
      }

      .cls-5 {
        fill: #bf9938;
      }

      .cls-11 {
        letter-spacing: 0em;
      }

      .cls-11, .cls-12, .cls-13, .cls-14, .cls-15, .cls-16, .cls-17, .cls-18, .cls-19, .cls-20 {
        fill: #626363;
      }

      .cls-12 {
        letter-spacing: 0em;
      }

      .cls-13 {
        letter-spacing: 0em;
      }

      .cls-21 {
        font-size: 24.22px;
        opacity: .66;
      }

      .cls-21, .cls-22 {
        isolation: isolate;
      }

      .cls-21, .cls-22, .cls-23 {
        font-family: Amiri-Regular, Amiri;
      }

      .cls-21, .cls-24, .cls-3 {
        fill: #fff;
      }

      .cls-6 {
        fill: #2c2716;
      }

      .cls-7 {
        fill: #cdc4a5;
      }

      .cls-25, .cls-26 {
        fill: #636363;
      }

      .cls-27 {
        stroke: #545454;
        stroke-dasharray: 0 0 0 0 0 0 3.16 3.16 0 0 0 0;
        stroke-width: 2.11px;
      }

      .cls-27, .cls-28, .cls-29, .cls-30, .cls-31, .cls-32, .cls-33, .cls-34 {
        fill: none;
      }

      .cls-35 {
        letter-spacing: 0em;
      }

      .cls-36 {
        letter-spacing: -.01em;
      }

      .cls-28 {
        stroke-width: 2.84px;
      }

      .cls-28, .cls-29, .cls-30, .cls-31, .cls-33 {
        stroke: #6b6c6b;
      }

      .cls-22 {
        fill: #040000;
        font-size: 14.11px;
      }

      .cls-29 {
        stroke-width: 1.92px;
      }

      .cls-14 {
        letter-spacing: 0em;
      }

      .cls-8 {
        fill: #9cc29c;
      }

      .cls-37 {
        letter-spacing: 0em;
      }

      .cls-26 {
        letter-spacing: 0em;
      }

      .cls-15 {
        letter-spacing: -.02em;
      }

      .cls-30 {
        stroke-width: 1.96px;
      }

      .cls-9 {
        fill: #fcf3d4;
      }

      .cls-38 {
        letter-spacing: -.03em;
      }

      .cls-2 {
        font-size: 14.74px;
      }

      .cls-31 {
        stroke-width: 1.79px;
      }

      .cls-16 {
        letter-spacing: 0em;
      }

      .cls-32, .cls-24 {
        stroke-width: 4.98px;
      }

      .cls-32, .cls-24, .cls-34 {
        stroke: #fff;
      }

      .cls-10 {
        fill: #896626;
      }

      .cls-33 {
        stroke-width: 1.74px;
      }

      .cls-34 {
        stroke-miterlimit: 10;
        stroke-width: 4.32px;
      }

      .cls-23 {
        font-size: 13.69px;
      }

      .cls-18 {
        letter-spacing: 0em;
      }

      .cls-19 {
        letter-spacing: -.04em;
      }

      .cls-39 {
        letter-spacing: 0em;
      }

      .cls-20 {
        letter-spacing: -.01em;
      }
    </style>
  </defs>
  <g id="Path">
    <line class="cls-28" x1="44.82" y1="89.76" x2="475.05" y2="89.76"/>
    <line class="cls-29" x1="44.82" y1="182.96" x2="344.57" y2="182.96"/>
    <line class="cls-30" x1="44.82" y1="276.26" x2="357.32" y2="276.26"/>
    <line class="cls-31" x1="44.82" y1="369.46" x2="304.24" y2="369.46"/>
    <line class="cls-33" x1="44.82" y1="462.66" x2="291.18" y2="462.66"/>
  </g>
  <g id="Track">
    <rect class="cls-4" x="1.07" y="52.51" width="701.68" height="429.06"/>
    <line class="cls-32" x1=".01" y1="214.22" x2="703.1" y2="214.22"/>
    <line class="cls-32" x1=".01" y1="130.84" x2="703.1" y2="130.84"/>
    <line class="cls-32" x1=".01" y1="307.24" x2="703.1" y2="307.24"/>
    <line class="cls-32" x1=".01" y1="396.02" x2="703.1" y2="396.02"/>
    <g id="endpointnote">
      <text class="cls-3" transform="translate(508.79 96)"><tspan x="0" y="0">1589.9 m</tspan></text>
      <text class="cls-3" transform="translate(384.78 178.35)"><tspan x="0" y="0">1550.6 m</tspan></text>
      <text class="cls-3" transform="translate(395.73 264.29)"><tspan x="0" y="0">1519.7 m</tspan></text>
      <text class="cls-3" transform="translate(337.16 356.57)"><tspan x="0" y="0">1470.5 m</tspan></text>
      <text class="cls-3" transform="translate(331.18 447.44)"><tspan x="0" y="0">1468.8 m</tspan></text>
    </g>
    <g id="endpoints">
      <line class="cls-34" x1="475.05" y1="65.81" x2="475.05" y2="115.3"/>
      <line class="cls-34" x1="344.57" y1="147.84" x2="344.57" y2="197.34"/>
      <line class="cls-34" x1="357.32" y1="234.41" x2="357.32" y2="283.9"/>
      <line class="cls-34" x1="304.24" y1="325.5" x2="304.24" y2="374.99"/>
      <line class="cls-34" x1="291.18" y1="415.22" x2="291.18" y2="464.72"/>
    </g>
  </g>
  <g id="axisssssss">
    <path class="cls-24" d="M52.19,52.51v429.06"/>
    <text class="cls-22" transform="translate(100.08 515.32)"><tspan x="0" y="0">1350</tspan></text>
    <text class="cls-22" transform="translate(173.05 515.32)"><tspan x="0" y="0">1400</tspan></text>
    <text class="cls-22" transform="translate(246.14 515.32)"><tspan x="0" y="0">1450</tspan></text>
    <text class="cls-22" transform="translate(319.12 515.32)"><tspan x="0" y="0">1500</tspan></text>
    <text class="cls-22" transform="translate(392.2 515.32)"><tspan x="0" y="0">1550</tspan></text>
    <text class="cls-22" transform="translate(684.22 515.32)"><tspan x="0" y="0">1750</tspan></text>
    <text class="cls-22" transform="translate(465.18 515.32)"><tspan x="0" y="0">1600</tspan></text>
    <text class="cls-22" transform="translate(538.26 515.32)"><tspan x="0" y="0">1650</tspan></text>
    <text class="cls-22" transform="translate(611.24 515.32)"><tspan x="0" y="0">1700</tspan></text>
    <text class="cls-21" transform="translate(644.92 97.16)"><tspan x="0" y="0">1999</tspan></text>
    <text class="cls-21" transform="translate(644.92 177.72)"><tspan x="0" y="0">2003</tspan></text>
    <text class="cls-21" transform="translate(644.92 270.92)"><tspan x="0" y="0">2005</tspan></text>
    <text class="cls-21" transform="translate(644.92 358.85)"><tspan x="0" y="0">2010</tspan></text>
    <text class="cls-21" transform="translate(644.92 449)"><tspan x="0" y="0">2015</tspan></text>
    <text class="cls-2" transform="translate(632.07 542.45)"><tspan x="0" y="0">Distance </tspan><tspan class="cls-36" x="58.91" y="0">(</tspan><tspan x="65.49" y="0">mete</tspan><tspan class="cls-38" x="96.35" y="0">r</tspan><tspan x="102.38" y="0">)</tspan></text>
    <text class="cls-2" transform="translate(646.51 34.75)"><tspan x="0" y="0">Gene</tspan><tspan class="cls-39" x="32.21" y="0">r</tspan><tspan x="38.6" y="0">at</tspan><tspan class="cls-37" x="50.29" y="0">i</tspan><tspan class="cls-35" x="54.75" y="0">on</tspan></text>
  </g>
  <g id="BOYY1">
    <path class="cls-9" d="M21.79,94.69c-1.02.02-1.75.48-2.78.5-.11,0-.23.13-.31.14-.04,0-.09.02-.12.05-.15.12-.3.24-.43.38-.28.28-.51.6-.81.85-.74.6-1.51,1.19-2.28,1.74-.43.3-.89.55-1.34.81h.04c-.52.38-.57.93-.54,1.54,0,.05.02.1.04.14.25.41.65.47,1.08.57.03,0,.05,0,.08,0,.05,0,.09,0,.14-.02.09-.01.17-.07.22-.15.51-.82,1.26-1.31,2.08-1.7.69-.33,1.45-.76,2.16-.73.91.03,1.43-.32,1.92-.93.67-.84,1.37-1.68,2.05-2.53,0,0,0,0,0,0,.11-.15.06-.36-.1-.45-.07-.04-.13-.07-.2-.11-.08-.04-.18-.06-.26-.02-.12.05-.41-.1-.65-.09Z"/>
    <path class="cls-6" d="M26.05,91.72c-2.16.25-4.32.52-6.48.74-.5.06-.9.13-1.08.67-.11.35-.26.69-.41,1.07-.05.12.04.25.17.25h.51s.04,0,.06-.01c.05-.02.1-.02.16-.03,1.02-.02,1.81-.15,2.83-.16.17,0,.51-.03.59.07.02.03.06.05.1.06.94.25,1.89.5,2.81.75.09.02.18-.02.21-.1.47-1.02.93-2.02,1.41-3.07.06-.12-.03-.26-.16-.26-.27,0-.49-.02-.71,0Z"/>
    <path class="cls-9" d="M28.08,82.92c-.97,0-1.73-.41-2.22-1.23-.15-.25-.16-.63-.09-.92.08-.31.04-.49-.16-.7-.31-.33-.59-.66-.86-1.01-1.2-1.52-.66-4.2,1.87-4.55,1.97-.28,3.68.25,5.09,1.67.15.15.28.33.4.51.09.13.15.29.28.54-.44-.11-.77-.2-1.07-.28-.1.65-.21,1.29-.29,1.92-.03.21-.05.5.07.62.37.42.12.74-.07,1.1-.78,1.49-.32,1.2-1.99,1.1-.81-.05-.81-.08-.77.78-.08.2-.14.33-.2.46h.02Z"/>
    <path class="cls-8" d="M31.32,84.53c-1-.67-2-1.36-3.03-2.01-.09.16-.15.29-.2.46-.13.2-.26.49-.43.51-.36.05-.77.05-1.09-.09-.48-.22-.9-.57-1.36-.82,0,.02,0,.03,0,.04,0-.02,0-.04-.01-.06-.08-.15-.16-.23-.25-.32-.07-.06-.14-.11-.2-.24,0-.1-.03-.13-.05-.16-.03-.03-.05-.07-.09-.17-.16-.48-.54-.36-.81-.36-1.13.03-2.26.09-3.39.17-.42.03-.84.14-1.26.22.21.61.42,1.24.63,1.89.3.4.43.78.21,1.27.64-.05,1.25-.14,1.9-.25-1.15,2.43-2.27,4.78-3.38,7.13.04.04.08.09.12.13l1.82-.23s0,.02,0,.02l1.06-.13c1.74-.22,3.43-.46,5.13-.65.44-.05.63-.27.74-.65.37-1.3.74-2.6,1.13-3.9.07-.23.19-.45.32-.75.11.68.05,1.34.33,1.79.29.46.89.72,1.41,1.1.27-.63.5-1.16.71-1.69.19-.24.38-.47.58-.71.05-.32.09-.62.11-1-.23-.23-.44-.39-.65-.54ZM22.15,89.92s0,0,0,0c0,0,0,0,0,0,0,0,0,0,0,0Z"/>
    <path class="cls-9" d="M24.76,98.21c1.03-.78,2.06-1.57,3.19-2.42-.65-.29-1.19-.53-1.78-.79.48-1.15.97-2.27,1.73-3.21.83.61,1.62,1.17,2.39,1.75,1.47,1.09,1.35,2.83-.26,3.73-.96.55-1.95,1.03-2.9,1.6-.39.23-.67.6-1.07.94-.56.08-1.01-.03-1.33-.46-.29-.39-.23-.76.03-1.14Z"/>
    <path class="cls-9" d="M31.88,86.04c.03-.3.07-.6.1-.95,1.74.7,3.31.13,3.95-1.55.12-.3.02-.68,0-1.03-.02-.38-.18-.78-.1-1.14.14-.57.62-.79,1.24-.72.59.07,1.05.45,1.08,1.03.02.47,0,.97-.15,1.41-.63,1.8-1.7,3.3-3.45,4.2-.78.41-1.62.44-2.45.17-.26-.09-.57-.18-.35-.64.06-.3.09-.54.11-.76h.02Z"/>
    <path class="cls-9" d="M19.11,81.68c.25.61.46,1.23.63,1.89-.35.13-.65.21-.96.29-.87.33-1.76.63-2.62,1-.31.13-.56.42-.8.65-.39.37-.46.8-.24,1.31.08.19.1.47.02.64-.17.4-.57.4-.79.04-.1-.15-.18-.3-.22-.36-.38.24-.67.56-1.02.62-.58.11-.93-.38-.82-.97.13-.73.63-1.22,1.11-1.72,1.33-1.41,2.91-2.4,4.81-2.9.31-.08.58-.33.9-.51h0Z"/>
    <path class="cls-5" d="M24.74,98.18c-.24.41-.3.78,0,1.17.32.43.76.54,1.31.49.34.62.64,1.24.92,1.86.09.21.13.45.12.67-.02.84-.57,1.23-1.33.86-1.4-.67-2.47-1.74-3.3-3.03-.32-.49-.28-1.01.17-1.45.28-.28.55-.58.86-.79.46-.3.81-.22,1.26.22h0Z"/>
    <path class="cls-10" d="M18.81,83.89c.29-.11.59-.2.94-.28.34.36.47.73.21,1.21-.59.32-.67.29-.89-.31-.07-.2-.16-.4-.26-.62Z"/>
    <path class="cls-7" d="M31.86,86.06c0,.21-.03.45-.09.7-.16.02-.3,0-.47,0,.16-.23.35-.46.56-.7Z"/>
    <path class="cls-5" d="M12.72,101.06c-.11-.08-.29-.08-.46-.04.18-.04.36-.06.47,0-.04-.64-.02-1.21.51-1.65-1.16-.56-2.12-.02-2.16,1.23-.03.7.06,1.42.18,2.11.08.48.23.97.46,1.4.35.64.98,1.04,1.49.54-.31-.03-.66.05-.8-.09-.46-.46-.78-1.04-.83-1.69,0,0,0,0,0,0,.05.64.37,1.23.83,1.69.14.14.5.07.79.09h.05c.15-.55.3-1.1.5-1.71.06-.14.07-.22.07-.3,0-.06.03-.13.08-.2.05,0,.05-.04.05-.04,0,0,0,0,.04-.05.03-.09.05-.14.05-.2-.04-.14-.07-.28-.14-.46-.47-.14-.9-.21-1.16-.63Z"/>
  </g>
  <g id="BOYY2">
    <path class="cls-9" d="M20.31,175.53c-1.02.02-1.75.48-2.78.5-.11,0-.23.13-.31.14-.04,0-.09.02-.12.05-.15.12-.3.24-.43.38-.28.28-.51.6-.81.85-.74.6-1.51,1.19-2.28,1.74-.43.3-.89.55-1.34.81h.04c-.52.38-.57.93-.54,1.54,0,.05.02.1.04.14.25.41.65.47,1.08.57.03,0,.05,0,.08,0,.05,0,.09,0,.14-.02.09-.01.17-.07.22-.15.51-.82,1.26-1.31,2.08-1.7.69-.33,1.45-.76,2.16-.73.91.03,1.43-.32,1.92-.93.67-.84,1.37-1.68,2.05-2.53,0,0,0,0,0,0,.11-.15.06-.36-.1-.45-.07-.04-.13-.07-.2-.11-.08-.04-.18-.06-.26-.02-.12.05-.41-.1-.65-.09Z"/>
    <path class="cls-6" d="M24.57,172.56c-2.16.25-4.32.52-6.48.74-.5.06-.9.13-1.08.67-.11.35-.26.69-.41,1.07-.05.12.04.25.17.25h.51s.04,0,.06-.01c.05-.02.1-.02.16-.03,1.02-.02,1.81-.15,2.83-.16.17,0,.51-.03.59.07.02.03.06.05.1.06.94.25,1.89.5,2.81.75.09.02.18-.02.21-.1.47-1.02.93-2.02,1.41-3.07.06-.12-.03-.26-.16-.26-.27,0-.49-.02-.71,0Z"/>
    <path class="cls-9" d="M26.6,163.77c-.97,0-1.73-.41-2.22-1.23-.15-.25-.16-.63-.09-.92.08-.31.04-.49-.16-.7-.31-.33-.59-.66-.86-1.01-1.2-1.52-.66-4.2,1.87-4.55,1.97-.28,3.68.25,5.09,1.67.15.15.28.33.4.51.09.13.15.29.28.54-.44-.11-.77-.2-1.07-.28-.1.65-.21,1.29-.29,1.92-.03.21-.05.5.07.62.37.42.12.74-.07,1.1-.78,1.49-.32,1.2-1.99,1.1-.81-.05-.81-.08-.77.78-.08.2-.14.33-.2.46h.02Z"/>
    <path class="cls-8" d="M29.84,165.37c-1-.67-2-1.36-3.03-2.01-.09.16-.15.29-.2.46-.13.2-.26.49-.43.51-.36.05-.77.05-1.09-.09-.48-.22-.9-.57-1.36-.82,0,.02,0,.03,0,.04,0-.02,0-.04-.01-.06-.08-.15-.16-.23-.25-.32-.07-.06-.14-.11-.2-.24,0-.1-.03-.13-.05-.16-.03-.03-.05-.07-.09-.17-.16-.48-.54-.36-.81-.36-1.13.03-2.26.09-3.39.17-.42.03-.84.14-1.26.22.21.61.42,1.24.63,1.89.3.4.43.78.21,1.27.64-.05,1.25-.14,1.9-.25-1.15,2.43-2.27,4.78-3.38,7.13.04.04.08.09.12.13l1.82-.23s0,.02,0,.02l1.06-.13c1.74-.22,3.43-.46,5.13-.65.44-.05.63-.27.74-.65.37-1.3.74-2.6,1.13-3.9.07-.23.19-.45.32-.75.11.68.05,1.34.33,1.79.29.46.89.72,1.41,1.1.27-.63.5-1.16.71-1.69.19-.24.38-.47.58-.71.05-.32.09-.62.11-1-.23-.23-.44-.39-.65-.54ZM20.67,170.77s0,0,0,0c0,0,0,0,0,0,0,0,0,0,0,0Z"/>
    <path class="cls-9" d="M23.27,179.06c1.03-.78,2.06-1.57,3.19-2.42-.65-.29-1.19-.53-1.78-.79.48-1.15.97-2.27,1.73-3.21.83.61,1.62,1.17,2.39,1.75,1.47,1.09,1.35,2.83-.26,3.73-.96.55-1.95,1.03-2.9,1.6-.39.23-.67.6-1.07.94-.56.08-1.01-.03-1.33-.46-.29-.39-.23-.76.03-1.14Z"/>
    <path class="cls-9" d="M30.4,166.88c.03-.3.07-.6.1-.95,1.74.7,3.31.13,3.95-1.55.12-.3.02-.68,0-1.03-.02-.38-.18-.78-.1-1.14.14-.57.62-.79,1.24-.72.59.07,1.05.45,1.08,1.03.02.47,0,.97-.15,1.41-.63,1.8-1.7,3.3-3.45,4.2-.78.41-1.62.44-2.45.17-.26-.09-.57-.18-.35-.64.06-.3.09-.54.11-.76h.02Z"/>
    <path class="cls-9" d="M17.63,162.53c.25.61.46,1.23.63,1.89-.35.13-.65.21-.96.29-.87.33-1.76.63-2.62,1-.31.13-.56.42-.8.65-.39.37-.46.8-.24,1.31.08.19.1.47.02.64-.17.4-.57.4-.79.04-.1-.15-.18-.3-.22-.36-.38.24-.67.56-1.02.62-.58.11-.93-.38-.82-.97.13-.73.63-1.22,1.11-1.72,1.33-1.41,2.91-2.4,4.81-2.9.31-.08.58-.33.9-.51h0Z"/>
    <path class="cls-5" d="M23.26,179.03c-.24.41-.3.78,0,1.17.32.43.76.54,1.31.49.34.62.64,1.24.92,1.86.09.21.13.45.12.67-.02.84-.57,1.23-1.33.86-1.4-.67-2.47-1.74-3.3-3.03-.32-.49-.28-1.01.17-1.45.28-.28.55-.58.86-.79.46-.3.81-.22,1.26.22h0Z"/>
    <path class="cls-10" d="M17.33,164.74c.29-.11.59-.2.94-.28.34.36.47.73.21,1.21-.59.32-.67.29-.89-.31-.07-.2-.16-.4-.26-.62Z"/>
    <path class="cls-7" d="M30.38,166.9c0,.21-.03.45-.09.7-.16.02-.3,0-.47,0,.16-.23.35-.46.56-.7Z"/>
    <path class="cls-5" d="M11.24,181.9c-.11-.08-.29-.08-.46-.04.18-.04.36-.06.47,0-.04-.64-.02-1.21.51-1.65-1.16-.56-2.12-.02-2.16,1.23-.03.7.06,1.42.18,2.11.08.48.23.97.46,1.4.35.64.98,1.04,1.49.54-.31-.03-.66.05-.8-.09-.46-.46-.78-1.04-.83-1.69,0,0,0,0,0,0,.05.64.37,1.23.83,1.69.14.14.5.07.79.09h.05c.15-.55.3-1.1.5-1.71.06-.14.07-.22.07-.3,0-.06.03-.13.08-.2.05,0,.05-.04.05-.04,0,0,0,0,.04-.05.03-.09.05-.14.05-.2-.04-.14-.07-.28-.14-.46-.47-.14-.9-.21-1.16-.63Z"/>
  </g>
  <g id="BOYY3">
    <path class="cls-9" d="M20.14,265.08c-1.02.02-1.75.48-2.78.5-.11,0-.23.13-.31.14-.04,0-.09.02-.12.05-.15.12-.3.24-.43.38-.28.28-.51.6-.81.85-.74.6-1.51,1.19-2.28,1.74-.43.3-.89.55-1.34.81h.04c-.52.38-.57.93-.54,1.54,0,.05.02.1.04.14.25.41.65.47,1.08.57.03,0,.05,0,.08,0,.05,0,.09,0,.14-.02.09-.01.17-.07.22-.15.51-.82,1.26-1.31,2.08-1.7.69-.33,1.45-.76,2.16-.73.91.03,1.43-.32,1.92-.93.67-.84,1.37-1.68,2.05-2.53,0,0,0,0,0,0,.11-.15.06-.36-.1-.45-.07-.04-.13-.07-.2-.11-.08-.04-.18-.06-.26-.02-.12.05-.41-.1-.65-.09Z"/>
    <path class="cls-6" d="M24.4,262.11c-2.16.25-4.32.52-6.48.74-.5.06-.9.13-1.08.67-.11.35-.26.69-.41,1.07-.05.12.04.25.17.25h.51s.04,0,.06-.01c.05-.02.1-.02.16-.03,1.02-.02,1.81-.15,2.83-.16.17,0,.51-.03.59.07.02.03.06.05.1.06.94.25,1.89.5,2.81.75.09.02.18-.02.21-.1.47-1.02.93-2.02,1.41-3.07.06-.12-.03-.26-.16-.26-.27,0-.49-.02-.71,0Z"/>
    <path class="cls-9" d="M26.43,253.31c-.97,0-1.73-.41-2.22-1.23-.15-.25-.16-.63-.09-.92.08-.31.04-.49-.16-.7-.31-.33-.59-.66-.86-1.01-1.2-1.52-.66-4.2,1.87-4.55,1.97-.28,3.68.25,5.09,1.67.15.15.28.33.4.51.09.13.15.29.28.54-.44-.11-.77-.2-1.07-.28-.1.65-.21,1.29-.29,1.92-.03.21-.05.5.07.62.37.42.12.74-.07,1.1-.78,1.49-.32,1.2-1.99,1.1-.81-.05-.81-.08-.77.78-.08.2-.14.33-.2.46h.02Z"/>
    <path class="cls-8" d="M29.67,254.92c-1-.67-2-1.36-3.03-2.01-.09.16-.15.29-.2.46-.13.2-.26.49-.43.51-.36.05-.77.05-1.09-.09-.48-.22-.9-.57-1.36-.82,0,.02,0,.03,0,.04,0-.02,0-.04-.01-.06-.08-.15-.16-.23-.25-.32-.07-.06-.14-.11-.2-.24,0-.1-.03-.13-.05-.16-.03-.03-.05-.07-.09-.17-.16-.48-.54-.36-.81-.36-1.13.03-2.26.09-3.39.17-.42.03-.84.14-1.26.22.21.61.42,1.24.63,1.89.3.4.43.78.21,1.27.64-.05,1.25-.14,1.9-.25-1.15,2.43-2.27,4.78-3.38,7.13.04.04.08.09.12.13l1.82-.23s0,.02,0,.02l1.06-.13c1.74-.22,3.43-.46,5.13-.65.44-.05.63-.27.74-.65.37-1.3.74-2.6,1.13-3.9.07-.23.19-.45.32-.75.11.68.05,1.34.33,1.79.29.46.89.72,1.41,1.1.27-.63.5-1.16.71-1.69.19-.24.38-.47.58-.71.05-.32.09-.62.11-1-.23-.23-.44-.39-.65-.54ZM20.5,260.32s0,0,0,0c0,0,0,0,0,0,0,0,0,0,0,0Z"/>
    <path class="cls-9" d="M23.1,268.6c1.03-.78,2.06-1.57,3.19-2.42-.65-.29-1.19-.53-1.78-.79.48-1.15.97-2.27,1.73-3.21.83.61,1.62,1.17,2.39,1.75,1.47,1.09,1.35,2.83-.26,3.73-.96.55-1.95,1.03-2.9,1.6-.39.23-.67.6-1.07.94-.56.08-1.01-.03-1.33-.46-.29-.39-.23-.76.03-1.14Z"/>
    <path class="cls-9" d="M30.23,256.43c.03-.3.07-.6.1-.95,1.74.7,3.31.13,3.95-1.55.12-.3.02-.68,0-1.03-.02-.38-.18-.78-.1-1.14.14-.57.62-.79,1.24-.72.59.07,1.05.45,1.08,1.03.02.47,0,.97-.15,1.41-.63,1.8-1.7,3.3-3.45,4.2-.78.41-1.62.44-2.45.17-.26-.09-.57-.18-.35-.64.06-.3.09-.54.11-.76h.02Z"/>
    <path class="cls-9" d="M17.46,252.08c.25.61.46,1.23.63,1.89-.35.13-.65.21-.96.29-.87.33-1.76.63-2.62,1-.31.13-.56.42-.8.65-.39.37-.46.8-.24,1.31.08.19.1.47.02.64-.17.4-.57.4-.79.04-.1-.15-.18-.3-.22-.36-.38.24-.67.56-1.02.62-.58.11-.93-.38-.82-.97.13-.73.63-1.22,1.11-1.72,1.33-1.41,2.91-2.4,4.81-2.9.31-.08.58-.33.9-.51h0Z"/>
    <path class="cls-5" d="M23.08,268.57c-.24.41-.3.78,0,1.17.32.43.76.54,1.31.49.34.62.64,1.24.92,1.86.09.21.13.45.12.67-.02.84-.57,1.23-1.33.86-1.4-.67-2.47-1.74-3.3-3.03-.32-.49-.28-1.01.17-1.45.28-.28.55-.58.86-.79.46-.3.81-.22,1.26.22h0Z"/>
    <path class="cls-10" d="M17.16,254.29c.29-.11.59-.2.94-.28.34.36.47.73.21,1.21-.59.32-.67.29-.89-.31-.07-.2-.16-.4-.26-.62Z"/>
    <path class="cls-7" d="M30.21,256.45c0,.21-.03.45-.09.7-.16.02-.3,0-.47,0,.16-.23.35-.46.56-.7Z"/>
    <path class="cls-5" d="M11.07,271.45c-.11-.08-.29-.08-.46-.04.18-.04.36-.06.47,0-.04-.64-.02-1.21.51-1.65-1.16-.56-2.12-.02-2.16,1.23-.03.7.06,1.42.18,2.11.08.48.23.97.46,1.4.35.64.98,1.04,1.49.54-.31-.03-.66.05-.8-.09-.46-.46-.78-1.04-.83-1.69,0,0,0,0,0,0,.05.64.37,1.23.83,1.69.14.14.5.07.79.09h.05c.15-.55.3-1.1.5-1.71.06-.14.07-.22.07-.3,0-.06.03-.13.08-.2.05,0,.05-.04.05-.04,0,0,0,0,.04-.05.03-.09.05-.14.05-.2-.04-.14-.07-.28-.14-.46-.47-.14-.9-.21-1.16-.63Z"/>
  </g>
  <g id="BOYY4">
    <path class="cls-9" d="M19.74,356.31c-1.02.02-1.75.48-2.78.5-.11,0-.23.13-.31.14-.04,0-.09.02-.12.05-.15.12-.3.24-.43.38-.28.28-.51.6-.81.85-.74.6-1.51,1.19-2.28,1.74-.43.3-.89.55-1.34.81h.04c-.52.38-.57.93-.54,1.54,0,.05.02.1.04.14.25.41.65.47,1.08.57.03,0,.05,0,.08,0,.05,0,.09,0,.14-.02.09-.01.17-.07.22-.15.51-.82,1.26-1.31,2.08-1.7.69-.33,1.45-.76,2.16-.73.91.03,1.43-.32,1.92-.93.67-.84,1.37-1.68,2.05-2.53,0,0,0,0,0,0,.11-.15.06-.36-.1-.45-.07-.04-.13-.07-.2-.11-.08-.04-.18-.06-.26-.02-.12.05-.41-.1-.65-.09Z"/>
    <path class="cls-6" d="M24,353.34c-2.16.25-4.32.52-6.48.74-.5.06-.9.13-1.08.67-.11.35-.26.69-.41,1.07-.05.12.04.25.17.25h.51s.04,0,.06-.01c.05-.02.1-.02.16-.03,1.02-.02,1.81-.15,2.83-.16.17,0,.51-.03.59.07.02.03.06.05.1.06.94.25,1.89.5,2.81.75.09.02.18-.02.21-.1.47-1.02.93-2.02,1.41-3.07.06-.12-.03-.26-.16-.26-.27,0-.49-.02-.71,0Z"/>
    <path class="cls-9" d="M26.03,344.54c-.97,0-1.73-.41-2.22-1.23-.15-.25-.16-.63-.09-.92.08-.31.04-.49-.16-.7-.31-.33-.59-.66-.86-1.01-1.2-1.52-.66-4.2,1.87-4.55,1.97-.28,3.68.25,5.09,1.67.15.15.28.33.4.51.09.13.15.29.28.54-.44-.11-.77-.2-1.07-.28-.1.65-.21,1.29-.29,1.92-.03.21-.05.5.07.62.37.42.12.74-.07,1.1-.78,1.49-.32,1.2-1.99,1.1-.81-.05-.81-.08-.77.78-.08.2-.14.33-.2.46h.02Z"/>
    <path class="cls-8" d="M29.27,346.15c-1-.67-2-1.36-3.03-2.01-.09.16-.15.29-.2.46-.13.2-.26.49-.43.51-.36.05-.77.05-1.09-.09-.48-.22-.9-.57-1.36-.82,0,.02,0,.03,0,.04,0-.02,0-.04-.01-.06-.08-.15-.16-.23-.25-.32-.07-.06-.14-.11-.2-.24,0-.1-.03-.13-.05-.16-.03-.03-.05-.07-.09-.17-.16-.48-.54-.36-.81-.36-1.13.03-2.26.09-3.39.17-.42.03-.84.14-1.26.22.21.61.42,1.24.63,1.89.3.4.43.78.21,1.27.64-.05,1.25-.14,1.9-.25-1.15,2.43-2.27,4.78-3.38,7.13.04.04.08.09.12.13l1.82-.23s0,.02,0,.02l1.06-.13c1.74-.22,3.43-.46,5.13-.65.44-.05.63-.27.74-.65.37-1.3.74-2.6,1.13-3.9.07-.23.19-.45.32-.75.11.68.05,1.34.33,1.79.29.46.89.72,1.41,1.1.27-.63.5-1.16.71-1.69.19-.24.38-.47.58-.71.05-.32.09-.62.11-1-.23-.23-.44-.39-.65-.54ZM20.1,351.54s0,0,0,0c0,0,0,0,0,0,0,0,0,0,0,0Z"/>
    <path class="cls-9" d="M22.7,359.83c1.03-.78,2.06-1.57,3.19-2.42-.65-.29-1.19-.53-1.78-.79.48-1.15.97-2.27,1.73-3.21.83.61,1.62,1.17,2.39,1.75,1.47,1.09,1.35,2.83-.26,3.73-.96.55-1.95,1.03-2.9,1.6-.39.23-.67.6-1.07.94-.56.08-1.01-.03-1.33-.46-.29-.39-.23-.76.03-1.14Z"/>
    <path class="cls-9" d="M29.83,347.66c.03-.3.07-.6.1-.95,1.74.7,3.31.13,3.95-1.55.12-.3.02-.68,0-1.03-.02-.38-.18-.78-.1-1.14.14-.57.62-.79,1.24-.72.59.07,1.05.45,1.08,1.03.02.47,0,.97-.15,1.41-.63,1.8-1.7,3.3-3.45,4.2-.78.41-1.62.44-2.45.17-.26-.09-.57-.18-.35-.64.06-.3.09-.54.11-.76h.02Z"/>
    <path class="cls-9" d="M17.06,343.3c.25.61.46,1.23.63,1.89-.35.13-.65.21-.96.29-.87.33-1.76.63-2.62,1-.31.13-.56.42-.8.65-.39.37-.46.8-.24,1.31.08.19.1.47.02.64-.17.4-.57.4-.79.04-.1-.15-.18-.3-.22-.36-.38.24-.67.56-1.02.62-.58.11-.93-.38-.82-.97.13-.73.63-1.22,1.11-1.72,1.33-1.41,2.91-2.4,4.81-2.9.31-.08.58-.33.9-.51h0Z"/>
    <path class="cls-5" d="M22.69,359.8c-.24.41-.3.78,0,1.17.32.43.76.54,1.31.49.34.62.64,1.24.92,1.86.09.21.13.45.12.67-.02.84-.57,1.23-1.33.86-1.4-.67-2.47-1.74-3.3-3.03-.32-.49-.28-1.01.17-1.45.28-.28.55-.58.86-.79.46-.3.81-.22,1.26.22h0Z"/>
    <path class="cls-10" d="M16.76,345.52c.29-.11.59-.2.94-.28.34.36.47.73.21,1.21-.59.32-.67.29-.89-.31-.07-.2-.16-.4-.26-.62Z"/>
    <path class="cls-7" d="M29.81,347.68c0,.21-.03.45-.09.7-.16.02-.3,0-.47,0,.16-.23.35-.46.56-.7Z"/>
    <path class="cls-5" d="M10.67,362.68c-.11-.08-.29-.08-.46-.04.18-.04.36-.06.47,0-.04-.64-.02-1.21.51-1.65-1.16-.56-2.12-.02-2.16,1.23-.03.7.06,1.42.18,2.11.08.48.23.97.46,1.4.35.64.98,1.04,1.49.54-.31-.03-.66.05-.8-.09-.46-.46-.78-1.04-.83-1.69,0,0,0,0,0,0,.05.64.37,1.23.83,1.69.14.14.5.07.79.09h.05c.15-.55.3-1.1.5-1.71.06-.14.07-.22.07-.3,0-.06.03-.13.08-.2.05,0,.05-.04.05-.04,0,0,0,0,.04-.05.03-.09.05-.14.05-.2-.04-.14-.07-.28-.14-.46-.47-.14-.9-.21-1.16-.63Z"/>
  </g>
  <g id="BOYY5">
    <path class="cls-9" d="M20.06,452c-1.02.02-1.75.48-2.78.5-.11,0-.23.13-.31.14-.04,0-.09.02-.12.05-.15.12-.3.24-.43.38-.28.28-.51.6-.81.85-.74.6-1.51,1.19-2.28,1.74-.43.3-.89.55-1.34.81h.04c-.52.38-.57.93-.54,1.54,0,.05.02.1.04.14.25.41.65.47,1.08.57.03,0,.05,0,.08,0,.05,0,.09,0,.14-.02.09-.01.17-.07.22-.15.51-.82,1.26-1.31,2.08-1.7.69-.33,1.45-.76,2.16-.73.91.03,1.43-.32,1.92-.93.67-.84,1.37-1.68,2.05-2.53,0,0,0,0,0,0,.11-.15.06-.36-.1-.45-.07-.04-.13-.07-.2-.11-.08-.04-.18-.06-.26-.02-.12.05-.41-.1-.65-.09Z"/>
    <path class="cls-6" d="M24.33,449.03c-2.16.25-4.32.52-6.48.74-.5.06-.9.13-1.08.67-.11.35-.26.69-.41,1.07-.05.12.04.25.17.25h.51s.04,0,.06-.01c.05-.02.1-.02.16-.03,1.02-.02,1.81-.15,2.83-.16.17,0,.51-.03.59.07.02.03.06.05.1.06.94.25,1.89.5,2.81.75.09.02.18-.02.21-.1.47-1.02.93-2.02,1.41-3.07.06-.12-.03-.26-.16-.26-.27,0-.49-.02-.71,0Z"/>
    <path class="cls-9" d="M26.35,440.23c-.97,0-1.73-.41-2.22-1.23-.15-.25-.16-.63-.09-.92.08-.31.04-.49-.16-.7-.31-.33-.59-.66-.86-1.01-1.2-1.52-.66-4.2,1.87-4.55,1.97-.28,3.68.25,5.09,1.67.15.15.28.33.4.51.09.13.15.29.28.54-.44-.11-.77-.2-1.07-.28-.1.65-.21,1.29-.29,1.92-.03.21-.05.5.07.62.37.42.12.74-.07,1.1-.78,1.49-.32,1.2-1.99,1.1-.81-.05-.81-.08-.77.78-.08.2-.14.33-.2.46h.02Z"/>
    <path class="cls-8" d="M29.59,441.84c-1-.67-2-1.36-3.03-2.01-.09.16-.15.29-.2.46-.13.2-.26.49-.43.51-.36.05-.77.05-1.09-.09-.48-.22-.9-.57-1.36-.82,0,.02,0,.03,0,.04,0-.02,0-.04-.01-.06-.08-.15-.16-.23-.25-.32-.07-.06-.14-.11-.2-.24,0-.1-.03-.13-.05-.16-.03-.03-.05-.07-.09-.17-.16-.48-.54-.36-.81-.36-1.13.03-2.26.09-3.39.17-.42.03-.84.14-1.26.22.21.61.42,1.24.63,1.89.3.4.43.78.21,1.27.64-.05,1.25-.14,1.9-.25-1.15,2.43-2.27,4.78-3.38,7.13.04.04.08.09.12.13l1.82-.23s0,.02,0,.02l1.06-.13c1.74-.22,3.43-.46,5.13-.65.44-.05.63-.27.74-.65.37-1.3.74-2.6,1.13-3.9.07-.23.19-.45.32-.75.11.68.05,1.34.33,1.79.29.46.89.72,1.41,1.1.27-.63.5-1.16.71-1.69.19-.24.38-.47.58-.71.05-.32.09-.62.11-1-.23-.23-.44-.39-.65-.54ZM20.42,447.23s0,0,0,0c0,0,0,0,0,0,0,0,0,0,0,0Z"/>
    <path class="cls-9" d="M23.03,455.52c1.03-.78,2.06-1.57,3.19-2.42-.65-.29-1.19-.53-1.78-.79.48-1.15.97-2.27,1.73-3.21.83.61,1.62,1.17,2.39,1.75,1.47,1.09,1.35,2.83-.26,3.73-.96.55-1.95,1.03-2.9,1.6-.39.23-.67.6-1.07.94-.56.08-1.01-.03-1.33-.46-.29-.39-.23-.76.03-1.14Z"/>
    <path class="cls-9" d="M30.16,443.35c.03-.3.07-.6.1-.95,1.74.7,3.31.13,3.95-1.55.12-.3.02-.68,0-1.03-.02-.38-.18-.78-.1-1.14.14-.57.62-.79,1.24-.72.59.07,1.05.45,1.08,1.03.02.47,0,.97-.15,1.41-.63,1.8-1.7,3.3-3.45,4.2-.78.41-1.62.44-2.45.17-.26-.09-.57-.18-.35-.64.06-.3.09-.54.11-.76h.02Z"/>
    <path class="cls-9" d="M17.39,439c.25.61.46,1.23.63,1.89-.35.13-.65.21-.96.29-.87.33-1.76.63-2.62,1-.31.13-.56.42-.8.65-.39.37-.46.8-.24,1.31.08.19.1.47.02.64-.17.4-.57.4-.79.04-.1-.15-.18-.3-.22-.36-.38.24-.67.56-1.02.62-.58.11-.93-.38-.82-.97.13-.73.63-1.22,1.11-1.72,1.33-1.41,2.91-2.4,4.81-2.9.31-.08.58-.33.9-.51h0Z"/>
    <path class="cls-5" d="M23.01,455.49c-.24.41-.3.78,0,1.17.32.43.76.54,1.31.49.34.62.64,1.24.92,1.86.09.21.13.45.12.67-.02.84-.57,1.23-1.33.86-1.4-.67-2.47-1.74-3.3-3.03-.32-.49-.28-1.01.17-1.45.28-.28.55-.58.86-.79.46-.3.81-.22,1.26.22h0Z"/>
    <path class="cls-10" d="M17.08,441.21c.29-.11.59-.2.94-.28.34.36.47.73.21,1.21-.59.32-.67.29-.89-.31-.07-.2-.16-.4-.26-.62Z"/>
    <path class="cls-7" d="M30.14,443.37c0,.21-.03.45-.09.7-.16.02-.3,0-.47,0,.16-.23.35-.46.56-.7Z"/>
    <path class="cls-5" d="M10.99,458.37c-.11-.08-.29-.08-.46-.04.18-.04.36-.06.47,0-.04-.64-.02-1.21.51-1.65-1.16-.56-2.12-.02-2.16,1.23-.03.7.06,1.42.18,2.11.08.48.23.97.46,1.4.35.64.98,1.04,1.49.54-.31-.03-.66.05-.8-.09-.46-.46-.78-1.04-.83-1.69,0,0,0,0,0,0,.05.64.37,1.23.83,1.69.14.14.5.07.79.09h.05c.15-.55.3-1.1.5-1.71.06-.14.07-.22.07-.3,0-.06.03-.13.08-.2.05,0,.05-.04.05-.04,0,0,0,0,.04-.05.03-.09.05-.14.05-.2-.04-.14-.07-.28-.14-.46-.47-.14-.9-.21-1.16-.63Z"/>
  </g>
  <g id="GAppp">
    <line class="cls-27" x1="291.18" y1="506.41" x2="291.18" y2="30.04"/>
    <text class="cls-1" transform="translate(345.98 34.75)"><tspan x="0" y="0">121.1 m</tspan></text>
    <line class="cls-27" x1="475.05" y1="500.46" x2="475.05" y2="27.26"/>
    <text class="cls-22" transform="translate(362.5 11.61)"><tspan x="0" y="0">Gap</tspan></text>
  </g>
  <text class="cls-23" transform="translate(0 553.31)"><tspan class="cls-17" x="0" y="0">Sou</tspan><tspan class="cls-13" x="20.38" y="0">r</tspan><tspan class="cls-17" x="25.4" y="0">ce: P</tspan><tspan class="cls-20" x="51.12" y="0">h</tspan><tspan class="cls-18" x="57.83" y="0">y</tspan><tspan class="cls-17" x="64.03" y="0">sical </tspan><tspan class="cls-18" x="91.37" y="0">F</tspan><tspan class="cls-12" x="98.44" y="0">itness </tspan><tspan class="cls-14" x="132.89" y="0">S</tspan><tspan class="cls-17" x="139.51" y="0">tatus of </tspan><tspan class="cls-15" x="184.27" y="0">H</tspan><tspan class="cls-12" x="193.68" y="0">ong </tspan><tspan class="cls-19" x="217.82" y="0">K</tspan><tspan class="cls-17" x="226.07" y="0">ong School Pupils, issued </tspan><tspan class="cls-16" x="367.04" y="0">b</tspan><tspan class="cls-11" x="373.57" y="0">y </tspan><tspan class="cls-25" x="383.84" y="0">Education Bu</tspan><tspan class="cls-26" x="457.32" y="0">r</tspan><tspan class="cls-25" x="462.39" y="0">eau.</tspan></text>
</svg>