<?xml version="1.0" encoding="UTF-8"?>
<svg id="_9-minute" data-name="9-minute" xmlns="http://www.w3.org/2000/svg" version="1.1" viewBox="0 0 908 600">
  <defs>
    <style>
      .cls-1 {
        stroke: #6b6b6b;
        stroke-width: 2.7px;
      }

      .cls-1, .cls-2, .cls-3, .cls-4 {
        fill: none;
      }

      .cls-5 {
        fill: #b30005;
        font-size: 11px;
      }

      .cls-5, .cls-6, .cls-7, .cls-8, .cls-9, .cls-10, .cls-11 {
        isolation: isolate;
      }

      .cls-5, .cls-7, .cls-9, .cls-10 {
        font-family: Helvetica-Bold, Helvetica;
      }

      .cls-5, .cls-7, .cls-9, .cls-10, .cls-11 {
        font-weight: 700;
      }

      .cls-6 {
        font-family: ArialMT, Arial;
        font-size: 10px;
      }

      .cls-6, .cls-7, .cls-9, .cls-11 {
        fill: #000;
      }

      .cls-12 {
        fill: #005e54;
      }

      .cls-12, .cls-13, .cls-14, .cls-15, .cls-16, .cls-17, .cls-18 {
        stroke-width: 0px;
      }

      .cls-7 {
        font-size: 12.6px;
      }

      .cls-2 {
        stroke-width: 3.4px;
      }

      .cls-2, .cls-4 {
        stroke: #7a7a7a;
      }

      .cls-13 {
        fill: #a59389;
      }

      .cls-14 {
        fill: #c2bb00;
      }

      .cls-3 {
        stroke: #b30005;
        stroke-miterlimit: 10;
        stroke-width: 4.1px;
      }

      .cls-15 {
        fill: #7f7dfa;
      }

      .cls-16 {
        fill: #ed8b16;
      }

      .cls-4 {
        stroke-width: 2.5px;
      }

      .cls-17 {
        fill: #003547;
      }

      .cls-9 {
        font-size: 13.5px;
      }

      .cls-10 {
        fill: #2c2e2b;
        font-size: 10.9px;
      }

      .cls-11 {
        font-family: Arial-BoldMT, Arial;
        font-size: 12px;
      }

      .cls-18 {
        fill: #e1523d;
      }
    </style>
  </defs>
  <rect id="background" class="cls-2" y="0" width="908" height="600"/>
  <g id="viz">
    <g id="axis">
      <g>
        <path class="cls-2" d="M107.3,516.7v-5.3h624.1v5.3"/>
        <g>
          <line class="cls-4" x1="107.3" y1="511.4" x2="107.3" y2="516.7"/>
          <g class="cls-8">
            <text class="cls-10" transform="translate(91.8 532.1)"><tspan x="0" y="0">1,300</tspan></text>
          </g>
        </g>
        <g>
          <line class="cls-4" x1="176.7" y1="511.4" x2="176.7" y2="516.7"/>
          <g class="cls-8">
            <text class="cls-10" transform="translate(161.1 532.1)"><tspan x="0" y="0">1,350</tspan></text>
          </g>
        </g>
        <g>
          <line class="cls-4" x1="246" y1="511.4" x2="246" y2="516.7"/>
          <g class="cls-8">
            <text class="cls-10" transform="translate(230.4 532.1)"><tspan x="0" y="0">1,400</tspan></text>
          </g>
        </g>
        <g>
          <line class="cls-4" x1="315.3" y1="511.4" x2="315.3" y2="516.7"/>
          <g class="cls-8">
            <text class="cls-10" transform="translate(299.8 532.1)"><tspan x="0" y="0">1,450</tspan></text>
          </g>
        </g>
        <g>
          <line class="cls-4" x1="384.7" y1="511.4" x2="384.7" y2="516.7"/>
          <g class="cls-8">
            <text class="cls-10" transform="translate(369.1 532.1)"><tspan x="0" y="0">1,500</tspan></text>
          </g>
        </g>
        <g>
          <line class="cls-4" x1="454" y1="511.4" x2="454" y2="516.7"/>
          <g class="cls-8">
            <text class="cls-10" transform="translate(438.5 532.1)"><tspan x="0" y="0">1,550</tspan></text>
          </g>
        </g>
        <g>
          <line class="cls-4" x1="523.4" y1="511.4" x2="523.4" y2="516.7"/>
          <g class="cls-8">
            <text class="cls-10" transform="translate(507.8 532.1)"><tspan x="0" y="0">1,600</tspan></text>
          </g>
        </g>
        <g>
          <line class="cls-4" x1="592.7" y1="511.4" x2="592.7" y2="516.7"/>
          <g class="cls-8">
            <text class="cls-10" transform="translate(577.2 532.1)"><tspan x="0" y="0">1,650</tspan></text>
          </g>
        </g>
        <g>
          <line class="cls-4" x1="662.1" y1="511.4" x2="662.1" y2="516.7"/>
          <g class="cls-8">
            <text class="cls-10" transform="translate(646.5 532.1)"><tspan x="0" y="0">1,700</tspan></text>
          </g>
        </g>
        <g>
          <line class="cls-4" x1="731.4" y1="511.4" x2="731.4" y2="516.7"/>
          <g class="cls-8">
            <text class="cls-10" transform="translate(715.8 532.1)"><tspan x="0" y="0">1,750</tspan></text>
          </g>
        </g>
        <g class="cls-8">
          <text class="cls-7" transform="translate(667.7 507)"><tspan x="0" y="0">Distance (m)</tspan></text>
        </g>
      </g>
      <g>
        <path class="cls-1" d="M107.3,67.9v443.5"/>
        <g>
          <line class="cls-1" x1="107.3" y1="113" x2="731.4" y2="113"/>
          <g class="cls-8">
            <text class="cls-10" transform="translate(76 116.1)"><tspan x="0" y="0">1999</tspan></text>
          </g>
        </g>
        <g>
          <line class="cls-1" x1="107.3" y1="201.5" x2="731.4" y2="201.5"/>
          <g class="cls-8">
            <text class="cls-10" transform="translate(76 204.6)"><tspan x="0" y="0">2003</tspan></text>
          </g>
        </g>
        <g>
          <line class="cls-1" x1="107.3" y1="290.1" x2="731.4" y2="290.1"/>
          <g class="cls-8">
            <text class="cls-10" transform="translate(76 293.1)"><tspan x="0" y="0">2005</tspan></text>
          </g>
        </g>
        <g>
          <line class="cls-1" x1="107.3" y1="378.6" x2="731.4" y2="378.6"/>
          <g class="cls-8">
            <text class="cls-10" transform="translate(76 381.6)"><tspan x="0" y="0">2010</tspan></text>
          </g>
        </g>
        <g>
          <line class="cls-1" x1="107.3" y1="467.1" x2="731.4" y2="467.1"/>
          <g class="cls-8">
            <text class="cls-10" transform="translate(76 470.2)"><tspan x="0" y="0">2015</tspan></text>
          </g>
        </g>
        <g class="cls-8">
          <text class="cls-9" transform="translate(118.7 72.1)"><tspan x="0" y="0">Year</tspan></text>
        </g>
      </g>
    </g>
    <g id="visualization">
      <g id="_1999" data-name=" 1999">
        <g id="circles">
          <circle class="cls-13" cx="273.7" cy="113" r="7.7"/>
          <circle class="cls-15" cx="455.4" cy="113" r="7.7"/>
          <circle class="cls-16" cx="501.2" cy="113" r="7.7"/>
          <circle class="cls-18" cx="527.5" cy="113" r="7.7"/>
          <circle class="cls-14" cx="580.2" cy="113" r="7.7"/>
          <circle class="cls-12" cx="605.2" cy="113" r="7.7"/>
          <circle class="cls-17" cx="717.5" cy="113" r="7.7"/>
        </g>
      </g>
      <g id="_2003" data-name=" 2003">
        <g id="circles-2">
          <circle class="cls-13" cx="211.3" cy="201.5" r="7.7"/>
          <circle class="cls-15" cx="302.9" cy="201.5" r="7.7"/>
          <circle class="cls-16" cx="354.2" cy="201.5" r="7.7"/>
          <circle class="cls-18" cx="375" cy="201.5" r="7.7"/>
          <circle class="cls-14" cx="434.6" cy="201.5" r="7.7"/>
          <circle class="cls-12" cx="479.4" cy="201.5" r="7.7"/>
          <circle class="cls-17" cx="496.6" cy="201.5" r="7.7"/>
        </g>
      </g>
      <g id="_2005" data-name=" 2005">
        <g id="circles-3">
          <circle class="cls-13" cx="189.1" cy="290.1" r="7.7"/>
          <circle class="cls-15" cx="293.4" cy="290.1" r="7.7"/>
          <circle class="cls-16" cx="371.7" cy="290.1" r="7.7"/>
          <circle class="cls-18" cx="432.9" cy="290.1" r="7.7"/>
          <circle class="cls-14" cx="450.1" cy="290.1" r="7.7"/>
          <circle class="cls-12" cx="508.1" cy="290.1" r="7.7" transform="translate(140.4 745.2) rotate(-80.8)"/>
          <circle class="cls-17" cx="538.6" cy="290.1" r="7.7"/>
        </g>
      </g>
      <g id="_2010" data-name=" 2010">
        <g id="circles-4">
          <circle class="cls-13" cx="151.7" cy="378.6" r="7.7"/>
          <circle class="cls-15" cx="222.3" cy="378.6" r="7.7"/>
          <circle class="cls-16" cx="309.7" cy="378.6" r="7.7"/>
          <circle class="cls-18" cx="381" cy="378.6" r="7.7"/>
          <circle class="cls-14" cx="363.7" cy="378.6" r="7.7"/>
          <circle class="cls-12" cx="454.7" cy="378.6" r="7.7"/>
          <circle class="cls-17" cx="477.1" cy="378.6" r="7.7"/>
        </g>
      </g>
      <g id="_2015" data-name=" 2015">
        <g id="circles-5">
          <circle class="cls-13" cx="176.7" cy="467.1" r="7.7"/>
          <circle class="cls-15" cx="246" cy="467.1" r="7.7"/>
          <circle class="cls-16" cx="329.1" cy="467" r="7.7"/>
          <circle class="cls-18" cx="355.3" cy="467.1" r="7.7"/>
          <circle class="cls-14" cx="372.5" cy="467.1" r="7.7"/>
          <circle class="cls-12" cx="421.1" cy="466.8" r="7.7"/>
          <circle class="cls-17" cx="403.8" cy="467.4" r="7.7"/>
        </g>
      </g>
    </g>
  </g>
  <g id="legend">
    <g>
      <g>
        <g>
          <rect class="cls-13" x="783" y="93.9" width="15" height="15"/>
          <g class="cls-8">
            <g class="cls-8">
              <text class="cls-6" transform="translate(803 106.4)"><tspan x="0" y="0">12&lt;=</tspan></text>
            </g>
          </g>
        </g>
        <g>
          <rect class="cls-15" x="783" y="114.4" width="15" height="15"/>
          <g class="cls-8">
            <g class="cls-8">
              <text class="cls-6" transform="translate(803 126.9)"><tspan x="0" y="0">13</tspan></text>
            </g>
          </g>
        </g>
        <g>
          <rect class="cls-16" x="783" y="134.9" width="15" height="15"/>
          <g class="cls-8">
            <g class="cls-8">
              <text class="cls-6" transform="translate(803 147.4)"><tspan x="0" y="0">14</tspan></text>
            </g>
          </g>
        </g>
        <g>
          <rect class="cls-18" x="783" y="155.4" width="15" height="15"/>
          <g class="cls-8">
            <g class="cls-8">
              <text class="cls-6" transform="translate(803 167.9)"><tspan x="0" y="0">15</tspan></text>
            </g>
          </g>
        </g>
        <g>
          <rect class="cls-14" x="783" y="175.9" width="15" height="15"/>
          <g class="cls-8">
            <g class="cls-8">
              <text class="cls-6" transform="translate(803 188.4)"><tspan x="0" y="0">16</tspan></text>
            </g>
          </g>
        </g>
        <g>
          <rect class="cls-12" x="783" y="196.4" width="15" height="15"/>
          <g class="cls-8">
            <g class="cls-8">
              <text class="cls-6" transform="translate(803 208.9)"><tspan x="0" y="0">17</tspan></text>
            </g>
          </g>
        </g>
        <g>
          <rect class="cls-17" x="783" y="216.9" width="15" height="15"/>
          <g class="cls-8">
            <g class="cls-8">
              <text class="cls-6" transform="translate(803 229.4)"><tspan x="0" y="0">&gt;=18</tspan></text>
            </g>
          </g>
        </g>
      </g>
      <g class="cls-8">
        <g class="cls-8">
          <text class="cls-11" transform="translate(783 78.4)"><tspan x="0" y="0">Age Group</tspan></text>
        </g>
      </g>
    </g>
  </g>
  <line class="cls-3" x1="508.6" y1="89.5" x2="508.6" y2="136.5"/>
  <line class="cls-3" x1="384.7" y1="180.4" x2="384.7" y2="227.4"/>
  <line class="cls-3" x1="403.8" y1="266.6" x2="403.8" y2="313.6"/>
  <line class="cls-3" x1="346.4" y1="355.1" x2="346.4" y2="402.1"/>
  <line class="cls-3" x1="341" y1="443.3" x2="341" y2="490.3"/>
  <g class="cls-8">
    <text class="cls-5" transform="translate(450.1 80.9)"><tspan x="0" y="0">Maen of All Age Group</tspan></text>
  </g>
</svg>