<?xml version="1.0" encoding="UTF-8"?>
<svg id="9-minute" data-name="9-minute" xmlns="http://www.w3.org/2000/svg" viewBox="0 0 501 401">
  <defs>
    <style>
      .cls-1, .cls-2, .cls-3 {
        stroke-width: 0px;
      }

      .cls-1, .cls-4 {
        fill: #7b7b7b;
      }

      .cls-5 {
        fill: #000;
        font-family: Helvetica, Helvetica;
        font-size: 10px;
      }

      .cls-5, .cls-4, .cls-6 {
        isolation: isolate;
      }

      .cls-2 {
        fill: #ff7f0e;
      }

      .cls-7 {
        fill: #ddedd1;
        stroke: #38614c;
        stroke-miterlimit: 10;
      }

      .cls-4 {
        font-family: Arial-BoldMT, Arial;
        font-size: 12px;
        font-weight: 700;
      }

      .cls-3 {
        fill: #1f77b4;
      }

      .cls-8 {
        stroke: #000;
      }

      .cls-8, .cls-9 {
        fill: none;
      }

      .cls-9 {
        stroke: #ccc;
      }
    </style>
  </defs>
  <rect id="background" class="cls-7" x=".5" y=".5" width="500" height="400"/>
  <rect id="background-2" data-name="background" class="cls-7" x=".5" y=".5" width="500" height="400"/>
  <g id="viz">
    <g id="axis">
      <g>
        <path class="cls-8" d="M50.5,356.5v-6h400v6"/>
        <g>
          <line class="cls-8" x1="50.5" y1="350.5" x2="50.5" y2="356.5"/>
          <text class="cls-5" transform="translate(37.99 366.6)"><tspan x="0" y="0">1,200</tspan></text>
        </g>
        <g>
          <line class="cls-8" x1="100.5" y1="350.5" x2="100.5" y2="356.5"/>
          <text class="cls-5" transform="translate(87.99 366.6)"><tspan x="0" y="0">1,250</tspan></text>
        </g>
        <g>
          <line class="cls-8" x1="150.5" y1="350.5" x2="150.5" y2="356.5"/>
          <text class="cls-5" transform="translate(137.99 366.6)"><tspan x="0" y="0">1,300</tspan></text>
        </g>
        <g>
          <line class="cls-8" x1="200.5" y1="350.5" x2="200.5" y2="356.5"/>
          <text class="cls-5" transform="translate(187.99 366.6)"><tspan x="0" y="0">1,350</tspan></text>
        </g>
        <g>
          <line class="cls-8" x1="250.5" y1="350.5" x2="250.5" y2="356.5"/>
          <text class="cls-5" transform="translate(237.99 366.6)"><tspan x="0" y="0">1,400</tspan></text>
        </g>
        <g>
          <line class="cls-8" x1="300.5" y1="350.5" x2="300.5" y2="356.5"/>
          <text class="cls-5" transform="translate(287.99 366.6)"><tspan x="0" y="0">1,450</tspan></text>
        </g>
        <g>
          <line class="cls-8" x1="350.5" y1="350.5" x2="350.5" y2="356.5"/>
          <text class="cls-5" transform="translate(337.99 366.6)"><tspan x="0" y="0">1,500</tspan></text>
        </g>
        <g>
          <line class="cls-8" x1="400.5" y1="350.5" x2="400.5" y2="356.5"/>
          <text class="cls-5" transform="translate(387.99 366.6)"><tspan x="0" y="0">1,550</tspan></text>
        </g>
        <g>
          <line class="cls-8" x1="450.5" y1="350.5" x2="450.5" y2="356.5"/>
          <text class="cls-5" transform="translate(437.99 366.6)"><tspan x="0" y="0">1,600</tspan></text>
        </g>
        <text class="cls-4" transform="translate(327.15 345.5)"><tspan x="0" y="0">Mean (all age groups)</tspan></text>
      </g>
      <g>
        <path class="cls-8" d="M50.5,45.5v305"/>
        <g>
          <line class="cls-9" x1="50.5" y1="76.5" x2="450.5" y2="76.5"/>
          <text class="cls-5" transform="translate(25.25 79.7)"><tspan x="0" y="0">1999</tspan></text>
        </g>
        <g>
          <line class="cls-9" x1="50.5" y1="137.5" x2="450.5" y2="137.5"/>
          <text class="cls-5" transform="translate(25.25 140.7)"><tspan x="0" y="0">2003</tspan></text>
        </g>
        <g>
          <line class="cls-9" x1="50.5" y1="198.5" x2="450.5" y2="198.5"/>
          <text class="cls-5" transform="translate(25.25 201.7)"><tspan x="0" y="0">2005</tspan></text>
        </g>
        <g>
          <line class="cls-9" x1="50.5" y1="259.5" x2="450.5" y2="259.5"/>
          <text class="cls-5" transform="translate(25.25 262.7)"><tspan x="0" y="0">2010</tspan></text>
        </g>
        <g>
          <line class="cls-9" x1="50.5" y1="320.5" x2="450.5" y2="320.5"/>
          <text class="cls-5" transform="translate(25.25 323.7)"><tspan x="0" y="0">2015</tspan></text>
        </g>
        <g class="cls-6">
          <path class="cls-1" d="M57.63,55.79v-3.62l-3.15-4.97h2.03l2.02,3.4,1.98-3.4h2l-3.16,4.99v3.6h-1.73Z"/>
          <path class="cls-1" d="M66.31,53.81l1.64.28c-.21.6-.54,1.06-1,1.37s-1.02.47-1.71.47c-1.08,0-1.88-.35-2.4-1.06-.41-.57-.62-1.28-.62-2.14,0-1.03.27-1.84.81-2.42s1.22-.88,2.04-.88c.93,0,1.66.31,2.19.92s.79,1.55.77,2.81h-4.12c.01.49.14.87.4,1.14s.57.41.95.41c.26,0,.47-.07.65-.21s.31-.37.4-.68ZM66.4,52.15c-.01-.48-.13-.84-.37-1.09s-.52-.37-.86-.37c-.36,0-.66.13-.89.39s-.35.62-.35,1.07h2.46Z"/>
          <path class="cls-1" d="M70.61,51.47l-1.49-.27c.17-.6.46-1.05.87-1.34s1.02-.43,1.83-.43c.73,0,1.28.09,1.64.26s.61.39.76.66.22.76.22,1.47l-.02,1.92c0,.55.03.95.08,1.21s.15.54.3.83h-1.63c-.04-.11-.1-.27-.16-.49-.03-.1-.05-.16-.06-.19-.28.27-.58.48-.9.62s-.66.21-1.03.21c-.64,0-1.15-.17-1.51-.52s-.55-.79-.55-1.32c0-.35.08-.67.25-.94s.4-.49.71-.63.74-.27,1.31-.38c.77-.14,1.3-.28,1.6-.4v-.16c0-.32-.08-.54-.23-.68s-.45-.2-.88-.2c-.29,0-.52.06-.69.17s-.3.32-.4.61ZM72.81,52.81c-.21.07-.54.15-1,.25s-.76.19-.9.29c-.21.15-.32.35-.32.58s.09.43.26.6.39.25.66.25c.3,0,.58-.1.85-.29.2-.15.33-.33.39-.54.04-.14.06-.41.06-.8v-.33Z"/>
          <path class="cls-1" d="M77.63,55.79h-1.65v-6.22h1.53v.88c.26-.42.5-.69.71-.83s.45-.2.71-.2c.38,0,.74.1,1.08.31l-.51,1.44c-.28-.18-.54-.27-.77-.27s-.43.06-.59.19-.29.36-.38.69-.14,1.03-.14,2.09v1.92Z"/>
        </g>
      </g>
    </g>
    <g id="visualization">
      <g id="_1999" data-name="1999">
        <g id="circles">
          <circle class="cls-3" cx="440.4" cy="76" r="6"/>
          <circle class="cls-2" cx="141.5" cy="76" r="6"/>
        </g>
      </g>
      <g id="_2003" data-name="2003">
        <g id="circles-2" data-name="circles">
          <circle class="cls-3" cx="351.1" cy="137" r="6"/>
          <circle class="cls-2" cx="124.8" cy="137" r="6"/>
        </g>
      </g>
      <g id="_2005" data-name="2005">
        <g id="circles-3" data-name="circles">
          <circle class="cls-3" cx="370.2" cy="198" r="6"/>
          <circle class="cls-2" cx="100.5" cy="198" r="6"/>
        </g>
      </g>
      <g id="_2010" data-name="2010">
        <g id="circles-4" data-name="circles">
          <circle class="cls-3" cx="321" cy="259" r="6"/>
          <circle class="cls-2" cx="82.1" cy="259" r="6"/>
        </g>
      </g>
      <g id="_2015" data-name="2015">
        <g id="circles-5" data-name="circles">
          <circle class="cls-3" cx="319.3" cy="320" r="6"/>
          <circle class="cls-2" cx="119" cy="320" r="6"/>
        </g>
      </g>
    </g>
  </g>
</svg>