<?xml version="1.0" encoding="UTF-8"?>
<svg id="choiem" xmlns="http://www.w3.org/2000/svg" viewBox="0 0 730.324 538.563">
  <g>
    <g id="grillll">
      <line x1="57.882" y1="138.951" x2="598.078" y2="138.951" style="fill: none; stroke: #d1d1d1; stroke-miterlimit: 10; stroke-width: .432px;"/>
      <line x1="58.4" y1="240.375" x2="598.597" y2="240.375" style="fill: none; stroke: #d1d1d1; stroke-miterlimit: 10; stroke-width: .432px;"/>
      <line x1="57.45" y1="339.635" x2="597.647" y2="339.635" style="fill: none; stroke: #d1d1d1; stroke-miterlimit: 10; stroke-width: .432px;"/>
      <line x1="57.882" y1="442.527" x2="598.078" y2="442.527" style="fill: none; stroke: #d1d1d1; stroke-miterlimit: 10; stroke-width: .432px;"/>
    </g>
    <g id="axisssss">
      <g id="Xaxiss">
        <g style="isolation: isolate;">
          <g style="isolation: isolate;">
            <g style="isolation: isolate;">
              <g style="isolation: isolate;">
                <g style="isolation: isolate;">
                  <text transform="translate(43.195 501.788)" style="fill: #000; font-family: Amiri-Regular, Amiri; font-size: 11.576px; isolation: isolate;"><tspan x="0" y="0">6am</tspan></text>
                </g>
              </g>
            </g>
          </g>
        </g>
        <g style="isolation: isolate;">
          <g style="isolation: isolate;">
            <g style="isolation: isolate;">
              <g style="isolation: isolate;">
                <g style="isolation: isolate;">
                  <text transform="translate(81.552 501.788)" style="fill: #000; font-family: Amiri-Regular, Amiri; font-size: 11.576px; isolation: isolate;"><tspan x="0" y="0">7</tspan></text>
                </g>
              </g>
            </g>
          </g>
        </g>
        <g style="isolation: isolate;">
          <g style="isolation: isolate;">
            <g style="isolation: isolate;">
              <g style="isolation: isolate;">
                <g style="isolation: isolate;">
                  <text transform="translate(119.91 501.788)" style="fill: #000; font-family: Amiri-Regular, Amiri; font-size: 11.576px; isolation: isolate;"><tspan x="0" y="0">8</tspan></text>
                </g>
              </g>
            </g>
          </g>
        </g>
        <g style="isolation: isolate;">
          <g style="isolation: isolate;">
            <g style="isolation: isolate;">
              <g style="isolation: isolate;">
                <g style="isolation: isolate;">
                  <text transform="translate(158.18 501.788)" style="fill: #000; font-family: Amiri-Regular, Amiri; font-size: 11.576px; isolation: isolate;"><tspan x="0" y="0">9</tspan></text>
                </g>
              </g>
            </g>
          </g>
        </g>
        <g style="isolation: isolate;">
          <g style="isolation: isolate;">
            <g style="isolation: isolate;">
              <g style="isolation: isolate;">
                <g style="isolation: isolate;">
                  <text transform="translate(194.378 501.788)" style="fill: #000; font-family: Amiri-Regular, Amiri; font-size: 11.576px; isolation: isolate;"><tspan x="0" y="0">10</tspan></text>
                </g>
              </g>
            </g>
          </g>
        </g>
        <g style="isolation: isolate;">
          <g style="isolation: isolate;">
            <g style="isolation: isolate;">
              <g style="isolation: isolate;">
                <g style="isolation: isolate;">
                  <text transform="translate(232.994 501.788)" style="fill: #000; font-family: Amiri-Regular, Amiri; font-size: 11.576px; isolation: isolate;"><tspan x="0" y="0">11</tspan></text>
                </g>
              </g>
            </g>
          </g>
        </g>
        <g style="isolation: isolate;">
          <g style="isolation: isolate;">
            <g style="isolation: isolate;">
              <g style="isolation: isolate;">
                <g style="isolation: isolate;">
                  <text transform="translate(271.006 501.788)" style="fill: #000; font-family: Amiri-Regular, Amiri; font-size: 11.576px; isolation: isolate;"><tspan x="0" y="0">noon</tspan></text>
                </g>
              </g>
            </g>
          </g>
        </g>
        <g style="isolation: isolate;">
          <g style="isolation: isolate;">
            <g style="isolation: isolate;">
              <g style="isolation: isolate;">
                <g style="isolation: isolate;">
                  <text transform="translate(309.362 501.788)" style="fill: #000; font-family: Amiri-Regular, Amiri; font-size: 11.576px; isolation: isolate;"><tspan x="0" y="0">1pm</tspan></text>
                </g>
              </g>
            </g>
          </g>
        </g>
        <g style="isolation: isolate;">
          <g style="isolation: isolate;">
            <g style="isolation: isolate;">
              <g style="isolation: isolate;">
                <g style="isolation: isolate;">
                  <text transform="translate(347.721 501.788)" style="fill: #000; font-family: Amiri-Regular, Amiri; font-size: 11.576px; isolation: isolate;"><tspan x="0" y="0">2</tspan></text>
                </g>
              </g>
            </g>
          </g>
        </g>
        <g style="isolation: isolate;">
          <g style="isolation: isolate;">
            <g style="isolation: isolate;">
              <g style="isolation: isolate;">
                <g style="isolation: isolate;">
                  <text transform="translate(385.991 501.788)" style="fill: #000; font-family: Amiri-Regular, Amiri; font-size: 11.576px; isolation: isolate;"><tspan x="0" y="0">3</tspan></text>
                </g>
              </g>
            </g>
          </g>
        </g>
        <g style="isolation: isolate;">
          <g style="isolation: isolate;">
            <g style="isolation: isolate;">
              <g style="isolation: isolate;">
                <g style="isolation: isolate;">
                  <text transform="translate(424.347 501.788)" style="fill: #000; font-family: Amiri-Regular, Amiri; font-size: 11.576px; isolation: isolate;"><tspan x="0" y="0">4</tspan></text>
                </g>
              </g>
            </g>
          </g>
        </g>
        <g style="isolation: isolate;">
          <g style="isolation: isolate;">
            <g style="isolation: isolate;">
              <g style="isolation: isolate;">
                <g style="isolation: isolate;">
                  <text transform="translate(462.617 501.788)" style="fill: #000; font-family: Amiri-Regular, Amiri; font-size: 11.576px; isolation: isolate;"><tspan x="0" y="0">5</tspan></text>
                </g>
              </g>
            </g>
          </g>
        </g>
        <g style="isolation: isolate;">
          <g style="isolation: isolate;">
            <g style="isolation: isolate;">
              <g style="isolation: isolate;">
                <g style="isolation: isolate;">
                  <text transform="translate(500.976 501.788)" style="fill: #000; font-family: Amiri-Regular, Amiri; font-size: 11.576px; isolation: isolate;"><tspan x="0" y="0">6</tspan></text>
                </g>
              </g>
            </g>
          </g>
        </g>
        <g style="isolation: isolate;">
          <g style="isolation: isolate;">
            <g style="isolation: isolate;">
              <g style="isolation: isolate;">
                <g style="isolation: isolate;">
                  <text transform="translate(539.332 501.788)" style="fill: #000; font-family: Amiri-Regular, Amiri; font-size: 11.576px; isolation: isolate;"><tspan x="0" y="0">7</tspan></text>
                </g>
              </g>
            </g>
          </g>
        </g>
        <g style="isolation: isolate;">
          <g style="isolation: isolate;">
            <g style="isolation: isolate;">
              <g style="isolation: isolate;">
                <g style="isolation: isolate;">
                  <text transform="translate(577.603 501.788)" style="fill: #000; font-family: Amiri-Regular, Amiri; font-size: 11.576px; isolation: isolate;"><tspan x="0" y="0">8</tspan></text>
                </g>
              </g>
            </g>
          </g>
        </g>
        <g style="isolation: isolate;">
          <g style="isolation: isolate;">
            <g style="isolation: isolate;">
              <g style="isolation: isolate;">
                <g style="isolation: isolate;">
                  <text transform="translate(589.266 517.942)" style="fill: #bc1b3a; font-family: Amiri-Bold, Amiri; font-size: 10.626px; font-weight: 700; isolation: isolate;"><tspan x="0" y="0">T</tspan></text>
                </g>
              </g>
            </g>
          </g>
          <g style="isolation: isolate;">
            <g style="isolation: isolate;">
              <g style="isolation: isolate;">
                <g style="isolation: isolate;">
                  <text transform="translate(595.659 517.942)" style="fill: #bc1b3a; font-family: Amiri-Bold, Amiri; font-size: 10.626px; font-weight: 700; isolation: isolate;"><tspan x="0" y="0">ime</tspan></text>
                </g>
              </g>
            </g>
          </g>
        </g>
      </g>
      <g id="Yaxisss2">
        <g style="isolation: isolate;">
          <g style="isolation: isolate;">
            <g style="isolation: isolate;">
              <g style="isolation: isolate;">
                <text transform="translate(608.617 69.925)" style="fill: #bc1b3a; font-family: Amiri-Bold, Amiri; font-size: 10.626px; font-weight: 700; isolation: isolate;"><tspan x="0" y="0">Minute</tspan></text>
              </g>
            </g>
          </g>
        </g>
        <g style="isolation: isolate;">
          <g style="isolation: isolate;">
            <g style="isolation: isolate;">
              <g style="isolation: isolate;">
                <text transform="translate(608.531 343.093)" style="fill: #000; font-family: Amiri-Regular, Amiri; font-size: 11.576px; isolation: isolate;"><tspan x="0" y="0">12</tspan></text>
              </g>
            </g>
          </g>
        </g>
        <g style="isolation: isolate;">
          <g style="isolation: isolate;">
            <g style="isolation: isolate;">
              <g style="isolation: isolate;">
                <text transform="translate(611.207 485.719)" style="fill: #000; font-family: Amiri-Regular, Amiri; font-size: 11.576px; isolation: isolate;"><tspan x="0" y="0">0</tspan></text>
              </g>
            </g>
          </g>
        </g>
        <g style="isolation: isolate;">
          <g style="isolation: isolate;">
            <g style="isolation: isolate;">
              <g style="isolation: isolate;">
                <text transform="translate(606.875 141.543)" style="fill: #000; font-family: Amiri-Regular, Amiri; font-size: 11.576px; isolation: isolate;"><tspan x="0" y="0">28</tspan></text>
              </g>
            </g>
          </g>
        </g>
        <g style="isolation: isolate;">
          <g style="isolation: isolate;">
            <g style="isolation: isolate;">
              <g style="isolation: isolate;">
                <text transform="translate(607.069 95.549)" style="fill: #000; font-family: Amiri-Regular, Amiri; font-size: 11.576px; isolation: isolate;"><tspan x="0" y="0">32</tspan></text>
              </g>
            </g>
          </g>
        </g>
        <g style="isolation: isolate;">
          <g style="isolation: isolate;">
            <g style="isolation: isolate;">
              <g style="isolation: isolate;">
                <text transform="translate(609.481 394.927)" style="fill: #000; font-family: Amiri-Regular, Amiri; font-size: 11.576px; isolation: isolate;"><tspan x="0" y="0">8</tspan></text>
              </g>
            </g>
          </g>
        </g>
        <g style="isolation: isolate;">
          <g style="isolation: isolate;">
            <g style="isolation: isolate;">
              <g style="isolation: isolate;">
                <text transform="translate(609.567 443.995)" style="fill: #000; font-family: Amiri-Regular, Amiri; font-size: 11.576px; isolation: isolate;"><tspan x="0" y="0">4</tspan></text>
              </g>
            </g>
          </g>
        </g>
        <g style="isolation: isolate;">
          <g style="isolation: isolate;">
            <g style="isolation: isolate;">
              <g style="isolation: isolate;">
                <text transform="translate(608.617 289.878)" style="fill: #000; font-family: Amiri-Regular, Amiri; font-size: 11.576px; isolation: isolate;"><tspan x="0" y="0">16</tspan></text>
              </g>
            </g>
          </g>
        </g>
        <g style="isolation: isolate;">
          <g style="isolation: isolate;">
            <g style="isolation: isolate;">
              <g style="isolation: isolate;">
                <text transform="translate(608.702 243.402)" style="fill: #000; font-family: Amiri-Regular, Amiri; font-size: 11.576px; isolation: isolate;"><tspan x="0" y="0">20</tspan></text>
              </g>
            </g>
          </g>
        </g>
        <g style="isolation: isolate;">
          <g style="isolation: isolate;">
            <g style="isolation: isolate;">
              <g style="isolation: isolate;">
                <text transform="translate(607.407 190.789)" style="fill: #000; font-family: Amiri-Regular, Amiri; font-size: 11.576px; isolation: isolate;"><tspan x="0" y="0">24</tspan></text>
              </g>
            </g>
          </g>
        </g>
      </g>
      <g id="Yaxiss">
        <g style="isolation: isolate;">
          <g style="isolation: isolate;">
            <g style="isolation: isolate;">
              <g style="isolation: isolate;">
                <g style="isolation: isolate;">
                  <text transform="translate(30.323 485.719)" style="fill: #000; font-family: Amiri-Regular, Amiri; font-size: 11.576px; isolation: isolate;"><tspan x="0" y="0">0</tspan></text>
                </g>
              </g>
            </g>
          </g>
        </g>
        <g style="isolation: isolate;">
          <g style="isolation: isolate;">
            <g style="isolation: isolate;">
              <g style="isolation: isolate;">
                <g style="isolation: isolate;">
                  <text transform="translate(23.498 446.066)" style="fill: #000; font-family: Amiri-Regular, Amiri; font-size: 11.576px; isolation: isolate;"><tspan x="0" y="0">10</tspan></text>
                </g>
              </g>
            </g>
          </g>
        </g>
        <g style="isolation: isolate;">
          <g style="isolation: isolate;">
            <g style="isolation: isolate;">
              <g style="isolation: isolate;">
                <g style="isolation: isolate;">
                  <text transform="translate(23.498 393.54)" style="fill: #000; font-family: Amiri-Regular, Amiri; font-size: 11.576px; isolation: isolate;"><tspan x="0" y="0">20</tspan></text>
                </g>
              </g>
            </g>
          </g>
        </g>
        <g style="isolation: isolate;">
          <g style="isolation: isolate;">
            <g style="isolation: isolate;">
              <g style="isolation: isolate;">
                <g style="isolation: isolate;">
                  <text transform="translate(23.498 342.831)" style="fill: #000; font-family: Amiri-Regular, Amiri; font-size: 11.576px; isolation: isolate;"><tspan x="0" y="0">30</tspan></text>
                </g>
              </g>
            </g>
          </g>
        </g>
        <g style="isolation: isolate;">
          <g style="isolation: isolate;">
            <g style="isolation: isolate;">
              <g style="isolation: isolate;">
                <g style="isolation: isolate;">
                  <text transform="translate(23.498 289.353)" style="fill: #000; font-family: Amiri-Regular, Amiri; font-size: 11.576px; isolation: isolate;"><tspan x="0" y="0">40</tspan></text>
                </g>
              </g>
            </g>
          </g>
        </g>
        <g style="isolation: isolate;">
          <g style="isolation: isolate;">
            <g style="isolation: isolate;">
              <g style="isolation: isolate;">
                <g style="isolation: isolate;">
                  <text transform="translate(22.635 238.644)" style="fill: #000; font-family: Amiri-Regular, Amiri; font-size: 11.576px; isolation: isolate;"><tspan x="0" y="0">50</tspan></text>
                </g>
              </g>
            </g>
          </g>
        </g>
        <g style="isolation: isolate;">
          <g style="isolation: isolate;">
            <g style="isolation: isolate;">
              <g style="isolation: isolate;">
                <g style="isolation: isolate;">
                  <text transform="translate(22.635 188.71)" style="fill: #000; font-family: Amiri-Regular, Amiri; font-size: 11.576px; isolation: isolate;"><tspan x="0" y="0">60</tspan></text>
                </g>
              </g>
            </g>
          </g>
        </g>
        <g style="isolation: isolate;">
          <g style="isolation: isolate;">
            <g style="isolation: isolate;">
              <g style="isolation: isolate;">
                <g style="isolation: isolate;">
                  <text transform="translate(23.498 140.591)" style="fill: #000; font-family: Amiri-Regular, Amiri; font-size: 11.576px; isolation: isolate;"><tspan x="0" y="0">70</tspan></text>
                </g>
              </g>
            </g>
          </g>
        </g>
        <g style="isolation: isolate;">
          <g style="isolation: isolate;">
            <g style="isolation: isolate;">
              <g style="isolation: isolate;">
                <g style="isolation: isolate;">
                  <text transform="translate(23.326 97.569)" style="fill: #000; font-family: Amiri-Regular, Amiri; font-size: 11.576px; isolation: isolate;"><tspan x="0" y="0">80</tspan></text>
                </g>
              </g>
            </g>
          </g>
        </g>
      </g>
    </g>
    <g id="viz">
      <g id="Yes" style="opacity: .42;">
        <path d="M51.468,491.052c18.89,0,18.89-127.316,37.78-127.316s18.89,102.363,37.78,102.363,18.89-31.575,37.78-31.575,18.89-3.056,37.78-3.056,18.89-16.805,37.78-16.805,18.89-32.084,37.78-32.084,18.89-284.169,37.78-284.169,18.89,113.566,37.78,113.566,18.89,101.344,37.78,101.344,18.89,140.557,37.78,140.557,18.89,10.185,37.78,10.185,18.89.51,37.78.51,18.89-14.26,37.78-14.26,18.89,34.63,37.78,34.63" style="fill: none; stroke: #bc1b3a; stroke-width: 1.728px;"/>
      </g>
      <g id="No" style="opacity: .42;">
        <path d="M51.468,491.052c18.89,0,18.89-143.103,37.78-143.103s18.89,73.844,37.78,73.844,18.89-3.056,37.78-3.056,18.89,20.371,37.78,20.371,18.89,9.676,37.78,9.676,18.89-56.019,37.78-56.019,18.89-11.713,37.78-11.713,18.89-5.093,37.78-5.093,18.89-125.788,37.78-125.788,18.89,133.936,37.78,133.936,18.89-36.158,37.78-36.158,18.89,107.964,37.78,107.964,18.89-167.039,37.78-167.039,18.89,202.178,37.78,202.178" style="fill: none; stroke: #919191; stroke-width: 1.728px;"/>
      </g>
      <g style="isolation: isolate; opacity: .53;">
        <g style="isolation: isolate;">
          <g style="isolation: isolate;">
            <text transform="translate(40.729 430.797)" style="fill: #bc1b3a; font-family: Amiri-Bold, Amiri; font-size: 8.812px; font-weight: 700; isolation: isolate; letter-spacing: -.012em;"><tspan x="0" y="0">W</tspan></text>
            <text transform="translate(48.801 430.797)" style="fill: #bc1b3a; font-family: Amiri-Bold, Amiri; font-size: 8.812px; font-weight: 700; isolation: isolate;"><tspan x="0" y="0">ith PE class</tspan></text>
          </g>
        </g>
      </g>
      <g style="isolation: isolate; opacity: .53;">
        <g style="isolation: isolate;">
          <g style="isolation: isolate;">
            <text transform="translate(125.812 414.295)" style="fill: #919191; font-family: Amiri-Bold, Amiri; font-size: 8.812px; font-weight: 700; isolation: isolate; letter-spacing: -.012em;"><tspan x="0" y="0">W</tspan></text>
            <text transform="translate(133.884 414.295)" style="fill: #919191; font-family: Amiri-Bold, Amiri; font-size: 8.812px; font-weight: 700; isolation: isolate;"><tspan x="0" y="0">ithout PE class</tspan></text>
          </g>
        </g>
      </g>
    </g>
    <g id="Notessss">
      <line x1="123.279" y1="90.313" x2="123.279" y2="477.254" style="fill: none; stroke: #919191; stroke-dasharray: 0 0 0 0 0 0 3 3 0 0 0 0; stroke-width: .691px;"/>
      <g style="isolation: isolate;">
        <g style="isolation: isolate;">
          <g style="isolation: isolate;">
            <g style="isolation: isolate;">
              <g style="isolation: isolate;">
                <text transform="translate(98.744 80.809)" style="fill: #333; font-family: Amiri-Bold, Amiri; font-size: 8.812px; font-weight: 700; isolation: isolate;"><tspan x="0" y="0">Classes Begin</tspan></text>
              </g>
            </g>
          </g>
        </g>
      </g>
      <line x1="315.929" y1="88.153" x2="315.929" y2="481.141" style="fill: none; stroke: #919191; stroke-dasharray: 0 0 0 0 0 0 3 3 0 0 0 0; stroke-width: .691px;"/>
      <g style="isolation: isolate;">
        <g style="isolation: isolate;">
          <g style="isolation: isolate;">
            <g style="isolation: isolate;">
              <g style="isolation: isolate;">
                <text transform="translate(290.702 80.809)" style="fill: #333; font-family: Amiri-Bold, Amiri; font-size: 8.812px; font-weight: 700; isolation: isolate;"><tspan x="0" y="0">Lunch</tspan></text>
              </g>
            </g>
          </g>
        </g>
        <g style="isolation: isolate;">
          <g style="isolation: isolate;">
            <g style="isolation: isolate;">
              <g style="isolation: isolate;">
                <text transform="translate(317.138 80.809)" style="fill: #333; font-family: Amiri-Bold, Amiri; font-size: 8.812px; font-weight: 700; isolation: isolate;"><tspan x="0" y="0">B</tspan></text>
              </g>
            </g>
          </g>
        </g>
        <g style="isolation: isolate;">
          <g style="isolation: isolate;">
            <g style="isolation: isolate;">
              <g style="isolation: isolate;">
                <text transform="translate(322.408 80.809)" style="fill: #333; font-family: Amiri-Bold, Amiri; font-size: 8.812px; font-weight: 700; isolation: isolate;"><tspan x="0" y="0">r</tspan></text>
              </g>
            </g>
          </g>
        </g>
        <g style="isolation: isolate;">
          <g style="isolation: isolate;">
            <g style="isolation: isolate;">
              <g style="isolation: isolate;">
                <text transform="translate(326.209 80.809)" style="fill: #333; font-family: Amiri-Bold, Amiri; font-size: 8.812px; font-weight: 700; isolation: isolate;"><tspan x="0" y="0">eak</tspan></text>
              </g>
            </g>
          </g>
        </g>
      </g>
      <line x1="430.136" y1="90.313" x2="430.136" y2="484.511" style="fill: none; stroke: #919191; stroke-dasharray: 0 0 0 0 0 0 3 3 0 0 0 0; stroke-width: .691px;"/>
      <g style="isolation: isolate;">
        <g style="isolation: isolate;">
          <g style="isolation: isolate;">
            <g style="isolation: isolate;">
              <g style="isolation: isolate;">
                <text transform="translate(407.242 80.896)" style="fill: #333; font-family: Amiri-Bold, Amiri; font-size: 8.812px; font-weight: 700; isolation: isolate;"><tspan x="0" y="0">Classes End</tspan></text>
              </g>
            </g>
          </g>
        </g>
      </g>
      <g>
        <g style="isolation: isolate; opacity: .42;">
          <g style="isolation: isolate;">
            <g style="isolation: isolate;">
              <g style="isolation: isolate;">
                <text transform="translate(273.716 94.445)" style="fill: #bc1b3a; font-family: Amiri-Bold, Amiri; font-size: 9.676px; font-weight: 700; isolation: isolate;"><tspan x="0" y="0">Going out</tspan></text>
              </g>
            </g>
          </g>
        </g>
        <g style="isolation: isolate; opacity: .44;">
          <g style="isolation: isolate;">
            <g style="isolation: isolate;">
              <g style="isolation: isolate;">
                <text transform="translate(318.034 94.445)" style="fill: #bc1b3a; font-family: Amiri-Bold, Amiri; font-size: 9.676px; font-weight: 700; isolation: isolate;"><tspan x="0" y="0">f</tspan></text>
              </g>
            </g>
          </g>
        </g>
        <g style="isolation: isolate; opacity: .44;">
          <g style="isolation: isolate;">
            <g style="isolation: isolate;">
              <g style="isolation: isolate;">
                <text transform="translate(321.316 94.445)" style="fill: #bc1b3a; font-family: Amiri-Bold, Amiri; font-size: 9.676px; font-weight: 700; isolation: isolate;"><tspan x="0" y="0">or lunch</tspan></text>
              </g>
            </g>
          </g>
        </g>
      </g>
      <g style="isolation: isolate; opacity: .51;">
        <g style="isolation: isolate;">
          <g style="isolation: isolate;">
            <g style="isolation: isolate;">
              <g style="isolation: isolate;">
                <text transform="translate(65.084 335.573)" style="fill: #bc1b3a; font-family: Amiri-Bold, Amiri; font-size: 9.676px; font-weight: 700; isolation: isolate;"><tspan x="0" y="0">Commuting</tspan></text>
              </g>
            </g>
          </g>
        </g>
      </g>
    </g>
  </g>
  <g style="isolation: isolate;">
    <g style="isolation: isolate;">
      <g style="isolation: isolate;">
        <g style="isolation: isolate;">
          <g style="isolation: isolate;">
            <text transform="translate(0 527.445)" style="fill: #636363; font-family: Amiri-Regular, Amiri; font-size: 12.354px; isolation: isolate;"><tspan x="0" y="0">Sou</tspan></text>
          </g>
        </g>
      </g>
    </g>
    <g style="isolation: isolate;">
      <g style="isolation: isolate;">
        <g style="isolation: isolate;">
          <g style="isolation: isolate;">
            <text transform="translate(18.401 527.445)" style="fill: #636363; font-family: Amiri-Regular, Amiri; font-size: 12.354px; isolation: isolate;"><tspan x="0" y="0">r</tspan></text>
          </g>
        </g>
      </g>
    </g>
    <g style="isolation: isolate;">
      <g style="isolation: isolate;">
        <g style="isolation: isolate;">
          <g style="isolation: isolate;">
            <text transform="translate(22.893 527.445)" style="fill: #636363; font-family: Amiri-Regular, Amiri; font-size: 12.354px; isolation: isolate;"><tspan x="0" y="0">ce: Data f</tspan></text>
          </g>
        </g>
      </g>
    </g>
    <g style="isolation: isolate;">
      <g style="isolation: isolate;">
        <g style="isolation: isolate;">
          <g style="isolation: isolate;">
            <text transform="translate(69.458 527.445)" style="fill: #636363; font-family: Amiri-Regular, Amiri; font-size: 12.354px; isolation: isolate;"><tspan x="0" y="0">r</tspan></text>
          </g>
        </g>
      </g>
    </g>
    <g style="isolation: isolate;">
      <g style="isolation: isolate;">
        <g style="isolation: isolate;">
          <g style="isolation: isolate;">
            <text transform="translate(74.037 527.445)" style="fill: #636363; font-family: Amiri-Regular, Amiri; font-size: 12.354px; isolation: isolate;"><tspan x="0" y="0">om Ap</tspan></text>
          </g>
        </g>
      </g>
    </g>
    <g style="isolation: isolate;">
      <g style="isolation: isolate;">
        <g style="isolation: isolate;">
          <g style="isolation: isolate;">
            <text transform="translate(106.951 527.445)" style="fill: #636363; font-family: Amiri-Regular, Amiri; font-size: 12.354px; isolation: isolate;"><tspan x="0" y="0">p</tspan></text>
          </g>
        </g>
      </g>
    </g>
    <g style="isolation: isolate;">
      <g style="isolation: isolate;">
        <g style="isolation: isolate;">
          <g style="isolation: isolate;">
            <text transform="translate(113.085 527.445)" style="fill: #636363; font-family: Amiri-Regular, Amiri; font-size: 12.354px; isolation: isolate;"><tspan x="0" y="0">le</tspan></text>
          </g>
        </g>
      </g>
    </g>
    <g style="isolation: isolate;">
      <g style="isolation: isolate;">
        <g style="isolation: isolate;">
          <g style="isolation: isolate;">
            <text transform="translate(124.92 527.445)" style="fill: #636363; font-family: Amiri-Regular, Amiri; font-size: 12.354px; isolation: isolate;"><tspan x="0" y="0">H</tspan></text>
          </g>
        </g>
      </g>
    </g>
    <g style="isolation: isolate;">
      <g style="isolation: isolate;">
        <g style="isolation: isolate;">
          <g style="isolation: isolate;">
            <text transform="translate(133.472 527.445)" style="fill: #636363; font-family: Amiri-Regular, Amiri; font-size: 12.354px; isolation: isolate;"><tspan x="0" y="0">ealth.</tspan></text>
          </g>
        </g>
      </g>
    </g>
  </g>
  <g style="isolation: isolate;">
    <g style="isolation: isolate;">
      <g style="isolation: isolate;">
        <g style="isolation: isolate;">
          <text transform="translate(12.009 68.629)" style="fill: #bc1b3a; font-family: Amiri-Bold, Amiri; font-size: 10.626px; font-weight: 700; isolation: isolate;"><tspan x="0" y="0">Ki</tspan></text>
        </g>
      </g>
      <g style="isolation: isolate;">
        <g style="isolation: isolate;">
          <text transform="translate(22.73 68.629)" style="fill: #bc1b3a; font-family: Amiri-Bold, Amiri; font-size: 10.626px; font-weight: 700; isolation: isolate; letter-spacing: -.006em;"><tspan x="0" y="0">l</tspan></text>
        </g>
      </g>
      <g style="isolation: isolate;">
        <g style="isolation: isolate;">
          <text transform="translate(25.832 68.629)" style="fill: #bc1b3a; font-family: Amiri-Bold, Amiri; font-size: 10.626px; font-weight: 700; isolation: isolate;"><tspan x="0" y="0">oca</tspan></text>
        </g>
      </g>
      <g style="isolation: isolate;">
        <g style="isolation: isolate;">
          <text transform="translate(40.868 68.629)" style="fill: #bc1b3a; font-family: Amiri-Bold, Amiri; font-size: 10.626px; font-weight: 700; isolation: isolate; letter-spacing: -.006em;"><tspan x="0" y="0">l</tspan></text>
        </g>
      </g>
      <g style="isolation: isolate;">
        <g style="isolation: isolate;">
          <text transform="translate(43.971 68.629)" style="fill: #bc1b3a; font-family: Amiri-Bold, Amiri; font-size: 10.626px; font-weight: 700; isolation: isolate;"><tspan x="0" y="0">or</tspan></text>
        </g>
      </g>
      <g style="isolation: isolate;">
        <g style="isolation: isolate;">
          <text transform="translate(54.139 68.629)" style="fill: #bc1b3a; font-family: Amiri-Bold, Amiri; font-size: 10.626px; font-weight: 700; isolation: isolate; letter-spacing: -.004em;"><tspan x="0" y="0">i</tspan></text>
        </g>
      </g>
      <g style="isolation: isolate;">
        <g style="isolation: isolate;">
          <text transform="translate(57.359 68.629)" style="fill: #bc1b3a; font-family: Amiri-Bold, Amiri; font-size: 10.626px; font-weight: 700; isolation: isolate;"><tspan x="0" y="0">e</tspan></text>
        </g>
      </g>
    </g>
  </g>
  <g id="bar">
    <g id="noPEE">
      <path d="M89.155,442.527h5.961c1.431,0,2.592.454,2.592,1.014v42.893c0,.56-1.16,1.014-2.592,1.014h-5.961c-1.431,0-2.592-.454-2.592-1.014v-42.893c0-.56,1.16-1.014,2.592-1.014h0Z" style="fill: #dedede; stroke-width: 0px;"/>
      <path d="M125.007,463.691h9.417c.477,0,.864.651.864,1.452v20.766c0,.802-.387,1.452-.864,1.452h-9.417c-.477,0-.864-.651-.864-1.452v-20.766c0-.802.387-1.452.864-1.452Z" style="fill: #dedede; stroke-width: 0px;"/>
      <path d="M163.278,475.31h8.034c.859,0,1.555.193,1.555.431v11.189c0,.238-.696.431-1.555.431h-8.034c-.859,0-1.555-.193-1.555-.431v-11.189c0-.238.696-.431,1.555-.431Z" style="fill: #dedede; stroke-width: 0px;"/>
      <path d="M204.14,475.526h8.034c.859,0,1.555.186,1.555.415v10.92c0,.229-.696.415-1.555.415h-8.034c-.859,0-1.555-.186-1.555-.415v-10.92c0-.229.696-.415,1.555-.415Z" style="fill: #dedede; stroke-width: 0px;"/>
      <path d="M241.806,475.31h6.998c1.145,0,2.073.149,2.073.333v11.213c0,.184-.929.333-2.073.333h-6.998c-1.145,0-2.073-.149-2.073-.333v-11.213c0-.184.929-.333,2.073-.333Z" style="fill: #dedede; stroke-width: 0px;"/>
      <path d="M280.509,475.31h8.034c.859,0,1.555.191,1.555.427v11.284c0,.236-.696.427-1.555.427h-8.034c-.859,0-1.555-.191-1.555-.427v-11.284c0-.236.696-.427,1.555-.427Z" style="fill: #dedede; stroke-width: 0px;"/>
      <path d="M319.816,456.41h5.097c1.67,0,3.024.254,3.024.567v29.732c0,.313-1.354.567-3.024.567h-5.097c-1.67,0-3.024-.254-3.024-.567v-29.732c0-.313,1.354-.567,3.024-.567h0Z" style="fill: #dedede; stroke-width: 0px;"/>
      <path d="M356.1,464.33h10.453c.191,0,.346,2.155.346,4.812v13.233c0,2.657-.155,4.812-.346,4.812h-10.453c-.191,0-.346-2.155-.346-4.812v-13.233c0-2.657.155-4.812.346-4.812Z" style="fill: #dedede; stroke-width: 0px;"/>
      <path d="M432.987,456.41h6.998c1.145,0,2.073.384,2.073.857v28.891c0,.473-.929.857-2.073.857h-6.998c-1.145,0-2.073-.384-2.073-.857v-28.891c0-.473.929-.857,2.073-.857h0Z" style="fill: #dedede; stroke-width: 0px;"/>
      <path d="M509.183,485.069h8.034c.859,0,1.555.029,1.555.063v1.647c0,.035-.696.063-1.555.063h-8.034c-.859,0-1.555-.029-1.555-.063v-1.647c0-.035.696-.063,1.555-.063Z" style="fill: #dedede; stroke-width: 0px;"/>
      <rect x="585.034" y="484.511" width="11.144" height="2.16" rx=".346" ry=".346" style="fill: #dedede; stroke-width: 0px;"/>
    </g>
    <g id="PEEEE">
      <path d="M76.11,442.527h6.479c1.288,0,2.333.484,2.333,1.08v42.847c0,.597-1.044,1.08-2.333,1.08h-6.479c-1.288,0-2.333-.484-2.333-1.08v-42.847c0-.597,1.044-1.08,2.333-1.08Z" style="fill: #bc1b3a; stroke-width: 0px;"/>
      <path d="M112.221,484.511h9.417c.477,0,.864.082.864.183v2.657c0,.101-.387.183-.864.183h-9.417c-.477,0-.864-.082-.864-.183v-2.657c0-.101.387-.183.864-.183Z" style="fill: #bc1b3a; stroke-width: 0px;"/>
      <path d="M151.269,484.511h6.652c1.241,0,2.246.034,2.246.076v2.786c0,.041-1.006.076-2.246.076h-6.652c-1.241,0-2.246-.034-2.246-.076v-2.786c0-.041,1.006-.076,2.246-.076Z" style="fill: #bc1b3a; stroke-width: 0px;"/>
      <path d="M190.75,484.511h9.417c.477,0,.864.079.864.175v2.501c0,.097-.387.175-.864.175h-9.417c-.477,0-.864-.079-.864-.175v-2.501c0-.097.387-.175.864-.175Z" style="fill: #bc1b3a; stroke-width: 0px;"/>
      <path d="M228.07,484.511h8.898c.62,0,1.123.06,1.123.136v2.58c0,.074-.503.136-1.123.136h-8.898c-.62,0-1.123-.06-1.123-.136v-2.58c0-.074.503-.136,1.123-.136Z" style="fill: #bc1b3a; stroke-width: 0px;"/>
      <path d="M269.192,475.643h5.097c1.67,0,3.024.098,3.024.218v11.455c0,.12-1.354.218-3.024.218h-5.097c-1.67,0-3.024-.098-3.024-.218v-11.455c0-.12,1.354-.218,3.024-.218Z" style="fill: #bc1b3a; stroke-width: 0px;"/>
      <path d="M307.722,287.412h3.715c2.052,0,3.715,1.361,3.715,3.04v193.955c0,1.679-1.663,3.04-3.715,3.04h-3.715c-2.052,0-3.715-1.361-3.715-3.04v-193.955c0-1.679,1.663-3.04,3.715-3.04h0Z" style="fill: #bc1b3a; stroke-width: 0px;"/>
      <path d="M345.129,314.241h6.998c1.145,0,2.073,2.174,2.073,4.853v163.413c0,2.681-.929,4.854-2.073,4.854h-6.998c-1.145,0-2.073-2.174-2.073-4.854v-163.413c0-2.681.929-4.853,2.073-4.853Z" style="fill: #bc1b3a; stroke-width: 0px;"/>
      <path d="M381.153,456.41h9.417c.477,0,.864.856.864,1.912v26.955c0,1.056-.387,1.912-.864,1.912h-9.417c-.477,0-.864-.856-.864-1.912v-26.955c0-1.056.387-1.912.864-1.912Z" style="fill: #bc1b3a; stroke-width: 0px;"/>
      <path d="M419.078,484.856h9.417c.477,0,.864.063.864.141v1.965c0,.078-.387.141-.864.141h-9.417c-.477,0-.864-.063-.864-.141v-1.965c0-.078.387-.141.864-.141Z" style="fill: #bc1b3a; stroke-width: 0px;"/>
      <path d="M495.706,484.856h9.417c.477,0,.864.059.864.131v1.811c0,.073-.387.131-.864.131h-9.417c-.477,0-.864-.059-.864-.131v-1.811c0-.073.387-.131.864-.131Z" style="fill: #bc1b3a; stroke-width: 0px;"/>
      <path d="M534.15,484.856h8.898c.62,0,1.123.045,1.123.1v1.873c0,.055-.503.1-1.123.1h-8.898c-.62,0-1.123-.045-1.123-.1v-1.873c0-.055.503-.1,1.123-.1Z" style="fill: #bc1b3a; stroke-width: 0px;"/>
      <rect x="457.868" y="484.856" width="11.144" height="2.073" rx=".346" ry=".346" style="fill: #bc1b3a; stroke-width: 0px;"/>
      <rect x="572.421" y="484.597" width="11.144" height="2.073" rx=".346" ry=".346" style="fill: #bc1b3a; stroke-width: 0px;"/>
    </g>
    <path d="M394.789,365.249h6.998c1.145,0,2.073,1.527,2.073,3.41v114.946c0,1.883-.929,3.41-2.073,3.41h-6.998c-1.145,0-2.073-1.527-2.073-3.41v-114.946c0-1.883.929-3.41,2.073-3.41Z" style="fill: #dedede; stroke-width: 0px;"/>
    <path d="M547.205,404.657h8.034c.859,0,1.555,1.311,1.555,2.929v76.327c0,1.618-.696,2.929-1.555,2.929h-8.034c-.859,0-1.555-1.311-1.555-2.929v-76.327c0-1.618.696-2.929,1.555-2.929Z" style="fill: #dedede; stroke-width: 0px;"/>
    <path d="M471.88,442.527h8.034c.859,0,1.555.708,1.555,1.579v41.157c0,.873-.696,1.579-1.555,1.579h-8.034c-.859,0-1.555-.708-1.555-1.579v-41.157c0-.873.696-1.579,1.555-1.579Z" style="fill: #dedede; stroke-width: 0px;"/>
  </g>
  <g style="isolation: isolate;">
    <g style="isolation: isolate;">
      <g style="isolation: isolate;">
        <g style="isolation: isolate;">
          <text transform="translate(343.055 304.43)" style="fill: #000; font-family: Amiri-Bold, Amiri; font-size: 13.822px; font-weight: 700; isolation: isolate;"><tspan x="0" y="0">17 minutes</tspan></text>
        </g>
      </g>
    </g>
  </g>
  <g style="isolation: isolate;">
    <g style="isolation: isolate;">
      <g style="isolation: isolate;">
        <g style="isolation: isolate;">
          <text transform="translate(276.925 264.356)" style="fill: #000; font-family: Amiri-Bold, Amiri; font-size: 13.822px; font-weight: 700; isolation: isolate;"><tspan x="0" y="0">16 minutes</tspan></text>
        </g>
      </g>
    </g>
  </g>
  <g style="isolation: isolate;">
    <text transform="translate(13.681 13.509)" style="fill: #000; font-family: Amiri-Bold, Amiri; font-size: 16.414px; font-weight: 700; isolation: isolate; letter-spacing: -.068em;"><tspan x="0" y="0">T</tspan></text>
    <text transform="translate(22.725 13.509)" style="fill: #000; font-family: Amiri-Bold, Amiri; font-size: 16.414px; font-weight: 700; isolation: isolate;"><tspan x="0" y="0">sz </tspan></text>
    <text transform="translate(41.355 13.509)" style="fill: #000; font-family: Amiri-Bold, Amiri; font-size: 16.414px; font-weight: 700; isolation: isolate; letter-spacing: -.012em;"><tspan x="0" y="0">Y</tspan></text>
    <text transform="translate(51.153 13.509)" style="fill: #000; font-family: Amiri-Bold, Amiri; font-size: 16.414px; font-weight: 700; isolation: isolate;"><tspan x="0" y="0">ing Choi</tspan></text>
    <text transform="translate(111.885 13.509)" style="fill: #000; font-family: Amiri-Bold, Amiri; font-size: 16.414px; font-weight: 700; isolation: isolate; letter-spacing: -.013em;"><tspan x="0" y="0">’</tspan></text>
    <text transform="translate(115.036 13.509)" style="fill: #000; font-family: Amiri-Bold, Amiri; font-size: 16.414px; font-weight: 700; isolation: isolate;"><tspan x="0" y="0">s</tspan></text>
    <text transform="translate(121.503 13.509)" style="fill: #000; font-family: Amiri-Bold, Amiri; font-size: 16.414px; font-weight: 700; isolation: isolate;"><tspan x="0" y="0"> </tspan></text>
    <text transform="translate(126.296 13.509)" style="fill: #000; font-family: Amiri-Bold, Amiri; font-size: 16.414px; font-weight: 700; isolation: isolate; letter-spacing: -.017em;"><tspan x="0" y="0">A</tspan></text>
    <text transform="translate(136.833 13.509)" style="fill: #000; font-family: Amiri-Bold, Amiri; font-size: 16.414px; font-weight: 700; isolation: isolate;"><tspan x="0" y="0">ct</tspan></text>
    <text transform="translate(149.457 13.509)" style="fill: #000; font-family: Amiri-Bold, Amiri; font-size: 16.414px; font-weight: 700; isolation: isolate; letter-spacing: -.006em;"><tspan x="0" y="0">i</tspan></text>
    <text transform="translate(154.396 13.509)" style="fill: #000; font-family: Amiri-Bold, Amiri; font-size: 16.414px; font-weight: 700; isolation: isolate; letter-spacing: -.021em;"><tspan x="0" y="0">v</tspan></text>
    <text transform="translate(162.586 13.509)" style="fill: #000; font-family: Amiri-Bold, Amiri; font-size: 16.414px; font-weight: 700; isolation: isolate;"><tspan x="0" y="0">e Ene</tspan></text>
    <text transform="translate(201.307 13.509)" style="fill: #000; font-family: Amiri-Bold, Amiri; font-size: 16.414px; font-weight: 700; isolation: isolate; letter-spacing: -.005em;"><tspan x="0" y="0">r</tspan></text>
    <text transform="translate(208.414 13.509)" style="fill: #000; font-family: Amiri-Bold, Amiri; font-size: 16.414px; font-weight: 700; isolation: isolate;"><tspan x="0" y="0">gy Expenditu</tspan></text>
    <text transform="translate(302.087 13.509)" style="fill: #000; font-family: Amiri-Bold, Amiri; font-size: 16.414px; font-weight: 700; isolation: isolate; letter-spacing: -.007em;"><tspan x="0" y="0">r</tspan></text>
    <text transform="translate(309.163 13.509)" style="fill: #000; font-family: Amiri-Bold, Amiri; font-size: 16.414px; font-weight: 700; isolation: isolate;"><tspan x="0" y="0">e and E</tspan></text>
    <text transform="translate(361.621 13.509)" style="fill: #000; font-family: Amiri-Bold, Amiri; font-size: 16.414px; font-weight: 700; isolation: isolate; letter-spacing: -.024em;"><tspan x="0" y="0">x</tspan></text>
    <text transform="translate(370.155 13.509)" style="fill: #000; font-family: Amiri-Bold, Amiri; font-size: 16.414px; font-weight: 700; isolation: isolate;"><tspan x="0" y="0">e</tspan></text>
    <text transform="translate(377.525 13.509)" style="fill: #000; font-family: Amiri-Bold, Amiri; font-size: 16.414px; font-weight: 700; isolation: isolate; letter-spacing: -.01em;"><tspan x="0" y="0">r</tspan></text>
    <text transform="translate(384.534 13.509)" style="fill: #000; font-family: Amiri-Bold, Amiri; font-size: 16.414px; font-weight: 700; isolation: isolate;"><tspan x="0" y="0">cise Minute on </tspan></text>
    <text transform="translate(494.03 13.509)" style="fill: #000; font-family: Amiri-Bold, Amiri; font-size: 16.414px; font-weight: 700; isolation: isolate; letter-spacing: -.046em;"><tspan x="0" y="0">T</tspan></text>
    <text transform="translate(503.436 13.509)" style="fill: #000; font-family: Amiri-Bold, Amiri; font-size: 16.414px; font-weight: 700; isolation: isolate; letter-spacing: -.019em;"><tspan x="0" y="0">w</tspan></text>
    <text transform="translate(515.764 13.509)" style="fill: #000; font-family: Amiri-Bold, Amiri; font-size: 16.414px; font-weight: 700; isolation: isolate;"><tspan x="0" y="0">o Scho</tspan></text>
    <text transform="translate(562.427 13.509)" style="fill: #000; font-family: Amiri-Bold, Amiri; font-size: 16.414px; font-weight: 700; isolation: isolate; letter-spacing: -.006em;"><tspan x="0" y="0">o</tspan></text>
    <text transform="translate(570.848 13.509)" style="fill: #000; font-family: Amiri-Bold, Amiri; font-size: 16.414px; font-weight: 700; isolation: isolate;"><tspan x="0" y="0">l D</tspan></text>
    <text transform="translate(592.728 13.509)" style="fill: #000; font-family: Amiri-Bold, Amiri; font-size: 16.414px; font-weight: 700; isolation: isolate; letter-spacing: -.021em;"><tspan x="0" y="0">a</tspan></text>
    <text transform="translate(599.933 13.509)" style="fill: #000; font-family: Amiri-Bold, Amiri; font-size: 16.414px; font-weight: 700; isolation: isolate; letter-spacing: -.008em;"><tspan x="0" y="0">y</tspan></text>
    <text transform="translate(608.354 13.509)" style="fill: #000; font-family: Amiri-Bold, Amiri; font-size: 16.414px; font-weight: 700; isolation: isolate;"><tspan x="0" y="0">s: </tspan></text>
    <text transform="translate(13.681 33.205)" style="fill: #000; font-family: Amiri-Bold, Amiri; font-size: 16.414px; font-weight: 700; isolation: isolate; letter-spacing: -.012em;"><tspan x="0" y="0">W</tspan></text>
    <text transform="translate(28.716 33.205)" style="fill: #000; font-family: Amiri-Bold, Amiri; font-size: 16.414px; font-weight: 700; isolation: isolate;"><tspan x="0" y="0">ith and </tspan></text>
    <text transform="translate(84.014 33.205)" style="fill: #000; font-family: Amiri-Bold, Amiri; font-size: 16.414px; font-weight: 700; isolation: isolate; letter-spacing: -.012em;"><tspan x="0" y="0">W</tspan></text>
    <text transform="translate(99.048 33.205)" style="fill: #000; font-family: Amiri-Bold, Amiri; font-size: 16.414px; font-weight: 700; isolation: isolate;"><tspan x="0" y="0">ithout PE Class</tspan></text>
  </g>
  <path d="M649.814,21.297h3.426c1.122,0,2.032.097,2.032.217v11.406c0,.12-.91.217-2.032.217h-3.426c-1.122,0-2.032-.097-2.032-.217v-11.406c0-.12.91-.217,2.032-.217Z" style="fill: #bc1b3a; stroke-width: 0px;"/>
  <text transform="translate(663.306 30.137)" style="fill: #000; font-family: Amiri-Regular, Amiri; font-size: 10px;"><tspan x="0" y="0" style="letter-spacing: -.009em;">W</tspan><tspan x="8.69" y="0">ith </tspan><tspan x="22.3" y="0" style="letter-spacing: -.005em;">P</tspan><tspan x="27.6" y="0" style="letter-spacing: 0em;">E class</tspan></text>
  <path d="M649.542,47.703h3.426c1.122,0,2.032.097,2.032.217v11.406c0,.12-.91.217-2.032.217h-3.426c-1.122,0-2.032-.097-2.032-.217v-11.406c0-.12.91-.217,2.032-.217Z" style="fill: #dedede; stroke-width: 0px;"/>
  <text transform="translate(663.034 56.543)" style="fill: #000; font-family: Amiri-Regular, Amiri; font-size: 10px;"><tspan x="0" y="0" style="letter-spacing: -.009em;">W</tspan><tspan x="8.69" y="0">ithout </tspan><tspan x="35.319" y="0" style="letter-spacing: -.005em;">P</tspan><tspan x="40.619" y="0" style="letter-spacing: 0em;">E class</tspan></text>
  <rect x="337.747" y="488.025" width="68.211" height="19.854" style="fill: #ab5555; isolation: isolate; opacity: .2; stroke-width: 0px;"/>
  <line x1="126.077" y1="19.005" x2="314.498" y2="19.005" style="fill: none; opacity: .48; stroke: #bc1b3a; stroke-miterlimit: 10; stroke-width: 1.874px;"/>
  <line x1="349.848" y1="19.005" x2="467.241" y2="19.005" style="fill: none; opacity: .48; stroke: #bc1b3a; stroke-miterlimit: 10; stroke-width: 1.874px;"/>
  <g style="isolation: isolate;">
    <g style="isolation: isolate;">
      <text transform="translate(353.127 287.412)" style="fill: #bc1b3a; font-family: Amiri-Bold, Amiri; font-size: 13.809px; font-weight: 700; isolation: isolate;"><tspan x="0" y="0">PE Class</tspan></text>
    </g>
  </g>
  <line x1="315.157" y1="98.409" x2="380.289" y2="98.409" style="fill: none; opacity: .51; stroke: #575757; stroke-miterlimit: 10; stroke-width: 1.874px;"/>
  <line x1="347.968" y1="210.046" x2="412.1" y2="210.046" style="fill: none; opacity: .48; stroke: #575757; stroke-miterlimit: 10; stroke-width: 1.874px;"/>
  <g style="isolation: isolate;">
    <g style="isolation: isolate;">
      <g style="isolation: isolate;">
        <g style="isolation: isolate;">
          <text transform="translate(386.94 101.881)" style="fill: #737373; font-family: Amiri-Bold, Amiri; font-size: 12px; font-weight: 700; isolation: isolate;"><tspan x="0" y="0">77.1 ki</tspan><tspan x="35.988" y="0" style="letter-spacing: -.006em;">l</tspan><tspan x="39.492" y="0" style="letter-spacing: 0em;">oca</tspan><tspan x="56.471" y="0" style="letter-spacing: -.006em;">l</tspan><tspan x="59.975" y="0">or</tspan><tspan x="71.459" y="0" style="letter-spacing: -.004em;">i</tspan><tspan x="75.095" y="0" style="letter-spacing: 0em;">es</tspan></text>
        </g>
      </g>
    </g>
  </g>
  <g style="isolation: isolate;">
    <g style="isolation: isolate;">
      <g style="isolation: isolate;">
        <g style="isolation: isolate;">
          <text transform="translate(423.787 212.831)" style="fill: #737373; font-family: Amiri-Bold, Amiri; font-size: 12px; font-weight: 700; isolation: isolate;"><tspan x="0" y="0">be</tspan><tspan x="11.736" y="0" style="letter-spacing: -.006em;">l</tspan><tspan x="15.24" y="0" style="letter-spacing: -.016em;">o</tspan><tspan x="21.276" y="0">w 89.7 ki</tspan><tspan x="70.007" y="0" style="letter-spacing: -.006em;">l</tspan><tspan x="73.511" y="0" style="letter-spacing: 0em;">oca</tspan><tspan x="90.491" y="0" style="letter-spacing: -.006em;">l</tspan><tspan x="93.995" y="0">or</tspan><tspan x="105.478" y="0" style="letter-spacing: -.004em;">i</tspan><tspan x="109.115" y="0">es</tspan></text>
        </g>
      </g>
    </g>
  </g>
  <rect x="337.747" y="208.988" width="68.211" height="54.311" style="fill: #ab5555; isolation: isolate; opacity: .2; stroke-width: 0px;"/>
</svg>