<?xml version="1.0" encoding="UTF-8"?>
<svg id="COVID" data-name="COVID" xmlns="http://www.w3.org/2000/svg" version="1.1" viewBox="0 0 1303.1 364">
  <defs>
    <style>
      .CV1 {
        font-size: 13.7px;
      }

      .CV1, .CV2, .CV3, .CV4, .CV5, .CV6, .CV7 {
        font-family: Amiri-Bold, Amiri;
        font-weight: 700;
      }

      .CV1, .CV3, .CV4, .CV5, .CV7 {
        fill: #000;
      }

      .CV1, .CV3, .CV4, .CV6, .CV7 {
        isolation: isolate;
      }

      .CV8 {
        stroke-width: 1px;
      }

      .CV8, .CV9, .CV10, .CV11 {
        fill: none;
      }

      .CV8, .CV9, .CV11 {
        stroke: #ccc;
      }

      .CV2 {
        fill: #636363;
        font-size: 13px;
      }

      .CV9 {
        stroke-width: 1.1px;
      }

      .CV12 {
        stroke-width: 1.3px;
      }

      .CV12, .CV13, .CV14 {
        fill: #8a8a8a;
        opacity: .2;
        stroke: #8a8a8a;
        stroke-miterlimit: 10;
      }

      .CV10 {
        stroke: #696969;
      }

      .CV13 {
        stroke-width: 1.5px;
      }

      .CV3 {
        font-size: 20px;
      }

      .CV4, .CV5 {
        font-size: 13.7px;
      }

      .CV14 {
        stroke-width: 1.2px;
      }

      .CV6 {
        fill: #696969;
        font-size: 14px;
      }

      .CV15 {
        fill: #bc1b3a;
      }

      .CV15, .CV16, .CV17 {
        stroke-width: 0px;
      }

      .CV16 {
        fill: #ccc;
      }

      .CV17 {
        fill: #fff;
      }

      .CV7 {
        font-size: 27px;
        opacity: .2;
      }
    </style>
  </defs>
  <rect id="background" class="CV17" width="1303.1" height="364"/>
  <g id="SB4">
    <g id="axisSB">
      <text class="CV6" transform="translate(172.5 157.8)"><tspan x="0" y="0">Pre-COVID</tspan></text>
      <line class="CV10" x1="207.1" y1="168.8" x2="207.1" y2="162.8"/>
      <text class="CV6" transform="translate(268.4 156.8)"><tspan x="0" y="0">During School Closure</tspan></text>
      <line class="CV10" x1="331.4" y1="167.8" x2="331.4" y2="161.8"/>
      <rect class="CV14" x="206.1" y="186.1" width="125.7" height="55.9"/>
    </g>
    <line class="CV9" x1="206.1" y1="218" x2="332.1" y2="208.1"/>
    <circle class="CV15" cx="331.8" cy="207.8" r="4.1"/>
    <circle class="CV16" cx="206.6" cy="217.9" r="4.1"/>
    <text class="CV1" transform="translate(343.3 210.7)"><tspan x="0" y="0">11.61</tspan></text>
    <text class="CV1" transform="translate(163.8 222)"><tspan x="0" y="0">10.79</tspan></text>
    <text class="CV1" transform="translate(72.4 205.4)"><tspan x="0" y="0">Sedentary Time</tspan><tspan x="0" y="16.5">Per Day (hr)</tspan></text>
  </g>
  <g id="PA4">
    <line class="CV8" x1="610.1" y1="197.3" x2="738.1" y2="259.4"/>
    <circle class="CV16" cx="610.9" cy="197.7" r="3.7"/>
    <circle class="CV15" cx="737" cy="258.7" r="3.7"/>
    <text class="CV4" transform="translate(576.7 201.6)"><tspan x="0" y="0">0.32</tspan></text>
    <text class="CV4" transform="translate(744.8 262.9)"><tspan x="0" y="0">0.17</tspan></text>
    <text class="CV1" transform="translate(460.4 205.4)"><tspan x="0" y="0">Ideal Physical</tspan><tspan x="0" y="16.5">Activity Time </tspan><tspan x="0" y="32.9">Per Day(hr)</tspan></text>
    <g id="axisPA">
      <text class="CV6" transform="translate(577.7 157.8)"><tspan x="0" y="0">Pre-COVID</tspan></text>
      <line class="CV10" x1="612.3" y1="168.8" x2="612.3" y2="162.8"/>
      <text class="CV6" transform="translate(673.6 156.8)"><tspan x="0" y="0">During School Closure</tspan></text>
      <line class="CV10" x1="736.6" y1="167.8" x2="736.6" y2="161.8"/>
      <rect class="CV13" x="611.3" y="186.1" width="125.3" height="83.2"/>
    </g>
  </g>
  <g id="ST4">
    <line class="CV11" x1="1024.3" y1="240.2" x2="1150.5" y2="199"/>
    <circle class="CV15" cx="1151.9" cy="199.3" r="3.6"/>
    <circle class="CV16" cx="1025.9" cy="240.2" r="3.6"/>
    <text class="CV5" transform="translate(1162.5 201.3)"><tspan x="0" y="0">10.64</tspan></text>
    <text class="CV5" transform="translate(991.5 245.7)"><tspan x="0" y="0">8.09</tspan></text>
    <g id="axisST">
      <text class="CV6" transform="translate(992 158.7)"><tspan x="0" y="0">Pre-COVID</tspan></text>
      <line class="CV10" x1="1026.7" y1="169.7" x2="1026.7" y2="163.7"/>
      <text class="CV6" transform="translate(1088 157.7)"><tspan x="0" y="0">During School Closure</tspan></text>
      <line class="CV10" x1="1151" y1="168.7" x2="1151" y2="162.7"/>
      <rect class="CV12" x="1025.7" y="187" width="125.3" height="67.9"/>
    </g>
    <text class="CV1" transform="translate(872.3 203.7)"><tspan x="0" y="0">Overall Screen Time</tspan><tspan x="0" y="16.5">Per Day (hr)</tspan></text>
  </g>
  <text class="CV3" transform="translate(73 57)"><tspan x="0" y="0">Comparative Analysis of Daily Sedentary Time, Ideal Physical Activity Levels, and Overall Screen Time </tspan><tspan x="0" y="24">Among Hong Kong Secondary Students Before and After the COVID-19 Pandemic</tspan></text>
  <text class="CV2" transform="translate(67.9 322.2)"><tspan x="0" y="0">Source: Impact of COVID-19 Pandemic on School-Aged Children&apos;s Physical Activity, Screen Time, and Sleep in Hong Kong: A Cross-Sectional Repeated Measures Study</tspan><tspan x="0" y="15.6">(DOI: 10.3390/ijerph191710539).</tspan></text>
  <text class="CV7" transform="translate(634.9 237.3)"><tspan x="0" y="0">-68.9%</tspan></text>
  <text class="CV7" transform="translate(1056.7 230.4)"><tspan x="0" y="0">35.1%</tspan></text>
  <text class="CV7" transform="translate(243.1 223.1)"><tspan x="0" y="0">7.6%</tspan></text>
</svg>