<?xml version="1.0" encoding="UTF-8"?>
<svg id="CyrilEM" data-name="CyrilEM" xmlns="http://www.w3.org/2000/svg" version="1.1" viewBox="0 0 763.3 599.2">
  <defs>
    <style>
      .CEM1, .CEM2, .CEM3, .CEM4, .CEM5, .CEM6 {
        fill: none;
      }

      .CEM1, .CEM3 {
        stroke-width: 2px;
      }

      .CEM1, .CEM5 {
        stroke: #919191;
      }

      .CEM7, .CEM8, .CEM9, .CEM10, .CEM11, .CEM12, .CEM13, .CEM14, .CEM15, .CEM16, .CEM17, .CEM18, .CEM19, .CEM20, .CEM21 {
        font-family: Amiri-Bold, Amiri;
        font-weight: 700;
      }

      .CEM7, .CEM8, .CEM9, .CEM10, .CEM12, .CEM13, .CEM14, .CEM22, .CEM15, .CEM16, .CEM17, .CEM18, .CEM23, .CEM24, .CEM19, .CEM20, .CEM25 {
        isolation: isolate;
      }

      .CEM7, .CEM8, .CEM11, .CEM16, .CEM26, .CEM19, .CEM20, .CEM21 {
        fill: #bc1b3a;
      }

      .CEM7, .CEM12 {
        letter-spacing: 0em;
      }

      .CEM7, .CEM12, .CEM18, .CEM19 {
        font-size: 10.2px;
      }

      .CEM8, .CEM10, .CEM11 {
        font-size: 11.2px;
      }

      .CEM9 {
        letter-spacing: 0em;
      }

      .CEM9, .CEM13, .CEM14, .CEM15, .CEM17 {
        font-size: 18.7px;
      }

      .CEM9, .CEM13, .CEM14, .CEM15, .CEM17, .CEM25 {
        fill: #000;
      }

      .CEM10 {
        fill: #919191;
      }

      .CEM2, .CEM3, .CEM4 {
        stroke: #bc1b3a;
      }

      .CEM2, .CEM4, .CEM6 {
        stroke-miterlimit: 10;
      }

      .CEM12, .CEM18 {
        fill: #333;
      }

      .CEM4 {
        stroke-width: 1.3px;
      }

      .CEM13 {
        letter-spacing: 0em;
      }

      .CEM14 {
        letter-spacing: 0em;
      }

      .CEM22 {
        letter-spacing: 0em;
      }

      .CEM22, .CEM23 {
        fill: #636363;
        font-size: 14.3px;
      }

      .CEM22, .CEM23, .CEM25 {
        font-family: Amiri-Regular, Amiri;
      }

      .CEM27 {
        fill: #9c9c9c;
      }

      .CEM27, .CEM26 {
        stroke-width: 0px;
      }

      .CEM15 {
        letter-spacing: 0em;
      }

      .CEM28 {
        opacity: .4;
      }

      .CEM16, .CEM20, .CEM21 {
        font-size: 12.3px;
      }

      .CEM5 {
        stroke-dasharray: 0 0 0 0 0 0 3 3 0 0 0 0;
        stroke-width: .8px;
      }

      .CEM6 {
        stroke: #d1d1d1;
        stroke-width: .5px;
      }

      .CEM20 {
        letter-spacing: 0em;
      }

      .CEM25 {
        font-size: 13.4px;
      }
    </style>
  </defs>
  <g>
    <g id="grillll">
      <line class="CEM6" x1="67.5" y1="125.6" x2="692.8" y2="125.6"/>
      <line class="CEM6" x1="68.1" y1="206" x2="693.4" y2="206"/>
      <line class="CEM6" x1="68.1" y1="288.9" x2="693.4" y2="288.9"/>
      <line class="CEM6" x1="67" y1="368.9" x2="692.3" y2="368.9"/>
      <line class="CEM6" x1="67.5" y1="453" x2="692.8" y2="453"/>
    </g>
    <g id="axisssss">
      <g id="Xaxiss">
        <g class="CEM24">
          <text class="CEM25" transform="translate(50.5 556.6)"><tspan x="0" y="0">6</tspan></text>
        </g>
        <g class="CEM24">
          <text class="CEM25" transform="translate(94.9 556.6)"><tspan x="0" y="0">7</tspan></text>
        </g>
        <g class="CEM24">
          <text class="CEM25" transform="translate(139.3 556.6)"><tspan x="0" y="0">8</tspan></text>
        </g>
        <g class="CEM24">
          <text class="CEM25" transform="translate(183.6 556.6)"><tspan x="0" y="0">9</tspan></text>
        </g>
        <g class="CEM24">
          <text class="CEM25" transform="translate(225.5 556.6)"><tspan x="0" y="0">10</tspan></text>
        </g>
        <g class="CEM24">
          <text class="CEM25" transform="translate(270.2 556.6)"><tspan x="0" y="0">11</tspan></text>
        </g>
        <g class="CEM24">
          <text class="CEM25" transform="translate(314.2 556.6)"><tspan x="0" y="0">12</tspan></text>
        </g>
        <g class="CEM24">
          <text class="CEM25" transform="translate(358.6 556.6)"><tspan x="0" y="0">13</tspan></text>
        </g>
        <g class="CEM24">
          <text class="CEM25" transform="translate(403 556.6)"><tspan x="0" y="0">14</tspan></text>
        </g>
        <g class="CEM24">
          <text class="CEM25" transform="translate(447.3 556.6)"><tspan x="0" y="0">15</tspan></text>
        </g>
        <g class="CEM24">
          <text class="CEM25" transform="translate(491.7 556.6)"><tspan x="0" y="0">16</tspan></text>
        </g>
        <g class="CEM24">
          <text class="CEM25" transform="translate(536 556.6)"><tspan x="0" y="0">17</tspan></text>
        </g>
        <g class="CEM24">
          <text class="CEM25" transform="translate(580.4 556.6)"><tspan x="0" y="0">18</tspan></text>
        </g>
        <g class="CEM24">
          <text class="CEM25" transform="translate(624.8 556.6)"><tspan x="0" y="0">19</tspan></text>
        </g>
        <g class="CEM24">
          <text class="CEM25" transform="translate(669.1 556.6)"><tspan x="0" y="0">20</tspan></text>
        </g>
        <g class="CEM24">
          <text class="CEM20" transform="translate(682.6 575.3)"><tspan x="0" y="0">T</tspan></text>
          <text class="CEM16" transform="translate(690 575.3)"><tspan x="0" y="0">ime</tspan></text>
        </g>
      </g>
      <g id="Yaxisss2">
        <text class="CEM21" transform="translate(719 56.7)"><tspan x="0" y="0">Minute</tspan></text>
        <text class="CEM25" transform="translate(722.9 292.9)"><tspan x="0" y="0">15</tspan></text>
        <text class="CEM25" transform="translate(722 538)"><tspan x="0" y="0">0</tspan></text>
        <text class="CEM25" transform="translate(722 368.9)"><tspan x="0" y="0">10</tspan></text>
        <text class="CEM25" transform="translate(720.1 456.7)"><tspan x="0" y="0">5</tspan></text>
        <text class="CEM25" transform="translate(724 211.3)"><tspan x="0" y="0">20</tspan></text>
        <text class="CEM25" transform="translate(725.1 129.5)"><tspan x="0" y="0">25</tspan></text>
        <text class="CEM25" transform="translate(724.6 88.6)"><tspan x="0" y="0">30</tspan></text>
      </g>
      <g id="Yaxiss">
        <g class="CEM24">
          <text class="CEM25" transform="translate(35.6 538)"><tspan x="0" y="0">0</tspan></text>
        </g>
        <g class="CEM24">
          <text class="CEM25" transform="translate(30.7 497.1)"><tspan x="0" y="0">10</tspan></text>
        </g>
        <g class="CEM24">
          <text class="CEM25" transform="translate(30.7 457.3)"><tspan x="0" y="0">20</tspan></text>
        </g>
        <g class="CEM24">
          <text class="CEM25" transform="translate(30.7 415.4)"><tspan x="0" y="0">30</tspan></text>
        </g>
        <g class="CEM24">
          <text class="CEM25" transform="translate(30.7 374.6)"><tspan x="0" y="0">40</tspan></text>
        </g>
        <g class="CEM24">
          <text class="CEM25" transform="translate(30.7 333.7)"><tspan x="0" y="0">50</tspan></text>
        </g>
        <g class="CEM24">
          <text class="CEM25" transform="translate(30.7 292.9)"><tspan x="0" y="0">60</tspan></text>
        </g>
        <g class="CEM24">
          <text class="CEM25" transform="translate(30.7 252)"><tspan x="0" y="0">70</tspan></text>
        </g>
        <g class="CEM24">
          <text class="CEM25" transform="translate(30.7 211.2)"><tspan x="0" y="0">80</tspan></text>
        </g>
        <g class="CEM24">
          <text class="CEM25" transform="translate(30.7 170.3)"><tspan x="0" y="0">90</tspan></text>
        </g>
        <g class="CEM24">
          <text class="CEM25" transform="translate(25.7 129.5)"><tspan x="0" y="0">100</tspan></text>
        </g>
        <g class="CEM24">
          <text class="CEM25" transform="translate(25.5 88.7)"><tspan x="0" y="0">110</tspan></text>
        </g>
      </g>
    </g>
    <g id="viz" class="CEM28">
      <g id="No">
        <path class="CEM1" d="M55.7,528.2s29.6-187.9,44.4-216.1c14.8-28.2,29.6,32.8,44.4,47,14.8,14.2,29.6,23.4,44.4,38,14.8,14.6,29.6,54.1,44.4,49.4,14.8-4.7,29.6-71.7,44.4-77.6,14.8-5.9,29.6,70.1,44.4,42.1,14.8-28,29.6-215.7,44.4-210.4,14.8,5.3,29.6,199.6,44.4,242.2,14.8,42.6,29.6,43,44.4,13.5,14.8-29.5,29.6-198,44.4-190.4,14.8,7.6,29.6,215.5,44.4,236.1,14.8,20.6,29.6-109.4,44.4-112.3,14.8-2.9,29.6,85.5,44.4,94.8,14.8,9.3,44.4-39.2,44.4-39.2"/>
        <g class="CEM24">
          <text class="CEM12" transform="translate(607.5 499.2)"><tspan x="0" y="0">W</tspan></text>
          <text class="CEM18" transform="translate(616.8 499.2)"><tspan x="0" y="0">ithout PE class</tspan></text>
        </g>
      </g>
      <g id="Yes">
        <path class="CEM3" d="M55.7,515.5s29.6-247.2,44.4-262.3c14.8-15.1,29.6,152.6,44.4,172,14.8,19.3,29.6-53,44.4-56,14.8-2.9,29.6,30.6,44.4,38.4,14.8,7.8,29.6,33.7,44.4,8.2,14.8-25.5,29.6-109.1,44.4-161.4,14.8-52.3,29.6-156.6,44.4-152.4,14.8,4.2,29.6,148.1,44.4,177.7,14.8,29.6,29.6-16.9,44.4,0,14.8,16.9,29.6,79.5,44.4,101.3,14.8,21.9,29.6,25.3,44.4,29.8,14.8,4.5,29.6,15.5,44.4-2.9,14.8-18.4,29.6-108.5,44.4-107.4,14.8,1,44.4,113.6,44.4,113.6"/>
        <g class="CEM24">
          <text class="CEM7" transform="translate(633.4 424.5)"><tspan x="0" y="0">W</tspan></text>
          <text class="CEM19" transform="translate(642.7 424.5)"><tspan x="0" y="0">ith PE class</tspan></text>
        </g>
      </g>
    </g>
    <g id="Notessss">
      <line class="CEM5" x1="143.2" y1="80.3" x2="143.2" y2="528.2"/>
      <g class="CEM24">
        <text class="CEM18" transform="translate(114.8 69.3)"><tspan x="0" y="0">Classes Begin</tspan></text>
      </g>
      <line class="CEM5" x1="366.2" y1="77.8" x2="366.2" y2="532.7"/>
      <g class="CEM24">
        <text class="CEM18" transform="translate(337 69.3)"><tspan x="0" y="0">Lunch </tspan></text>
        <text class="CEM18" transform="translate(367.6 69.3)"><tspan x="0" y="0">B</tspan></text>
        <text class="CEM18" transform="translate(373.7 69.3)"><tspan x="0" y="0">r</tspan></text>
        <text class="CEM18" transform="translate(378.1 69.3)"><tspan x="0" y="0">eak</tspan></text>
      </g>
      <line class="CEM5" x1="498.4" y1="80.3" x2="498.4" y2="536.6"/>
      <g class="CEM24">
        <text class="CEM18" transform="translate(471.9 69.4)"><tspan x="0" y="0">Classes End</tspan></text>
      </g>
      <g class="CEM24">
        <text class="CEM8" transform="translate(316.9 94)"><tspan x="0" y="0">Going out </tspan></text>
        <text class="CEM8" transform="translate(368.2 94)"><tspan x="0" y="0">f</tspan></text>
        <text class="CEM8" transform="translate(372 94)"><tspan x="0" y="0">or lunch</tspan></text>
      </g>
      <g class="CEM24">
        <text class="CEM8" transform="translate(413.8 243.4)"><tspan x="0" y="0">PE Class</tspan></text>
      </g>
      <g class="CEM24">
        <text class="CEM8" transform="translate(604.9 286.6)"><tspan x="0" y="0">Commuting</tspan></text>
      </g>
      <g class="CEM24">
        <text class="CEM10" transform="translate(470.3 257.2)"><tspan x="0" y="0">Commuting</tspan></text>
      </g>
      <g class="CEM24">
        <text class="CEM8" transform="translate(75.4 218.5)"><tspan x="0" y="0">Commuting</tspan></text>
      </g>
    </g>
  </g>
  <g class="CEM24">
    <text class="CEM13" transform="translate(.5 15.4)"><tspan x="0" y="0">C</tspan></text>
    <text class="CEM17" transform="translate(12.5 15.4)"><tspan x="0" y="0">yril Cheng&apos;s </tspan></text>
    <text class="CEM15" transform="translate(114.2 15.4)"><tspan x="0" y="0">A</tspan></text>
    <text class="CEM17" transform="translate(126.2 15.4)"><tspan x="0" y="0">ct</tspan></text>
    <text class="CEM17" transform="translate(140.6 15.4)"><tspan x="0" y="0">i</tspan></text>
    <text class="CEM14" transform="translate(146.2 15.4)"><tspan x="0" y="0">v</tspan></text>
    <text class="CEM17" transform="translate(155.6 15.4)"><tspan x="0" y="0">e Ene</tspan></text>
    <text class="CEM17" transform="translate(199.6 15.4)"><tspan x="0" y="0">r</tspan></text>
    <text class="CEM17" transform="translate(207.7 15.4)"><tspan x="0" y="0">gy Expenditu</tspan></text>
    <text class="CEM17" transform="translate(314.4 15.4)"><tspan x="0" y="0">r</tspan></text>
    <text class="CEM17" transform="translate(322.5 15.4)"><tspan x="0" y="0">e on </tspan></text>
    <text class="CEM9" transform="translate(362.3 15.4)"><tspan x="0" y="0">T</tspan></text>
    <text class="CEM14" transform="translate(373 15.4)"><tspan x="0" y="0">w</tspan></text>
    <text class="CEM17" transform="translate(387.1 15.4)"><tspan x="0" y="0">o Scho</tspan></text>
    <text class="CEM17" transform="translate(440.2 15.4)"><tspan x="0" y="0">o</tspan></text>
    <text class="CEM17" transform="translate(449.8 15.4)"><tspan x="0" y="0">l D</tspan></text>
    <text class="CEM15" transform="translate(474.7 15.4)"><tspan x="0" y="0">a</tspan></text>
    <text class="CEM17" transform="translate(482.9 15.4)"><tspan x="0" y="0">y</tspan></text>
    <text class="CEM17" transform="translate(492.5 15.4)"><tspan x="0" y="0">s: </tspan></text>
    <text class="CEM13" transform="translate(510.1 15.4)"><tspan x="0" y="0">W</tspan></text>
    <text class="CEM17" transform="translate(527.2 15.4)"><tspan x="0" y="0">ith and </tspan></text>
    <text class="CEM13" transform="translate(590.2 15.4)"><tspan x="0" y="0">W</tspan></text>
    <text class="CEM17" transform="translate(607.3 15.4)"><tspan x="0" y="0">ithout PE Class</tspan></text>
  </g>
  <g class="CEM24">
    <text class="CEM23" transform="translate(.5 586.3)"><tspan x="0" y="0">Sou</tspan></text>
    <text class="CEM23" transform="translate(21.8 586.3)"><tspan x="0" y="0">r</tspan></text>
    <text class="CEM23" transform="translate(27 586.3)"><tspan x="0" y="0">ce: Data f</tspan></text>
    <text class="CEM23" transform="translate(80.9 586.3)"><tspan x="0" y="0">r</tspan></text>
    <text class="CEM23" transform="translate(86.2 586.3)"><tspan x="0" y="0">om Ap</tspan></text>
    <text class="CEM23" transform="translate(124.3 586.3)"><tspan x="0" y="0">p</tspan></text>
    <text class="CEM23" transform="translate(131.4 586.3)"><tspan x="0" y="0">le </tspan></text>
    <text class="CEM22" transform="translate(145.1 586.3)"><tspan x="0" y="0">H</tspan></text>
    <text class="CEM23" transform="translate(155 586.3)"><tspan x="0" y="0">ealth.</tspan></text>
  </g>
  <text class="CEM21" transform="translate(14.4 55.2)"><tspan x="0" y="0">Kilocalorie</tspan></text>
  <g id="bar">
    <g id="noPEE">
      <rect class="CEM27" x="100.7" y="407.1" width="12.9" height="132.9" rx="3" ry="3"/>
      <rect class="CEM27" x="144.2" y="523.6" width="12.9" height="16.3" rx="1" ry="1"/>
      <rect class="CEM27" x="187.7" y="489.6" width="12.9" height="50.3" rx="1.8" ry="1.8"/>
      <rect class="CEM27" x="235" y="488.8" width="12.9" height="51" rx="1.8" ry="1.8"/>
      <rect class="CEM27" x="278" y="454" width="12.9" height="85.7" rx="2.4" ry="2.4"/>
      <rect class="CEM27" x="323.4" y="488.8" width="12.9" height="51.2" rx="1.8" ry="1.8"/>
      <rect class="CEM27" x="367.2" y="349.2" width="12.9" height="190.6" rx="3.5" ry="3.5"/>
      <rect class="CEM27" x="412.3" y="537.8" width="12.9" height="1.9" rx=".4" ry=".4"/>
      <rect class="CEM27" x="455.4" y="537.8" width="12.9" height="1.9" rx=".4" ry=".4"/>
      <rect class="CEM27" x="499.3" y="453.8" width="12.9" height="85.7" rx="2.4" ry="2.4"/>
      <rect class="CEM27" x="544.7" y="537" width="12.9" height="2.4" rx=".4" ry=".4"/>
      <rect class="CEM27" x="588.1" y="488.8" width="12.9" height="50.5" rx="1.8" ry="1.8"/>
      <rect class="CEM27" x="632.3" y="536.6" width="12.9" height="2.5" rx=".4" ry=".4"/>
      <rect class="CEM27" x="677.7" y="536.6" width="12.9" height="2.5" rx=".4" ry=".4"/>
    </g>
    <g id="PEEEE">
      <rect class="CEM26" x="85.9" y="427.6" width="12.9" height="112.5" rx="2.7" ry="2.7"/>
      <rect class="CEM26" x="129.4" y="523.6" width="12.9" height="16.5" rx="1" ry="1"/>
      <rect class="CEM26" x="173" y="439.1" width="12.9" height="100.9" rx="2.6" ry="2.6"/>
      <rect class="CEM26" x="220.3" y="523.6" width="12.9" height="16.3" rx="1" ry="1"/>
      <rect class="CEM26" x="263.2" y="512.5" width="12.9" height="27.4" rx="1.3" ry="1.3"/>
      <rect class="CEM26" x="308.6" y="349.2" width="12.9" height="190.9" rx="3.5" ry="3.5"/>
      <rect class="CEM26" x="352.4" y="257.1" width="12.9" height="282.9" rx="4.3" ry="4.3"/>
      <rect class="CEM26" x="397.6" y="454.3" width="12.9" height="85.6" rx="2.4" ry="2.4"/>
      <rect class="CEM26" x="440.7" y="523.6" width="12.9" height="16.1" rx="1" ry="1"/>
      <rect class="CEM26" x="484.6" y="523.6" width="12.9" height="16" rx="1" ry="1"/>
      <rect class="CEM26" x="573.3" y="523.6" width="12.9" height="15.8" rx="1" ry="1"/>
      <rect class="CEM26" x="617.5" y="512.5" width="12.9" height="26.9" rx="1.3" ry="1.3"/>
      <rect class="CEM26" x="530.5" y="537" width="12.9" height="2.4" rx=".4" ry=".4"/>
      <rect class="CEM26" x="663.1" y="536.7" width="12.9" height="2.4" rx=".4" ry=".4"/>
    </g>
  </g>
  <polyline class="CEM2" points="417.2 262.8 417.2 255.5 429.1 255.5 432.9 251.4 437.5 256 449.3 256 449.3 262.8"/>
  <polyline class="CEM4" points="404 445.9 404 436.1 420 436.1 425.1 430.6 431.2 436.8 447.1 436.8 447.1 445.9"/>
  <text class="CEM11" transform="translate(401 417.6)"><tspan x="0" y="0">6 minutes</tspan></text>
  <text class="CEM11" transform="translate(332.3 243.7)"><tspan x="0" y="0">17 minutes</tspan></text>
</svg>