<?xml version="1.0" encoding="UTF-8"?>
<svg id="exercise_minutes" data-name="exercise minutes" xmlns="http://www.w3.org/2000/svg" version="1.1" viewBox="0 0 1005 623.2">
  <defs>
    <style>
      .em1, .em2, .em3, .em4, .em5, .em6, .em7 {
        fill: none;
      }

      .em1, .em2, .em5, .em8, .em9, .em7 {
        stroke-miterlimit: 10;
      }

      .em1, .em2, .em5, .em9 {
        stroke-width: .5px;
      }

      .em1, .em10, .em11, .em9, .em12, .em13, .em14 {
        isolation: isolate;
      }

      .em1, .em11, .em9 {
        font-family: Helvetica-Light, Helvetica;
        font-size: 15px;
        font-weight: 300;
      }

      .em1, .em9 {
        stroke: #1a1a1a;
      }

      .em2 {
        stroke-dasharray: 0 0 0 0 0 0 1 1;
      }

      .em2, .em5 {
        stroke: #a3a3a3;
      }

      .em3, .em6 {
        stroke: #c9c9c9;
      }

      .em3, .em7 {
        stroke-width: .8px;
      }

      .em4, .em15, .em16 {
        stroke-width: 0px;
      }

      .em8 {
        stroke: #bc1b3a;
      }

      .em8, .em15, .em13 {
        fill: #bc1b3a;
      }

      .em10 {
        fill: #451b3a;
        font-size: 9px;
      }

      .em10, .em13, .em14 {
        font-family: Helvetica-Bold, Helvetica;
        font-weight: 700;
      }

      .em11 {
        fill: #1a1a1a;
      }

      .em9 {
        fill: #000;
      }

      .em13 {
        font-size: 14px;
      }

      .em16 {
        fill: #fff;
      }

      .em7 {
        stroke: #000;
      }

      .em14 {
        fill: #303030;
        font-size: 12px;
      }
    </style>
  </defs>
  <rect id="background" class="em16" y="0" width="1005" height="623.2"/>
  <g id="viz">
    <g id="axis">
      <g>
        <path class="em6" d="M882,560.4v6"/>
        <path class="em6" d="M177,566.4v-6"/>
        <g>
          <line class="em6" x1="177" y1="61.5" x2="177" y2="564.4"/>
          <g class="em12">
            <text class="em9" transform="translate(171.3 583.7)"><tspan x="0" y="0">40</tspan></text>
          </g>
        </g>
        <g>
          <line class="em6" x1="265.1" y1="63.5" x2="265.1" y2="566.4"/>
          <g class="em12">
            <text class="em9" transform="translate(259.5 583.7)"><tspan x="0" y="0">50</tspan></text>
          </g>
        </g>
        <g>
          <line class="em6" x1="353.2" y1="63.5" x2="353.2" y2="566.4"/>
          <g class="em12">
            <text class="em9" transform="translate(347.6 583.7)"><tspan x="0" y="0">60</tspan></text>
          </g>
        </g>
        <g>
          <line class="em6" x1="441.4" y1="63.5" x2="441.4" y2="566.4"/>
          <g class="em12">
            <text class="em9" transform="translate(435.7 583.7)"><tspan x="0" y="0">70</tspan></text>
          </g>
        </g>
        <g>
          <line class="em6" x1="529.5" y1="63.5" x2="529.5" y2="566.4"/>
          <g class="em12">
            <text class="em9" transform="translate(523.8 583.7)"><tspan x="0" y="0">80</tspan></text>
          </g>
        </g>
        <g>
          <line class="em6" x1="617.6" y1="63.5" x2="617.6" y2="566.4"/>
          <g class="em12">
            <text class="em9" transform="translate(612 583.7)"><tspan x="0" y="0">90</tspan></text>
          </g>
        </g>
        <g>
          <line class="em6" x1="705.7" y1="63.5" x2="705.7" y2="566.4"/>
          <g class="em12">
            <text class="em9" transform="translate(697.3 583.7)"><tspan x="0" y="0">100</tspan></text>
          </g>
        </g>
        <g>
          <line class="em3" x1="793.8" y1="63.5" x2="793.8" y2="566.4"/>
          <g class="em12">
            <text class="em9" transform="translate(785.8 583.7)"><tspan x="0" y="0">1</tspan></text>
            <text class="em9" transform="translate(792.3 583.7)"><tspan x="0" y="0">10</tspan></text>
          </g>
        </g>
        <g>
          <line class="em6" x1="882" y1="63.5" x2="882" y2="566.4"/>
          <g class="em12">
            <text class="em9" transform="translate(873.5 583.7)"><tspan x="0" y="0">120</tspan></text>
          </g>
        </g>
        <g class="em12">
          <g class="em12">
            <text class="em14" transform="translate(854.5 604.8)"><tspan x="0" y="0">Exercise Minute</tspan></text>
          </g>
        </g>
      </g>
      <g>
        <g class="em12">
          <g class="em12">
            <text class="em11" transform="translate(104.7 103.3)"><tspan x="0" y="0">15-24</tspan></text>
            <text class="em1" transform="translate(104.7 103.3)"><tspan x="0" y="0">15-24</tspan></text>
          </g>
        </g>
        <g class="em12">
          <g class="em12">
            <text class="em11" transform="translate(104.7 158.3)"><tspan x="0" y="0">25-34</tspan></text>
            <text class="em1" transform="translate(104.7 158.3)"><tspan x="0" y="0">25-34</tspan></text>
          </g>
        </g>
        <g class="em12">
          <g class="em12">
            <text class="em11" transform="translate(104.7 213.3)"><tspan x="0" y="0">35-44</tspan></text>
            <text class="em1" transform="translate(104.7 213.3)"><tspan x="0" y="0">35-44</tspan></text>
          </g>
        </g>
        <g class="em12">
          <g class="em12">
            <text class="em11" transform="translate(104.7 268.3)"><tspan x="0" y="0">45-54</tspan></text>
            <text class="em1" transform="translate(104.7 268.3)"><tspan x="0" y="0">45-54</tspan></text>
          </g>
        </g>
        <g class="em12">
          <g class="em12">
            <text class="em11" transform="translate(104.7 323.3)"><tspan x="0" y="0">55-64</tspan></text>
            <text class="em1" transform="translate(104.7 323.3)"><tspan x="0" y="0">55-64</tspan></text>
          </g>
        </g>
        <g class="em12">
          <g class="em12">
            <text class="em11" transform="translate(104.7 378.3)"><tspan x="0" y="0">65-74</tspan></text>
            <text class="em1" transform="translate(104.7 378.3)"><tspan x="0" y="0">65-74</tspan></text>
          </g>
        </g>
        <g class="em12">
          <g class="em12">
            <text class="em11" transform="translate(104.7 433.3)"><tspan x="0" y="0">75-84</tspan></text>
            <text class="em1" transform="translate(104.7 433.3)"><tspan x="0" y="0">75-84</tspan></text>
          </g>
        </g>
        <g class="em12">
          <g class="em12">
            <text class="em11" transform="translate(89.2 488.3)"><tspan x="0" y="0">85 above</tspan></text>
            <text class="em1" transform="translate(89.2 488.3)"><tspan x="0" y="0">85 above</tspan></text>
          </g>
        </g>
        <g class="em12">
          <g class="em12">
            <text class="em11" transform="translate(98.6 543.3)"><tspan x="0" y="0">Overall</tspan></text>
            <text class="em1" transform="translate(98.6 543.3)"><tspan x="0" y="0">Overall</tspan></text>
          </g>
        </g>
        <g class="em12">
          <g class="em12">
            <text class="em14" transform="translate(66.8 67.6)"><tspan x="0" y="0">Age Group</tspan></text>
          </g>
        </g>
      </g>
    </g>
    <g id="visualization">
      <g id="_25-34" data-name=" 25-34">
        <g id="labels">
          <g id="_66.4" data-name=" 66.4">
            <g class="em12">
              <g class="em12">
                <g class="em12">
                  <text class="em13" transform="translate(399 200.9)"><tspan x="0" y="0" xml:space="preserve">69.1   </tspan></text>
                </g>
              </g>
            </g>
          </g>
        </g>
      </g>
      <g id="_15-24" data-name=" 15-24">
        <g id="labels-2">
          <g id="_61.7" data-name=" 61.7">
            <g class="em12">
              <g class="em12">
                <g class="em12">
                  <text class="em13" transform="translate(336.1 92.2)"><tspan x="0" y="0" xml:space="preserve">61.7   </tspan></text>
                </g>
              </g>
            </g>
          </g>
        </g>
      </g>
      <g id="_25-34-2" data-name=" 25-34-2">
        <g id="labels-3">
          <g id="_66.4-2" data-name=" 66.4-2">
            <g class="em12">
              <g class="em12">
                <g class="em12">
                  <text class="em13" transform="translate(377.6 147.2)"><tspan x="0" y="0" xml:space="preserve">66.4   </tspan></text>
                </g>
              </g>
            </g>
          </g>
        </g>
      </g>
      <g id="_45-54" data-name=" 45-54">
        <g id="labels-4">
          <g id="_72.3" data-name=" 72.3">
            <g class="em12">
              <g class="em12">
                <g class="em12">
                  <text class="em13" transform="translate(429.6 257.2)"><tspan x="0" y="0" xml:space="preserve">72.3   </tspan></text>
                </g>
              </g>
            </g>
          </g>
        </g>
      </g>
      <g id="_55-64" data-name=" 55-64">
        <g id="labels-5">
          <g id="_75.7" data-name=" 75.7">
            <g class="em12">
              <g class="em12">
                <g class="em12">
                  <text class="em13" transform="translate(459.5 312.2)"><tspan x="0" y="0">75.7</tspan></text>
                </g>
              </g>
            </g>
          </g>
        </g>
      </g>
      <g id="_65-74" data-name=" 65-74">
        <g id="labels-6">
          <g id="_68" data-name=" 68">
            <g class="em12">
              <g class="em12">
                <g class="em12">
                  <text class="em13" transform="translate(395.8 367.2)"><tspan x="0" y="0">68</tspan></text>
                </g>
              </g>
            </g>
          </g>
        </g>
      </g>
      <g id="_75-84" data-name=" 75-84">
        <g id="labels-7">
          <g id="_58.3" data-name=" 58.3">
            <g class="em12">
              <g class="em12">
                <g class="em12">
                  <text class="em13" transform="translate(306.2 422.2)"><tspan x="0" y="0" xml:space="preserve">58.3   </tspan></text>
                </g>
              </g>
            </g>
          </g>
        </g>
      </g>
      <g id="_85_above" data-name=" 85 above">
        <g id="labels-8">
          <g id="_45.4" data-name=" 45.4">
            <g class="em12">
              <g class="em12">
                <g class="em12">
                  <text class="em13" transform="translate(192.5 477.2)"><tspan x="0" y="0" xml:space="preserve">45.4  </tspan></text>
                </g>
              </g>
            </g>
          </g>
        </g>
      </g>
      <g id="Overall">
        <g id="labels-9">
          <g id="_68.6" data-name=" 68.6">
            <g class="em12">
              <g class="em12">
                <g class="em12">
                  <text class="em13" transform="translate(397 532.2)"><tspan x="0" y="0" xml:space="preserve">68.6   </tspan></text>
                </g>
              </g>
            </g>
          </g>
        </g>
      </g>
    </g>
  </g>
  <g id="PERCENTAGE">
    <g class="em12">
      <text class="em10" transform="translate(590.5 514.4)"><tspan x="0" y="0">-35.47%</tspan></text>
    </g>
    <g class="em12">
      <text class="em10" transform="translate(560.6 79.6)"><tspan x="0" y="0">-40.50%</tspan></text>
    </g>
    <g class="em12">
      <text class="em10" transform="translate(640.6 188.3)"><tspan x="0" y="0">-39.28%</tspan></text>
    </g>
    <g class="em12">
      <text class="em10" transform="translate(594.7 134.9)"><tspan x="0" y="0">-38.06%</tspan></text>
    </g>
    <g class="em12">
      <text class="em10" transform="translate(643 241.1)"><tspan x="0" y="0">-38.26%</tspan></text>
    </g>
    <g class="em12">
      <text class="em10" transform="translate(663.7 297.6)"><tspan x="0" y="0">-33.48%</tspan></text>
    </g>
    <g class="em12">
      <text class="em10" transform="translate(245.5 462.6)"><tspan x="0" y="0" xml:space="preserve"> -13.85%</tspan></text>
    </g>
    <g class="em12">
      <text class="em10" transform="translate(503.1 351.2)"><tspan x="0" y="0">-22.81%</tspan></text>
    </g>
    <g class="em12">
      <text class="em10" transform="translate(401.6 407.3)"><tspan x="0" y="0">-21.43%</tspan></text>
    </g>
  </g>
  <g id="arrow2">
    <g>
      <line class="em4" x1="738.3" y1="91.1" x2="368.2" y2="89.8"/>
      <polygon class="em15" points="738.3 90.2 373.1 88.8 373.1 84.9 368.2 89.8 373.1 94.7 373.1 90.7 738.3 92.1 738.3 90.2"/>
    </g>
    <g>
      <line class="em4" x1="769.2" y1="146.8" x2="409.6" y2="145.4"/>
      <polygon class="em15" points="769.2 145.8 414.5 144.5 414.5 140.6 409.6 145.4 414.5 150.4 414.5 146.4 769.2 147.8 769.2 145.8"/>
    </g>
    <g>
      <line class="em4" x1="827.3" y1="200.6" x2="433.4" y2="199.1"/>
      <polygon class="em15" points="827.3 199.6 438.3 198.2 438.3 194.3 433.4 199.1 438.3 204.1 438.3 200.1 827.3 201.6 827.3 199.6"/>
    </g>
    <g>
      <line class="em4" x1="856.9" y1="255.9" x2="463" y2="254.4"/>
      <polygon class="em15" points="856.9 254.9 467.8 253.5 467.9 249.5 463 254.4 467.8 259.3 467.8 255.4 856.9 256.8 856.9 254.9"/>
    </g>
    <g>
      <line class="em4" x1="829" y1="310.8" x2="491.6" y2="309.5"/>
      <polygon class="em15" points="829 309.8 496.5 308.6 496.5 304.6 491.6 309.5 496.5 314.4 496.5 310.5 829 311.7 829 309.8"/>
    </g>
    <g>
      <line class="em4" x1="601.3" y1="365.3" x2="421.5" y2="364.9"/>
      <polygon class="em15" points="601.3 364.4 426.4 364 426.4 360.1 421.5 364.9 426.4 369.8 426.4 365.9 601.3 366.3 601.3 364.4"/>
    </g>
    <g>
      <line class="em4" x1="481.3" y1="420.6" x2="338.2" y2="420.3"/>
      <polygon class="em15" points="481.3 419.6 343.1 419.3 343.1 415.4 338.2 420.3 343.1 425.2 343.1 421.2 481.3 421.5 481.3 419.6"/>
    </g>
    <g>
      <line class="em4" x1="763.3" y1="530.6" x2="429" y2="529.8"/>
      <polygon class="em15" points="763.3 529.6 433.9 528.9 433.9 524.9 429 529.8 433.9 534.7 433.9 530.8 763.3 531.5 763.3 529.6"/>
    </g>
    <g>
      <line class="em4" x1="288.9" y1="475.1" x2="224.6" y2="474.9"/>
      <polygon class="em15" points="288.9 474.1 229.5 474 229.5 470 224.6 474.9 229.4 479.8 229.4 475.9 288.9 476 288.9 474.1"/>
    </g>
  </g>
  <g id="dot">
    <circle class="em8" cx="854.5" cy="255.4" r="4.3"/>
    <circle class="em8" cx="828" cy="310.8" r="4.3"/>
    <circle class="em8" cx="828" cy="200.6" r="4.3"/>
    <circle class="em8" cx="769" cy="147.8" r="4.3"/>
    <circle class="em8" cx="738.1" cy="91.3" r="4.3"/>
    <circle class="em8" cx="602.4" cy="365.4" r="4.3"/>
    <circle class="em8" cx="482.3" cy="420.6" r="4.3"/>
    <circle class="em8" cx="289.2" cy="475.9" r="4.3"/>
    <circle class="em8" cx="764.8" cy="530.6" r="4.3"/>
  </g>
  <g id="year2">
    <line class="em7" x1="738.3" y1="48.1" x2="738.3" y2="82.7"/>
    <line class="em7" x1="371.5" y1="47.4" x2="371.5" y2="82.1"/>
    <g class="em12">
      <g class="em12">
        <text class="em14" transform="translate(718.7 42.1)"><tspan x="0" y="0">2014/15</tspan></text>
      </g>
    </g>
    <g class="em12">
      <g class="em12">
        <text class="em14" transform="translate(348 40.9)"><tspan x="0" y="0">2020/22</tspan></text>
      </g>
    </g>
  </g>
  <g id="grill2">
    <g>
      <line class="em5" x1="167.1" y1="104.9" x2="167.6" y2="104.9"/>
      <line class="em2" x1="168.6" y1="104.9" x2="892.1" y2="103"/>
      <line class="em5" x1="892.6" y1="103" x2="893.1" y2="103"/>
    </g>
    <g>
      <line class="em5" x1="166.5" y1="158.9" x2="167" y2="158.9"/>
      <line class="em2" x1="168" y1="158.9" x2="891.5" y2="157.1"/>
      <line class="em5" x1="892" y1="157.1" x2="892.5" y2="157.1"/>
    </g>
    <g>
      <line class="em5" x1="166.6" y1="213" x2="167.1" y2="213"/>
      <line class="em2" x1="168.1" y1="213" x2="891.6" y2="211.1"/>
      <line class="em5" x1="892.1" y1="211.1" x2="892.6" y2="211.1"/>
    </g>
    <g>
      <line class="em5" x1="166.5" y1="267" x2="167" y2="267"/>
      <line class="em2" x1="168" y1="267" x2="891.5" y2="265.1"/>
      <line class="em5" x1="892" y1="265.1" x2="892.5" y2="265.1"/>
    </g>
    <g>
      <line class="em5" x1="166.5" y1="324.9" x2="167" y2="324.9"/>
      <line class="em2" x1="168" y1="324.9" x2="891.5" y2="323"/>
      <line class="em5" x1="892" y1="323" x2="892.5" y2="323"/>
    </g>
    <g>
      <line class="em5" x1="166.5" y1="382.8" x2="167" y2="382.8"/>
      <line class="em2" x1="168" y1="382.8" x2="891.5" y2="380.9"/>
      <line class="em5" x1="892" y1="380.9" x2="892.5" y2="380.9"/>
    </g>
    <g>
      <line class="em5" x1="166.3" y1="436.8" x2="166.8" y2="436.8"/>
      <line class="em2" x1="167.8" y1="436.8" x2="891.3" y2="434.9"/>
      <line class="em5" x1="891.8" y1="434.9" x2="892.3" y2="434.9"/>
    </g>
    <g>
      <line class="em5" x1="166.4" y1="490.9" x2="166.9" y2="490.9"/>
      <line class="em2" x1="167.9" y1="490.9" x2="891.5" y2="489"/>
      <line class="em5" x1="892" y1="489" x2="892.5" y2="489"/>
    </g>
    <g>
      <line class="em5" x1="168.2" y1="548.7" x2="168.7" y2="548.7"/>
      <line class="em2" x1="169.7" y1="548.7" x2="893.3" y2="546.9"/>
      <line class="em5" x1="893.8" y1="546.9" x2="894.3" y2="546.9"/>
    </g>
  </g>
  <g id="arrow3">
    <polyline class="em15" points="548.1 71 553.6 81.4 559.1 71"/>
    <polyline class="em15" points="583.9 126.8 589.4 137.2 594.9 126.8"/>
    <polyline class="em15" points="628.3 180.1 633.8 190.4 639.3 180.1"/>
    <polyline class="em15" points="630.7 233.1 636.2 243.5 641.7 233.1"/>
    <polyline class="em15" points="651 289.7 656.5 300.1 662 289.7"/>
    <polyline class="em15" points="491.1 342.9 496.6 353.3 502.1 342.9"/>
    <polyline class="em15" points="390.8 399.1 396.3 409.4 401.8 399.1"/>
    <polyline class="em15" points="237.2 454.7 242.7 465 248.2 454.7"/>
    <polyline class="em15" points="579.7 507 585.2 517.4 590.7 507"/>
  </g>
</svg>