<?xml version="1.0" encoding="UTF-8"?>
<svg id="girl_run" data-name="girl_run" xmlns="http://www.w3.org/2000/svg" viewBox="0 0 315 368.77">
  <path id="brown" data-name="brown" d="M190.55,352.02c-8.11-8.72-15.97-17.19-23.85-25.65-4.79-5.14-6.76-10.73-2.14-16.45,4.29-5.31,10.74-7.26,18.45-5.66,2.28.47,3.86-.08,5.34-1.54,13.41-13.25,28.3-25.31,44.12-36.61.52-.37.88-.9,1.73-1.79-5.95-2.58-11.57-5.11-17.29-7.46-2.34-.96-4.15.22-5.94,1.48-4.91,3.47-9.98,6.79-14.92,10.23-2.95,2.06-5.37,1.85-8.16-.41-4.74-3.84-9.9-7.34-14.69-11.14-2.94-2.34-4.87-2.39-7.43.55-10.45,12.01-21.43,23.63-35.25,33.3-8.63,6.04-18.67,9.79-28.81,13.52-14.87,5.47-29.69,11.03-43.78,17.8-.8.38-1.58.79-2.41,1.13-15.25,6.24-19.24,16.72-16.8,29.74,1.41,7.51-1.64,12.88-8.09,14.92-5.94,1.88-10.99.27-13.96-4.39-3.14-4.92-3.92-10.43-5.89-15.65-3.56-9.43-6.62-18.98-9.99-28.46-1.86-5.21-.44-9.65,4.41-13.25,5.05-3.74,11.15-4.51,17.06-2.21,4.39,1.71,7.27.64,10.56-1.36,16.23-9.89,32.93-19.2,51.23-26.38,2.84-1.11,5.65-2.45,8.66-3.06,12.53-2.55,15.09-11.39,19.49-19.74-10.24-4.02-20.21-7.61-29.81-13.67,38.44-23.84,60.88-54.9,67.35-93.81-5.13-1.43-9.62.4-14.17.26-3.56-.11-5.16-.96-5.96-3.99-2.93-11.2-3.11-10.18-17.1-10.38-12.88-.18-13.4,8.17-17.08,13.99-6.89,10.9-12.52,22.33-18.74,33.52-2.53,4.56-1.81,9.79-5.22,14.27-4.56,5.99-10.67,9.22-19.15,9.11-8.34-.11-14.37-3.56-18.11-9.63-4.6-7.49-1.74-16.45,7.06-20.75,4.27-2.08,6.86-4.78,8.64-8.48,8.63-17.96,17.53-35.83,26.1-53.81,1.57-3.29,4.03-4.84,8.07-5.27,11.19-1.2,22.38-2.38,33.65-2.93,2.28-.11,5.01.49,5.56-2.47.31-1.68,2.21-1.34,3.61-1.37,13.11-.3,26.25-.73,39.04,2.42,3.28.81,4.74.21,4.99-2.83.37-4.59-.75-7.7-6.4-10.25-11.88-5.37-19.85-13.95-25.03-24.24-1.34-2.66-2.59-5.35-4.26-8.82-14.8,19.67-34.34,31.11-63.19,26.49-14.81-2.37-28.03-11.19-34.19-22.68,29.21,14.11,55.11,11.12,79.29-7.4-4.78-.33-8.37,1.04-12.05,2.04-14.61,3.97-29.18,6.71-44.43,1.7-15.42-5.06-24.76-14.47-30.32-26.88-.5-1.12-1-2.32.64-3.55,3.34,1.25,5.49,3.84,8.26,5.71,13.93,9.42,29.55,11.98,46.88,8.33,5.73-1.21,11.48-2.39,17.28-3.33,9.19-1.49,18.03-.44,26.4,3.06,1.45.6,2.73,1.6,4.97,1.27,1.4-5.52,3.39-11.03,6.87-16.05,18.39-26.56,64.01-31.1,91.25-8.79,17.64,14.45,23.35,32.03,15.53,51.53-6.44,16.07-20.52,25.98-41.08,29.26-2.68.43-6.37-.17-6.81,3.36-.4,3.17,14.05,8.49,17.89,10.53,15.17,8.06,13.8,15.99,27.14,25.86,4.71,3.48-.28,5.14-1.87,7.74,3.56,3.93,8.81,6.18,13.82,9.18,7.72-5,11.84-12.02,16.51-18.67,1.48-2.1,2.45-4.44,3.89-6.56,1.64-2.41,1.32-4.38-.52-6.73-4.47-5.69-4.14-11.68.35-17.17,4.64-5.67,11.73-8.03,19.82-7.01,8.12,1.02,13.53,5.14,16.27,11.65,2.55,6.06.3,11.85-1.61,17.46-4.45,13.08-11.06,25.42-20.06,36.91-4.71,6.01-9.04,12.22-14.93,17.52-8.59,7.73-16.89,8.64-27.63,2.94-7.15-3.79-14.02-7.95-21.01-11.94-1.64-.94-3.12-2.18-5.95-2.11-1.11,5.12-2.11,10.32-3.39,15.47-1.41,5.65-2.78,11.33-4.76,16.85-1.39,3.89.22,5.67,4.27,7.52,10.18,4.67,20.05,9.78,30.02,14.76,1.23.61,2.58,1.22,3.05,2.49-4.07,5.35-4.03,5.3,2.65,9.17,4.69,2.71,9.26,5.58,13.87,8.38,18.66,11.33,17.64,28.65.52,40.7-11.95,8.41-24.32,16.42-36.44,24.67-4.85,3.3-9.7,6.6-14.28,10.15-7.33,5.67-9.55,12.48-5.67,20.31,2.3,4.64,4.85,9.2,7.12,13.86,1.87,3.82,1.24,7.5-1.88,10.75-4.74,4.96-12.35,5.12-17.13.24-3.48-3.55-6.58-7.36-10.09-11.31M211.19,139.14c.17-1.99.33-3.99-1.22-5.71-3.22-3.56,10.31-20.29,8.48-24.49-.07-.16,4.91,2.81-4.34-2-2.57-1.34,0,0,0,0-17.35-15.04-28.51,4.84-35.1,3-3.83-1.07-38.35-25.24-34.41-2.83-6.55,2.54,4.11,25.28-1.44,15.94-.64,1.71,7.19,4.65,8.64,6.88,1.59,2.45,0,0,4.5-.76,6.7-1.13,13.46-1.95,19.99-3.73,2.86-.78,5.66-2.08,9.22-1.67-3.06,6.45-6.94,12.01-13.03,16.46-1.88,1.37-3.96,2.67-4.42,5.05-2.78,14.32-6.32,28.49-12.75,42.06-.66,1.4-1.99,2.73-.25,4.16,1.91,1.57,3.81.43,5.62-.18,10.42-3.5,19.47-8.79,27.63-15.03,12.86-9.83,21.41-21.61,22.9-37.15M182.05,78.22c17.6,6.02,36.44,2.12,46.16-9.55,9.29-11.17,8.18-29.41-2.84-38.98-8.6,23.04-26.33,37.67-56.76,40.75,4.21,3.76,8.34,5.75,13.44,7.78M155.21,42.59c-4.81-.15-3.49,2.85-3.33,4.82.18,2.1-.02,4.82,3.99,5.07,12.48.76,24.43-.5,34.58-7.09,6.68-4.34,12.09-9.55,13.78-17.93-14.18,10.88-29.87,15.92-49.02,15.13Z" style="fill: #3b2a0c; stroke-width: 0px;"/>
  <path id="cloth_yellow" data-name="cloth_yellow" d="M211.19,139.14c.17-1.99.33-3.99-1.22-5.71-3.22-3.56,10.31-20.29,8.48-24.49-.07-.16,4.91,2.81-4.34-2-2.57-1.34,0,0,0,0-17.35-15.04-28.51,4.84-35.1,3-3.83-1.07-38.35-25.24-34.41-2.83-6.55,2.54,4.11,25.28-1.44,15.94-.64,1.71,7.19,4.65,8.64,6.88,1.59,2.45,0,0,4.5-.76,6.7-1.13,13.46-1.95,19.99-3.73,2.86-.78,5.66-2.08,9.22-1.67-3.06,6.45-6.94,12.01-13.03,16.46-1.88,1.37-3.96,2.67-4.42,5.05-2.78,14.32-6.32,28.49-12.75,42.06-.66,1.4-1.99,2.73-.25,4.16,1.91,1.57,3.81.43,5.62-.18,10.42-3.5,19.47-8.79,27.63-15.03,12.86-9.83,21.41-21.61,22.9-37.15" style="fill: #f7ae36; stroke-width: 0px;"/>
  <path id="shoes2" data-name="shoes2" d="M19.6,351.26c-2.93,12.34,5.07,17.51,5.07,17.51l5.96-.77,6.1-4.07,1.99-10.86-19.12-1.82Z" style="fill: #2b6144; stroke-width: 0px;"/>
  <path id="shoes1" data-name="shoes1" d="M201.54,360.21c6.94,10.62,16.19,8.36,16.19,8.36l3.54-4.85,1.24-7.22-6.51-8.92-14.47,12.63Z" style="fill: #2b6144; stroke-width: 0px;"/>
  <polygon id="white" data-name="white" points="113.18 215.9 219.38 183.82 214.7 200.67 113.18 215.9" style="fill: #fff; stroke-width: 0px;"/>
</svg>