<?xml version="1.0" encoding="UTF-8"?>
<svg xmlns="http://www.w3.org/2000/svg" viewBox="0 0 1100.777 1070.945">
  <defs>
    <style>
      .cls-1 {
        letter-spacing: 0em;
      }

      .cls-2 {
        letter-spacing: 0em;
      }

      .cls-3 {
        letter-spacing: -.02em;
      }

      .cls-4 {
        font-size: 13.479px;
      }

      .cls-4, .cls-5, .cls-6, .cls-7, .cls-8, .cls-9, .cls-10, .cls-11, .cls-12, .cls-13, .cls-14, .cls-15, .cls-16, .cls-17, .cls-18, .cls-19, .cls-20, .cls-21, .cls-22, .cls-23, .cls-24, .cls-25, .cls-26, .cls-27, .cls-28, .cls-29, .cls-30, .cls-31, .cls-32, .cls-33, .cls-34, .cls-35, .cls-36, .cls-37 {
        isolation: isolate;
      }

      .cls-4, .cls-6, .cls-7, .cls-12, .cls-14, .cls-15, .cls-22, .cls-23, .cls-24, .cls-25, .cls-26, .cls-27, .cls-28, .cls-34 {
        font-family: Amiri-Regular, Amiri;
      }

      .cls-4, .cls-8, .cls-9, .cls-13, .cls-14, .cls-17, .cls-21, .cls-22, .cls-24, .cls-25, .cls-26, .cls-28, .cls-30, .cls-31, .cls-33 {
        fill: #000;
      }

      .cls-38 {
        letter-spacing: -.02em;
      }

      .cls-5, .cls-10, .cls-11, .cls-16, .cls-18, .cls-19, .cls-20, .cls-35, .cls-36, .cls-37 {
        opacity: .5;
      }

      .cls-5, .cls-11, .cls-39, .cls-40, .cls-41 {
        stroke-width: 1.617px;
      }

      .cls-5, .cls-19, .cls-20, .cls-42, .cls-43, .cls-40, .cls-37 {
        fill: none;
      }

      .cls-5, .cls-19, .cls-20, .cls-37 {
        stroke: #d3d3d3;
      }

      .cls-44 {
        letter-spacing: -.021em;
      }

      .cls-6, .cls-7, .cls-15 {
        fill: #ab0000;
      }

      .cls-6, .cls-30 {
        font-size: 12px;
      }

      .cls-45 {
        letter-spacing: -.021em;
      }

      .cls-46 {
        letter-spacing: -.021em;
      }

      .cls-47 {
        letter-spacing: .022em;
      }

      .cls-48 {
        letter-spacing: -.02em;
      }

      .cls-49 {
        letter-spacing: -.006em;
      }

      .cls-50 {
        letter-spacing: -.021em;
      }

      .cls-51 {
        letter-spacing: -.021em;
      }

      .cls-52 {
        letter-spacing: -.021em;
      }

      .cls-53 {
        letter-spacing: -.021em;
      }

      .cls-54 {
        letter-spacing: -.021em;
      }

      .cls-55 {
        letter-spacing: -.021em;
      }

      .cls-56 {
        letter-spacing: -.034em;
      }

      .cls-57 {
        letter-spacing: -.009em;
      }

      .cls-58 {
        letter-spacing: 0em;
      }

      .cls-7, .cls-17, .cls-23, .cls-31 {
        font-size: 16.175px;
      }

      .cls-59 {
        letter-spacing: -.006em;
      }

      .cls-60 {
        letter-spacing: -.009em;
      }

      .cls-61 {
        letter-spacing: -.009em;
      }

      .cls-8 {
        font-size: 14.501px;
      }

      .cls-8, .cls-9, .cls-13, .cls-17, .cls-21, .cls-62, .cls-30, .cls-31, .cls-33, .cls-63, .cls-64 {
        font-family: Amiri-Bold, Amiri;
        font-weight: 700;
      }

      .cls-65 {
        letter-spacing: -.009em;
      }

      .cls-66 {
        letter-spacing: 0em;
      }

      .cls-9, .cls-12, .cls-15, .cls-27 {
        font-size: 12.001px;
      }

      .cls-10 {
        stroke-width: 4.852px;
      }

      .cls-10, .cls-67, .cls-68, .cls-41, .cls-35, .cls-36 {
        stroke: #ab5555;
      }

      .cls-10, .cls-67, .cls-68, .cls-41, .cls-35, .cls-36, .cls-69 {
        fill: #ab5555;
      }

      .cls-70 {
        letter-spacing: -.012em;
      }

      .cls-71 {
        letter-spacing: -.012em;
      }

      .cls-72 {
        letter-spacing: -.012em;
      }

      .cls-11, .cls-39, .cls-16, .cls-18, .cls-73, .cls-74 {
        stroke: #8a8a8a;
      }

      .cls-11, .cls-39, .cls-16, .cls-18, .cls-73, .cls-74, .cls-75 {
        fill: #8a8a8a;
      }

      .cls-76 {
        letter-spacing: 0em;
      }

      .cls-12, .cls-23 {
        fill: #757575;
      }

      .cls-77 {
        letter-spacing: -.024em;
      }

      .cls-78 {
        letter-spacing: -.024em;
      }

      .cls-13 {
        font-size: 14.5px;
      }

      .cls-79 {
        letter-spacing: -.024em;
      }

      .cls-80 {
        letter-spacing: -.024em;
      }

      .cls-81 {
        letter-spacing: -.024em;
      }

      .cls-14 {
        font-size: 10px;
      }

      .cls-82 {
        letter-spacing: -.006em;
      }

      .cls-83 {
        letter-spacing: -.006em;
      }

      .cls-84 {
        letter-spacing: -.006em;
      }

      .cls-85 {
        letter-spacing: -.006em;
      }

      .cls-86 {
        letter-spacing: -.007em;
      }

      .cls-87 {
        letter-spacing: -.024em;
      }

      .cls-16, .cls-19, .cls-43, .cls-73, .cls-68 {
        stroke-width: 1.2px;
      }

      .cls-17 {
        letter-spacing: -.017em;
      }

      .cls-18, .cls-20, .cls-42, .cls-74, .cls-67 {
        stroke-width: 1.2px;
      }

      .cls-88 {
        letter-spacing: -.011em;
      }

      .cls-89 {
        letter-spacing: -.021em;
      }

      .cls-90 {
        letter-spacing: -.036em;
      }

      .cls-91 {
        letter-spacing: -.036em;
      }

      .cls-92 {
        letter-spacing: -.019em;
      }

      .cls-21 {
        font-size: 31px;
      }

      .cls-22 {
        letter-spacing: -.055em;
      }

      .cls-22, .cls-28 {
        font-size: 16.31px;
      }

      .cls-93 {
        letter-spacing: -.062em;
      }

      .cls-94 {
        letter-spacing: 0em;
      }

      .cls-95 {
        letter-spacing: -.062em;
      }

      .cls-96 {
        font-family: Amiri-Italic, Amiri;
        font-style: italic;
      }

      .cls-96, .cls-27, .cls-34 {
        fill: #636363;
      }

      .cls-96, .cls-34, .cls-63 {
        font-size: 17px;
      }

      .cls-97 {
        letter-spacing: -.004em;
      }

      .cls-98 {
        letter-spacing: 0em;
      }

      .cls-99 {
        letter-spacing: -.004em;
      }

      .cls-100 {
        letter-spacing: -.004em;
      }

      .cls-24 {
        font-size: 12.101px;
      }

      .cls-25 {
        font-size: 12.1px;
      }

      .cls-101 {
        letter-spacing: -.008em;
      }

      .cls-102 {
        letter-spacing: -.004em;
      }

      .cls-103 {
        letter-spacing: -.008em;
      }

      .cls-104 {
        letter-spacing: -.004em;
      }

      .cls-105 {
        letter-spacing: -.007em;
      }

      .cls-106 {
        letter-spacing: -.008em;
      }

      .cls-107 {
        letter-spacing: -.004em;
      }

      .cls-108 {
        letter-spacing: -.008em;
      }

      .cls-62 {
        font-size: 22.914px;
      }

      .cls-62, .cls-109, .cls-63, .cls-64 {
        fill: #bc1b3a;
      }

      .cls-110 {
        letter-spacing: -.004em;
      }

      .cls-111 {
        letter-spacing: -.008em;
      }

      .cls-112 {
        letter-spacing: -.007em;
      }

      .cls-42, .cls-43, .cls-40 {
        stroke: #000;
      }

      .cls-26 {
        font-size: 10.001px;
      }

      .cls-113 {
        fill: #6ecf74;
      }

      .cls-113, .cls-29, .cls-109, .cls-75, .cls-69 {
        stroke-width: 0px;
      }

      .cls-114 {
        letter-spacing: 0em;
      }

      .cls-29 {
        fill: #3ec900;
        opacity: .3;
      }

      .cls-115 {
        letter-spacing: -.005em;
      }

      .cls-116 {
        letter-spacing: -.005em;
      }

      .cls-117 {
        letter-spacing: -.01em;
      }

      .cls-118 {
        letter-spacing: -.01em;
      }

      .cls-119 {
        letter-spacing: 0em;
      }

      .cls-120 {
        letter-spacing: 0em;
      }

      .cls-33 {
        font-size: 19.545px;
      }

      .cls-121 {
        letter-spacing: -.017em;
      }

      .cls-64 {
        font-size: 17.001px;
      }

      .cls-122 {
        letter-spacing: -.005em;
      }

      .cls-123 {
        letter-spacing: -.017em;
      }

      .cls-124 {
        letter-spacing: -.017em;
      }

      .cls-125 {
        letter-spacing: -.005em;
      }

      .cls-126 {
        letter-spacing: -.005em;
      }

      .cls-127 {
        letter-spacing: -.005em;
      }

      .cls-35 {
        stroke-width: 3.6px;
      }

      .cls-36 {
        stroke-width: 3.6px;
      }

      .cls-37 {
        stroke-miterlimit: 4;
        stroke-width: 1.2px;
      }

      .cls-128 {
        letter-spacing: -.013em;
      }

      .cls-129 {
        letter-spacing: 0em;
      }
    </style>
  </defs>
  <g id="gchk">
    <g id="Hong_Kong_GRp" data-name="Hong Kong GRp">
      <g id="Hong_Kong" data-name="Hong Kong">
        <g id="Hong_Kong-2" data-name="Hong Kong-2">
          <g id="graphicssss">
            <circle id="_13-2" data-name=" 13-2" class="cls-5" cx="302.507" cy="513.337" r="200.973"/>
            <circle id="_12-2" data-name=" 12-2" class="cls-5" cx="302.507" cy="513.337" r="184.663"/>
            <circle id="_11-2" data-name=" 11-2" class="cls-5" cx="302.507" cy="513.337" r="169.971"/>
            <circle id="_10-2" data-name=" 10-2" class="cls-5" cx="302.507" cy="513.337" r="155.279"/>
            <circle id="_9-2" data-name=" 9-2" class="cls-5" cx="302.507" cy="513.337" r="140.586"/>
            <circle id="_8-2" data-name=" 8-2" class="cls-5" cx="302.507" cy="513.337" r="124.142"/>
            <circle id="_7-2" data-name=" 7-2" class="cls-5" cx="302.507" cy="513.337" r="109.45"/>
            <circle id="_6-2" data-name=" 6-2" class="cls-5" cx="302.507" cy="513.337" r="94.758"/>
            <circle id="_5-2" data-name=" 5-2" class="cls-5" cx="302.507" cy="513.337" r="80.066"/>
            <circle id="_4-2" data-name=" 4-2" class="cls-5" cx="302.507" cy="513.337" r="63.756"/>
            <circle id="_3-3" data-name=" 3-3" class="cls-5" cx="302.507" cy="513.337" r="49.064"/>
            <circle id="_2-3" data-name=" 2-3" class="cls-5" cx="302.208" cy="513.065" r="34.372" transform="translate(-252.641 729.187) rotate(-80.783)"/>
            <circle id="_1-2" data-name=" 1-2" class="cls-5" cx="302.208" cy="513.065" r="19.545" transform="translate(-252.641 729.187) rotate(-80.783)"/>
            <circle id="_0-2" data-name=" 0-2" class="cls-5" cx="302.507" cy="513.337" r="4.852"/>
            <line class="cls-40" x1="302.507" y1="509.294" x2="302.507" y2="313.173"/>
            <line class="cls-40" x1="306.416" y1="512.124" x2="492.966" y2="451.469"/>
            <line class="cls-40" x1="304.933" y1="516.707" x2="420.179" y2="675.356"/>
            <line class="cls-40" x1="300.081" y1="516.707" x2="184.835" y2="675.356"/>
            <line class="cls-40" x1="298.598" y1="512.124" x2="112.183" y2="451.469"/>
            <path class="cls-40" d="M302.507,313.173h0v196.12h0"/>
            <line class="cls-40" x1="302.507" y1="328.674" x2="292.802" y2="328.674"/>
            <line class="cls-40" x1="302.507" y1="372.886" x2="292.802" y2="372.886"/>
            <line class="cls-40" x1="302.507" y1="418.58" x2="292.802" y2="418.58"/>
            <line class="cls-40" x1="302.507" y1="464.408" x2="292.802" y2="464.408"/>
            <line class="cls-40" x1="302.507" y1="493.793" x2="292.802" y2="493.793"/>
          </g>
          <g id="wordddds">
            <text class="cls-33" transform="translate(178.23 293.493)"><tspan x="0" y="0">O</tspan><tspan class="cls-54" x="14.502" y="0">v</tspan><tspan x="24.254" y="0">e</tspan><tspan class="cls-127" x="33.03" y="0">r</tspan><tspan x="41.493" y="0">all P</tspan><tspan class="cls-87" x="78.998" y="0">h</tspan><tspan class="cls-111" x="89.65" y="0">y</tspan><tspan x="99.676" y="0">s</tspan><tspan class="cls-107" x="107.376" y="0">i</tspan><tspan x="113.298" y="0">cal</tspan></text>
            <text class="cls-33" transform="translate(319.451 293.493)"><tspan class="cls-123" x="0" y="0">A</tspan><tspan x="12.548" y="0">ct</tspan><tspan class="cls-83" x="27.577" y="0">i</tspan><tspan x="33.46" y="0">vity</tspan></text>
            <text class="cls-33" transform="translate(423.01 424.51)"><tspan x="0" y="0">P</tspan><tspan class="cls-80" x="11.16" y="0">h</tspan><tspan class="cls-111" x="21.812" y="0">y</tspan><tspan class="cls-2" x="31.838" y="0">s</tspan><tspan class="cls-107" x="39.539" y="0">i</tspan><tspan class="cls-76" x="45.461" y="0">cal </tspan><tspan class="cls-65" x="74.503" y="0">F</tspan><tspan x="84.804" y="0">itness</tspan></text>
            <text class="cls-33" transform="translate(356.558 704.74)"><tspan x="0" y="0">Sedentary Beh</tspan><tspan class="cls-50" x="120.939" y="0">a</tspan><tspan x="129.52" y="0">v</tspan><tspan class="cls-107" x="139.683" y="0">i</tspan><tspan x="145.604" y="0">our</tspan></text>
            <text class="cls-33" transform="translate(27.669 695.439)"><tspan x="0" y="0">O</tspan><tspan class="cls-115" x="14.502" y="0">r</tspan><tspan x="22.965" y="0">ganized </tspan><tspan class="cls-105" x="92.132" y="0">S</tspan><tspan class="cls-114" x="101.924" y="0">port &amp;</tspan></text>
            <text class="cls-33" transform="translate(27.669 718.892)"><tspan x="0" y="0">P</tspan><tspan class="cls-77" x="11.16" y="0">h</tspan><tspan class="cls-111" x="21.812" y="0">y</tspan><tspan x="31.838" y="0">s</tspan><tspan class="cls-107" x="39.539" y="0">i</tspan><tspan x="45.46" y="0">cal</tspan></text>
            <text class="cls-33" transform="translate(102.047 718.892)"><tspan class="cls-123" x="0" y="0">A</tspan><tspan class="cls-114" x="12.548" y="0">ct</tspan><tspan class="cls-83" x="27.577" y="0">i</tspan><tspan x="33.46" y="0">vity</tspan></text>
            <text class="cls-33" transform="translate(19.851 457.264)"><tspan x="0" y="0">Scho</tspan><tspan class="cls-83" x="39.714" y="0">o</tspan><tspan x="49.74" y="0">l</tspan></text>
            <text class="cls-22" transform="translate(280.401 330.022)"><tspan x="0" y="0">A</tspan></text>
            <text class="cls-28" transform="translate(278.784 378.007)"><tspan x="0" y="0">B</tspan></text>
            <text class="cls-28" transform="translate(278.784 423.836)"><tspan x="0" y="0">C</tspan></text>
            <text class="cls-28" transform="translate(278.784 469.53)"><tspan x="0" y="0">D</tspan></text>
            <text class="cls-28" transform="translate(278.784 499.049)"><tspan x="0" y="0">F</tspan></text>
          </g>
          <g id="radars-2">
            <g id="_0-3" data-name=" 0-3">
              <path class="cls-11" d="M302.507,433.272l46.638,64.969.404,79.931-102.71,11.862-34.372-105.945,90.175-50.816h-.135Z"/>
              <g id="dots-3">
                <circle class="cls-39" cx="302.507" cy="433.272" r="4.852"/>
                <circle class="cls-39" cx="349.144" cy="498.241" r="4.852"/>
                <circle class="cls-39" cx="349.549" cy="578.172" r="4.852"/>
                <circle class="cls-39" cx="246.838" cy="590.033" r="4.852"/>
                <circle class="cls-39" cx="212.332" cy="484.088" r="4.852"/>
              </g>
            </g>
            <g id="_1-3" data-name=" 1-3">
              <path class="cls-10" d="M302.507,479.101l46.638,19.14-17.792,54.86-101.767,60.791-60.656-143.956,133.712,9.166h-.135,0Z"/>
              <g id="dots-4">
                <circle class="cls-41" cx="302.507" cy="479.101" r="4.852"/>
                <circle class="cls-41" cx="349.144" cy="498.241" r="4.852"/>
                <circle class="cls-41" cx="331.352" cy="553.101" r="4.852"/>
                <circle class="cls-41" cx="229.585" cy="613.891" r="4.852"/>
                <circle class="cls-41" cx="168.93" cy="469.935" r="4.852"/>
              </g>
            </g>
          </g>
        </g>
      </g>
    </g>
    <g id="legend">
      <g>
        <g>
          <g>
            <rect class="cls-75" x="534.751" y="231.49" width="20.219" height="20.219"/>
            <g class="cls-32">
              <g class="cls-32">
                <g class="cls-32">
                  <g class="cls-32">
                    <g class="cls-32">
                      <g class="cls-32">
                        <g class="cls-32">
                          <text class="cls-4" transform="translate(561.709 248.339)"><tspan x="0" y="0">2018</tspan></text>
                        </g>
                      </g>
                    </g>
                  </g>
                </g>
              </g>
            </g>
          </g>
          <g>
            <rect class="cls-69" x="534.751" y="259.122" width="20.219" height="20.219"/>
            <g class="cls-32">
              <g class="cls-32">
                <g class="cls-32">
                  <g class="cls-32">
                    <g class="cls-32">
                      <g class="cls-32">
                        <g class="cls-32">
                          <text class="cls-4" transform="translate(561.709 275.971)"><tspan x="0" y="0">2022</tspan></text>
                        </g>
                      </g>
                    </g>
                  </g>
                </g>
              </g>
            </g>
          </g>
        </g>
        <g class="cls-32">
          <g class="cls-32">
            <g class="cls-32">
              <g class="cls-32">
                <g class="cls-32">
                  <g class="cls-32">
                    <g class="cls-32">
                      <text class="cls-17" transform="translate(534.751 210.597)"><tspan x="0" y="0">Y</tspan></text>
                    </g>
                  </g>
                </g>
              </g>
            </g>
            <g class="cls-32">
              <g class="cls-32">
                <g class="cls-32">
                  <g class="cls-32">
                    <g class="cls-32">
                      <text class="cls-31" transform="translate(544.591 210.597)"><tspan x="0" y="0">ear</tspan></text>
                    </g>
                  </g>
                </g>
              </g>
            </g>
          </g>
        </g>
      </g>
    </g>
    <g id="Arrows">
      <polygon class="cls-109" points="415.731 279.476 423.144 282.576 430.693 279.476 423.144 297.133 415.731 279.476"/>
      <polygon class="cls-109" points="560.226 689.643 567.64 692.878 575.053 689.643 567.64 707.436 560.226 689.643"/>
      <polygon class="cls-113" points="105.848 458.478 98.434 455.243 90.886 458.478 98.434 440.685 105.848 458.478"/>
      <polygon class="cls-113" points="226.216 708.379 218.802 705.279 211.389 708.379 218.802 690.722 226.216 708.379"/>
    </g>
    <g id="Hightlight">
      <rect id="School2" class="cls-29" x="411.909" y="406.179" width="161.479" height="25.88"/>
      <rect id="PF2" class="cls-29" x="342.627" y="685.869" width="205.69" height="25.88"/>
      <rect id="PA2" class="cls-29" x="161.199" y="273.949" width="241.275" height="25.88"/>
      <rect id="OrganizedPA2" class="cls-29" x="14.007" y="677.782" width="178.193" height="52.029"/>
      <rect id="PF2-2" class="cls-29" x="2.685" y="436.642" width="81.548" height="27.228"/>
    </g>
    <text class="cls-62" transform="translate(0 210.597)"><tspan class="cls-48" x="0" y="0">H</tspan><tspan x="16.109" y="0">ong </tspan><tspan class="cls-91" x="58.706" y="0">K</tspan><tspan x="73.967" y="0">ong</tspan></text>
    <g id="gradessss">
      <text class="cls-7" transform="translate(366.263 513.337)"><tspan x="0" y="0">D</tspan></text>
      <text class="cls-7" transform="translate(336.204 553.1)"><tspan x="0" y="0">D</tspan></text>
      <text class="cls-7" transform="translate(169.199 457.264)"><tspan x="0" y="0">B</tspan></text>
      <text class="cls-7" transform="translate(200.201 614.699)"><tspan x="0" y="0">B-</tspan></text>
      <text class="cls-23" transform="translate(367.476 575.61)"><tspan x="0" y="0">C-</tspan></text>
      <text class="cls-23" transform="translate(226.216 465.62)"><tspan x="0" y="0">C</tspan></text>
      <text class="cls-23" transform="translate(264.766 603.107)"><tspan x="0" y="0">C</tspan></text>
    </g>
    <text class="cls-96" transform="translate(14.007 790.445)"><tspan class="cls-92" x="0" y="0">N</tspan><tspan x="11.815" y="0">ote: not an exhaustive list </tspan><tspan class="cls-100" x="176.541" y="0">o</tspan><tspan x="183.341" y="0">f g</tspan><tspan class="cls-88" x="200.051" y="0">r</tspan><tspan class="cls-119" x="205.763" y="0">ades </tspan><tspan x="0" y="20.4">A+: 94-100% </tspan><tspan class="cls-104" x="91" y="20.4">o</tspan><tspan x="97.8" y="20.4">f child</tspan><tspan class="cls-104" x="137.222" y="20.4">r</tspan><tspan x="143.053" y="20.4">en and adolescents achieve the </tspan><tspan class="cls-100" x="335.811" y="20.4">r</tspan><tspan x="341.642" y="20.4">ecommended standa</tspan><tspan class="cls-72" x="464.838" y="20.4">r</tspan><tspan class="cls-119" x="470.532" y="20.4">d </tspan><tspan x="0" y="40.8">A: 87-93% </tspan><tspan class="cls-70" x="0" y="61.2">A</tspan><tspan x="9.52" y="61.2">-: 80-86% </tspan><tspan x="0" y="81.6">B+: 74-79% </tspan><tspan x="0" y="102">B: 67-73% </tspan><tspan x="0" y="122.4">B-: 60-66% </tspan><tspan x="0" y="142.8">C+: 54-59% </tspan><tspan x="0" y="163.2">C: 47-53% </tspan><tspan x="0" y="183.6">C-: 40-46% </tspan><tspan x="0" y="204">D+: 34-39% </tspan><tspan x="0" y="224.4">D: 27-33% </tspan><tspan x="0" y="244.8">D-: 20-26% </tspan><tspan x="0" y="265.2">F: below 20%</tspan></text>
  </g>
  <g id="gcjp">
    <g id="legend-2" data-name="legend">
      <g>
        <g>
          <g>
            <rect class="cls-75" x="1039.642" y="127.761" width="15.001" height="15.001"/>
            <g class="cls-32">
              <g class="cls-32">
                <g class="cls-32">
                  <g class="cls-32">
                    <g class="cls-32">
                      <g class="cls-32">
                        <g class="cls-32">
                          <text class="cls-26" transform="translate(1059.645 140.262)"><tspan x="0" y="0">2018</tspan></text>
                        </g>
                      </g>
                    </g>
                  </g>
                </g>
              </g>
            </g>
          </g>
          <g>
            <rect class="cls-69" x="1039.642" y="148.262" width="15.001" height="15.001"/>
            <g class="cls-32">
              <g class="cls-32">
                <g class="cls-32">
                  <g class="cls-32">
                    <g class="cls-32">
                      <g class="cls-32">
                        <g class="cls-32">
                          <text class="cls-26" transform="translate(1059.645 160.765)"><tspan x="0" y="0">2022</tspan></text>
                        </g>
                      </g>
                    </g>
                  </g>
                </g>
              </g>
            </g>
          </g>
        </g>
        <g>
          <text class="cls-9" transform="translate(1039.643 112.261)"><tspan x="0" y="0">Y</tspan></text>
          <text class="cls-9" transform="translate(1046.943 112.261)"><tspan x="0" y="0">ear</tspan></text>
        </g>
      </g>
    </g>
    <g id="Arrows-2" data-name="Arrows">
      <polygon class="cls-109" points="1088.746 260.772 1094.246 263.072 1099.847 260.772 1094.246 273.873 1088.746 260.772"/>
    </g>
    <g class="cls-32">
      <g class="cls-32">
        <text class="cls-27" transform="translate(642.905 549.898)"><tspan x="0" y="0">*incom</tspan><tspan class="cls-102" x="34.742" y="0">p</tspan><tspan x="40.671" y="0">lete data</tspan></text>
      </g>
    </g>
    <g id="gradeeee">
      <text class="cls-15" transform="translate(966.036 295.676)"><tspan x="0" y="0">B</tspan></text>
      <text class="cls-15" transform="translate(880.628 245.772)"><tspan x="0" y="0">B-</tspan></text>
      <text class="cls-15" transform="translate(914.13 389.284)"><tspan x="0" y="0">C-</tspan></text>
      <text class="cls-15" transform="translate(789.721 417.686)"><tspan x="0" y="0">B-</tspan></text>
      <text class="cls-15" transform="translate(750.716 292.076)"><tspan x="0" y="0">B+</tspan></text>
      <text class="cls-12" transform="translate(1002.438 309.177)"><tspan x="0" y="0">A</tspan></text>
    </g>
    <g id="Hightlight-2" data-name="Hightlight">
      <rect id="School2-2" data-name="School2" class="cls-29" x="950.733" y="257.272" width="119.811" height="19.202"/>
      <rect id="PF2-2" data-name="PF2" class="cls-29" x="899.329" y="464.79" width="152.613" height="19.202"/>
      <rect id="PA2-2" data-name="PA2" class="cls-29" x="764.717" y="159.163" width="179.016" height="19.202"/>
      <rect id="OrganizedPA2-2" data-name="OrganizedPA2" class="cls-29" x="655.508" y="458.79" width="132.212" height="38.603"/>
      <rect id="PF2-2-2" data-name="PF2-2" class="cls-29" x="647.107" y="279.874" width="60.505" height="20.202"/>
    </g>
    <g id="JP_GRp" data-name="JP GRp">
      <g id="JP-2">
        <g id="JP-3">
          <g id="axes-2">
            <g id="graphicccc">
              <circle id="_13-2-2" data-name=" 13-2" class="cls-20" cx="867.327" cy="336.879" r="149.113"/>
              <circle id="_12-2-2" data-name=" 12-2" class="cls-20" cx="867.327" cy="336.879" r="137.012"/>
              <circle id="_11-2-2" data-name=" 11-2" class="cls-20" cx="867.327" cy="336.879" r="126.111"/>
              <circle id="_10-2-2" data-name=" 10-2" class="cls-20" cx="867.327" cy="336.879" r="115.21"/>
              <circle id="_9-2-2" data-name=" 9-2" class="cls-20" cx="867.327" cy="336.879" r="104.309"/>
              <circle id="_8-2-2" data-name=" 8-2" class="cls-20" cx="867.327" cy="336.879" r="92.108"/>
              <circle id="_7-2-2" data-name=" 7-2" class="cls-20" cx="867.327" cy="336.879" r="81.207"/>
              <circle id="_6-2-2" data-name=" 6-2" class="cls-20" cx="867.327" cy="336.879" r="70.306"/>
              <circle id="_5-2-2" data-name=" 5-2" class="cls-20" cx="867.327" cy="336.879" r="59.405"/>
              <circle id="_4-2-2" data-name=" 4-2" class="cls-20" cx="867.327" cy="336.879" r="47.304"/>
              <circle id="_3-3-2" data-name=" 3-3" class="cls-20" cx="867.327" cy="336.879" r="36.403"/>
              <circle id="_2-3-2" data-name=" 2-3" class="cls-20" cx="867.127" cy="336.679" r="25.502" transform="translate(395.897 1138.679) rotate(-80.783)"/>
              <circle id="_1-2-2" data-name=" 1-2" class="cls-20" cx="867.127" cy="336.679" r="14.501" transform="translate(395.897 1138.679) rotate(-80.783)"/>
              <circle id="_0-2-2" data-name=" 0-2" class="cls-20" cx="867.327" cy="336.879" r="3.6"/>
              <line class="cls-42" x1="867.327" y1="333.879" x2="867.327" y2="188.366"/>
              <line class="cls-42" x1="870.227" y1="335.979" x2="1008.639" y2="290.975"/>
              <line class="cls-42" x1="869.127" y1="339.379" x2="954.634" y2="457.089"/>
              <line class="cls-42" x1="865.526" y1="339.379" x2="780.019" y2="457.089"/>
              <line class="cls-42" x1="864.426" y1="335.979" x2="726.114" y2="290.975"/>
              <path class="cls-42" d="M867.327,188.366h0v145.513h0"/>
              <line class="cls-42" x1="867.327" y1="199.867" x2="860.126" y2="199.867"/>
              <line class="cls-42" x1="867.327" y1="232.67" x2="860.126" y2="232.67"/>
              <line class="cls-42" x1="867.327" y1="266.573" x2="860.126" y2="266.573"/>
              <line class="cls-42" x1="867.327" y1="300.576" x2="860.126" y2="300.576"/>
              <line class="cls-42" x1="867.327" y1="322.378" x2="860.126" y2="322.378"/>
            </g>
            <g id="Worddsss">
              <text class="cls-8" transform="translate(775.118 173.766)"><tspan x="0" y="0">O</tspan><tspan class="cls-44" x="10.76" y="0">v</tspan><tspan x="17.996" y="0">e</tspan><tspan class="cls-122" x="24.507" y="0">r</tspan><tspan class="cls-120" x="30.786" y="0">all P</tspan><tspan class="cls-81" x="58.613" y="0">h</tspan><tspan class="cls-106" x="66.517" y="0">y</tspan><tspan x="73.955" y="0">s</tspan><tspan class="cls-99" x="79.669" y="0">i</tspan><tspan x="84.062" y="0">cal</tspan></text>
              <text class="cls-8" transform="translate(880.028 173.766)"><tspan class="cls-121" x="0" y="0">A</tspan><tspan x="9.31" y="0">ct</tspan><tspan class="cls-85" x="20.461" y="0">i</tspan><tspan x="24.826" y="0">vit</tspan><tspan class="cls-47" x="41.646" y="0">y</tspan><tspan x="49.521" y="0">*</tspan></text>
              <text class="cls-8" transform="translate(962.436 270.974)"><tspan x="0" y="0">P</tspan><tspan class="cls-81" x="8.28" y="0">h</tspan><tspan class="cls-106" x="16.184" y="0">y</tspan><tspan x="23.622" y="0">s</tspan><tspan class="cls-99" x="29.336" y="0">i</tspan><tspan x="33.729" y="0">cal </tspan><tspan class="cls-57" x="55.278" y="0">F</tspan><tspan x="62.92" y="0">itness</tspan></text>
              <text class="cls-8" transform="translate(907.43 478.893)"><tspan x="0" y="0">Sedentary Beh</tspan><tspan class="cls-89" x="89.732" y="0">a</tspan><tspan class="cls-94" x="96.098" y="0">v</tspan><tspan class="cls-99" x="103.639" y="0">i</tspan><tspan x="108.032" y="0">our</tspan></text>
              <text class="cls-8" transform="translate(663.41 471.991)"><tspan x="0" y="0">O</tspan><tspan class="cls-122" x="10.76" y="0">r</tspan><tspan class="cls-120" x="17.039" y="0">ganized </tspan><tspan class="cls-86" x="68.357" y="0">S</tspan><tspan class="cls-120" x="75.623" y="0">port &amp;</tspan></text>
              <text class="cls-8" transform="translate(663.41 489.393)"><tspan x="0" y="0">P</tspan><tspan class="cls-81" x="8.28" y="0">h</tspan><tspan class="cls-106" x="16.184" y="0">y</tspan><tspan x="23.622" y="0">s</tspan><tspan class="cls-99" x="29.336" y="0">i</tspan><tspan x="33.729" y="0">cal</tspan></text>
              <text class="cls-8" transform="translate(718.014 489.393)"><tspan class="cls-121" x="0" y="0">A</tspan><tspan x="9.31" y="0">ct</tspan><tspan class="cls-85" x="20.461" y="0">i</tspan><tspan x="24.826" y="0">vity</tspan></text>
              <text class="cls-8" transform="translate(657.608 295.275)"><tspan x="0" y="0">Scho</tspan><tspan class="cls-85" x="29.466" y="0">o</tspan><tspan x="36.905" y="0">l</tspan></text>
              <text class="cls-24" transform="translate(850.926 200.867)"><tspan x="0" y="0">A</tspan></text>
              <text class="cls-24" transform="translate(849.726 236.47)"><tspan x="0" y="0">B</tspan></text>
              <text class="cls-24" transform="translate(849.726 270.474)"><tspan x="0" y="0">C</tspan></text>
              <text class="cls-24" transform="translate(849.726 304.377)"><tspan x="0" y="0">D</tspan></text>
              <text class="cls-24" transform="translate(849.726 326.278)"><tspan x="0" y="0">F</tspan></text>
            </g>
          </g>
          <g id="radars-2-2" data-name="radars-2">
            <g id="_0-3-2" data-name=" 0-3">
              <path class="cls-18" d="M867.327,337.279l131.712-42.304-93.208,90.008-92.608,26.502-55.105-111.41,109.21,37.203h0Z"/>
              <g id="dots-3-2" data-name="dots-3">
                <ellipse class="cls-74" cx="997.838" cy="295.275" rx="3.6" ry="3.4"/>
                <circle class="cls-74" cx="902.23" cy="384.983" r="3.6"/>
                <circle class="cls-74" cx="813.222" cy="411.485" r="3.6"/>
                <circle class="cls-74" cx="758.317" cy="300.076" r="3.6"/>
              </g>
            </g>
            <g id="_1-3-2" data-name=" 1-3">
              <path class="cls-35" d="M867.327,244.771l96.308,59.605-61.405,80.607-89.008,26.502-55.105-111.41,109.21-55.305v66.706-66.706h0Z"/>
              <g id="dots-4-2" data-name="dots-4">
                <circle class="cls-67" cx="866.526" cy="244.371" r="3.6"/>
                <circle class="cls-67" cx="967.235" cy="304.376" r="3.6"/>
                <circle class="cls-67" cx="902.23" cy="384.983" r="3.6"/>
                <circle class="cls-67" cx="813.222" cy="411.485" r="3.6"/>
                <circle class="cls-67" cx="758.317" cy="300.076" r="3.6"/>
              </g>
            </g>
          </g>
        </g>
      </g>
    </g>
    <text class="cls-64" transform="translate(647.143 112.261)"><tspan class="cls-52" x="0" y="0">J</tspan><tspan x="5.355" y="0">apan</tspan></text>
  </g>
  <g id="gcgb">
    <g id="Global_GRp" data-name="Global GRp">
      <g id="Global">
        <g id="Global-2">
          <g id="Graphicccccccc">
            <circle id="_13-2-3" data-name=" 13-2" class="cls-19" cx="865.1" cy="836.759" r="149.1"/>
            <circle id="_12-2-3" data-name=" 12-2" class="cls-19" cx="865.1" cy="836.759" r="137"/>
            <circle id="_11-2-3" data-name=" 11-2" class="cls-19" cx="865.1" cy="836.759" r="126.1"/>
            <circle id="_10-2-3" data-name=" 10-2" class="cls-19" cx="865.1" cy="836.759" r="115.2"/>
            <circle id="_9-2-3" data-name=" 9-2" class="cls-19" cx="865.1" cy="836.759" r="104.3"/>
            <circle id="_8-2-3" data-name=" 8-2" class="cls-19" cx="865.1" cy="836.759" r="92.1"/>
            <circle id="_7-2-3" data-name=" 7-2" class="cls-19" cx="865.1" cy="836.759" r="81.2"/>
            <circle id="_6-2-3" data-name=" 6-2" class="cls-19" cx="865.1" cy="836.759" r="70.3"/>
            <circle id="_5-2-3" data-name=" 5-2" class="cls-19" cx="865.1" cy="836.759" r="59.4"/>
            <circle id="_4-2-3" data-name=" 4-2" class="cls-19" cx="865.1" cy="836.759" r="47.3"/>
            <circle id="_3-3-3" data-name=" 3-3" class="cls-19" cx="865.1" cy="836.759" r="36.4"/>
            <circle id="_2-3-3" data-name=" 2-3" class="cls-37" cx="864.863" cy="836.44" r="25.5" transform="translate(-201.978 1392.741) rotate(-71.583)"/>
            <circle id="_1-2-3" data-name=" 1-2" class="cls-37" cx="864.863" cy="836.44" r="14.5" transform="translate(-201.978 1392.741) rotate(-71.583)"/>
            <circle id="_0-2-3" data-name=" 0-2" class="cls-19" cx="865.1" cy="836.759" r="3.6"/>
            <line class="cls-43" x1="865.1" y1="833.759" x2="865.1" y2="688.259"/>
            <line class="cls-43" x1="868" y1="835.859" x2="1006.4" y2="790.859"/>
            <line class="cls-43" x1="866.9" y1="839.259" x2="952.4" y2="956.959"/>
            <line class="cls-43" x1="863.3" y1="839.259" x2="777.8" y2="956.959"/>
            <line class="cls-43" x1="862.2" y1="835.859" x2="723.9" y2="790.859"/>
            <path class="cls-43" d="M865.1,688.259h0v145.5h0"/>
            <line class="cls-43" x1="865.1" y1="699.759" x2="857.9" y2="699.759"/>
            <line class="cls-43" x1="865.1" y1="732.559" x2="857.9" y2="732.559"/>
            <line class="cls-43" x1="865.1" y1="766.459" x2="857.9" y2="766.459"/>
            <line class="cls-43" x1="865.1" y1="800.459" x2="857.9" y2="800.459"/>
            <line class="cls-43" x1="865.1" y1="822.259" x2="857.9" y2="822.259"/>
          </g>
          <g id="Worddddddss">
            <text class="cls-13" transform="translate(772.9 673.659)"><tspan x="0" y="0">O</tspan><tspan class="cls-53" x="10.759" y="0">v</tspan><tspan x="17.994" y="0">e</tspan><tspan class="cls-126" x="24.504" y="0">r</tspan><tspan x="30.783" y="0">all P</tspan><tspan class="cls-78" x="58.608" y="0">h</tspan><tspan class="cls-108" x="66.51" y="0">y</tspan><tspan class="cls-98" x="73.949" y="0">s</tspan><tspan class="cls-110" x="79.662" y="0">i</tspan><tspan x="84.055" y="0">cal</tspan></text>
            <text class="cls-13" transform="translate(878.8 673.659)"><tspan class="cls-124" x="0" y="0">A</tspan><tspan x="9.309" y="0">ct</tspan><tspan class="cls-59" x="20.459" y="0">i</tspan><tspan class="cls-66" x="24.824" y="0">vity</tspan></text>
            <text class="cls-13" transform="translate(958.7 771.959)"><tspan x="0" y="0">P</tspan><tspan class="cls-79" x="8.279" y="0">h</tspan><tspan class="cls-101" x="16.182" y="0">y</tspan><tspan x="23.621" y="0">s</tspan><tspan class="cls-110" x="29.333" y="0">i</tspan><tspan class="cls-98" x="33.727" y="0">cal </tspan><tspan class="cls-60" x="55.273" y="0">F</tspan><tspan x="62.915" y="0">itness</tspan></text>
            <text class="cls-13" transform="translate(905.2 978.759)"><tspan x="0" y="0">Sedentary Beh</tspan><tspan class="cls-51" x="89.724" y="0">a</tspan><tspan class="cls-66" x="96.09" y="0">v</tspan><tspan class="cls-97" x="103.629" y="0">i</tspan><tspan x="108.023" y="0">our</tspan></text>
            <text class="cls-13" transform="translate(661.2 971.859)"><tspan x="0" y="0">O</tspan><tspan class="cls-126" x="10.759" y="0">r</tspan><tspan x="17.037" y="0">ganized </tspan><tspan class="cls-112" x="68.352" y="0">S</tspan><tspan x="75.616" y="0">port &amp;</tspan></text>
            <text class="cls-13" transform="translate(661.2 989.259)"><tspan x="0" y="0">P</tspan><tspan class="cls-79" x="8.279" y="0">h</tspan><tspan class="cls-101" x="16.182" y="0">y</tspan><tspan x="23.621" y="0">s</tspan><tspan class="cls-110" x="29.333" y="0">i</tspan><tspan class="cls-98" x="33.727" y="0">cal</tspan></text>
            <text class="cls-13" transform="translate(717.8 989.259)"><tspan class="cls-124" x="0" y="0">A</tspan><tspan x="9.309" y="0">ct</tspan><tspan class="cls-59" x="20.459" y="0">i</tspan><tspan class="cls-66" x="24.824" y="0">vity</tspan></text>
            <text class="cls-13" transform="translate(655.4 795.159)"><tspan x="0" y="0">Scho</tspan><tspan class="cls-84" x="29.463" y="0">o</tspan><tspan x="36.902" y="0">l</tspan></text>
            <text class="cls-25" transform="translate(848.7 700.759)"><tspan x="0" y="0">A</tspan></text>
            <text class="cls-25" transform="translate(847.5 736.359)"><tspan x="0" y="0">B</tspan></text>
            <text class="cls-25" transform="translate(847.5 770.359)"><tspan x="0" y="0">C</tspan></text>
            <text class="cls-25" transform="translate(847.5 804.259)"><tspan x="0" y="0">D</tspan></text>
            <text class="cls-25" transform="translate(847.5 826.159)"><tspan x="0" y="0">F</tspan></text>
          </g>
          <g id="radars-2-3" data-name="radars-2">
            <g id="_0-3-3" data-name=" 0-3">
              <path class="cls-16" d="M865.1,800.359l58.5,17.8-27,53.7-72.9,21.7-25.5-78.6,66.8-14.7h0l.1.1Z"/>
              <g id="dots-3-3" data-name="dots-3">
                <circle class="cls-73" cx="865.1" cy="800.459" r="3.6"/>
                <circle class="cls-73" cx="921.6" cy="818.459" r="3.6"/>
                <circle class="cls-73" cx="893.7" cy="874.859" r="3.6"/>
                <circle class="cls-73" cx="823.8" cy="893.659" r="3.6"/>
                <circle class="cls-73" cx="798.2" cy="815.059" r="3.6"/>
              </g>
            </g>
            <g id="_1-3-3" data-name=" 1-3">
              <path class="cls-36" d="M865.8,801.659l56.1,17.8-28.2,55.4-63.2,9.6-42.8-72.2,76.5-11.1,1.4,12.4h0l.3-11.9h-.1Z"/>
              <g id="dots-4-3" data-name="dots-4">
                <circle class="cls-68" cx="865.2" cy="800.559" r="3.6"/>
                <circle class="cls-68" cx="921.9" cy="818.659" r="3.6"/>
                <circle class="cls-68" cx="893.7" cy="874.859" r="3.6"/>
                <circle class="cls-68" cx="829.7" cy="884.459" r="3.6"/>
                <circle class="cls-68" cx="788.4" cy="812.259" r="3.6"/>
              </g>
            </g>
          </g>
        </g>
      </g>
    </g>
    <g id="legend-3" data-name="legend">
      <g>
        <g>
          <g>
            <rect class="cls-75" x="1037.4" y="627.659" width="15" height="15"/>
            <g class="cls-32">
              <g class="cls-32">
                <g class="cls-32">
                  <g class="cls-32">
                    <g class="cls-32">
                      <g class="cls-32">
                        <g class="cls-32">
                          <g class="cls-32">
                            <text class="cls-14" transform="translate(1057.4 640.159)"><tspan x="0" y="0">2018</tspan></text>
                          </g>
                        </g>
                      </g>
                    </g>
                  </g>
                </g>
              </g>
            </g>
          </g>
          <g>
            <rect class="cls-69" x="1037.4" y="648.159" width="15" height="15"/>
            <g class="cls-32">
              <g class="cls-32">
                <g class="cls-32">
                  <g class="cls-32">
                    <g class="cls-32">
                      <g class="cls-32">
                        <g class="cls-32">
                          <g class="cls-32">
                            <text class="cls-14" transform="translate(1057.4 660.659)"><tspan x="0" y="0">2022</tspan></text>
                          </g>
                        </g>
                      </g>
                    </g>
                  </g>
                </g>
              </g>
            </g>
          </g>
        </g>
        <g>
          <text class="cls-30" transform="translate(1037.4 612.159)"><tspan x="0" y="0">Y</tspan></text>
          <text class="cls-30" transform="translate(1044.7 612.159)"><tspan x="0" y="0">ear</tspan></text>
        </g>
      </g>
    </g>
    <g id="Arrows-3" data-name="Arrows">
      <polygon class="cls-109" points="792.5 972.159 798 974.559 803.5 972.159 798 985.359 792.5 972.159"/>
      <polygon class="cls-113" points="719.2 796.059 713.7 793.659 708.1 796.059 713.7 782.859 719.2 796.059"/>
    </g>
    <g id="Hightlight-3" data-name="Hightlight">
      <rect id="School2-3" data-name="School2" class="cls-29" x="946" y="756.359" width="119.8" height="19.2"/>
      <rect id="PF2-3" data-name="PF2" class="cls-29" x="894.6" y="963.959" width="152.6" height="19.2"/>
      <rect id="PA2-3" data-name="PA2" class="cls-29" x="760" y="658.359" width="179" height="19.2"/>
      <rect id="OrganizedPA2-3" data-name="OrganizedPA2" class="cls-29" x="650.8" y="957.959" width="132.2" height="38.6"/>
      <rect id="PF2-2-3" data-name="PF2-2" class="cls-29" x="642.4" y="779.059" width="60.5" height="20.2"/>
    </g>
    <g id="gradeeessss">
      <text class="cls-6" transform="translate(934.6 826.159)"><tspan x="0" y="0">C-</tspan></text>
      <text class="cls-6" transform="translate(905.8 880.059)"><tspan x="0" y="0">D+</tspan></text>
      <text class="cls-6" transform="translate(839.6 894.959)"><tspan x="0" y="0">C-</tspan></text>
      <text class="cls-6" transform="translate(775.9 823.959)"><tspan x="0" y="0">C+</tspan></text>
    </g>
    <text class="cls-63" transform="translate(640.746 612.266)"><tspan class="cls-116" x="0" y="0">G</tspan><tspan class="cls-82" x="11.9" y="0">l</tspan><tspan x="16.864" y="0">obal </tspan><tspan class="cls-95" x="52.529" y="0">A</tspan><tspan class="cls-46" x="62.678" y="0">v</tspan><tspan x="71.161" y="0">e</tspan><tspan class="cls-116" x="78.794" y="0">r</tspan><tspan x="86.155" y="0">age</tspan></text>
    <g class="cls-32">
      <g class="cls-32">
        <text class="cls-21" transform="translate(4.697 25.513)"><tspan class="cls-71" x="0" y="0">R</tspan><tspan class="cls-58" x="20.584" y="0">eport Ca</tspan><tspan class="cls-117" x="134.941" y="0">r</tspan><tspan x="148.209" y="0">d </tspan><tspan class="cls-56" x="173.814" y="0">P</tspan><tspan class="cls-58" x="190.461" y="0">er</tspan><tspan class="cls-61" x="217.958" y="0">f</tspan><tspan x="228.405" y="0">ormance Comparison: </tspan><tspan class="cls-3" x="534.185" y="0">H</tspan><tspan x="555.978" y="0">ong </tspan><tspan class="cls-90" x="613.605" y="0">K</tspan><tspan x="634.251" y="0">ong, </tspan><tspan class="cls-45" x="698.637" y="0">J</tspan><tspan x="708.402" y="0">apan, and the </tspan><tspan class="cls-125" x="896.351" y="0">G</tspan><tspan class="cls-49" x="918.051" y="0">l</tspan><tspan x="927.103" y="0">obal </tspan><tspan class="cls-93" x="992.14" y="0">A</tspan><tspan class="cls-55" x="1010.646" y="0">v</tspan><tspan x="1026.115" y="0">e</tspan><tspan class="cls-125" x="1040.034" y="0">r</tspan><tspan x="1053.457" y="0">age</tspan></text>
      </g>
    </g>
    <g class="cls-32">
      <g class="cls-32">
        <text class="cls-34" transform="translate(14.007 765.68)"><tspan x="0" y="0">Sou</tspan><tspan class="cls-103" x="25.312" y="0">r</tspan><tspan x="31.535" y="0">ce: </tspan><tspan class="cls-118" x="54.382" y="0">A</tspan><tspan x="64.616" y="0">cti</tspan><tspan class="cls-128" x="81.259" y="0">v</tspan><tspan class="cls-129" x="88.875" y="0">e </tspan><tspan class="cls-38" x="100.961" y="0">H</tspan><tspan x="112.658" y="0">ealt</tspan><tspan class="cls-128" x="136.304" y="0">h</tspan><tspan class="cls-1" x="144.634" y="0">y Kids Global Alliance.</tspan></text>
      </g>
    </g>
  </g>
</svg>