<?xml version="1.0" encoding="UTF-8"?>
<svg id="gchk" data-name="gchk" xmlns="http://www.w3.org/2000/svg" xmlns:xlink="http://www.w3.org/1999/xlink" version="1.1" viewBox="0 0 499.9 500">
  <defs>
    <style>
      .hkrc1 {
        fill: #aa0004;
        fill-rule: evenodd;
      }

      .hkrc1, .hkrc2, .hkrc3, .hkrc4, .hkrc5, .hkrc6, .hkrc7, .hkrc8 {
        stroke-width: 0px;
      }

      .hkrc9 {
        fill: #ab0000;
      }

      .hkrc9, .hkrc10, .hkrc11, .hkrc12 {
        font-family: Helvetica, Helvetica;
      }

      .hkrc9, .hkrc11, .hkrc13, .hkrc14 {
        font-size: 12px;
      }

      .hkrc15 {
        clip-path: url(#clippath);
      }

      .hkrc2, .hkrc16, .hkrc17 {
        fill: none;
      }

      .hkrc18 {
        font-family: HelveticaNeue-Bold, 'Helvetica Neue';
        font-size: 17px;
      }

      .hkrc18, .hkrc19, .hkrc20, .hkrc16, .hkrc10, .hkrc13, .hkrc12, .hkrc21, .hkrc22, .hkrc23, .hkrc14 {
        isolation: isolate;
      }

      .hkrc18, .hkrc19, .hkrc10, .hkrc13, .hkrc12, .hkrc21, .hkrc14 {
        fill: #000;
      }

      .hkrc18, .hkrc13, .hkrc21, .hkrc14 {
        font-weight: 700;
      }

      .hkrc19 {
        font-family: ArialMT, Arial;
        font-size: 10px;
      }

      .hkrc20, .hkrc16, .hkrc17, .hkrc24, .hkrc25 {
        stroke-width: 1.2px;
      }

      .hkrc20, .hkrc16, .hkrc23 {
        opacity: .5;
      }

      .hkrc20, .hkrc24 {
        stroke: #8a8a8a;
      }

      .hkrc20, .hkrc24, .hkrc6 {
        fill: #8a8a8a;
      }

      .hkrc16 {
        stroke: #d3d3d3;
      }

      .hkrc3 {
        fill: #3ec900;
        opacity: .3;
      }

      .hkrc10, .hkrc12 {
        font-size: 12.1px;
      }

      .hkrc11 {
        fill: #757575;
      }

      .hkrc13 {
        letter-spacing: 0em;
      }

      .hkrc13, .hkrc14 {
        font-family: Arial-BoldMT, Arial;
      }

      .hkrc12 {
        letter-spacing: 0em;
      }

      .hkrc17 {
        stroke: #000;
      }

      .hkrc21 {
        font-family: Helvetica-Bold, Helvetica;
        font-size: 14.5px;
      }

      .hkrc4 {
        fill: #6ecf74;
      }

      .hkrc25, .hkrc23 {
        stroke: #ab5555;
      }

      .hkrc25, .hkrc23, .hkrc8 {
        fill: #ab5555;
      }

      .hkrc5 {
        fill: #bc1b3a;
      }

      .hkrc7 {
        fill: #fff;
      }

      .hkrc26 {
        display: none;
      }

      .hkrc23 {
        stroke-width: 3.6px;
      }
    </style>
    <clipPath id="clippath">
      <rect class="hkrc2" x="6" y="62.6" width="488" height="363.7"/>
    </clipPath>
  </defs>
  <rect id="background" class="hkrc7" y="0" width="499.9" height="500"/>
  <g id="Hong_Kong_GRp" data-name="Hong Kong GRp">
    <g class="hkrc15">
      <g id="Hong_Kong" data-name="Hong Kong">
        <g id="Hong_Kong-2" data-name="Hong Kong-2">
          <g id="axes-2">
            <circle id="_13-2" data-name=" 13-2" class="hkrc16" cx="251.5" cy="265.7" r="149.1"/>
            <circle id="_12-2" data-name=" 12-2" class="hkrc16" cx="251.5" cy="265.7" r="137"/>
            <circle id="_11-2" data-name=" 11-2" class="hkrc16" cx="251.5" cy="265.7" r="126.1"/>
            <circle id="_10-2" data-name=" 10-2" class="hkrc16" cx="251.5" cy="265.7" r="115.2"/>
            <circle id="_9-2" data-name=" 9-2" class="hkrc16" cx="251.5" cy="265.7" r="104.3"/>
            <circle id="_8-2" data-name=" 8-2" class="hkrc16" cx="251.5" cy="265.7" r="92.1"/>
            <circle id="_7-2" data-name=" 7-2" class="hkrc16" cx="251.5" cy="265.7" r="81.2"/>
            <circle id="_6-2" data-name=" 6-2" class="hkrc16" cx="251.5" cy="265.7" r="70.3"/>
            <circle id="_5-2" data-name=" 5-2" class="hkrc16" cx="251.5" cy="265.7" r="59.4"/>
            <circle id="_4-2" data-name=" 4-2" class="hkrc16" cx="251.5" cy="265.7" r="47.3"/>
            <circle id="_3-3" data-name=" 3-3" class="hkrc16" cx="251.5" cy="265.7" r="36.4"/>
            <circle id="_2-3" data-name=" 2-3" class="hkrc16" cx="251.4" cy="265.6" r="25.5" transform="translate(-51.1 471.2) rotate(-80.8)"/>
            <circle id="_1-2" data-name=" 1-2" class="hkrc16" cx="251.4" cy="265.6" r="14.5" transform="translate(-51.1 471.2) rotate(-80.8)"/>
            <circle id="_0-2" data-name=" 0-2" class="hkrc16" cx="251.5" cy="265.7" r="3.6"/>
            <g>
              <line class="hkrc17" x1="251.5" y1="262.7" x2="251.5" y2="117.2"/>
              <g class="hkrc22">
                <g class="hkrc22">
                  <g class="hkrc22">
                    <g class="hkrc22">
                      <text class="hkrc21" transform="translate(159.3 102.6)"><tspan x="0" y="0">Overall Physical</tspan></text>
                    </g>
                  </g>
                </g>
                <g class="hkrc22">
                  <g class="hkrc22">
                    <g class="hkrc22">
                      <text class="hkrc21" transform="translate(275.2 102.6)"><tspan x="0" y="0">Activity</tspan></text>
                    </g>
                  </g>
                </g>
              </g>
            </g>
            <g>
              <line class="hkrc17" x1="254.4" y1="264.8" x2="392.8" y2="219.8"/>
              <g class="hkrc22">
                <g class="hkrc22">
                  <g class="hkrc22">
                    <g class="hkrc22">
                      <text class="hkrc21" transform="translate(340.9 199.8)"><tspan x="0" y="0">Physical Fitness</tspan></text>
                    </g>
                  </g>
                </g>
              </g>
            </g>
            <g>
              <line class="hkrc17" x1="253.3" y1="268.2" x2="338.8" y2="385.9"/>
              <g class="hkrc22">
                <g class="hkrc22">
                  <g class="hkrc22">
                    <g class="hkrc22">
                      <text class="hkrc21" transform="translate(291.6 407.7)"><tspan x="0" y="0">Sedentary Behaviour</tspan></text>
                    </g>
                  </g>
                </g>
              </g>
            </g>
            <g>
              <line class="hkrc17" x1="249.7" y1="268.2" x2="164.2" y2="385.9"/>
              <g class="hkrc22">
                <g class="hkrc22">
                  <g class="hkrc22">
                    <g class="hkrc22">
                      <text class="hkrc21" transform="translate(47.6 400.8)"><tspan x="0" y="0">Organized Sport &amp;</tspan></text>
                    </g>
                  </g>
                </g>
                <g class="hkrc22">
                  <g class="hkrc22">
                    <g class="hkrc22">
                      <text class="hkrc21" transform="translate(47.6 418.2)"><tspan x="0" y="0">Physical</tspan></text>
                    </g>
                  </g>
                </g>
                <g class="hkrc22">
                  <g class="hkrc22">
                    <g class="hkrc22">
                      <text class="hkrc21" transform="translate(110.2 418.2)"><tspan x="0" y="0">Activity</tspan></text>
                    </g>
                  </g>
                </g>
              </g>
            </g>
            <g>
              <line class="hkrc17" x1="248.6" y1="264.8" x2="110.3" y2="219.8"/>
              <g class="hkrc22">
                <g class="hkrc22">
                  <g class="hkrc22">
                    <g class="hkrc22">
                      <text class="hkrc21" transform="translate(41.8 224.1)"><tspan x="0" y="0">School</tspan></text>
                    </g>
                  </g>
                </g>
              </g>
            </g>
            <g id="y_axis-2" data-name="y axis-2">
              <path class="hkrc17" d="M251.5,117.2h0v145.5h0"/>
              <g>
                <line class="hkrc17" x1="251.5" y1="128.7" x2="244.3" y2="128.7"/>
                <g class="hkrc22">
                  <g class="hkrc22">
                    <g class="hkrc22">
                      <g class="hkrc22">
                        <text class="hkrc12" transform="translate(235.1 129.7)"><tspan x="0" y="0">A</tspan></text>
                      </g>
                    </g>
                  </g>
                </g>
              </g>
              <g>
                <line class="hkrc17" x1="251.5" y1="161.5" x2="244.3" y2="161.5"/>
                <g class="hkrc22">
                  <g class="hkrc22">
                    <g class="hkrc22">
                      <g class="hkrc22">
                        <text class="hkrc10" transform="translate(233.9 165.3)"><tspan x="0" y="0">B</tspan></text>
                      </g>
                    </g>
                  </g>
                </g>
              </g>
              <g>
                <line class="hkrc17" x1="251.5" y1="195.4" x2="244.3" y2="195.4"/>
                <g class="hkrc22">
                  <g class="hkrc22">
                    <g class="hkrc22">
                      <g class="hkrc22">
                        <text class="hkrc10" transform="translate(233.9 199.3)"><tspan x="0" y="0">C</tspan></text>
                      </g>
                    </g>
                  </g>
                </g>
              </g>
              <g>
                <line class="hkrc17" x1="251.5" y1="229.4" x2="244.3" y2="229.4"/>
                <g class="hkrc22">
                  <g class="hkrc22">
                    <g class="hkrc22">
                      <g class="hkrc22">
                        <text class="hkrc10" transform="translate(233.9 233.2)"><tspan x="0" y="0">D</tspan></text>
                      </g>
                    </g>
                  </g>
                </g>
              </g>
              <g>
                <line class="hkrc17" x1="251.5" y1="251.2" x2="244.3" y2="251.2"/>
                <g class="hkrc22">
                  <g class="hkrc22">
                    <g class="hkrc22">
                      <g class="hkrc22">
                        <text class="hkrc10" transform="translate(233.9 255.1)"><tspan x="0" y="0">F</tspan></text>
                      </g>
                    </g>
                  </g>
                </g>
              </g>
            </g>
          </g>
          <g id="radars-2">
            <g id="_0-3" data-name=" 0-3">
              <path class="hkrc20" d="M251.5,206.3l34.6,48.2.3,59.3-76.2,8.8-25.5-78.6,66.9-37.7h-.1Z"/>
              <g id="dots-3">
                <circle class="hkrc24" cx="251.5" cy="206.3" r="3.6"/>
                <circle class="hkrc24" cx="286.1" cy="254.5" r="3.6"/>
                <circle class="hkrc24" cx="286.4" cy="313.8" r="3.6"/>
                <circle class="hkrc24" cx="210.2" cy="322.6" r="3.6"/>
                <circle class="hkrc24" cx="184.6" cy="244" r="3.6"/>
              </g>
            </g>
            <g id="_1-3" data-name=" 1-3">
              <path class="hkrc23" d="M251.5,240.3l34.6,14.2-13.2,40.7-75.5,45.1-45-106.8,99.2,6.8h-.1,0Z"/>
              <g id="dots-4">
                <circle class="hkrc25" cx="251.5" cy="240.3" r="3.6"/>
                <circle class="hkrc25" cx="286.1" cy="254.5" r="3.6"/>
                <circle class="hkrc25" cx="272.9" cy="295.2" r="3.6"/>
                <circle class="hkrc25" cx="197.4" cy="340.3" r="3.6"/>
                <circle class="hkrc25" cx="152.4" cy="233.5" r="3.6"/>
              </g>
            </g>
          </g>
        </g>
      </g>
    </g>
  </g>
  <g id="legend">
    <g>
      <g>
        <g>
          <rect class="hkrc6" x="423.8" y="56.6" width="15" height="15"/>
          <g class="hkrc22">
            <g class="hkrc22">
              <g class="hkrc22">
                <g class="hkrc22">
                  <g class="hkrc22">
                    <text class="hkrc19" transform="translate(443.8 69.1)"><tspan x="0" y="0">2018</tspan></text>
                  </g>
                </g>
              </g>
            </g>
          </g>
        </g>
        <g>
          <rect class="hkrc8" x="423.8" y="77.1" width="15" height="15"/>
          <g class="hkrc22">
            <g class="hkrc22">
              <g class="hkrc22">
                <g class="hkrc22">
                  <g class="hkrc22">
                    <text class="hkrc19" transform="translate(443.8 89.6)"><tspan x="0" y="0">2022</tspan></text>
                  </g>
                </g>
              </g>
            </g>
          </g>
        </g>
      </g>
      <g class="hkrc22">
        <g class="hkrc22">
          <g class="hkrc22">
            <g class="hkrc22">
              <g class="hkrc22">
                <text class="hkrc13" transform="translate(423.8 41.1)"><tspan x="0" y="0">Y</tspan></text>
              </g>
            </g>
          </g>
          <g class="hkrc22">
            <g class="hkrc22">
              <g class="hkrc22">
                <text class="hkrc14" transform="translate(431.1 41.1)"><tspan x="0" y="0">ear</tspan></text>
              </g>
            </g>
          </g>
        </g>
      </g>
    </g>
  </g>
  <g id="Arrows">
    <polygon class="hkrc5" points="335.5 92.2 341 94.5 346.6 92.2 341 105.3 335.5 92.2"/>
    <polygon class="hkrc5" points="442.7 396.5 448.2 398.9 453.7 396.5 448.2 409.7 442.7 396.5"/>
    <polygon class="hkrc4" points="105.6 225 100.1 222.6 94.5 225 100.1 211.8 105.6 225"/>
    <polygon class="hkrc4" points="194.9 410.4 189.4 408.1 183.9 410.4 189.4 397.3 194.9 410.4"/>
  </g>
  <g id="underline" class="hkrc26">
    <g id="PF">
      <path class="hkrc1" d="M447,207.5l-.3-.2s0,.4-.1.5h-.4c-.2,0-.3.5-.5.7,0,0-.2,0-.4.1,0,0-.1,0-.2.1v.2h-.3c-.1,0-.2.3-.3.4h-.1c0,.1,0,0-.1,0s-.4.3-.6.5-.4.2-.7.4c0,0-.1.2-.2.2,0,0-.2-.1-.3,0-.2,0-.6.6-.9.3,0,0-.1-.5-.2-.6h-.1c0-.2.3-1.4.4-1.5,0-.2.3-.4.4-.6h.1c0-.1,0-.2.1-.2v-.5c0-.2.2-.1.3-.3,0-.1.1-.3.2-.5,0,0,.1,0,.2-.1v-.2h.1c.1-.3.3-.5.4-.8-.3-.3-.4,0-.6.3-.3.3-.5.5-.9.9s-.2.2-.4.4c-.2.1-.3.3-.5.5,0,0,0,.1-.1.1h-.2c-.2.3-.3,0-.3-.6s.7-.8.6-1.2c-.1-.6-.7.3-.8.4-.2.2-.4,0-.4.2v.2c-.2.3-.6.6-.9.9-.3.4-1,.7-1.5.9,0-.2,0-.5-.1-.8-.2-.6.2-.9.3-1.5,0-.1-.2-.1-.2,0-.1,0,0,.2-.2.2s-.3.1-.4.3c0,0,0,.2-.2.2,0,0-.1,0-.2.1s-.2.3-.3.4c-.1.1-.3,0-.4.2-.1,0-.3.3-.4.4-.1.1-.3.4-.4.4-.2,0,0-.3-.1-.3-.2,0,0,.3-.2.5-.1,0-.6-.2-.7-.3,0,0-.1-.2-.2-.3-.1-.3,0-.9-.2-1.3,0-.1-.2-.2-.3-.3-.1,0-.3-.4-.5-.2-.1,0,0,.2-.2.1,0,0-.4.3-.5.4-.1,0-.2,0-.3.1v.2h-.2c-.2.2-.6.3-.9.5v.2s-.2,0-.3.1c0,.1-.2,0-.4.1,0,0-.1.2-.2.2-.3.2-.6.1-.9.3,0,0-.1.2-.2.2-.4.3-1,.2-1.1-.6v-.8c0-.3.3-.5,0-.8s-.8-.2-1.2,0c0,0-.1.2-.3.3,0,0,0-.2,0-.1-.1.3-.7.4-1,.5h0c0,.1,0,0,0,0-.1.1-.2.3-.3.4h-.5c-.4,0-.8.4-1.2.2-.2-.1-.3-.4-.6-.3,0,0-.1.2-.2.1l-.4-.5c-.2-.7,0-2.1-.5-1.5,0,0,0,.3-.1.4,0,0-.2,0-.3.1,0,0-.1.3-.1.4-.1.1-.4.1-.5.3v.2s-.2,0-.3.1c0,0-.1.2-.2.2h-.2c-.2.2-.2.5-.4.4v-.5c-.3-.3.2.2-.1,0,0,0-.1-.2-.2-.2v-1.1c0-.3.3-.4.2-.6-.2-.9-.7,0-.8.2-.3.3-.6.5-.9.8-.2.1-.3.4-.6.6,0,0-.1,0-.2.1,0,0-.4.3-.6.4,0,0-.2,0-.3.1,0,0,0,.2,0,.1-.1-.3-.1,0-.2.1s-.2,0-.4.1v.2c-.1,0-.2,0-.4.1-.1,0-.3,0-.4.1-.4.2-.7.5-1.2.6,0,0-.1-.1-.2,0-.3.1-.8,0-1-.2s-.2-.2-.4-.4c-.1-.3-.2-1.2-.1-1.5,0,0,.1-.2.2-.2v-.6s.1-.3,0-.4c-.1-.5-.6-.2-.8,0-.3.2-.5.1-.7.5,0,.1-.5.3-.7.4,0,0-.1.2-.2.2h-.2v.2h-.3s-.1.2-.2.2h-.3c-.2,0-.4.2-.6.3h-.6c-.4,0-.8.2-1.1,0v-.5c0-.2-.2-.3-.2-.6v-1s.1-.6.2-.8v-.5c0-.3.1-.5-.1-.9,0-.1-.2-.4-.3-.4h-.5c-.1,0-.2-.2-.3-.2h-1.1c-.1,0-.2.1-.3.1-1,0-2.2,0-3,.8-.1.1-.3,0-.5.2-.2.1-.5.4-.7.5-.2,0-.4,0-.6.2,0,0,0,.1-.1.1h0c-.2,0-.2.2-.3.3-.3.1-1.2.3-1.2.2v-.2s0-.2,0-.1c0-.2.1-.3,0-.4-.3-.7-1.2-.2-1.5.1-.3.2-.9.3-1.4.5s-.8.6-1.1.4c-.2,0-.4-.7-.5-.8-.3-.2-.6.2-1,.3h-.3c-.2,0-.7.2-1,0-.3,0-.6-.5-.8-.5-.5,0-1.1,0-1.6.1-.6,0-1.2,0-1.7.1-.3,0-.5.2-.8.3-.6.1-1.3,0-1.8.1-.1,0-.2.2-.3.3-.3,0-.5-.3-.9-.2-.6.1-1.3.4-2,.6h-.4c-.2,0-.4.2-.6.3,0,0-.2-.1-.3,0-.3,0-.5.3-.8.4h-.5c-.4,0-.7.3-1.1.3h-.2v-.2s-.2.2-.3.3c-.3.1-.7,0-.9,0s-.5.1-.7,0c-.4-.1-.8-.5-.8-1.3,0,0,0-.4,0-.3,0,0,.1,0,.2-.1,0-.2,0-.5.1-.6,0,0,.2,0,.3-.1v-.2h.1c0-.1,0-.3.1-.5,0-.1.2-.1.2-.2.2-.4.5-1,0-1,0,0-.1.2-.2.1-.2,0-.3-.2-.4-.2s-.2.2-.3.3c-.2,0-.3,0-.5.2-.2.1-.1.2-.3.1-.2,0-.3.2-.5.3-.2,0-.5,0-.7.2-.3.1-.5.3-.8.4-.3.1-.6.2-.9.3,0,0-.2.2-.3.3h-.4c-.2,0-.4.2-.6.4-.1.1-.3.2-.5.3-.4.2-1,.2-1.4.5-.1,0-.2.2-.3.3h-.4c-.2,0-.5.3-.7.3s-.7-.4-1,0c-.2.2-.6,0-1,.2-.1,0-.1.1-.2.1s-.3-.1-.4,0c0,0-.1.2-.2.2s-.2-.1-.3,0c-.3,0-.6.3-.9.3h-.7c-.4,0-.8.2-1.1,0-.2,0-.5-.4-.6-.5,0-.2,0-.8-.1-.9,0-.2-.2-.3-.4-.4-.3-.3-.4-.4-.9-.3,0,0,0,.1-.2.1,0,0-.2,0-.2-.1,0,0-.1.2-.2.2h-.3s-.2.2-.3.3h-.2s-.2.2-.3.3c-.2.1-.4,0-.6.3v.2h-.3s-.1.2-.2.2h-.2v.2c-.1,0-.3,0-.4.2-.3.2-.7.8-1.1.4-.1-.4.2,0,.1-.4-.1-.1-.2,0-.3,0-.1-.1-.1-.4-.3-.4s-.3.2-.4.3h-.6c-.2,0-.3.2-.4.3-.5.1-1.2.3-1.8.1,0,0-.1-.2-.2-.2h-.5c-.2-.1-.4-.5-.6-.6-.3-.2-.8-.1-1.2-.3,0,0-.2-.2-.3-.2h-.7c-.3,0-.6-.2-.9-.3h-.9c-.2,0-.4-.5-.7-.6-.3-.1-.8,0-1.3,0h0c-.5,0-1.2.1-1.6.2-.1,0-.1-.1-.2,0h-.5c-.1,0-.2.1-.3.1h-.7s-.2-.1-.3,0c0,0-.3.1-.5.2,0,0,0,.2,0,.1-.2-.4-.4.5-.6.5s-.3-.2-.5-.3c-.5-.3-1.3-.2-2.1-.2s-.4.2-.5-.2c.5,0,1.1-.2,1.6-.2,0,0,.2.1.3,0,.1,0,.2-.2.3-.3,0,0,.2.1.3,0,0,0,.1-.1.2-.1s.2.1.3,0c.4,0,.9-.4,1.3-.4h.2s0,.2.1.2v-.2h.1c.5,0,1.2.1,1.9-.2.2,0,.4-.3.5-.3.5,0,1.1.3,1.4.1,0,0,.3-.3.4-.3v.2c.1.1.2,0,.4.2,0,.1.2.4.4.4h.5c.1,0,.3.2.4.2.4,0,.7-.1,1.1,0,.1,0,.3.2.4.2h.7s.3.2.4.2c.3,0,.4-.2.5.2v.2s.2-.1.3,0v.3s.3.3.4.3h.4c.2,0,.4.2.7.2,0,0,0-.1.1-.1,0,0,.4.1.6,0,.1,0,.2-.2.3-.3h.6c.6-.2.9-.8,1.3-.3h.1v.3c.1.2.2.2.4,0,0,0,0-.1.1-.1,0,0,0,.2,0,.1.1,0,.2-.3.3-.4.2-.1.5,0,.7-.2,0,0,.2-.3.3-.4.2,0,.3,0,.5-.2.2,0,.3-.3.5-.4,0,0,.2,0,.3-.1l.2-.2h.6c0,.4-.1.2,0,.6.3,0,0-.6.1-.8h1c.2,0,.3.2.5.5s.2.3.4.9c0,.1.1.5.2.6,0,.1.3,0,.5,0s.2.2.3.2c.4,0,.9-.2,1.3-.3h.7c.1,0,.3-.3.4-.3s.3.2.4.2c.2,0,.4,0,.6-.2,0,0,0-.2.2-.2s.3.2.4.2c.2,0,.4-.4.6-.5.5-.2,1.4.4,1.9-.1s.9,0,1.1-.3c0-.1.1-.2.3-.1.3,0,.4-.2.7-.4.2-.2.1,0,.3,0,0,0,.3-.2.4-.3,0,0,.1-.2.2-.2h.5c.2,0,.3-.3.4-.4,0,0,.2.1.3,0,0,0,0-.2.2-.2h.3s.2-.2.3-.3c.3-.3.8-.3,1.3-.6.1,0,.1-.2.3-.3.2-.1.6,0,.9-.2.2,0,.4-.2.6-.2h.2s0,.2.1.2c.2.1.2,0,.3.3v.2c.2.4.1,1.2.1,1.4h-.2s0,.4-.1.6c0,0-.1,0-.2.1v.2c-.2.3-.3.5-.5.7-.1.3-.2.6-.3.8.2.2.4,0,.7,0s.3.2.4.2.2-.2.4-.3h.7c.2,0,.5,0,.7-.2.1,0,.3-.2.4-.3.1,0,.2.1.3,0,0,0,.2,0,.3-.1,0,0,.1-.2.2-.2s.3.1.5,0c.1,0,.2-.2.3-.3.3-.1.7,0,1-.2,0,0,0-.2.2-.2h.6c.1,0,.2-.2.3-.3,0,0,.1.1.2.1,0,0,.2-.2.3-.3,0,0,.1.1.2.1s.2-.2.3-.3c.1,0,.2.1.3,0,0,0,.2-.1.3-.1h.6c.1,0,.2-.1.3-.1s.2.1.3,0c.4,0,.8-.3,1.2-.2,0,0,.3,0,.2,0,.1,0,.2-.2.3-.3.3-.2.6,0,.9,0s.6-.2.8-.2h1.5c.4,0,.7-.3,1.1,0,.2,0,.3.5.6.5s.8-.3,1-.3h.6c.3,0,.8-.3.9-.2s.2.9.3,1c.1.1.9,0,1-.2,0-.1.2,0,.4-.2,0,0,.1-.2.2-.2.2-.1.5,0,.8-.2.2,0,.3-.3.4-.4h.3c.1,0,.2-.2.3-.3h.4s.3.5.3.6v.7s.3.2.6,0c.1,0,.1-.3.3-.4h.4c.1,0,.2-.2.3-.3.2,0,.4,0,.7-.2v-.2h.3c.1,0,.2-.2.3-.3.4-.2.7-.2,1.1-.4.2,0,.3-.3.4-.3s.2.1.3,0c.2,0,.3-.2.4-.3h.3c.1,0,.2-.1.3-.1,0,0,.2.1.3,0,.1,0,.1-.1.2-.1s.3.2.5.2c0,0,.2-.1.3-.1.2,0,.4.2.6.2s.2-.2.3-.1c.1,0,.2.1.4.2.2,0,.4.1.3,0,.2.3.4,1,.4,1.5s0,.5-.1.8v1.7c0,.3,0,.6.2.7.2.2,0-.1.3-.1s.3.1.5,0c.1,0,.3-.2.4-.1.1,0,.2.2.3.2s.4-.2.6-.4h.2c.2-.1.3,0,.4-.1,0,0,.2-.2.3-.3,0,0,.3-.2.3-.3,0,0,0-.4.2-.5.3-.3.6,0,.9-.3,0,0,.1,0,.2-.1v-.2s.1.1.2.1v-.2c.6-.2,1.2,0,1.1,1.4v.6s-.2.2-.3.4v1c0,.2,0,0,.2.1v.2h.7c.1,0,.3-.1.4-.2.2,0,.5,0,.8-.2,0,0,.2,0,.3-.1,0,0,.1-.2.2-.2.5-.2.9-.3,1.1-.4.2-.1.3-.5.4-.6h.3s.1-.2.2-.2c0,0,.1.1.2.1,0,0,0-.2.1-.4,0-.1.2,0,.3-.1l.2-.4s.1-.3.1-.4h.2v-.2s.2,0,.3-.1c.2-.2.4-.6.6-.7.3-.3.5-.5.7-.3v.5c0,.1.1,0,.1.2.1.7,0,1.4,0,1.9.3,0,.4-.5.6-.6.1-.1.3-.1.4-.3.2-.2.3-.5.5-.7,0,0,.1,0,.2-.1v-.2s.1,0,.2-.1c0-.1.1-.3.3-.4s.3,0,.4.2c.1.3.1,1.8.3,2.1.2.2.3-.2.6-.3,0,0,0,.1.1.1,0,0,0-.2.2,0s0,.4.2.8h.9s.1-.2.2-.2c.2,0,.4,0,.6-.2.4-.2.7-.4,1.2-.6,0,0,0-.2.1-.1h0c0,.1.1,0,.2,0s.9-.3,1.1-.2c0,0,0,.2.1.2.2.3.4,1.1.3,1.9,0,.4,0,.5.3.6,0,0,0-.1.2-.1h.4c.2-.1.3-.4.4-.4.4,0,.2.4.5,0,.2-.3.7-.4,1.1-.7.2-.1.4-.4.6-.5.1,0,.2,0,.3-.1v-.3s.2,0,.3-.1c.2-.1.4-.3.7-.4h.3c.3,0,.5-.2.8.3v.2c.2.1,0,.1.2.4v.2c.2.4.1.9.4,1,.2.1.9-.5,1.1-.7.3-.2.4,0,.5-.4.1-.2.2,0,.4-.3,0,0,0-.2.2-.2,0,0,.1-.2.2-.2h.3s0-.2.2-.2c0,0,.1,0,.2-.1s.3-.3.3-.4c0,0,.1.1.2.1s.3-.3.4.2c0,.3.1.4.1.5,0,.4,0,.6-.3,1.2,0,0-.4.7-.3.9.2.5.4-.2.7-.5.3-.2.7-.3.9-.8,0-.3.2,0,.4-.4v-.2h.3v-.4h.2c0-.1.5-.1.5-.1v-.3s.3,0,.4-.1c0,0,0-.4.3-.3.2.5.1.9,0,1.2v.2s0-.2-.1-.1v.3c0,.2-.2.4-.2.7.2,0,.2-.1.3-.3h.1v-.4s.2,0,.3-.1c.2-.2.3-.7.5-.8.1,0,.2.1.3,0,.1-.1.1-.4.2-.6,0-.1.9-.9,1.2-.7,0,0,.2.5.2.7v.4c0,.2,0,0,0,.1,0,.4-.1.2-.2.5v.6h-.1c-.1.5-.5.8-.7,1.2,0,.2-.2.4-.2.6,0,0-.2.2-.3.4v.2c-.1.2-.3.2-.4.4s0,.5-.2.7c0,.4.2,0,.3.2,0,.2-.2,0-.2.2s.2,0,.2-.2c-.1-.5.3-.2.4-.3v-.2h.3c.2,0,.3-.4.5-.5.1,0,.8-.1.9-.4v-.3h.3c.1,0,.2-.4.4-.5,0,0,.2.1.3,0,0,0,0-.2.2-.2,0,0,.1,0,.2-.1v-.2h.1c0-.1.2-.3.4-.4.2-.2,1.2-1.4,1.5-.7.2.5.1.6,0,1h-.1c0,.2-.2.1-.2.5.3.2.5-.3.7-.5,0-.1.2-.3.3-.4.2-.2.5-.4.7-.6,0,0,.2-.3.3-.4h.3v-.2h.5c0,.4.1.7.1,1.1,0,0,.1,0,.3-.3,0,0,0-.3.1-.4,0,0,.2,0,.3-.1,0,0,0-.3.1-.4.1-.2.3-.3.4-.5s.3-.5.4-.6h.3s0-.4.2-.2.2.5.2.8c0,.5-.5.5-.4,1,0,.1,0,0,.1,0,0,0,.1,0,.2-.1s.2-.3.3-.5h.1c.1-.4.7-1.3.9-1.2.1,0,0,0,.2.2,0,.1,0,.2.2.2.3,0,.3-.6.5-.8,0,0,.2-.2.3-.3.2-.2.2-.4.4-.1,0,0,0,.2.1.2.2,0,.4-.6.6-1s.2-.3.3-.5c.1-.1.2-.2.3-.4.2-.3.3-.7.5-1.1,0,0,.1,0,.2-.1.1-.2.4-.5.5-.8.2,0,0,.2.2.2s.1.1.2-.2c0-.2-.2,0-.3,0,0-.4.3-.4.4-.6,0-.2.3-.8.4-.8s0,.1.2-.1c0-.1,0-.2.1-.4.1-.3.5-.6.7-1,0,0,0-.3.1-.4h.2s0-.4.3-.3v.5s.1.2,0,.3c0,.2-.4.5-.5.7v.2c0,.1-.2.3-.4.5v-.5c-.2-.1,0,.4,0,.7,0-.1-.2.5-.2.5,0,0-.3.1-.4.4,0,.4,0,0-.2.2,0,0,0,.2-.1.4,0,.2-.2.3-.3.5h-.1c0,.5,0,.1-.2.3v.2s-.2.1-.3.3c0,.2-.1.5-.2.7,0,.1-.2.1-.3.3,0,0,0,.3-.1.4h-.1v.2c-.2.3-.4.5-.6.9s-.2.5-.3.7c0,0-.2,0-.2.1-.1.2-.3.5-.4.7s-.3.2-.4.4v.2c0,.1-.2.1-.3.4,0,.1-.3.4-.4.6,0,.2-.3.3-.4.6s-.2.4-.2.5c0,0-.3-.2-.4-.2-.3,0-.6.6-.8,1,0,0-.1,0-.2.1l-.2.4c0,.1-.2.3-.4.5,0,0-.1,0-.2.1,0,0-.2.5-.4.5s-.3-.2-.4-.3c0-.5.3-.5.2-1.1,0,.2-.2.3-.2.5s-.4.4-.6.6v.2s-.3,0-.4.1c0,0,0,.4-.3.4v-.2s-.3-.1-.3,0c0-.7.3-1,.5-1.4-.1-.4-.4.1-.6.3,0,0-.1.3-.3.4,0,0-.2,0-.3.1v.2c0,.1-.3.3-.4.5-.2.2-.4.6-.5.6l-.4-.4c0-.1,0-.3.1-.5.1-.5,0-.3.3-.5v-.2c0-.1.2-.2.3-.3.2-.2.3-.6.5-.7.1-.2.4-.2.5-.4,0,0,0-.2.1-.4,0,0,.2-.1.1-.4-.2-.2-.3.1-.4.3,0,0-.1.2-.2.2h-.1v.3h-.2v.2s-.2,0-.3.1c0,0-.2.2-.3.3-.2.1-.3.1-.5.4,0,0,0,.3-.1.4-.2.2-.3.1-.5.3s-.3.4-.5.6c0,0-.1.2-.2.2h-.2c-.2.2-.5.6-.7.6l-.4-.3c0-.2.1-.7.4-1.1.4-.6.8-.9,1.2-1.4,0-.1.2-.3.3-.4.1-.1.2-.2.3-.3.1-.1.2-.7.5-.6l-.6,1.2h0Z"/>
    </g>
    <g id="SB">
      <path class="hkrc1" d="M424.4,417.2s-.3-.2-.4-.2c0,0,0,.4-.2.5h-.5c-.2.1-.4.5-.6.7-.1,0-.3,0-.5.2,0,0-.2,0-.2.1v.2h-.3c-.1,0-.2.3-.3.4h-.1c0,.1,0,0-.1,0-.2,0-.4.4-.7.5-.3.2-.5.2-.9.4l-.2.2c-.1,0-.3-.1-.4,0-.3.1-.7.6-1.1.3,0,0-.2-.5-.3-.6h-.1c0-.2.4-1.4.5-1.5.1-.2.3-.4.5-.6h.1c0-.1.1-.2.1-.2v-.5c.1-.2.3-.1.4-.3,0-.1.2-.3.2-.5,0,0,.1,0,.2-.1v-.2h.1c.2-.3.4-.5.5-.9-.3-.3-.5.1-.7.3-.4.3-.7.5-1.1.9s-.2.2-.5.4c-.2.2-.4.4-.7.5,0,0,0,.1-.1.1s0,0-.3.1c-.2.2-.4-.1-.4-.7s.8-.8.7-1.2c-.1-.6-.8.3-.9.4-.2.2-.5,0-.5.2,0,0,0,.2-.1.2-.2.3-.8.6-1.1.9-.4.4-1.2.8-1.8,1-.1-.2,0-.5-.1-.8-.2-.6.2-.9.4-1.5,0-.1-.2-.1-.3,0-.1,0-.1.2-.2.2-.2,0-.4.1-.5.3,0,0-.1.2-.2.2s-.2,0-.3.1l-.4.4c-.2.1-.4,0-.5.2-.1,0-.4.3-.5.4-.2.1-.4.4-.5.4-.3,0,0-.3-.2-.3s0,.3-.2.5c-.1,0-.7-.1-.9-.3,0,0-.2-.2-.2-.3-.2-.3,0-.9-.2-1.3,0-.1-.2-.2-.4-.3-.1,0-.4-.4-.6-.2-.1.1,0,.2-.2.1,0,0-.5.3-.7.4-.1,0-.3,0-.4.2,0,0,0,.2-.1.2h-.2c-.3.2-.7.3-1.1.6,0,0,0,.2-.1.2s-.3,0-.4.2c-.1.1-.2,0-.5.2,0,0-.1.2-.2.2-.3.2-.7.2-1.2.3l-.3.3c-.5.3-1.2.2-1.3-.6v-.8c0-.3.4-.5,0-.8-.3-.3-1-.2-1.5,0-.1,0-.2.2-.3.3,0,0,0-.2,0-.1-.1.3-.8.4-1.2.6h0c0,.1-.1.1,0,0-.2.1-.2.3-.4.4h-.6c-.5.1-1,.5-1.5.2-.3-.1-.3-.4-.7-.3,0,0-.2.2-.3.1,0,0-.5-.4-.5-.5-.3-.6,0-2.1-.6-1.5,0,0,0,.3-.2.4,0,0-.3,0-.3.1-.1.1-.2.3-.2.4-.2.1-.4.2-.6.3v.2s-.3,0-.4.2l-.3.3h-.2c-.2.2-.2.5-.5.4,0,0,0-.3-.1-.5-.4-.3.2.2-.1,0,0,0-.1-.2-.2-.2v-1.1c0-.3.3-.4.3-.6-.2-.9-.9,0-1,.2-.4.3-.7.5-1.1.8-.2.2-.4.4-.7.6,0,0-.1,0-.2.1-.1,0-.5.3-.7.4-.1,0-.2.1-.3.1,0,0,0,.2,0,.1-.2-.3-.1,0-.3.1-.1.1-.3,0-.5.2,0,0,0,.2-.1.2s-.3,0-.5.2c-.1,0-.3,0-.5.2-.5.2-.8.5-1.4.6,0,0-.2-.1-.3,0-.3.1-1,0-1.2-.1-.2-.1-.4-.3-.5-.4-.2-.3-.3-1.2-.1-1.5l.2-.2v-.6s.1-.3.1-.4c-.2-.5-.7-.2-1,0s-.7.1-.9.5c0,.1-.6.3-.8.4l-.3.3h-.2v.2h-.4c-.1,0-.2.2-.3.3h-.4c-.2,0-.5.3-.7.3h-.8c-.4,0-1,.3-1.3,0-.1,0,0-.3-.1-.5,0-.2-.3-.3-.3-.6v-1s.2-.6.2-.8v-.5c0-.3.1-.5-.1-.9,0-.1-.2-.4-.3-.4h-.6c-.2,0-.3-.2-.4-.2h-1.3c-.2,0-.3.1-.4.2-1.2,0-2.7.1-3.6.9-.2.1-.3,0-.6.2-.3.1-.6.4-.9.5-.2.1-.5,0-.7.2,0,0,0,.1-.1.1,0,0-.1,0,0-.1-.2.1-.2.3-.4.4-.4.1-1.4.3-1.5.2v-.2s0-.2,0-.1c0-.2.1-.3.1-.4-.3-.7-1.5-.2-1.9.2-.3.3-1.1.3-1.7.5s-1,.6-1.4.5c-.2,0-.5-.7-.6-.8-.4-.1-.8.3-1.2.3h-.4c-.2,0-.9.2-1.3.1-.3,0-.7-.4-1-.5-.6,0-1.3.1-2,.2-.7,0-1.4,0-2.1.2-.3,0-.6.2-1,.3-.7.2-1.6,0-2.2.2-.1,0-.3.2-.4.3-.3,0-.6-.2-1.1-.1-.7.1-1.6.5-2.5.7h-.5c-.2,0-.4.2-.7.3-.1,0-.2-.1-.4,0-.3,0-.6.4-.9.4h-.6c-.5,0-.9.3-1.3.3h-.2v-.2l-.3.3c-.3.1-.9,0-1.1,0s-.6.2-.9,0c-.5-.1-.9-.5-1-1.3v-.4s.2,0,.2-.1c0-.2,0-.5.2-.6,0,0,.2,0,.3-.1v-.2h.1c0-.1,0-.3.2-.5,0-.1.2-.1.3-.3.2-.4.6-1,.1-1.1,0,0-.1.2-.3.1-.2,0-.4-.2-.5-.2s-.2.2-.4.3c-.2,0-.4,0-.6.2-.2.1-.1.2-.4.2s-.3.2-.6.3c-.3,0-.6,0-.9.2-.3.1-.6.3-.9.4-.4.1-.8.2-1.2.3-.1,0-.2.2-.3.3h-.5c-.2,0-.5.2-.7.4-.1.1-.4.2-.7.3-.5.2-1.2.2-1.7.5-.1,0-.2.2-.3.3h-.5c-.3,0-.6.3-.8.3s-.8-.3-1.2,0c-.2.2-.8.1-1.2.2-.1,0-.2.1-.3.1-.2,0-.4-.1-.5,0-.1,0-.2.2-.3.3-.1,0-.3-.1-.4,0-.4,0-.8.3-1.2.3h-.8c-.5,0-1,.2-1.4.1-.2,0-.6-.4-.7-.5,0-.2,0-.8-.1-.9,0-.2-.3-.3-.5-.4-.3-.3-.5-.4-1.1-.3,0,0-.1.1-.2.1h-.2c-.1,0-.2.2-.3.3h-.4c-.1,0-.2.2-.3.3h-.3c-.1,0-.2.2-.3.3-.3.1-.5,0-.7.3v.2h-.4l-.3.3h-.2v.2c-.2,0-.4,0-.5.2-.4.2-.9.8-1.3.5-.1-.4.2,0,.2-.4-.2-.1-.2,0-.4,0-.2-.1-.2-.4-.3-.4s-.3.2-.5.3h-.8c-.2,0-.3.2-.5.3-.6.1-1.5.3-2.2.2-.1,0-.2-.2-.3-.2h-.6c-.3-.1-.4-.5-.7-.6-.4-.2-1,0-1.4-.2-.1,0-.3-.2-.4-.2h-.8c-.3,0-.8-.2-1.1-.2h-1.1c-.3,0-.5-.5-.8-.6s-1,0-1.5,0h0c-.6,0-1.5.2-2,.3-.1,0-.2-.1-.3,0h-.6c-.1,0-.2.1-.3.1h-.9c-.1,0-.2-.1-.4,0,0,0-.4.1-.6.2,0,0,0,.2,0,.1-.2-.4-.5.5-.8.5s-.4-.2-.7-.3c-.6-.2-1.6-.1-2.5-.1s-.5.2-.6-.2c.7,0,1.3-.2,2-.3,0,0,.3.1.4,0,.2,0,.3-.2.4-.3.1,0,.2.1.4,0,0,0,.1-.1.3-.1h.4c.5,0,1.1-.4,1.6-.5h.3s0,.2.2.2c0,0,0-.2.1-.2h.1c.6-.1,1.4.1,2.3-.2.2,0,.5-.3.7-.3.7,0,1.3.2,1.8,0,.1,0,.4-.3.5-.3v.2c.2.1.3,0,.4.2.1.1.2.4.5.4h.6c.2,0,.3.2.5.2.5,0,.9-.1,1.3-.1s.3.2.5.2h.8c.1,0,.3.2.4.2.4,0,.4-.2.6.2v.2s.3-.1.3,0v.3l.4.3h.5c.3,0,.4.2.9.2,0,0,0-.1.1-.1,0,0,.5.1.8,0,.1,0,.3-.2.4-.3h.7c.7-.2,1.1-.9,1.6-.4h.1v.3c.2.2.3.2.5,0,0,0,0-.1.1-.1,0,0,0,.2,0,.1.1,0,.2-.3.4-.4.3-.1.6,0,.8-.2.1,0,.2-.3.3-.4.2,0,.4,0,.6-.2.2,0,.4-.3.6-.4,0,0,.2,0,.3-.1l.3-.3h.8c0,.3-.2.2,0,.6.3,0,0-.6.1-.8h1.3c.2,0,.3.2.6.5.2.2.4.5.5.9,0,.1.2.5.2.6.1.1.4,0,.6,0s.3.2.4.2c.5,0,1.1-.3,1.7-.4h.8c.2,0,.3-.3.5-.3s.3.2.5.2.5,0,.7-.2c0,0,0-.2.2-.2s.3.2.4.2c.3,0,.5-.4.7-.5.7-.2,1.7.3,2.3-.2.2-.1,1.1,0,1.3-.3.1-.2,0-.2.3-.1.3,0,.5-.2.8-.4.2-.2.1,0,.4,0,0,0,.4-.2.5-.3l.3-.3h.6c.2,0,.3-.3.5-.4.1,0,.2.1.4,0,.1,0,.1-.2.3-.3h.4c.1,0,.2-.2.3-.3.3-.3.9-.4,1.6-.6.1,0,.2-.2.3-.3.2-.1.7-.1,1.1-.2.2,0,.4-.2.8-.2h.3s.1.2.2.2c.2.1.2,0,.4.3l.2.2c.1.4.1,1.2,0,1.4h-.3s0,.4-.2.6c0,0-.2,0-.2.1,0,0,0,.2-.1.2-.2.3-.4.5-.6.7-.2.3-.3.6-.4.8.3.2.5,0,.8,0s.3.2.4.2c.2,0,.3-.2.5-.3h.9c.3,0,.6-.1.9-.2.2,0,.3-.2.5-.3.2,0,.3.1.4,0,.1,0,.2,0,.3-.1l.3-.3h.6c.2,0,.2-.2.4-.3.4-.2.9,0,1.2-.2,0,0,0-.2.2-.2h.7c.2,0,.2-.2.4-.3.1,0,.1.1.2,0,0,0,.3-.2.4-.3.1,0,.1.1.2,0,.1,0,.2-.2.3-.3h.4s.2-.1.3-.1h.7c.1,0,.3-.2.4-.2h.4c.5,0,1-.4,1.5-.2h.3c.1,0,.2-.2.3-.3.4-.2.7,0,1,0s.7-.2,1-.2h1.9c.5,0,.9-.3,1.3-.1.2,0,.4.5.7.5s1-.3,1.2-.3h.7c.4,0,.9-.4,1.1-.2.1.1.2.9.3,1,.1.1,1.1-.1,1.2-.2s.3,0,.5-.2l.3-.3c.3-.1.7,0,1-.2.2,0,.3-.3.5-.4h.3c.2,0,.3-.3.4-.3h.5l.4.5c.1.4-.1.5,0,.7.1,0,.4.1.7,0,.1,0,.2-.3.3-.4h.5c.1,0,.2-.2.3-.3.2,0,.5,0,.8-.2,0,0,0-.2.1-.2h.3c.1,0,.2-.2.3-.3.5-.2.9-.3,1.4-.5.2,0,.4-.3.5-.3.2,0,.3.1.4,0,.3,0,.3-.2.5-.3h.4c.1,0,.3-.1.4-.2h.4c.1,0,.1-.1.3-.1s.4.2.6.2.2-.1.3-.1c.2,0,.5.2.8.2s.2-.2.3-.1c.1,0,.3.1.4.2.2,0,.5.1.4,0,.3.3.4.9.5,1.5,0,.3,0,.5-.1.8v1.7c0,.3,0,.6.2.7.2.1.1-.1.4-.2.2,0,.4.1.6,0,.2,0,.3-.2.5-.2s.3.2.4.2c.2,0,.5-.2.7-.4h.2c.2-.1.3,0,.5-.1,0,0,.3-.2.4-.3.1,0,.3-.2.4-.3,0,0,.1-.4.2-.5.4-.3.7,0,1.1-.3,0,0,.1,0,.2-.1v-.2s.1.1.2,0c0,0,0-.2.1-.2.7-.2,1.5,0,1.3,1.4v.8s-.3.2-.3.4c0,0,.1.3.1.5,0,0-.1.3,0,.5,0,.2.1,0,.2,0v.2h.9c.2,0,.3-.1.5-.2.3,0,.6,0,1-.2,0,0,.2,0,.3-.1l.3-.3c.6-.3,1.1-.3,1.4-.5.2-.2.4-.5.5-.6h.4l.2-.2c.1,0,.2.1.2,0,0,0,0-.2.2-.4,0-.1.2,0,.3-.1,0-.1.2-.2.2-.4,0,0,.1-.3.2-.4h.3s0-.2.1-.2.3,0,.4-.2c.3-.2.5-.6.7-.8.3-.3.6-.5.8-.3,0,0,0,.3.1.5,0,0,.1,0,.2.2.1.7-.1,1.4-.1,1.9.3,0,.5-.5.7-.6s.4-.1.5-.3c.2-.2.4-.5.6-.7,0,0,.1,0,.2-.1,0,0,0-.2.1-.2,0,0,.1,0,.2-.1.1-.2,0-.2.4-.4.2-.1.3,0,.4.2.1.3.1,1.8.4,2,.2.2.4-.2.7-.3,0,0,0,.1.1.1,0,0,.1-.2.3,0,.2.2,0,.4.3.8h1.1c.1,0,.2-.2.3-.3.2-.1.4,0,.7-.2.4-.2.9-.5,1.5-.6,0,0,0-.2.1-.1h0c.1.1.2-.1.3-.2.1,0,1.2-.4,1.4-.2,0,0,.1.2.2.2.3.3.5,1.1.3,1.9,0,.4,0,.5.3.5,0,0,0-.2.2-.1h.5c.2-.1.4-.4.5-.4.4,0,.3.4.6,0,.2-.3.9-.4,1.3-.7.3-.2.5-.4.8-.5.1,0,.3,0,.4-.2v-.4s.3,0,.4-.2c.2-.1.4-.3.8-.4h.4c.4,0,.6-.2.9.3v.2c.2.1,0,.1.2.4,0,0,.1.2.2.2.1.4,0,.9.3,1,.2.1,1.1-.5,1.4-.7.4-.2.5,0,.7-.4.1-.2.2,0,.5-.3,0,0,0-.2.2-.2,0,0,.1-.2.2-.2h.3s.1-.2.2-.2c0,0,.2,0,.3-.1.2-.1.3-.4.4-.4s.1.1.2,0c.2,0,.4-.3.5.2,0,.3.2.4.2.4,0,.4,0,.6-.3,1.2,0,0-.5.7-.4,1,.2.5.5-.2.9-.5.3-.3.9-.3,1.1-.8,0-.3.3,0,.5-.4v-.2h.4s0-.3.1-.4h.3c0-.1.6-.1.6-.1.1,0,0-.3,0-.4,0,0,.4,0,.5-.2,0,0,.1-.4.4-.3.2.5.2.9,0,1.2,0,0,0,.2-.1.2,0,0-.1-.2-.1-.1v.4c0,.2-.3.4-.3.7.2,0,.3-.1.4-.3h.1c0-.1,0-.3.1-.4,0,0,.3,0,.3-.1.2-.2.3-.8.6-.9.1,0,.3.1.4,0s.2-.4.3-.6c0-.1,1.1-1,1.5-.7,0,0,.2.5.3.7,0,.3,0,.2-.1.4,0,.2,0,0,0,.1.1.4-.2.2-.3.5v.6s-.1,0-.1.1c-.2.4-.6.7-.9,1.1-.1.2-.2.4-.3.6,0,0-.3.2-.3.4v.2c-.1.2-.4.2-.5.4-.2.2,0,.5-.2.7,0,.4.2,0,.4.2,0,.2-.2,0-.2.2s.2,0,.2-.2c-.1-.5.4-.2.5-.3,0,0,0-.2.1-.2h.3c.2-.1.4-.4.7-.5.2-.1.9-.2,1.1-.4v-.4h.4c.2,0,.3-.4.4-.5,0,0,.3.1.4,0,0,0,.1-.2.2-.2,0,0,.1,0,.2-.1v-.2h.1c.2-.2.1-.2.5-.4.2-.2,1.5-1.5,1.8-.7.2.5.2.6-.1,1.1h-.1c0,.2-.2.1-.2.5.3.2.6-.3.9-.5l.4-.4c.3-.2.6-.4.9-.7.1-.1.2-.3.3-.4h.3v-.2h.7c0,.4.2.6.2,1.1,0,0,.2,0,.3-.3,0,0,0-.3.2-.4,0,0,.2,0,.3-.1,0,0,.1-.3.2-.4l.5-.5c.2-.2.3-.5.4-.6h.4s0-.4.3-.3c.2.2.2.5.2.8,0,.5-.6.5-.5,1,0,.1,0,0,.1,0,0,0,.1,0,.2-.1s.2-.3.4-.5h.1c.1-.4.8-1.3,1.2-1.2.2,0,.1,0,.3.2,0,0,0,.2.2.2.4,0,.4-.6.6-.9l.3-.3c.2-.2.3-.4.5-.2,0,0,.1.2.2.2.2,0,.5-.6.8-1,.1-.2.2-.3.4-.5.1-.1.3-.2.4-.4.2-.3.4-.7.6-1.1,0,0,.2,0,.2-.1.1-.2.4-.5.6-.9.3,0,0,.2.3.2s.2.1.3-.3c0-.2-.3,0-.4,0,0-.4.3-.4.5-.6.1-.2.3-.8.5-.9.2,0,0,.1.2-.1,0-.1,0-.2.2-.4.2-.3.6-.6.8-1,0,0,.1-.3.2-.4h.2s.1-.4.4-.3v.5s.1.2,0,.3c0,.2-.4.5-.6.7,0,0,0,.2-.1.2-.1.1-.3.3-.4.5v-.5c-.2-.1,0,.4,0,.7,0-.1-.3.5-.3.5,0,0-.4.2-.5.4,0,.4,0,0-.3.3,0,0,0,.2-.2.4,0,.2-.3.3-.4.5h-.1c0,.5,0,.1-.3.4v.2s-.3.2-.3.3c-.1.2-.2.5-.3.7,0,.1-.2.1-.3.3,0,0-.1.3-.2.4,0,0-.2,0-.1,0v.2c-.2.3-.5.5-.8.9-.1.2-.2.5-.4.7,0,0-.2,0-.3.1-.2.2-.3.5-.5.7-.1.2-.3.2-.5.4v.2c-.1.1-.3.1-.4.4,0,.1-.3.4-.4.6s-.3.3-.5.6c-.2.3-.2.4-.3.5-.1,0-.4-.2-.5-.2-.4,0-.7.7-1,1,0,0-.2,0-.2.1,0,0-.1.2-.2.4-.1.1-.3.3-.4.5,0,0-.1,0-.2.1,0,0-.3.5-.4.5-.2,0-.3-.2-.5-.3,0-.5.3-.5.3-1.1,0,.2-.2.3-.3.5,0,.1-.6.4-.7.6,0,0,0,.2-.1.2,0,0-.3,0-.5.2,0,0,0,.4-.3.4v-.2s-.3-.1-.4,0c0-.7.4-1,.6-1.4-.2-.4-.5.1-.7.3-.1,0-.2.3-.3.4-.1,0-.3,0-.4.2,0,0,0,.2-.1.2,0,.2-.4.3-.5.5-.2.2-.4.7-.6.6l-.5-.4c0-.1,0-.3.2-.5.2-.5,0-.3.4-.5,0,0,0-.2.1-.2l.3-.3c.2-.2.4-.6.6-.7.2-.2.4-.2.6-.4,0,0,.1-.3.2-.4,0,0,.3-.1.2-.4-.2-.2-.4.1-.5.3l-.3.3h-.1v.3h-.3v.2c-.1,0-.2,0-.3.1-.1,0-.2.2-.3.3-.2.2-.4.1-.6.4,0,0-.1.3-.2.4-.2.2-.4.1-.6.3l-.6.6-.2.2h-.3c-.2.2-.6.7-.9.7s-.5-.3-.5-.3c0-.2.2-.7.5-1.1.4-.6,1-.9,1.5-1.4s.2-.3.3-.4c.1-.1.3-.2.4-.3.1-.1.3-.7.6-.6l-.7,1.5h0Z"/>
    </g>
    <g id="OrganizedPA">
      <path class="hkrc1" d="M153.6,428.4l-.3-.2s0,.4-.1.5h-.4c-.2,0-.3.5-.5.7,0,0-.2,0-.4.1,0,0-.1,0-.2.1v.2h-.3c-.1,0-.2.3-.3.4h-.1c0,.1,0,0-.1,0s-.4.3-.6.5c-.2.2-.4.2-.7.4,0,0-.1.2-.2.2,0,0-.2-.1-.3,0-.2,0-.6.6-.9.3,0,0-.1-.5-.2-.6h-.1c0-.2.3-1.4.4-1.5,0-.2.3-.4.4-.6h.1c0-.1,0-.2.1-.2v-.5c0-.2.2-.1.3-.3,0-.1.1-.3.2-.5,0,0,.1,0,.2-.1v-.2h.1c.1-.3.3-.5.4-.8-.3-.3-.4,0-.6.3-.3.3-.5.5-.9.9s-.2.2-.4.4c-.2.1-.3.3-.5.5,0,0,0,.1-.1.1h-.2c-.2.3-.3,0-.3-.6s.7-.8.6-1.2c-.1-.6-.7.3-.8.4-.2.2-.4,0-.4.2v.2c-.2.3-.6.6-.9.9-.3.4-1,.7-1.5.9,0-.2,0-.5-.1-.8-.2-.6.2-.9.3-1.5,0-.1-.2-.1-.2,0-.1,0,0,.2-.2.2s-.3.1-.4.3c0,0,0,.2-.2.2,0,0-.1,0-.2.1-.1.1-.2.3-.3.4s-.3,0-.4.2c-.1,0-.3.3-.4.4-.1.1-.3.4-.4.4-.2,0,0-.3-.1-.3-.2,0,0,.3-.2.5-.1,0-.6-.2-.7-.3,0,0-.1-.2-.2-.3-.1-.3,0-.9-.2-1.3,0-.1-.2-.2-.3-.3-.1,0-.3-.4-.5-.2-.1,0,0,.2-.2.1,0,0-.4.3-.5.4-.1,0-.2,0-.3.1v.2h-.2c-.2.2-.6.3-.9.5v.2s-.2,0-.3.1c0,.1-.2,0-.4.1,0,0-.1.2-.2.2-.3.2-.6.1-.9.3,0,0-.1.2-.2.2-.4.3-1,.2-1.1-.6v-.8c0-.3.3-.5,0-.8s-.8-.2-1.2,0c0,0-.1.2-.3.3,0,0,0-.2,0-.1-.1.3-.7.4-1,.5h0c0,.1,0,0,0,0-.1.1-.2.3-.3.4h-.5c-.4,0-.8.4-1.2.2-.2-.1-.3-.4-.6-.3,0,0-.1.2-.2.1l-.4-.5c-.2-.7,0-2.1-.5-1.5,0,0,0,.3-.1.4,0,0-.2,0-.3.1,0,0-.1.3-.1.4-.1.1-.4.1-.5.3v.2s-.2,0-.3.1c0,0-.1.2-.2.2h-.2c-.2.2-.2.5-.4.4v-.5c-.3-.3.2.2-.1,0,0,0-.1-.2-.2-.2v-1.1c0-.3.3-.4.2-.6-.2-.9-.7,0-.8.2-.3.3-.6.5-.9.8-.2.1-.3.4-.6.6,0,0-.1,0-.2.1,0,0-.4.3-.6.4,0,0-.2,0-.3.1,0,0,0,.2,0,.1-.1-.3-.1,0-.2.1-.1.1-.2,0-.4.1v.2c-.1,0-.2,0-.4.1,0,0-.3,0-.4.1-.4.2-.7.5-1.2.6,0,0,0-.1-.2,0-.3.1-.8,0-1-.2s-.2-.2-.4-.4c0-.3-.2-1.2,0-1.5,0,0,0-.2.2-.2v-.6s0-.3,0-.4c0-.5-.6-.2-.8,0-.3.2-.5.1-.7.5,0,.1-.5.3-.7.4,0,0,0,.2-.2.2h-.2v.2h-.3s0,.2-.2.2h-.3c-.2,0-.4.2-.6.3h-.6c-.4,0-.8.2-1.1,0v-.5c0-.2-.2-.3-.2-.6v-1s0-.6.2-.8v-.5c0-.3,0-.5,0-.9,0-.1-.2-.4-.3-.4h-.5c0,0-.2-.2-.3-.2h-1.1c0,0-.2.1-.3.1-1,0-2.2,0-3,.8,0,.1-.3,0-.5.2-.2.1-.5.4-.7.5-.2,0-.4,0-.6.2,0,0,0,.1,0,.1h0c-.2,0-.2.2-.3.3-.3.1-1.2.3-1.2.2v-.2s0-.2,0-.1c0-.2,0-.3,0-.4-.3-.7-1.2-.2-1.5.1-.3.2-.9.3-1.4.5s-.8.6-1.1.4c-.2,0-.4-.7-.5-.8-.3-.2-.6.2-1,.3h-.3c-.2,0-.7.2-1,0-.3,0-.6-.5-.8-.5-.5,0-1.1,0-1.6.1-.6,0-1.2,0-1.7.1-.3,0-.5.2-.8.3-.6.1-1.3,0-1.8.1,0,0-.2.2-.3.3-.3,0-.5-.3-.9-.2-.6.1-1.3.4-2,.6h-.4c-.2,0-.4.2-.6.3,0,0-.2-.1-.3,0-.3,0-.5.3-.8.4h-.5c-.4,0-.7.3-1.1.3h-.2v-.2s-.2.2-.3.3c-.3.1-.7,0-.9,0s-.5.1-.7,0c-.4-.1-.8-.5-.8-1.3,0,0,0-.4,0-.3,0,0,0,0,.2-.1,0-.2,0-.5,0-.6,0,0,.2,0,.3-.1v-.2h0c0-.1,0-.3,0-.5,0-.1.2-.1.2-.2.2-.4.5-1,0-1,0,0,0,.2-.2.1-.2,0-.3-.2-.4-.2s-.2.2-.3.3c-.2,0-.3,0-.5.2-.2.1,0,.2-.3.1-.2,0-.3.2-.5.3-.2,0-.5,0-.7.2-.3.1-.5.3-.8.4s-.6.2-.9.3c0,0-.2.2-.3.3h-.4c-.2,0-.4.2-.6.4,0,.1-.3.2-.5.3-.4.2-1,.2-1.4.5,0,0-.2.2-.3.3h-.4c-.2,0-.5.3-.7.3s-.7-.4-1,0c-.2.2-.6,0-1,.2,0,0,0,.1-.2.1s-.3-.1-.4,0c0,0,0,.2-.2.2s-.2-.1-.3,0c-.3,0-.6.3-.9.3h-.7c-.4,0-.8.2-1.1,0-.2,0-.5-.4-.6-.5,0-.2,0-.8,0-.9,0-.2-.2-.3-.4-.4-.3-.3-.4-.4-.9-.3,0,0,0,.1-.2.1,0,0-.2,0-.2-.1,0,0,0,.2-.2.2h-.3s-.2.2-.3.3h-.2s-.2.2-.3.3c-.2.1-.4,0-.6.3v.2h-.3s0,.2-.2.2h-.2v.2c0,0-.3,0-.4.2-.3.2-.7.8-1.1.4,0-.4.2,0,0-.4,0-.1-.2,0-.3,0,0-.1,0-.4-.3-.4s-.3.2-.4.3h-.6c-.2,0-.3.2-.4.3-.5.1-1.2.3-1.8.1,0,0,0-.2-.2-.2h-.5c-.2-.1-.4-.5-.6-.6-.3-.2-.8-.1-1.2-.3,0,0-.2-.2-.3-.2h-.7c-.3,0-.6-.2-.9-.3h-.9c-.2,0-.4-.5-.7-.6s-.8,0-1.3,0h0c-.5-.1-1.2.1-1.6.2,0,0,0-.1-.2,0h-.5c0,0-.2.1-.3.1h-.7s-.2-.1-.3,0c0,0-.3.1-.5.2,0,0,0,.2,0,.1-.2-.4-.4.5-.6.5s-.3-.2-.5-.3c-.5-.3-1.3-.2-2.1-.2s-.4.2-.5-.2c.5,0,1.1-.2,1.6-.2,0,0,.2.1.3,0,0,0,.2-.2.3-.3,0,0,.2.1.3,0,0,0,0-.1.2-.1s.2.1.3,0c.4,0,.9-.4,1.3-.4h.2s0,.2,0,.2v-.2h0c.5-.1,1.2.1,1.9-.2.2,0,.4-.3.5-.3.5,0,1.1.3,1.4.1,0,0,.3-.3.4-.3v.2c0,.1.2,0,.4.2,0,.1.2.4.4.4h.5c0,0,.3.2.4.2.4,0,.7-.1,1.1,0,0,0,.3.2.4.2h.7s.3.2.4.2c.3,0,.4-.2.5.2v.2s.2-.1.3,0v.3s.3.3.4.3h.4c.2,0,.4.2.7.2,0,0,0-.1,0-.1,0,0,.4.1.6,0,0,0,.2-.2.3-.3h.6c.6-.2.9-.8,1.3-.3h0v.3c0,.2.2.2.4,0,0,0,0-.1,0-.1,0,0,0,.2,0,.1,0,0,.2-.3.3-.4.2-.1.5,0,.7-.2,0,0,.2-.3.3-.4.2,0,.3,0,.5-.2.2,0,.3-.3.5-.4,0,0,.2,0,.3-.1l.2-.2h.6c0,.4,0,.2,0,.6.3,0,0-.6,0-.8h1c.2,0,.3.2.5.5s.2.3.4.9c0,.1,0,.5.2.6,0,.1.3,0,.5,0s.2.2.3.2c.4,0,.9-.2,1.3-.3h.7c0,0,.3-.3.4-.3s.3.2.4.2c.2,0,.4,0,.6-.2,0,0,0-.2.2-.2s.3.2.4.2c.2,0,.4-.4.6-.5.5-.2,1.4.4,1.9-.1,0-.1.9,0,1.1-.3,0-.1,0-.2.3-.1.3,0,.4-.2.7-.4.2-.2,0,0,.3,0,0,0,.3-.2.4-.3,0,0,0-.2.2-.2h.5c.2,0,.3-.3.4-.4,0,0,.2.1.3,0,0,0,0-.2.2-.2h.3s.2-.2.3-.3c.3-.3.8-.3,1.3-.6,0,0,0-.2.3-.3.2-.1.6,0,.9-.2.2,0,.4-.2.6-.2h.2s0,.2,0,.2c.2.1.2,0,.3.3v.2c.2.4,0,1.2,0,1.4h-.2s0,.4,0,.6c0,0,0,0-.2.1v.2c-.2.3-.3.5-.5.7,0,.3-.2.6-.3.8.2.2.4,0,.7,0s.3.2.4.2.2-.2.4-.3h.7c.2,0,.5,0,.7-.2,0,0,.3-.2.4-.3,0,0,.2.1.3,0,0,0,.2,0,.3-.1,0,0,0-.2.2-.2s.3.1.5,0c0,0,.2-.2.3-.3.3-.1.7,0,1-.2,0,0,0-.2.2-.2h.6c0,0,.2-.2.3-.3,0,0,0,.1.2.1,0,0,.2-.2.3-.3,0,0,0,.1.2.1s.2-.2.3-.3c0,0,.2.1.3,0,0,0,.2-.1.3-.1h.6c0,0,.2-.1.3-.1s.2.1.3,0c.4,0,.8-.3,1.2-.2,0,0,.3,0,.2,0,0,0,.2-.2.3-.3.3-.2.6,0,.9,0s.6-.2.8-.2h1.5c.4,0,.7-.3,1.1,0,.2,0,.3.5.6.5s.8-.3,1-.3h.6c.3,0,.8-.3.9-.2,0,.1.2.9.3,1,0,.1.9,0,1-.2,0-.1.2,0,.4-.2,0,0,0-.2.2-.2.2-.1.5,0,.8-.2.2,0,.3-.3.4-.4h.3c0,0,.2-.2.3-.3h.4s.3.5.3.6v.7s.3.2.6,0c0,0,0-.3.3-.4h.4c0,0,.2-.2.3-.3.2,0,.4,0,.7-.2v-.2h.3c0,0,.2-.2.3-.3.4-.2.7-.2,1.1-.4.2,0,.3-.3.4-.3s.2.1.3,0c.2,0,.3-.2.4-.3h.3c0,0,.2-.1.3-.1,0,0,.2.1.3,0,0,0,0-.1.2-.1s.3.2.5.2c0,0,.2-.1.3-.1.2,0,.4.2.6.2s.2-.2.3-.1c0,0,.2.1.4.2.2,0,.4.1.3,0,.2.3.4,1,.4,1.5s0,.5,0,.8v1.7c0,.3,0,.6.2.7.2.2,0-.1.3-.1s.3.1.5,0c0,0,.3-.2.4-.1,0,0,.2.2.3.2s.4-.2.6-.4h.2c.2-.1.3,0,.4-.1,0,0,.2-.2.3-.3,0,0,.3-.2.3-.3,0,0,0-.4.2-.5.3-.3.6,0,.9-.3,0,0,0,0,.2-.1v-.2s0,.1.2.1v-.2c.6-.2,1.2,0,1.1,1.4v.6s-.2.2-.3.4v1c0,.2,0,0,.2.1v.2h.7c0,0,.3-.1.4-.2.2,0,.5,0,.8-.2,0,0,.2,0,.3-.1,0,0,0-.2.2-.2.5-.2.9-.3,1.1-.4s.3-.5.4-.6h.3s.1-.2.2-.2c0,0,.1.1.2.1,0,0,0-.2.1-.4,0-.1.2,0,.3-.1l.2-.4s.1-.3.1-.4h.2v-.2s.2,0,.3-.1c.2-.2.4-.6.6-.7.3-.3.5-.5.7-.3v.5c0,.1.1,0,.1.2.1.7,0,1.4,0,1.9.3,0,.4-.5.6-.6.1-.1.3-.1.4-.3.2-.2.3-.5.5-.7,0,0,.1,0,.2-.1v-.2s.1,0,.2-.1c0-.1.1-.3.3-.4.2-.1.3,0,.4.2.1.3.1,1.8.3,2.1.2.2.3-.2.6-.3,0,0,0,.1.1.1,0,0,0-.2.2,0s0,.4.2.8h.9s.1-.2.2-.2c.2,0,.4,0,.6-.2.4-.2.7-.4,1.2-.6,0,0,0-.2.1-.1h0c0,.1.1-.1.2-.1s.9-.3,1.1-.2c0,0,0,.2.1.2.2.3.4,1.1.3,1.9,0,.4,0,.5.3.6,0,0,0-.1.2-.1h.4c.2-.1.3-.4.4-.4.4,0,.2.4.5,0,.2-.3.7-.4,1.1-.7.2-.1.4-.4.6-.5.1,0,.2,0,.3-.1v-.3s.2,0,.3-.1c.2-.1.4-.3.7-.4h.3c.3,0,.5-.2.8.3v.2c.2.1,0,.1.2.4v.2c.2.4.1.9.4,1,.2.1.9-.5,1.1-.7.3-.2.4,0,.5-.4.1-.2.2,0,.4-.3,0,0,0-.2.2-.2,0,0,.1-.2.2-.2h.3s0-.2.2-.2c0,0,.1,0,.2-.1.1-.1.3-.3.3-.4,0,0,.1.1.2.1s.3-.3.4.2c0,.3.1.4.1.5,0,.4,0,.6-.3,1.2,0,0-.4.7-.3.9.2.5.4-.2.7-.5.3-.2.7-.3.9-.8,0-.3.2,0,.4-.4v-.2h.3v-.4h.2c0-.1.5-.1.5-.1v-.3s.3,0,.4-.1c0,0,0-.4.3-.3.2.5.1.9,0,1.2v.2s0-.2-.1-.1v.3c0,.2-.2.4-.2.7.2,0,.2-.1.3-.3h.1v-.4s.2,0,.3-.1c.2-.2.3-.7.5-.8.1,0,.2.1.3,0s.1-.4.2-.6c0-.1.9-.9,1.2-.7,0,0,.2.5.2.7v.4c0,.2,0,0,0,.1,0,.4-.1.2-.2.5v.6h-.1c-.1.5-.5.8-.7,1.2,0,.2-.2.4-.2.6,0,0-.2.2-.3.4v.2c-.1.2-.3.2-.4.4s0,.5-.2.7c0,.4.2,0,.3.2,0,.2-.2,0-.2.2s.2,0,.2-.2c-.1-.5.3-.2.4-.3v-.2h.3c.2,0,.3-.4.5-.5.1,0,.8-.1.9-.4v-.3h.3c.1,0,.2-.4.4-.5,0,0,.2.1.3,0,0,0,0-.2.2-.2,0,0,.1,0,.2-.1v-.2h.1c0-.1.2-.3.4-.4.2-.2,1.2-1.4,1.5-.7.2.5.1.6,0,1h-.1c0,.2-.2.1-.2.5.3.2.5-.3.7-.5,0-.1.2-.3.3-.4.2-.2.5-.4.7-.6,0,0,.2-.3.3-.4h.3v-.2h.5c0,.4.1.7.1,1.1,0,0,.1,0,.3-.3,0,0,0-.3.1-.4,0,0,.2,0,.3-.1,0,0,0-.3.1-.4.1-.2.3-.3.4-.5.1-.2.3-.5.4-.6h.3s0-.4.2-.2c.2.2.2.5.2.8,0,.5-.5.5-.4,1,0,.1,0,0,.1,0,0,0,.1,0,.2-.1.1-.1.2-.3.3-.5h.1c.1-.4.7-1.3.9-1.2.1,0,0,0,.2.2,0,.1,0,.2.2.2.3,0,.3-.6.5-.8,0,0,.2-.2.3-.3.2-.2.2-.4.4-.1,0,0,0,.2.1.2.2,0,.4-.6.6-1,.1-.2.2-.3.3-.5.1-.1.2-.2.3-.4.2-.3.3-.7.5-1.1,0,0,.1,0,.2-.1.1-.2.4-.5.5-.8.2,0,0,.2.2.2s.1.1.2-.2c0-.2-.2,0-.3,0,0-.4.3-.4.4-.6,0-.2.3-.8.4-.8s0,.1.2-.1c0-.1,0-.2.1-.4.1-.3.5-.6.7-1,0,0,0-.3.1-.4h.2s0-.4.3-.3v.5s.1.2,0,.3c0,.2-.4.5-.5.7v.2c0,.1-.2.3-.4.5v-.5c-.2-.1,0,.4,0,.7,0-.1-.2.5-.2.5,0,0-.3.1-.4.4,0,.4,0,0-.2.2,0,0,0,.2-.1.4,0,.2-.2.3-.3.5h-.1c0,.5,0,.1-.2.3v.2s-.2.1-.3.3c0,.2-.1.5-.2.7,0,.1-.2.1-.3.3,0,0,0,.3-.1.4h-.1v.2c-.2.3-.4.5-.6.9-.1.2-.2.5-.3.7,0,0-.2,0-.2.1-.1.2-.3.5-.4.7-.1.2-.3.2-.4.4v.2c0,.1-.2.1-.3.4,0,.1-.3.4-.4.6,0,.2-.3.3-.4.6-.1.3-.2.4-.2.5,0,0-.3-.2-.4-.2-.3,0-.6.6-.8,1,0,0-.1,0-.2.1l-.2.4c0,.1-.2.3-.4.5,0,0-.1,0-.2.1,0,0-.2.5-.4.5s-.3-.2-.4-.3c0-.5.3-.5.2-1.1,0,.2-.2.3-.2.5s-.4.4-.6.6v.2s-.3,0-.4.1c0,0,0,.4-.3.4v-.2s-.3-.1-.3,0c0-.7.3-1,.5-1.4-.1-.4-.4.1-.6.3,0,0-.1.3-.3.4,0,0-.2,0-.3.1v.2c0,.1-.3.3-.4.5-.2.2-.4.6-.5.6l-.4-.4c0-.1,0-.3.1-.5.1-.5,0-.3.3-.5v-.2c0-.1.2-.2.3-.3.2-.2.3-.6.5-.7.1-.2.4-.2.5-.4,0,0,0-.2.1-.4,0,0,.2-.1.1-.4-.2-.2-.3.1-.4.3,0,0-.1.2-.2.2h-.1v.3h-.2v.2s-.2,0-.3.1c0,0-.2.2-.3.3-.2.1-.3.1-.5.4,0,0,0,.3-.1.4-.2.2-.3.1-.5.3-.2.2-.3.4-.5.6,0,0-.1.2-.2.2h-.2c-.2.2-.5.6-.7.6l-.4-.3c0-.2.1-.7.4-1.1.4-.6.8-.9,1.2-1.4,0-.1.2-.3.3-.4s.2-.2.3-.3c.1-.1.2-.7.5-.6l-.6,1.2h0Z"/>
    </g>
    <g id="School">
      <path class="hkrc1" d="M86.5,235.4l-.2-.2v.5h-.2s0,.5-.2.7c0,0,0,0-.2.1v.3h-.2s0,.3,0,.4h0c0,.1,0,0,0,0,0,0-.2.3-.3.5,0,.2-.2.2-.3.4v.2s0-.1-.2,0c0,0-.3.6-.5.3,0,0,0-.5-.2-.6h0v-1.5c0-.2,0-.4.2-.6v-.7c0-.2,0-.1,0-.3v-.8h0c0-.3,0-.5,0-.8-.2-.3-.2,0-.3.3,0,.3-.2.5-.4.9,0,.1,0,.2-.2.4,0,.1,0,.3-.2.5h0c0,.1,0,.2,0,.2,0,.2-.2-.1-.2-.7s.3-.8.2-1.2c0-.6-.3.3-.4.4,0,.2-.2,0-.2.1v.2c0,.3-.3.6-.4.9,0,.4-.5.7-.7.9,0-.2,0-.5,0-.8-.2-.6,0-.9,0-1.5s0,0,0,0v.2s0,.1-.2.3v.2h0c0,.2,0,.4,0,.5,0,.1-.2,0-.2.1,0,0,0,.3-.2.4,0,.1,0,.4-.2.4s0-.3,0-.3,0,.3,0,.5c0,0-.3-.2-.4-.3,0,0,0-.2,0-.3,0-.3,0-.9-.2-1.2,0-.1,0-.2-.2-.3,0,0-.2-.4-.3-.2,0,0,0,.2,0,.1,0,0-.2.3-.3.4,0,0,0,0-.2.1v.2h0c0,.2-.3.3-.4.5v.2s0,0-.2.1c0,.1,0,0-.2.1v.2c0,.2-.3.1-.5.3v.2c-.2.3-.5.2-.6-.6v-.8c0-.2,0-.5,0-.8-.2-.3-.5-.2-.7,0,0,0,0,.2,0,.2,0,0,0-.2,0-.1,0,.3-.3.4-.5.5h0c0,.1,0,0,0,0,0,.1,0,.3,0,.4h-.2c-.2,0-.4.4-.6.2,0-.1-.2-.4-.4-.3,0,0,0,.2,0,.1l-.3-.5c-.2-.6-.2-2.1-.4-1.5v.4s0,0,0,.1v.4c0,.1-.2.1-.2.3v.2s0,0-.2.1v.2h0c0,.2,0,.5-.2.4v-.5c-.2-.3,0,.2,0,0,0,0,0-.2,0-.2v-1.1c0-.3,0-.4,0-.6-.2-.9-.4,0-.4.2,0,.3-.3.5-.4.8,0,.1,0,.4-.3.6h0c0,.1-.2.4-.3.5h0c0,.1,0,.3,0,.2,0-.3,0,0,0,.1,0,.1,0,0-.2.1v.2s0,0-.2.1c0,0,0,0-.2.1-.2.2-.3.5-.6.5,0,0,0-.1,0,0s-.4,0-.5-.2-.2-.2-.2-.4c0-.3-.2-1.2-.2-1.5v-1.2c0-.5-.3-.2-.4,0s-.3.1-.3.5-.2.3-.3.4v.2h0v.2h-.2v.2h-.2l-.3.3h-.3c-.2,0-.4.2-.6,0v-.5c0-.2,0-.3-.2-.6v-2.3c0-.3,0-.5-.2-.9,0-.1,0-.4-.2-.4h-.3s0-.2-.2-.2h-.6s0,.1-.2.1c-.5,0-1.2,0-1.5.8,0,.1,0,0-.3.2,0,.1-.2.4-.3.5,0,0-.2,0-.3.2h0c0,.1,0,0,0,0,0,.1,0,.3,0,.4-.2.1-.6.3-.6.2v-.2s0-.2,0-.1v-.4c-.2-.7-.7-.2-.8.1,0,.2-.5.3-.7.5s-.4.6-.6.4c0,0-.3-.7-.4-.8-.2-.2-.3.2-.5.3h-.2c0,0-.4.2-.5,0-.2,0-.3-.4-.5-.5-.3,0-.6,0-.9.1-.3,0-.6,0-.9.1,0,0-.2.2-.4.3-.3.1-.7,0-.9.1,0,0,0,.2,0,.3,0,0-.3-.3-.5-.2-.3.1-.7.4-1,.6h-.2s-.2.2-.3.3c0,0,0-.1-.2,0,0,0-.2.3-.4.4h-.3c-.2,0-.4.3-.5.3h0v-.2s0,.2,0,.3-.4,0-.5,0c0,0-.2.1-.4,0s-.5-.5-.6-1.3c0,0,0-.4,0-.3v-.7s0,0,0-.1v-.2h0v-.7c0-.4.2-1,0-1,0,0,0,.2,0,.1l-.2-.2s0,.2,0,.3c0,0-.2,0-.3.2,0,.1,0,.2-.2.1,0,0,0,.2-.2.3,0,0-.3,0-.4.2,0,.1-.2.3-.4.4,0,.1-.3.1-.5.3,0,0,0,.2,0,.2h-.2s-.2.2-.3.4c0,.1-.2.2-.3.3-.2.2-.5.2-.7.5,0,0,0,.2,0,.3h-.2c0,0-.2.3-.3.3,0,0-.4-.4-.5,0,0,.2-.3,0-.5.2,0,0,0,.1,0,.1,0,0-.2-.1-.2,0v.2s0-.1-.2,0c-.2,0-.3.3-.5.3h-.4c-.2,0-.4.2-.6,0,0,0-.3-.4-.4-.5,0-.2,0-.8-.2-.9,0-.2-.2-.3-.2-.4-.2-.3-.3-.4-.5-.3h0c0,.1,0,.1,0,0v.2h-.2s0,.2,0,.2h0s0,.2,0,.2c0,.1-.2,0-.3.3v.2h-.2v.2h0v.2s-.2,0-.2.1c-.2.2-.3.8-.5.4,0-.4,0,0,0-.4s0,0-.2,0c0-.1,0-.4-.2-.4,0,0,0,.2-.2.3h-.3s0,.2-.2.3c-.3.1-.6.3-.9.1,0,0,0-.2-.2-.2h-.3c0-.1-.3-.5-.4-.6-.2-.2-.4-.1-.7-.3,0,0,0-.2-.2-.2h-.4c-.2,0-.4-.2-.5-.3h-.5c0,0-.3-.5-.4-.6-.2-.1-.4,0-.7,0h0c-.3,0-.6.1-.9.2,0,0,0-.1,0,0h-.2s0,.1,0,.1h-.4s0-.1-.2,0c0,0-.2.1-.3.2,0,0,0,.2,0,.1,0-.4-.2.5-.3.5,0,0-.2-.2-.3-.3-.3-.3-.7-.2-1.1-.2,0,0-.2.2-.3-.2.3,0,.6-.2.9-.2,0,0,0,.1.2,0,0,0,0-.2,0-.3,0,0,0,.1.2,0,0,0,0-.1,0-.1,0,0,0,.1.2,0,.2,0,.4-.4.6-.4h0v.2-.2h0c.3,0,.6.1,1-.2,0,0,.2-.3.3-.3.3,0,.6.3.8.1,0,0,0-.3.2-.3v.2c0,.1,0,0,.2.2,0,.1,0,.4.2.4h.3l.2.2c.2,0,.4-.1.6,0l.2.2h.4l.2.2c.2,0,.2-.2.3.2v.2s0-.1.2,0v.3l.2.3h.2c0,0,.2.2.4.2h0c0-.1.2,0,.3-.1,0,0,0-.2,0-.3h.3c.3-.2.4-.8.7-.3v.3c0,.2,0,.2.2,0h0c0-.1,0,0,0,0,0,0,0-.3,0-.4,0-.1.3,0,.3-.2,0,0,0-.3,0-.4,0,0,.2,0,.3-.2,0,0,0-.3.2-.4h0v-.3h.3v.6c0,0,0-.6,0-.8h.6c0,0,.2.2.3.5s.2.3.3.9c0,.1,0,.5,0,.6s.2,0,.3,0c0,0,0,.2.2.2.2,0,.4-.2.7-.3h.4s0-.2.2-.3l.2.2s.2,0,.3-.2v-.2l.2.2c0,0,.2-.4.3-.5.3-.2.8.4,1-.1,0-.1.5,0,.5-.3s0-.2,0-.1c0,0,.2-.2.3-.4,0-.2,0,0,.2,0,0,0,.2-.2.2-.3v-.2h.3s0-.3.2-.4c0,0,0,.1.2,0v-.2h.2s0-.2,0-.2c0-.3.4-.3.6-.6,0,0,0-.2,0-.2,0-.1.3,0,.5-.2,0,0,.2-.2.3-.2h0v.2c0,.1,0,0,.2.3v.2c0,.4.2,1.2.2,1.4h0v.9c0,.3,0,.5-.2.7v.8c0,.2.2,0,.4,0l.2.2s0-.2.2-.3h.4c0,0,.3,0,.4-.2,0,0,0-.2.2-.3,0,0,0,.1.2,0h0v-.3s.2.1.3,0c0,0,0-.2,0-.3.2-.1.4,0,.5-.2v-.2h.3s0-.2,0-.3c0,0,0,.1,0,.1,0,0,0-.2,0-.3,0,0,0,.1,0,.1,0,0,0-.2,0-.2,0,0,0,.1.2,0,0,0,0-.1,0-.1h.3s0-.1.2-.1c0,0,0,.1.2,0,.2,0,.4-.3.6-.2h0s0-.2,0-.3c0-.2.3,0,.5,0s.3-.2.4-.2h.8c.2,0,.4-.3.6,0,0,0,.2.5.4.5,0,0,.4-.3.5-.3h.3c.2,0,.4-.3.5-.2,0,.1.2.9.2,1s.5,0,.5-.2,0,0,.2-.1v-.2c0-.1.3,0,.4-.2,0,0,0-.3.2-.4h.2s0-.2,0-.3h.2l.2.5v.7s.2.2.3,0c0,0,0-.3,0-.4h.2s0-.2,0-.2c0,0,.2,0,.3-.2v-.2h.2s0-.2,0-.2c.2-.2.4-.2.6-.4,0,0,.2-.2.2-.3,0,0,0,.1.2,0,0,0,0-.2.2-.3h.2s0-.1.2-.1c0,0,0,.1.2,0,0,0,0-.1,0-.1,0,0,.2.2.3.2,0,0,0-.1,0-.1,0,0,.2.2.4.2,0,0,0-.2,0-.1,0,0,0,.1.2.2,0,0,.2.1.2,0,0,.3.3.9.4,1.5v1.3c0,.3,0,.6,0,1.1,0,.3,0,.6.2.7,0,.2,0-.1.2-.1,0,0,.2.1.3,0,0,0,0-.2.2-.1,0,0,0,.2.2.2,0,0,.2-.2.3-.4h0c0-.1,0,0,.2-.1,0,0,0-.2,0-.3,0,0,0-.2,0-.3v-.5c.2-.2.3,0,.5-.3v-.3s0,.1,0,.1v-.2c.3-.2.6,0,.7,1.4v.6s0,.2,0,.4v1c0,.2,0,0,0,.1v.2h.4s0-.1.2-.1.3,0,.4-.2h0v-.3c.2-.2.5-.3.6-.4,0-.1,0-.5.2-.6h.2v-.2s0,.1,0,.1v-.4c0-.1,0,0,0-.1v-.8h0v-.2s0,0,.2-.1c0-.2,0-.6.2-.7,0-.3.2-.5.3-.3v.7c0,.6,0,1.4,0,1.8,0,0,.2-.5.3-.6,0-.1.2-.1.2-.3s0-.5.2-.7v-.4c0-.1,0-.3,0-.4s.1,0,.2.2c0,.3.2,1.8.4,2,0,.2,0-.2.3-.3h0c0,.1,0,0,0,.1s0,.4.2.8h.5v-.2s.2,0,.3-.2c.2-.2.3-.4.6-.6,0,0,0-.2,0-.1h0c0,.1,0,0,0,0,0,0,.5-.3.6-.2v.2c0,.3.3,1.1.3,1.9s0,.5.2.6h0c0-.1.2-.1.2-.1,0-.1,0-.4.2-.4.2,0,.2.4.2,0s.3-.4.5-.7c0-.1.2-.3.3-.5,0,0,0,0,.2-.1v-.3s0,0,.2-.1c0-.1.2-.3.3-.4h.2c.2,0,.2-.2.4.3v.2c0,0,0,.2.2.4v.2c0,.4,0,.9.2,1s.4-.5.6-.7c0-.2.2,0,.3-.4,0-.2,0,0,.2-.3v-.4h.2v-.2h0c0-.2,0-.4,0-.5,0,0,0,.1,0,.1,0,0,0-.3.2.2,0,.3,0,.4,0,.4v1.2s-.2.7,0,.9c0,.5.2-.2.3-.5,0-.2.4-.3.4-.8s0,0,.2-.4v-.2h.2v-.3s0-.1,0-.1h.2v-.3s.2,0,.2-.1c0,0,0-.4,0-.3.2.5.2.9,0,1.1v.2s0-.2,0-.1v1s0-.1,0-.3h0v-.4s0,0,0-.1c0-.2,0-.7.2-.8,0,0,0,.1.2,0v-.6c0-.1.4-.9.6-.7,0,0,.2.5.2.7v.4c0,.2,0,0,0,.1v1.2c0,.4-.2.7-.3,1.1v.6s0,.2,0,.4v.2c0,.2-.2.2-.2.4v.7c0,.4,0,0,.2.2v.2c0,.2,0,0,0-.2,0-.4,0-.2.2-.3v-.2h.2s0-.4.2-.5c0,0,.4-.1.4-.4v-.3h.2s0-.4,0-.5c0,0,0,.1.2,0v-.5h0c0-.1,0-.3.2-.4,0-.2.5-1.4.7-.7,0,.5,0,.6,0,1v.5c.2.2.2-.3.3-.5,0-.1,0-.3,0-.4l.3-.6s0-.3,0-.4h.2v-.2h.3c0,.4,0,.6.2,1.1v-.3c0,0,0-.4,0-.4,0,0,0,0,0-.1v-.4c0-.2,0-.3.2-.5,0-.2,0-.5,0-.6h.2s0-.4,0-.2c0,.2,0,.5.2.8,0,.5-.2.5,0,1,0,.1,0,0,0,0h0c0-.2,0-.4,0-.6h0c0-.4.3-1.2.4-1.2l.2.2c0,.1,0,.2,0,.2.2,0,0-.6.2-.8,0,0,0-.2,0-.2,0-.2,0-.4.2-.1v.2s0-.6.2-1c0-.2,0-.3,0-.5,0-.1,0-.2,0-.4,0-.3,0-.7.2-1.1h0c0-.3,0-.6.2-.9,0,0,0,.2.2.2,0,0,0,.1,0-.2s0,0-.2,0c0-.4,0-.4.2-.6,0-.2,0-.8,0-.8,0,0,0,.1,0-.1v-.4c0-.3.2-.6.3-1v-.4h0s0-.4,0-.3v.8c0,.2,0,.5-.2.7v.2c0,.1,0,.3,0,.5v-.5c0-.1,0,.4,0,.7,0-.1,0,.5,0,.5,0,0-.2.1-.2.4s0,0,0,.2v.4c0,.1,0,.3,0,.5h0c0,.5,0,.1,0,.3v.2s0,.1,0,.3v.7c0,0,0,.2,0,.3v.4h0v.2c0,.3-.2.5-.2.8v.7h0c0,.3,0,.6,0,.8,0,.2,0,.2-.2.4v.2c0,.1,0,.1,0,.4s0,.4,0,.6c0,.2,0,.3-.2.6v.5l-.2-.2c-.2,0-.3.6-.4,1v.5c0,.1,0,.3,0,.5h0c0,.1,0,.6,0,.6l-.3-.3c0-.4,0-.5,0-1v.5c0,.1-.2.4-.3.6v.2s0,0-.2.1c0,0,0,.4,0,.4v-.2s0-.1-.2,0c0-.7,0-1,0-1.4,0-.4-.2.1-.3.3,0,0,0,.3,0,.4,0,0,0,0-.2.1v.2c0,.1,0,.3-.2.5,0,.2,0,.6-.2.6l-.2-.4v-.5c0-.5,0-.3,0-.5v-.2c0-.1,0-.2,0-.2,0-.2,0-.5.2-.7,0-.2.2-.2.2-.4v-.4s0-.1,0-.4c0-.2-.2.1-.2.3v.5h0v.2h0c0,.1,0,.3,0,.3,0,.1-.2.1-.2.4v.4c0,.2-.2.1-.2.3s0,.4-.2.6v.2h0c0,.2-.2.6-.3.6l-.3-.3v-1.1c0-.6.3-.9.5-1.4,0-.1,0-.3,0-.4,0-.1,0-.2,0-.3s0-.7.2-.6l.9,1.6h0Z"/>
    </g>
    <g id="OveralPA">
      <path class="hkrc1" d="M314.3,113l-.4-.2s0,.4-.2.5h-.6c-.2,0-.4.5-.7.8-.1,0-.3,0-.6.2,0,0-.2,0-.2,0v.2h-.4c-.1,0-.2.3-.4.4h-.2c0,0,0,0-.2,0s-.5.4-.8.5c-.3.2-.6.3-1,.4-.1,0-.2.2-.2.3-.1,0-.3,0-.4,0-.3,0-.8.6-1.3.3-.1,0-.2-.5-.3-.6h-.2c0-.2.5-1.4.6-1.6s.4-.4.6-.6h.2c0,0,.1-.2.2-.2,0,0,0-.4.1-.5.1-.2.3,0,.5-.3.1,0,.2-.3.3-.5,0,0,.2,0,.2,0v-.2h.2c.2-.3.4-.5.6-.9-.4-.3-.6,0-.9.3-.4.3-.8.6-1.3.9-.1,0-.3.2-.5.4-.3.2-.5.4-.8.5,0,0,0,0-.2,0s0,0-.3,0c-.3.2-.5,0-.5-.7s1-.9.9-1.2c-.2-.6-.9.4-1.1.4-.3.2-.5,0-.6.2,0,0,0,.2-.1.2-.3.3-.9.6-1.3.9-.5.4-1.5.8-2.1,1-.1-.2,0-.5-.2-.8-.2-.6.3-.9.4-1.5,0,0-.2,0-.3,0-.2,0-.1.2-.2.3-.2,0-.4,0-.6.3,0,0-.1.2-.2.3-.1,0-.2,0-.3,0-.2,0-.3.3-.5.4s-.4,0-.6.2c-.2,0-.4.3-.6.4s-.5.4-.6.4c-.3,0,0-.3-.2-.3-.3,0,0,.3-.3.5-.2,0-.8,0-1-.3,0,0-.2-.2-.3-.3-.2-.3,0-.9-.3-1.2,0,0-.2-.2-.4-.3-.2,0-.5-.4-.7-.2-.2,0,0,.2-.2,0-.1,0-.6.3-.8.4-.2,0-.3,0-.5.2v.2h-.3c-.3.2-.9.3-1.3.6v.2c-.2,0-.4,0-.6.2s-.3,0-.6.2c0,0-.2.2-.2.3-.4.2-.8.2-1.4.3-.1,0-.2.2-.3.3-.6.3-1.4.3-1.5-.6v-.8c0-.3.4-.6,0-.8-.4-.3-1.1,0-1.7,0-.1,0-.2.2-.4.3,0,0,0-.2,0,0-.2.3-1,.4-1.4.6h0c0,0-.1,0,0,0-.2,0-.3.3-.5.4h-.6c-.6,0-1.2.5-1.8.3s-.4-.4-.8-.3c-.1,0-.2.2-.3,0,0,0-.6-.4-.6-.5-.3-.6,0-2.1-.7-1.4,0,0-.1.3-.2.4,0,0-.3,0-.4.2-.1,0-.2.3-.2.4-.2,0-.5.2-.7.3v.2c-.1,0-.3,0-.5.2,0,0-.2.2-.3.3,0,0-.3,0-.2,0-.3.2-.3.5-.5.4,0,0-.1-.3-.1-.5-.4-.3.2.2-.2,0-.1,0-.1-.2-.3-.2,0-.2,0-.3.1-.5v-.6c0-.3.4-.5.4-.6-.2-.9-1,0-1.2.2-.4.3-.8.5-1.3.8-.2.2-.5.4-.8.7-.1,0-.2,0-.2,0-.1,0-.6.3-.9.4-.1,0-.3,0-.4,0,0,0,0,.2,0,0-.2-.3-.2,0-.3,0-.2,0-.3,0-.6.2v.2c-.3,0-.5,0-.7.2-.2,0-.4,0-.6.2-.5.2-1,.5-1.7.6,0,0-.2,0-.3,0-.4,0-1.1,0-1.4,0-.3-.2-.4-.2-.5-.4-.2-.3-.3-1.2-.1-1.5,0,0,.2-.2.2-.3v-.6s.2-.3.1-.4c-.2-.5-.8-.2-1.1,0-.4.2-.8,0-1,.6,0,0-.7.3-.9.4,0,0-.2.2-.3.3h-.2v.2h-.5c-.1,0-.2.2-.3.3h-.4c-.3,0-.6.3-.9.3h-.9c-.5,0-1.2.3-1.5,0-.1,0,0-.3-.1-.5,0-.2-.3-.2-.3-.6s.1-.6,0-.8c0,0-.1,0-.1-.2,0,0,.2-.6.3-.8,0-.2,0-.3.1-.5.1-.3.2-.5-.2-.9,0,0-.3-.4-.4-.4h-.7c-.2,0-.3-.2-.4-.2h-1.5c-.2,0-.3.2-.5.2-1.4,0-3.1.2-4.2.9-.2,0-.4,0-.7.2-.3,0-.7.4-1,.6-.3,0-.5,0-.8.2,0,0,0,0-.2,0,0,0-.1,0,0,0-.2,0-.3.3-.5.4-.4.2-1.7.4-1.8.3v-.2c-.1,0-.2-.2-.1,0,0-.2.2-.3.1-.4-.4-.7-1.7,0-2.2.2-.4.3-1.3.3-2,.5s-1.2.6-1.6.5c-.3,0-.5-.7-.7-.7-.4,0-.9.3-1.4.4h-.4c-.3,0-1,.2-1.5,0-.4,0-.8-.4-1.2-.5-.6,0-1.5,0-2.3.2-.8,0-1.6,0-2.4.2-.4,0-.7.3-1.1.3-.9.2-1.8,0-2.5.2-.1,0-.3.3-.5.3-.4,0-.7-.2-1.3,0-.8.2-1.9.5-2.9.7h-.6c-.3,0-.5.3-.8.3s-.3,0-.4,0c-.4,0-.7.4-1.1.4h-.7c-.5,0-1.1.3-1.5.4h-.2v-.2c-.1,0-.3.2-.5.3-.4,0-1,0-1.3,0s-.7.2-1.1,0c-.6,0-1.1-.4-1.1-1.3v-.4s.2,0,.2,0c.1-.2.1-.5.2-.6,0,0,.3,0,.4,0v-.2h.2c0,0,0-.3.2-.5,0,0,.2,0,.3-.3.3-.4.7-1.1.2-1.1,0,0-.2.2-.3,0-.2,0-.4-.2-.6-.2s-.3.2-.5.3c-.2,0-.5,0-.7.2-.2,0-.2.2-.5.2s-.4.2-.7.3c-.3,0-.7,0-1,.2-.4,0-.7.3-1.1.4-.4,0-.9.2-1.4.3-.1,0-.2.2-.4.3h-.6c-.2,0-.6.3-.9.4-.2,0-.5.2-.8.3-.5.2-1.4.3-2,.5-.2,0-.3.2-.4.3h-.6c-.3,0-.7.3-.9.3s-1-.3-1.4,0c-.2.2-.9,0-1.4.2-.2,0-.2,0-.3,0-.2,0-.4,0-.6,0-.1,0-.2.2-.3.3h-.5c-.5,0-.9.3-1.4.3h-1c-.5,0-1.2.2-1.6,0-.3,0-.7-.4-.8-.5-.1-.2,0-.8-.2-.9-.1-.2-.3-.3-.5-.4-.4-.3-.6-.4-1.2-.2,0,0-.1,0-.2,0h-.3c-.1,0-.2.2-.3.3h-.5c-.1,0-.2.2-.4.3h-.3c-.1,0-.3.2-.4.3-.3,0-.6,0-.9.3v.2h-.5c-.1,0-.2.2-.3.3h-.2v.2c-.2,0-.5,0-.6.2-.5.2-1,.8-1.5.5-.2-.4.3,0,.2-.4-.2,0-.2,0-.4,0-.2,0-.2-.4-.4-.4s-.4.2-.5.3h-.9c-.2,0-.4.2-.6.3-.7.2-1.7.3-2.5.2-.1,0-.2-.2-.3-.2h-.7c-.3,0-.5-.5-.8-.6-.5-.2-1.1,0-1.6-.2-.1,0-.3-.2-.4-.2h-1c-.4,0-.9-.2-1.3-.2h-1.2c-.3,0-.6-.5-.9-.6-.4,0-1.1,0-1.8,0h0c-.7,0-1.7.2-2.3.3-.1,0-.2,0-.3,0h-.6c-.2,0-.3,0-.4.2h-1.1c-.1,0-.2,0-.4,0,0,0-.4,0-.7.2,0,0,0,.2,0,0-.2-.4-.6.5-.9.5s-.5-.2-.8-.3c-.7-.2-1.9,0-2.9,0-.2,0-.6.3-.7-.2.8,0,1.6-.2,2.3-.3.1,0,.3,0,.4,0,.2,0,.3-.2.5-.3.1,0,.2,0,.4,0,0,0,.2,0,.3,0h.5c.6,0,1.3-.4,1.8-.5h.3s0,.2.2.2c0,0,0-.2.1-.2s.2,0,.2,0c.7-.2,1.7,0,2.7-.3.3,0,.5-.3.8-.3.8,0,1.5.2,2,0,.1,0,.4-.3.5-.3,0,0,0,.2.1.2.2,0,.3,0,.5.2.1,0,.3.4.5.4h.7c.2,0,.4.2.6.2.5,0,1,0,1.5,0s.4.2.6.2h1c.1,0,.4.2.5.2.5,0,.5-.2.7.2,0,0,0,.2.1.2s.3,0,.4,0c0,0,0,.3.1.3,0,0,.4.3.5.3h.6c.4,0,.5.2,1,0,0,0,0-.2.2,0h.9c.2,0,.3-.2.5-.3h.8c.8-.2,1.3-.9,1.8-.4.1,0,0,0,.2,0,0,0,0,.1.1.2.2.2.3.2.6,0,0,0,0,0,.2,0,0,0,0,.2,0,0,.2,0,.3-.3.5-.4.3,0,.7,0,1-.2.1,0,.3-.3.4-.4.2,0,.5,0,.7-.2.2,0,.5-.3.7-.4.1,0,.2,0,.4,0,.1,0,.2-.2.3-.3h.9c0,.3-.2.2-.1.6.4,0,0-.6.2-.8h1.5c.3,0,.4.2.7.5s.3.3.6.9c0,0,.2.5.2.6.1,0,.4,0,.7,0s.3.2.4.2c.6,0,1.2-.3,1.9-.4h1c.2,0,.4-.3.5-.3.2,0,.4.2.6.2s.6,0,.8-.2c0,0,.1-.2.2-.2.2,0,.4.2.5.2.3,0,.6-.5.8-.5.8-.2,2,.3,2.7-.2.2,0,1.3,0,1.5-.4.1-.2,0-.2.4,0,.4,0,.6-.2.9-.4.3-.2.2,0,.4,0,0,0,.5-.2.6-.3.1,0,.2-.2.3-.3h.7c.2,0,.4-.3.6-.4.1,0,.3,0,.5,0,.1,0,.1-.2.3-.3h.5c.1,0,.3-.2.4-.3.4-.3,1.1-.4,1.8-.6.2,0,.2-.2.4-.3.3,0,.8,0,1.3-.2.2,0,.5-.2.9-.2h.3s.1.2.2.2c.2,0,.2,0,.4.3l.2.2c.2.4.1,1.2,0,1.4h-.3s0,.4-.2.6c0,0-.2,0-.2,0,0,0,0,.2-.1.2-.2.3-.5.5-.7.8s-.4.6-.5.9c.3.2.6,0,1,0s.4.2.5.2c.2,0,.3-.2.5-.3h1.1c.3,0,.7,0,1-.2.2,0,.4-.2.5-.3.2,0,.3,0,.5,0,.1,0,.3,0,.4,0l.3-.3h.7c.2,0,.3-.2.5-.3.5-.2,1,0,1.4-.2,0,0,.1-.2.2-.3h.8c.2,0,.3-.2.5-.3.1,0,.1,0,.3,0,0,0,.3-.3.5-.3s.2,0,.3,0c.2,0,.3-.2.4-.3h.4c.1,0,.3,0,.4,0h.8c.2,0,.3-.2.5-.2h.5c.6,0,1.2-.4,1.7-.3,0,0,.4,0,.3,0,.2,0,.2-.2.4-.3.4-.2.8,0,1.2,0,.4,0,.8-.2,1.2-.2h2.2c.6,0,1-.3,1.5,0,.3,0,.5.5.8.5s1.1-.3,1.4-.4h.8c.5,0,1.1-.4,1.3-.2.2,0,.2.9.3,1s1.3,0,1.4-.2c.1,0,.3,0,.6-.2.1,0,.2-.2.3-.3.4,0,.8,0,1.1-.2.2,0,.4-.3.6-.4h.4c.2,0,.4-.3.5-.3h.6s.4.5.5.5c.1.4-.1.5,0,.7.1,0,.5,0,.8,0,.2,0,.2-.3.4-.4h.6c.1,0,.2-.2.4-.3.3,0,.6,0,1-.2v-.2h.5c.2,0,.3-.2.4-.3.6-.2,1.1-.3,1.6-.5.2,0,.5-.3.6-.3.2,0,.3,0,.5,0,.3,0,.4-.2.5-.3h.5c.2,0,.3,0,.5-.2h.5c.1,0,.2,0,.3,0,.2,0,.4.2.7.2s.3,0,.4,0c.2,0,.6.2.9.2s.3-.2.4-.2c.2,0,.3,0,.5.2.3,0,.5,0,.5,0,.3.2.5.9.5,1.5s-.1.5-.2.8v1.7c0,.3,0,.6.2.7.2,0,.1,0,.5-.2h.7c.2,0,.4-.2.6-.2s.3.2.4.2c.2,0,.6-.2.9-.4,0,0,.1,0,.2,0h.6c.1,0,.3-.2.5-.3.1,0,.4-.2.5-.3,0,0,.1-.4.3-.5.5-.3.8,0,1.3-.3,0,0,.2,0,.2,0v-.2c.1,0,.2,0,.3,0,0,0,0-.2.1-.2.8-.2,1.7,0,1.5,1.4v.8s-.3.2-.4.4c0,0,.1.3.1.5,0,0-.1.3,0,.5,0,.2.1,0,.3,0,0,0,0,.2.1.2h1.1c.2,0,.4-.2.6-.2.3,0,.7,0,1.1-.2.1,0,.3,0,.4-.2,0,0,.2-.2.3-.3.7-.3,1.3-.3,1.6-.5.3-.2.4-.5.6-.6h.5s.2-.2.2-.3c.1,0,.2,0,.3,0,.1,0,0-.2.2-.4.1,0,.3,0,.4,0s.2-.2.3-.4c0,0,.2-.3.2-.4h.3v-.2c.2,0,.4,0,.6-.2.3-.2.6-.6.8-.8.4-.3.7-.5.9-.3.1,0,0,.3.1.5,0,0,.1,0,.2.2.1.7-.1,1.4-.2,1.9.4,0,.6-.5.8-.7.2,0,.4,0,.6-.3.3-.2.5-.5.7-.8,0,0,.2,0,.2,0,0,0,0-.2.1-.2,0,0,.2,0,.2,0,.1-.2,0-.2.5-.4.4-.2.3-.2.5.2.1.3.1,1.8.4,2,.2.2.4-.2.8-.3,0,0,.1,0,.2,0,0,0,.1-.2.3,0,.2.2,0,.4.3.8.5,0,.9,0,1.3,0,.1,0,.2-.2.3-.3.2,0,.5,0,.8-.2.5-.2,1-.5,1.7-.6,0,0,0-.2.2,0h0c.1,0,.2,0,.3-.2.2,0,1.3-.4,1.6-.3,0,0,.1.2.2.2.3.2.5,1.1.3,1.9,0,.4,0,.5.4.5,0,0,.1-.2.2,0h.6c.3,0,.4-.4.5-.4.5,0,.3.4.6,0,.3-.3,1-.4,1.6-.7.3-.2.6-.4.9-.5.1,0,.3,0,.5-.2.1,0,0-.3,0-.4,0,0,.3,0,.5-.2.2,0,.5-.4.9-.4h.4c.4,0,.7-.2,1.1.3,0,0,0,.2.1.2.2,0,0,0,.3.4l.2.2c.2.4,0,.9.3,1s1.3-.5,1.6-.7c.4-.2.6,0,.8-.4.2-.2.2,0,.5-.3,0,0,.1-.2.2-.3.1,0,.2-.2.2-.3h.4s.1-.2.2-.3c.1,0,.2,0,.3,0,.2,0,.4-.4.5-.4s.1,0,.3,0c.2,0,.4-.3.6.2,0,.3.2.4.2.4,0,.4,0,.6-.4,1.2,0,0-.6.7-.5,1,.3.5.6-.2,1-.6.4-.3,1-.3,1.2-.8.1-.3.3,0,.6-.4v-.2h.5s0-.3.1-.4h.3c0,0,.6,0,.6,0,.1,0,0-.3,0-.4,0,0,.4,0,.6-.2,0,0,.1-.4.5-.3.2.5.2.9,0,1.2,0,0,0,.2-.1.2,0,0-.1-.2-.2,0v.4c0,.2-.4.4-.3.7.2,0,.3,0,.5-.3h.2c0,0,0-.3.1-.4,0,0,.3,0,.4-.2.2-.2.4-.8.7-.9.2,0,.3,0,.4,0,.2,0,.2-.4.4-.6.1,0,1.3-1,1.7-.7,0,0,.3.5.3.7,0,.3,0,.2-.1.4,0,.2,0,0,0,0,.1.4-.2.3-.4.5,0,0,0,.4-.1.6,0,0-.1,0-.2,0-.2.4-.7.7-1,1.1-.1.2-.2.4-.4.6,0,0-.3.2-.4.4v.2c-.2.2-.5.2-.6.4-.2.2-.1.5-.3.7.1.4.3,0,.4.2,0,.2-.2,0-.2.3.1.2.3,0,.2-.3-.1-.4.4-.2.5-.3,0,0,0-.2.1-.2h.4c.2,0,.5-.4.8-.5.2,0,1.1-.2,1.3-.5v-.4h.5c.2,0,.4-.4.5-.5.1,0,.3,0,.4,0,0,0,.1-.2.2-.3,0,0,.2,0,.2,0v-.2h.2c.1-.1.3-.3.5-.4.3-.2,1.8-1.5,2.1-.8.2.5.2.6-.2,1.1h-.2c0,.2-.2,0-.3.5.4,0,.7-.3,1-.6.1,0,.3-.3.5-.4.3-.2.7-.4,1-.7.1,0,.3-.3.4-.4h.4v-.2h.8c0,.4.2.6.2,1.1.1,0,.2,0,.4-.3,0,0,.1-.3.2-.4.1,0,.3,0,.4,0,0,0,.1-.3.2-.4.2-.2.4-.3.6-.5s.4-.5.5-.6h.5s0-.4.3-.3c.2.2.3.5.2.8,0,.5-.7.5-.6,1,0,0,0,0,.2,0,0,0,.2,0,.2,0,.2,0,.3-.3.4-.5h.2c.2-.4,1-1.3,1.4-1.3s.1,0,.3.2c0,0,0,.2.3.2s.5-.6.7-.9c0,0,.3-.2.4-.3.2-.2.3-.4.6-.2,0,0,.1.2.2.2.3,0,.6-.6.9-1,.2-.2.3-.4.4-.5.2,0,.3-.3.5-.4.2-.3.4-.8.7-1.1,0,0,.2,0,.2,0,.2-.2.5-.5.7-.9.3,0-.1.2.3.2s.2,0,.3-.3c0-.2-.3,0-.4,0,0-.4.4-.4.6-.6.1-.2.4-.8.6-.9.2,0,0,0,.2,0,0,0,.1-.2.2-.4.2-.3.7-.6,1-1,0,0,.1-.3.2-.4h.2s.1-.4.5-.3v.5s.1.2.1.3c0,.2-.5.5-.7.8,0,0,0,.2-.1.2-.1,0-.3.3-.5.5v-.5c-.3,0,0,.4-.1.7,0,0-.3.5-.4.5,0,0-.5.2-.5.4,0,.4,0,0-.3.3,0,0-.1.2-.2.4-.1.2-.3.3-.4.5,0,0-.1,0-.2,0,0,.4,0,0-.3.3v.2c-.1,0-.3.2-.4.3-.1.2-.2.5-.3.7,0,0-.3,0-.4.3,0,0-.1.3-.2.4h-.2v.2c-.2.3-.6.5-.9.9-.2.2-.3.5-.4.7,0,0-.2,0-.3,0-.2.2-.4.5-.6.7s-.4.2-.5.4v.2c-.1,0-.3,0-.5.4,0,0-.4.4-.5.6s-.4.4-.6.6c-.2.3-.2.4-.4.5-.1,0-.4-.2-.6-.2-.4,0-.9.7-1.2,1,0,0-.2,0-.2,0,0,0-.2.2-.3.4-.1,0-.3.3-.5.5,0,0-.2,0-.2,0s-.3.5-.5.5-.4-.2-.6-.3c0-.5.4-.5.3-1.1,0,.2-.2.3-.4.5,0,0-.6.4-.8.7v.2c-.1,0-.5,0-.7.2-.1,0,0,.4-.4.4v-.2s-.4,0-.4,0c0-.7.5-1,.8-1.5-.2-.4-.5,0-.8.3-.1,0-.2.3-.4.4-.1,0-.3,0-.5.2,0,0,0,.2-.1.2-.1.2-.4.3-.6.5-.3.3-.5.7-.8.6l-.5-.4c0-.2.1-.2.2-.5.2-.5,0-.3.4-.5v-.2c.2,0,.4-.2.5-.3.3-.2.5-.6.7-.8.2-.2.5-.2.7-.4,0,0,.1-.3.2-.4,0,0,.3-.2.2-.4-.3-.2-.4,0-.6.3,0,0-.2.2-.3.3,0,0-.1,0-.2,0v.2h-.3v.2c-.1,0-.3,0-.4.2-.1,0-.2.2-.4.3-.3.2-.5.2-.7.4,0,0-.1.3-.2.4-.2.2-.5,0-.7.3-.2.2-.4.4-.8.6,0,0-.2.2-.2.3h-.3c-.3.2-.7.7-1,.7s-.6-.3-.6-.3c0-.2.2-.7.6-1.1.5-.6,1.1-.9,1.7-1.4.1,0,.3-.3.4-.4.2,0,.4-.2.5-.3.1,0,.3-.7.8-.6l-1,1.6h0Z"/>
    </g>
  </g>
  <g id="Hightlight">
    <rect id="School2" class="hkrc3" x="338.6" y="186.2" width="119.8" height="19.2"/>
    <rect id="PF2" class="hkrc3" x="287.2" y="393.7" width="152.6" height="19.2"/>
    <rect id="PA2" class="hkrc3" x="152.6" y="88.1" width="179" height="19.2"/>
    <rect id="OrganizedPA2" class="hkrc3" x="43.4" y="387.7" width="132.2" height="38.6"/>
    <rect id="PF2-2" data-name="PF2" class="hkrc3" x="35" y="208.8" width="60.5" height="20.2"/>
  </g>
  <text class="hkrc18" transform="translate(25.9 91.8)"><tspan x="0" y="0">Hong Kong</tspan></text>
  <text class="hkrc9" transform="translate(298.8 265.7)"><tspan x="0" y="0">D</tspan></text>
  <text class="hkrc9" transform="translate(276.5 295.2)"><tspan x="0" y="0">D</tspan></text>
  <text class="hkrc9" transform="translate(152.6 224.1)"><tspan x="0" y="0">B</tspan></text>
  <text class="hkrc9" transform="translate(175.6 340.9)"><tspan x="0" y="0">B-</tspan></text>
  <text class="hkrc11" transform="translate(299.7 311.9)"><tspan x="0" y="0">C-</tspan></text>
  <text class="hkrc11" transform="translate(194.9 230.3)"><tspan x="0" y="0">C</tspan></text>
  <text class="hkrc11" transform="translate(223.5 332.3)"><tspan x="0" y="0">C</tspan></text>
</svg>