<?xml version="1.0" encoding="UTF-8"?>
<svg id="Layer_1" data-name="Layer 1" xmlns="http://www.w3.org/2000/svg" version="1.1" viewBox="0 0 595.3 386">
  <defs>
    <style>
      .cls-1 {
        fill: #cfc6a6;
      }

      .cls-1, .cls-2, .cls-3, .cls-4, .cls-5, .cls-6, .cls-7, .cls-8, .cls-9, .cls-10, .cls-11 {
        stroke-width: 0px;
      }

      .cls-2 {
        fill: #2b2513;
      }

      .cls-3 {
        fill: #c79c32;
      }

      .cls-4 {
        fill: #2f2917;
      }

      .cls-5 {
        fill: #2c2616;
      }

      .cls-6 {
        fill: #2e2816;
      }

      .cls-7 {
        fill: #2c2716;
      }

      .cls-8 {
        fill: #cea22f;
      }

      .cls-9 {
        fill: #cba131;
      }

      .cls-10 {
        fill: #cda02f;
      }

      .cls-11 {
        fill: #8c6724;
      }
    </style>
  </defs>
  <path class="cls-7" d="M199.2,268.6c4.5-2.7,9.2-5.2,13.5-8.2,7.8-5.6,15.5-11.5,23-17.6,3.1-2.5,5.4-5.8,8.2-8.6,2.1-2.1,4.5-3.9,6.8-5.8.4.3.7.7,1.1,1v-8.2h-9.7c2-5,3.8-9.1,5.2-13.4,1.8-5.5,5.9-6.2,10.9-6.8,21.8-2.3,43.6-5,65.4-7.5,2.9-.3,5.9,0,10,0-5.5,12-10.8,23.4-16.1,35-10.7-2.9-21.7-5.8-32.7-8.7-.2.6-.4,1.2-.6,1.8,3.2,1.7,6.3,3.4,9.9,5.4-.3.7-.5,2.3-1.3,3.3-6.9,8.6-13.9,17-20.7,25.5-5,6.2-10.2,9.7-19.4,9.4-7.2-.3-14.8,4.1-21.8,7.4-8.6,4.1-16.5,9.4-21.7,18.4-1.4.2-2.2.4-3.3.4-4.7-1.1-9.2-1.7-11.7-6.5-.4-6.5-.1-12.3,5.4-16.4Z"/>
  <path class="cls-2" d="M344,104.8c-9.8.1-17.4-4.1-22.4-12.4-1.5-2.5-1.6-6.4-.9-9.3.8-3.1.4-4.9-1.6-7.1-3.1-3.3-6-6.7-8.7-10.2-12.1-15.3-6.7-42.4,18.9-45.9,19.9-2.8,37.1,2.5,51.3,16.8,1.5,1.5,2.8,3.3,4,5.1.9,1.3,1.5,2.9,2.8,5.4-4.4-1.1-7.8-2-10.8-2.8-1,6.6-2.1,13-2.9,19.4-.3,2.1-.5,5,.7,6.3,3.7,4.2,1.2,7.5-.7,11.1-7.9,15-3.2,12.1-20.1,11.1-8.2-.5-8.2-.8-7.8,7.9-.8,2-1.4,3.3-2,4.6Z"/>
  <path class="cls-8" d="M267.2,192.7l-18.5,2.3c-.4-.4-.8-.9-1.2-1.3,11.2-23.7,22.5-47.4,34.1-71.9-6.6,1.1-12.7,2-19.2,2.5,2.2-4.9.9-8.8-2.1-12.8-2.2-6.6-4.3-12.9-6.4-19.1,4.2-.8,8.5-1.9,12.7-2.2,11.4-.8,22.8-1.4,34.2-1.7,2.8,0,6.6-1.2,8.2,3.6.4,1,.6,1.4.9,1.7.2.3.4.6.5,1.6.6,1.3,1.3,1.8,2,2.4.9.9,1.7,1.7,2.5,3.2.9,5.5,1.9,10.5,3,15.4.1.6,1.3.9,2,1.3,4.4,2.6,7.3,6,6.3,11.6-.3,1.8.4,3.8-.2,5.4-.7,1.9-2.1,4.3-3.7,4.9-3.1,1.1-4.3,2.8-4.2,5.8.2,3.4-1.3,5.6-4.9,5.3-4-.3-5.4,1.4-5.1,5.3.4,4.6-2.1,5.6-5.9,4.3-2.7-.9-4.3,0-4.9,2.5-.8,3.4-3.2,3.4-5.8,2.7-3.6-1-5.3.1-5.5,4-.1,2.1-.5,4.7-1.8,6-4.3,4.1-5,8.5-2.6,13.4-1.6.9-3,1.7-4.5,2.6-1.1.2-2.1.3-3.8.1-1.5-1.5-2.5-2.7-4.2-4.9-.9,2.8-1.5,4.5-2,6.2M277.5,185.1c-.3.6-.7,1.2-1,1.7.5.1,1.1.3,1.6.4,0-.6,0-1.3-.6-2.1Z"/>
  <path class="cls-8" d="M277.6,191.5c1.1-.9,2.5-1.8,4.1-2.7-2.4-4.9-1.7-9.3,2.6-13.4,1.3-1.3,1.7-3.9,1.8-6,.2-3.8,1.9-5,5.5-4,2.6.8,4.9.8,5.8-2.7.6-2.5,2.2-3.4,4.9-2.5,3.8,1.4,6.3.3,5.9-4.3-.3-3.8,1.1-5.5,5.1-5.3,3.6.2,5.1-1.9,4.9-5.3-.1-3.1,1-4.7,4.2-5.8,1.6-.6,3-3,3.7-4.9.6-1.6-.1-3.7.2-5.4,1-5.6-1.9-9-6.3-11.6-.7-.4-1.9-.8-2-1.3-1.1-4.9-2-9.9-2.9-15.1,4.6,2.6,8.9,6.1,13.7,8.3,3.2,1.4,7.4,1.4,11,.9,1.7-.2,3-3.1,4.3-5.1.5-1.7,1.1-3,2-4.6,10.4,6.6,20.5,13.5,30.6,20.3,2.2,1.5,4.3,3.1,6.6,5.4-.2,3.8-.6,6.9-1.1,10.1-2.1,2.5-4,4.8-5.9,7.2-2.2,5.3-4.5,10.6-7.2,17-5.2-3.8-11.3-6.5-14.2-11.1-2.8-4.6-2.2-11.2-3.3-18.1-1.3,3.1-2.5,5.3-3.2,7.6-3.9,13.1-7.7,26.2-11.4,39.3-1.1,3.9-3.1,6.1-7.5,6.6-17.1,2-34.2,4.4-51.7,6.6Z"/>
  <path class="cls-5" d="M310.5,259c10.4-7.9,20.8-15.8,32.2-24.4-6.6-2.9-12-5.3-18-8,4.8-11.6,9.8-22.9,17.4-32.4,8.4,6.2,16.3,11.8,24.1,17.7,14.8,11,13.6,28.5-2.6,37.6-9.7,5.5-19.7,10.4-29.2,16.1-3.9,2.3-6.8,6.1-10.8,9.5-5.6.8-10.2-.3-13.4-4.6-2.9-3.9-2.3-7.7.3-11.5Z"/>
  <path class="cls-6" d="M382.4,136.2c.3-3,.7-6.1,1-9.6,17.6,7.1,33.4,1.3,39.8-15.6,1.2-3,.2-6.9,0-10.4-.2-3.8-1.8-7.9-1-11.5,1.4-5.7,6.3-8,12.5-7.3,6,.7,10.6,4.5,10.9,10.4.2,4.7,0,9.8-1.5,14.2-6.4,18.2-17.1,33.3-34.8,42.4-7.9,4.1-16.3,4.4-24.7,1.7-2.6-.9-5.7-1.8-3.5-6.5.6-3,.9-5.4,1.1-7.7Z"/>
  <path class="cls-4" d="M253.6,92.3c2.5,6.2,4.6,12.4,6.4,19.1-3.5,1.3-6.6,2.1-9.7,2.9-8.8,3.3-17.8,6.4-26.4,10.1-3.1,1.3-5.6,4.2-8.1,6.6-3.9,3.7-4.6,8.1-2.4,13.2.8,1.9,1,4.7.2,6.5-1.7,4-5.7,4-8,.4-1-1.5-1.8-3-2.2-3.6-3.8,2.4-6.8,5.6-10.3,6.3-5.8,1.1-9.4-3.8-8.3-9.8,1.3-7.4,6.4-12.3,11.2-17.3,13.4-14.2,29.4-24.2,48.5-29.2,3.1-.8,5.9-3.3,9.1-5.1Z"/>
  <path class="cls-9" d="M310.3,258.7c-2.4,4.1-3,7.9,0,11.8,3.2,4.3,7.7,5.4,13.2,4.9,3.4,6.3,6.5,12.5,9.3,18.8.9,2.1,1.3,4.5,1.2,6.8-.2,8.5-5.7,12.4-13.4,8.7-14.1-6.8-24.9-17.5-33.3-30.6-3.2-4.9-2.8-10.2,1.7-14.6,2.8-2.8,5.5-5.9,8.7-8,4.6-3,8.2-2.2,12.7,2.2Z"/>
  <path class="cls-10" d="M189.1,287.7c2.6,4.3,7,5,11.7,6.4.7,1.8,1,3.2,1.4,4.6,0,.6-.2,1.1-.5,2-.3.4-.4.5-.4.5,0,0,0,.3-.5.4-.5.7-.7,1.4-.8,2,0,.8-.1,1.6-.7,3-2,6.1-3.5,11.7-5,17.3,0,0,0,0-.5-.1-3-.2-6.6.5-8-.9-4.7-4.6-7.9-10.5-8.4-17-.4-4.9,1-10.1,1.9-15.1.5-3,7.2-5,9.8-3.1Z"/>
  <path class="cls-3" d="M189.2,287.3c-2.7-1.4-9.3.6-9.9,3.6-.9,5-2.3,10.1-1.9,15.1.5,6.5,3.8,12.4,8.4,17,1.4,1.4,5,.6,8.1.9-5.1,5.1-11.5,1.1-15-5.4-2.3-4.3-3.8-9.3-4.6-14.1-1.2-7-2.1-14.2-1.8-21.3.4-12.6,10.1-18,21.8-12.4-5.3,4.4-5.5,10.2-5.1,16.7Z"/>
  <path class="cls-11" d="M250.5,114.6c2.9-1.1,6-2,9.5-2.8,3.4,3.6,4.7,7.4,2.1,12.2-6,3.2-6.8,2.9-9-3.1-.7-2-1.6-4-2.6-6.3Z"/>
  <path class="cls-3" d="M194.7,323.9c1.1-5.5,2.7-11.1,4.4-16.9-.5,5.7,1.6,12.2-4.4,16.9Z"/>
  <path class="cls-1" d="M382.2,136.4c0,2.1-.3,4.5-.9,7.1-1.6.2-3,0-4.7,0,1.6-2.3,3.5-4.6,5.6-7.1Z"/>
  <path class="cls-8" d="M267.6,192.7c.1-1.7.7-3.4,1.6-6.2,1.8,2.2,2.7,3.4,3.8,4.9-1.6.7-3.3,1-5.4,1.3Z"/>
  <path class="cls-3" d="M202.5,298.5c-.6-1.1-.9-2.5-1.2-4.3.8-.5,1.5-.6,2.7-.6-.2,1.6-.7,3.1-1.5,4.9Z"/>
  <path class="cls-8" d="M312.4,97.4c-.6-.3-1.3-.9-1.9-1.8.6.2,1.2.9,1.9,1.8Z"/>
  <path class="cls-3" d="M200.3,303.5c-.1-.4,0-1.1.4-1.7.1.5,0,1-.4,1.7Z"/>
  <path class="cls-8" d="M310.1,93.4c-.3-.1-.5-.5-.9-1.1.3.1.6.5.9,1.1Z"/>
  <path class="cls-3" d="M201.4,301.3c-.1,0,0-.2,0-.2s0,.3,0,.2Z"/>
  <path class="cls-8" d="M277.7,185.2c.3.7.3,1.4.3,2-.5-.1-1.1-.3-1.6-.4.3-.6.7-1.2,1.3-1.6Z"/>
</svg>