<?xml version="1.0" encoding="UTF-8"?>
<svg id="trackm" data-name="trackm" xmlns="http://www.w3.org/2000/svg" viewBox="0 0 490.804 309.132">
  <g>
    <path d="M490.678,145.199c-.686-7.724-1.149-11.694-1.878-16.094-.469-2.763-1.646-8.667-1.989-9.795-.132-.43-.421-1.637-.684-2.684-.236-1.02-.578-2.362-.763-2.953s-.607-1.987-.923-3.087-.738-2.497-.923-3.087c-.713-2.121-2.062-5.935-2.38-6.714-.186-.43-.556-1.397-.794-2.148-.265-.725-.583-1.45-.662-1.612-.107-.135-.292-.564-.398-.94-.554-1.879-5.835-12.709-8.307-17.09-9.834-17.312-24.255-34.004-39.238-45.47-.962-.729-1.789-1.403-1.869-1.484-.16-.162-1.175-.89-4.809-3.428-1.55-1.08-2.939-2.079-3.072-2.186-.16-.135-2.566-1.621-5.345-3.297-4.784-2.892-11.95-6.734-15-8.062-.749-.325-2.14-.922-3.076-1.355s-2.3-1.03-3.05-1.302c-.722-.272-1.632-.651-2.006-.841s-.856-.353-1.071-.354c-.241-.001-.536-.11-.669-.245-.374-.324-8.751-3.153-12.579-4.217-.883-.246-1.981-.573-2.436-.709-.428-.163-1.339-.382-2.008-.519-.643-.137-2.008-.466-3.053-.685-4.713-1.122-7.766-1.7-12.588-2.367-12.43-1.75-7.444-1.645-112.582-2.16-99.615-.488-99.776-.488-108.842.566-5.016.565-12.045,1.684-14.756,2.314-.59.131-2.147.499-3.489.787-3.703.813-6.978,1.735-11.946,3.346-4.914,1.584-9.425,3.224-12.488,4.577-.296.133-1.128.504-1.881.822-3.546,1.511-7.442,3.395-10.748,5.148-4.516,2.417-5.214,2.816-7.796,4.412-2.259,1.383-9.601,6.333-11.027,7.372-1.964,1.465-6.674,5.168-6.862,5.382-.081.08-.485.427-.888.746-3.632,2.743-12.872,11.84-17.725,17.445-6.713,7.741-13.3,17.092-17.897,25.326-2.137,3.877-6.198,12.14-7.501,15.351-.325.749-.678,1.605-.814,1.899-.894,1.953-2.77,7.278-4.729,13.247-.735,2.275-1.772,6.103-2.184,8.112-.219.991-.438,1.901-.519,2.035-.081.107-.272.857-.41,1.66-.165.803-.468,2.41-.715,3.589-.495,2.491-1.131,6.536-1.522,9.777-.167,1.259-.419,3.376-.586,4.688-.473,3.563-.719,21.014-.392,25.358.505,6.275,1.225,12.606,1.825,15.933,1.044,5.742,2.881,13.82,3.806,16.639.185.591.792,2.524,1.319,4.296.554,1.772,1.11,3.33,1.216,3.464.133.161.239.43.238.618-.002.402,1.956,5.586,3.149,8.406,1.882,4.352,2.386,5.454,4.058,8.84,1.354,2.741,1.724,3.708,1.509,3.975-.243.267-2.093.338-8.982.305l-8.685-.043-.144,40.425-.117,40.399,168.75.906c112.348.604,170.546.808,174.113.638,7.937-.363,12.094-.772,17.433-1.684,1.181-.209,2.871-.495,3.756-.625,4.802-.727,9.875-1.909,16.908-3.992,1.476-.422,2.926-.87,3.222-1.003s.833-.318,1.208-.396c2.013-.499,10.259-3.676,14.235-5.48,2.176-.981,8.706-4.193,9.808-4.804.591-.346,1.935-1.063,2.957-1.621,1.048-.558,3.038-1.728,4.436-2.605,1.398-.905,3.173-1.968,3.899-2.42.753-.452,1.479-.931,1.614-1.038.431-.346,3.389-2.396,4.6-3.221,1.829-1.224,8.423-6.5,11.546-9.246,7.189-6.318,14.168-13.71,19.537-20.68,1.268-1.602,2.347-2.991,2.428-3.071s.513-.668.945-1.309c.459-.641,1.512-2.137,2.349-3.339.864-1.175,2.133-3.099,2.836-4.249s1.486-2.379,1.702-2.726c1.972-3.046,8.006-14.41,9.172-17.246.353-.883.922-2.221,1.763-4.147.217-.428.597-1.391.842-2.14.272-.722.597-1.445.705-1.605.108-.134.298-.696.462-1.204s.707-2.141,1.224-3.613c1.115-3.158,1.85-5.513,2.505-7.896.246-.964.573-2.035.709-2.409s.354-1.205.519-1.874c.137-.67.631-2.892,1.097-4.954,1.37-6.132,2.504-13.177,3.07-19.286.395-4.046.612-20.88.332-23.991ZM489.258,166.906c-.818,8.333-1.292,12.084-2.089,16.074-.247,1.259-.577,2.892-.715,3.616-.248,1.42-.741,3.455-1.669,6.962-.301,1.178-.683,2.704-.874,3.4-.164.669-.382,1.339-.516,1.445-.108.107-.19.401-.191.669-.003.536-2.533,8.191-3.156,9.528-.217.455-.38.99-.381,1.204s-.11.482-.218.642c-.135.133-.46.856-.732,1.578-.408,1.178-.842,2.194-1.763,4.281-3.687,8.426-8.664,17.383-13.848,24.971-1.323,1.924-7.313,9.91-8.311,11.084-15.018,17.566-30.412,29.822-49.384,39.3-6.396,3.212-8.089,3.982-12.628,5.702-1.773.688-3.465,1.35-3.76,1.483-.591.292-7.572,2.59-8.861,2.905-.43.132-1.476.422-2.282.659s-2.147.579-2.953.79c-9.287,2.26-12.801,2.859-23.477,4.094l-5.096.592-99.454-.487c-54.713-.268-101.732-.525-104.547-.592-2.788-.04-35.6-.174-72.889-.276-49.888-.137-67.876-.279-68.143-.494s-.293-.43-.076-.805c.244-.481.619-.506,4.935-.485,4.182.02,4.691-.031,4.908-.432.298-.588.458-5.869.221-6.862l-.184-.725-4.745-.023c-4.986-.024-5.629-.162-5.088-1.151.243-.428.673-.479,4.881-.459,3.244.016,4.745-.084,4.961-.297.404-.4.487-6.458.089-7.211-.266-.484-.614-.512-4.93-.533-3.646-.018-4.718-.104-4.957-.4s-.212-.484.111-.804c.377-.347,1.182-.423,5.095-.404,4.209.021,4.638-.031,4.747-.459.109-.375.11-6.112.008-7.077-.026-.134-2.117-.225-4.69-.237-3.941-.019-4.744-.104-5.118-.454-.32-.323-.346-.511-.103-.805s1.315-.369,4.961-.351c4.37.021,4.665-.004,4.935-.512.379-.668.354-6.7-.019-7.158-.213-.269-1.526-.356-4.904-.373-3.78-.019-4.691-.103-4.957-.426s-.266-.484.004-.804,1.289-.396,5.203-.43l4.852-.057.044-3.485c.036-1.903-.036-3.7-.195-3.942-.212-.43-.721-.486-4.903-.507-4.316-.021-4.691-.05-4.93-.533-.505-.941.193-1.071,5.233-1.127l4.799-.057.018-3.753.018-3.753-4.718-.104c-4.289-.075-4.771-.131-5.198-.615-.373-.431-.399-.592-.129-.939.27-.32,1.262-.396,5.203-.43l4.852-.057.018-3.753.018-3.753-4.932-.158c-4.771-.157-4.932-.185-5.143-.749-.132-.403-.104-.671.111-.804.188-.106,2.494-.256,5.149-.323l4.826-.11.045-3.672.018-3.753c-.027-.027-2.251-.118-4.985-.212l-4.959-.185-.077-.724-.077-.751,9.382.046c8.846.043,9.409.019,9.412-.436.001-.268-.184-.725-.397-1.021-.399-.592-4.01-7.847-4.725-9.513-.212-.51-.769-1.773-1.22-2.767-.451-1.021-.822-1.907-.821-1.961,0-.08-.211-.644-.503-1.262-1.166-2.686-4.602-12.676-5.313-15.44-.131-.537-.421-1.718-.657-2.604-1.816-6.818-3.306-14.653-3.789-19.99-.153-1.556-.359-3.299-.517-3.89-.525-2.335-.778-16.276-.42-23.673.18-3.913.384-7.209.465-7.316.054-.134.304-1.821.528-3.777.727-6.216,2.294-14.063,4.122-20.702.246-.883.546-2.035.683-2.57.983-3.721,5.928-17.155,7.064-19.187.135-.241.514-1.043.84-1.792,4.392-10.085,12.417-22.913,20.75-33.14,5.556-6.809,13.368-14.598,21.578-21.501.996-.853,4.736-3.73,6.028-4.635.619-.453,2.206-1.598,3.524-2.529,1.318-.959,2.959-2.077,3.658-2.529,2.151-1.357,7.878-4.814,8.308-4.999.215-.106,1.505-.797,2.822-1.514,2.903-1.594,9.728-4.912,12.629-6.104.296-.133.967-.397,1.478-.636.51-.212,1.612-.635,2.417-.953.806-.291,1.719-.635,2.014-.768s1.316-.503,2.283-.82,1.987-.687,2.283-.793c.296-.133,1.396-.503,2.417-.792,1.047-.317,2.121-.687,2.417-.819s1.02-.344,1.611-.475c.591-.158,2.469-.631,4.16-1.079,3.141-.842,4.268-1.105,8.991-2.047,6.199-1.256,10.732-1.851,20.44-2.634,4.398-.354,197.623.592,201.776.988,10.37.989,15.781,1.739,21.19,2.945,1.044.22,2.464.521,3.16.686.723.164,2.222.52,3.347.821,1.124.327,2.677.737,3.4.928,1.928.519,5.996,1.772,6.826,2.124.214.081,1.311.462,2.435.843,1.847.599,4.817,1.712,6.262,2.336.294.135,2.033.868,3.879,1.654,12.734,5.451,27.38,14.53,37.417,23.211,5.312,4.583,6.14,5.365,10.674,9.944,6.616,6.681,13.304,14.89,18.12,22.232,1.064,1.64,2.155,3.281,2.395,3.658,2.502,3.631,7.788,13.576,10.227,19.191.371.886.795,1.854.928,2.149.371.833,1.192,2.847,1.695,4.163.265.671.583,1.424.716,1.666.133.269.238.618.237.779s.158.671.37,1.128c.61,1.317,3.066,9.022,3.063,9.532-.001.268.104.59.238.725.133.161.345.806.502,1.477.131.671.526,2.174.841,3.355.658,2.55.973,3.919,1.443,6.441.183,1.046.549,2.898.784,4.159s.572,3.541.779,5.097c.18,1.556.414,3.004.494,3.219.185.537.687,7.429.905,12.336.192,4.665.013,13.806-.355,17.691ZM10.255,244.288c-.651,1.525-2.152,1.518-3.324.011-.719-.915-1.122-.863-1.127.155-.003.643-.111.804-.459.722-.937-.165-.946-3.999-.033-4.182.268-.052.962.541,1.709,1.429.693.808,1.44,1.481,1.628,1.482.509.002.593-.587.222-1.527-.318-.699-.291-.886.059-1.179.458-.373.698-.211,1.282.971.504.994.504,1.021.043,2.118ZM10.02,254.071c-.486.802-.648.881-1.532.77-.536-.083-1.287-.033-1.663.099-1.531.555-2.621-1.166-2.075-3.281.246-.937.381-1.07,1.051-1.067.858.004.963.38.37,1.181-.486.641-.545,1.767-.089,1.769.161,0,.618-.265.968-.585l.646-.613.399.619c.24.323.506.592.614.593.402.002.433-.909.089-1.769-.344-.913-.235-1.181.461-1.177.429.002,1.28,1.4,1.303,2.151.026.215-.218.803-.543,1.311ZM10.246,273.642c-.351.561-1.073.156-1.257-.703-.314-1.476-.448-1.557-.668-.379-.275,1.366-.571,1.632-1.858,1.626-1.18-.006-1.447-.195-1.817-1.296-.555-1.638.688-3.723,1.622-2.78.16.162.105.51-.192.937-.54.828-.33,1.794.42,1.798.536.003.59-.104.625-1.739l.032-1.072,1.421-.073c1.26-.074,1.421-.02,1.633.544.318.806.336,2.656.038,3.137ZM9.919,301.923c-.487.963-1.267,1.361-1.935.982-.241-.135-.75-.111-1.206.021-1.101.397-1.957-.09-2.299-1.271-.527-1.96.554-3.643,2.08-3.18.402.109,1.179.167,1.715.142.885-.049,1.072.032,1.551.839.638,1.075.664,1.29.095,2.467ZM9.82,234.635c-.966.237-4.317.167-4.771-.131-.321-.189-.32-.35-.104-.724.216-.347.726-.506,1.906-.554,1.367-.047,1.663-.153,1.772-.581.191-.723,1.102-.665,1.474.088.478.994.367,1.717-.277,1.902ZM9.732,263.48c-.617-.003-1.819-.706-2.326-1.352-.24-.296-.374-.324-.616-.083-.242.213-.189.374.238.591.749.406.72.861-.142,1.661-.619.587-.727.613-1.395.208-.855-.487-1.04-1.185-.501-1.799.242-.24.46-.936.517-1.526.057-.777.22-1.098.569-1.15.51-.105,3.797,1.922,4.036,2.459.265.671.129.993-.38.99ZM9.746,282.513c-.214-.001-.643-.11-.91-.273-.401-.216-.616-.083-1.183.664-1.538,1.976-3.782.384-3.072-2.133.273-.991.892-1.497,1.803-1.492.858.004,3.796,2.083,3.793,2.699-.001.295-.19.535-.432.534ZM9.505,293.449c-.483.105-4.441-1.764-4.788-2.248-.107-.135-.212-.484-.211-.725.003-.697.78-.586,2.465.307,1.738.947,2.382.735,1.638-.555-.558-.941-.181-1.448.864-1.175.669.164.696.218.606,2.255-.089,1.715-.171,2.063-.573,2.142Z" style="fill: #ae423c; stroke-width: 0px;"/>
    <path d="M487.782,145.319c-.377-5.042-.812-9.413-.943-9.923-.079-.295-.313-1.69-.494-3.085-.673-4.99-2.376-13.04-3.905-18.248-.264-.806-.58-2.013-.737-2.684s-.369-1.315-.475-1.477c-.107-.135-.265-.618-.37-1.074-.21-.886-1.611-4.887-2.168-6.23-.212-.457-.371-.94-.37-1.074.001-.214-1.27-3.438-1.986-5.05-.186-.43-.557-1.289-.822-1.881-.901-2.149-4.219-8.921-5.521-11.286-.717-1.317-1.514-2.769-1.754-3.226-.239-.43-.611-1.102-.824-1.478-.239-.376-1.144-1.829-1.995-3.227s-1.622-2.608-1.703-2.689-.453-.619-.798-1.21-.745-1.183-.851-1.345c-.266-.323-2.556-3.605-3.142-4.439-.213-.35-.532-.753-.666-.915-.16-.162-.879-1.077-1.598-2.045-1.039-1.399-4.343-5.463-5.863-7.186-3.012-3.473-9.681-10.207-13.551-13.685-3.603-3.235-11.188-9.169-14.875-11.6-1.095-.756-2.057-1.404-2.137-1.512-.187-.189-8.553-5.269-10.558-6.378-3.101-1.731-12.542-6.308-12.971-6.31-.161,0-.482-.11-.749-.272-1.23-.703-7.33-3.038-10.623-4.073-1.017-.327-2.114-.707-2.409-.816-1.15-.488-6.933-2.125-10.173-2.865-7.283-1.698-11.14-2.387-17.678-3.143-1.474-.168-3.885-.475-5.358-.67-4.072-.502-202.123-1.472-206.682-.985-9.227.974-14.753,1.778-19.181,2.748-5.636,1.259-7.89,1.784-9.877,2.364-4.242,1.266-6.282,1.899-6.766,2.085-.215.079-1.235.423-2.282.739-1.02.344-2.175.767-2.551.953s-.833.344-1.02.344-.537.105-.806.264c-.484.239-1.343.61-3.814,1.563-2.149.847-2.068.821-7.926,3.634-2.956,1.406-5.804,2.84-6.315,3.159s-1.774,1.037-2.823,1.595c-1.021.531-2.715,1.542-3.764,2.207-5.002,3.192-7.907,5.189-8.338,5.642-.485.507-.405.668,1.113,2.659.186.242.852,1.184,1.518,2.125.666.915,1.332,1.669,1.493,1.669.134,0,1.371-.771,2.743-1.702,5.971-4.072,15.003-9.095,21.585-12.011,1.048-.477,2.579-1.167,3.439-1.538s1.692-.689,1.88-.688c.161,0,.617-.158.994-.344s1.451-.636,2.417-.98,1.88-.715,2.014-.794c.161-.106.698-.291,1.208-.396s1.101-.289,1.342-.422c.215-.106,1.853-.634,3.625-1.162s3.517-1.082,3.893-1.214,1.208-.343,1.879-.473c1.127-.236,2.442-.551,6.575-1.496.886-.21,2.71-.523,4.025-.731,1.341-.208,2.603-.443,2.817-.522.403-.159,1.476-.288,8.718-1.11,3.433-.385,12.602-.394,104.014-.027,88.812.327,100.741.439,104.546.807,4.823.506,8.091.924,10.448,1.338.884.138,2.571.442,3.75.635,1.178.22,2.919.577,3.883.796s2.517.602,3.481.821,2.463.602,3.347.847,2.222.601,2.945.819c3.025.819,12.258,4.081,14.986,5.301,11.502,5.123,19.122,9.369,27.643,15.469,3.179,2.267,8.867,6.772,11.776,9.333,3.604,3.154,13.152,13.066,15.87,16.484,1.465,1.857,2.744,3.418,2.824,3.499.16.162,2.61,3.444,3.169,4.305.213.323.586.861.825,1.184,3.356,4.52,8.167,12.774,11.432,19.518,1.937,4.057,1.99,4.111,2.891,6.314.318.752.662,1.585.795,1.88.981,2.23,1.325,3.089,1.324,3.304,0,.134.185.617.397,1.021.212.43.397.994.396,1.235s.131.537.265.618c.16.081.266.35.265.591-.001.214.157.778.369,1.235.371.86,1.111,3.142,1.505,4.618.105.456.395,1.476.632,2.282,1.767,6.04,3.156,12.454,3.932,18.114,1.345,10.033,1.52,12.527,1.474,21.989-.04,8.203-.272,11.714-1.022,17.152-.166,1.045-.444,3.134-.666,4.688-.5,3.483-.912,5.598-2.062,10.579-.301,1.339-.739,3.079-.984,3.882-.218.803-.6,2.142-.819,2.945-.245.803-.545,1.74-.68,2.088s-.246.991-.248,1.473c-.004.831.049.885,2.084,1.485,1.124.354,2.329.762,2.649.924s1.017.3,1.58.329c.965.032,1.019-.022,1.346-1.173.191-.669.545-1.874.791-2.677,2.18-7.201,4.02-16.226,4.806-23.433.167-1.313.418-3.322.585-4.42.36-2.331.638-20.719.387-24.259Z" style="fill: #ae423c; stroke-width: 0px;"/>
    <path d="M478.707,202.831c-2.248-.815-5.62-1.958-5.808-1.959s-.486.668-1.437,3.344c-.354,1.044-.842,2.248-1.059,2.729-.19.455-.38.963-.381,1.124s-.11.509-.272.776c-.135.241-.515,1.07-.813,1.792-.325.749-.678,1.578-.813,1.873s-.515,1.15-.84,1.872c-2.657,6.072-7.741,15.108-11.791,20.986-2.781,4.061-3.51,5.049-5.695,7.854-4.316,5.528-6.095,7.476-12.183,13.505-6.708,6.642-9.669,9.228-15.669,13.622-1.372,1.012-2.61,1.917-2.771,2.051-.834.666-7.826,5.189-8.928,5.774-.699.372-2.016,1.116-2.903,1.648-3.307,1.941-6.559,3.614-11.287,5.762-2.257,1.061-2.418,1.114-4.567,2.015-.725.318-1.719.742-2.203.954-.457.212-.967.371-1.128.37s-.725.184-1.289.423c-1.719.742-1.988.821-5.72,2.063-4.028,1.321-5.101,1.61-7.249,2.136-.805.184-2.389.578-3.489.868-4.59,1.157-6.495,1.523-11.673,2.302-7.136,1.064-13.599,1.622-18.666,1.624-2.359-.012-2.896.066-3.031.414-.244.615-.221,6.888.018,7.265.372.592,12.198-.021,19.092-.952,7.136-.957,10.946-1.662,16.099-2.95.805-.184,2.201-.525,3.086-.736.886-.237,2.282-.605,3.087-.843s1.96-.553,2.55-.685c.564-.158,1.181-.37,1.343-.476.135-.107.752-.345,1.343-.503,1.342-.342,4.833-1.531,5.961-2.062.457-.185.967-.371,1.128-.37s.51-.105.779-.264c.242-.133.887-.398,1.397-.61s1.558-.636,2.31-.927c2.794-1.139,9.323-4.217,12.065-5.705,3.118-1.7,3.521-1.913,6.317-3.534,2.662-1.569,6.023-3.67,7.045-4.416.269-.186,1.264-.878,2.259-1.544.968-.665,2.394-1.677,3.174-2.263.753-.586,1.695-1.278,2.072-1.518s.861-.612,1.076-.799c.216-.213,1.05-.88,1.857-1.519,5.463-4.262,14.728-13.064,18.853-17.896.809-.961,1.537-1.789,1.618-1.869.323-.293,3.775-4.512,4.989-6.141.729-.962,1.403-1.789,1.484-1.869.377-.347,7.559-10.901,7.561-11.142,0-.08.811-1.444,1.784-3.047,1.784-2.967,6.195-11.417,7.361-14.145,1.302-3.077,1.763-4.173,2.143-5.083.217-.508.488-1.15.623-1.391.162-.267.271-.615.272-.776s.164-.669.381-1.124c.217-.481.678-1.686,1.059-2.729.38-1.017.761-2.06.869-2.301.136-.348-.185-.564-1.389-.999Z" style="fill: #ae423c; stroke-width: 0px;"/>
    <path d="M478.107,144.736c-.225-3.379-.711-8.099-.921-8.985-.079-.376-.313-1.744-.494-3.085-.441-2.924-1.016-6.117-1.594-8.452-.21-.966-.498-2.227-.603-2.818s-.341-1.503-.499-2.013-.475-1.53-.659-2.282c-1.265-4.483-1.555-5.423-1.741-5.772-.133-.242-.318-.806-.422-1.316-.105-.483-.343-1.181-.555-1.584s-.371-.94-.37-1.181-.105-.537-.265-.618c-.134-.081-.266-.377-.265-.618s-.184-.805-.396-1.235c-.212-.403-.398-.887-.397-1.021,0-.161-.158-.644-.37-1.101-.212-.484-.742-1.693-1.193-2.687-.451-1.021-.822-1.934-.821-2.015.001-.214-4.485-9.217-5.707-11.475-1.381-2.58-5.078-8.55-7.181-11.616-1.144-1.694-4.926-6.86-5.166-7.076-.107-.081-.88-1.05-1.759-2.153-3.543-4.521-10.424-11.793-14.668-15.513-1.175-1.024-2.269-1.968-2.429-2.13-1.441-1.347-7.503-6.202-9.319-7.471-4.702-3.294-9.646-6.535-11.891-7.806-1.39-.784-3.368-1.893-4.411-2.488-1.016-.568-3.021-1.596-4.412-2.273-1.391-.65-2.888-1.381-3.343-1.625-.428-.217-1.819-.813-3.076-1.329s-2.622-1.112-3.077-1.302c-.428-.217-1.873-.76-3.211-1.249-1.311-.462-2.596-.951-2.809-1.086-.241-.108-.83-.299-1.338-.409s-1.044-.3-1.204-.408c-.134-.108-.696-.298-1.204-.408s-1.098-.3-1.338-.435c-.214-.108-.937-.353-1.606-.517s-1.874-.492-2.677-.71c-8.888-2.483-18.691-4.166-27.99-4.802-4.743-.318-195.448-1.252-200.516-.981-7.964.444-18.132,1.949-25.218,3.764-.886.237-2.147.526-2.818.683-.671.131-1.423.368-1.665.501-.269.16-.671.265-.886.264-.509-.002-8.188,2.48-9.451,3.063-.457.212-.967.371-1.128.37s-.51.105-.779.237c-.403.212-1.746.769-4.352,1.802-1.585.636-1.88.768-6.717,3.104-6.825,3.291-9.675,4.885-9.677,5.368-.003.536,3.508,6.344,3.936,6.507.214.055.456.029.564-.131.324-.481,12.498-6.721,13.115-6.718.08,0,.645-.238,1.262-.503,1.558-.716,2.767-1.22,4.325-1.748.752-.264,1.477-.556,1.612-.662.161-.106,1.182-.477,2.283-.793,1.101-.343,2.148-.713,2.283-.82.161-.106.698-.265,1.208-.369s1.074-.29,1.208-.396c.161-.106.806-.345,1.477-.502s2.603-.631,4.295-1.105c6.066-1.606,13.606-2.936,19.05-3.392,1.689-.126,3.567-.385,4.158-.543,1.45-.422,190.387.289,198.507.757,10.613.588,18.114,1.67,27.19,3.993.884.219,2.222.547,2.945.738.75.165,1.446.409,1.606.544.133.135.455.243.696.245.429.002,5.648,1.663,6.799,2.151.294.135,1.258.489,2.14.842,2.141.788,2.81,1.059,3.692,1.519.428.217.883.38,1.017.38.375.002,3.558,1.492,8.934,4.118,4.439,2.193,15.397,8.976,17.854,11.025.16.135,1.416,1.079,2.724,2.078,1.335.998,2.537,1.916,2.697,2.077s.827.728,1.468,1.24c4.726,3.857,12.463,11.561,16.62,16.568.853,1.05,1.785,2.18,2.079,2.503,2.212,2.665,6.498,8.771,9.291,13.235.798,1.264,1.596,2.528,1.782,2.824.159.296.425.78.558,1.102.133.296.717,1.344,1.276,2.285.931,1.559,3.638,7.015,4.672,9.379.212.51.822,1.881,1.352,3.036.53,1.182.954,2.257.953,2.444s.105.429.239.564c.133.161.477,1.048.794,2.014s.687,1.987.82,2.283c.318.672,1.612,4.753,2.35,7.384.316,1.101.685,2.389.817,2.819.132.456.473,1.906.788,3.221.288,1.342.656,2.898.787,3.489.158.591.393,1.798.523,2.683.157.885.442,2.71.65,4.024,1.927,11.644,2.155,25.237.65,36.998-.808,6.269-2.074,12.965-3.33,17.677-.246.883-.573,2.142-.738,2.811s-.382,1.339-.49,1.472c-.108.16-.298.696-.408,1.204-.247,1.205-1.662,5.514-2.177,6.611-.217.455-.407.936-.407,1.097-.001.241-1.195,3.157-2.062,5.057-.217.455-.38.883-.38.963-.001.214-1.951,4.333-3.44,7.328-.677,1.364-1.166,2.621-1.086,2.809.053.188.587.593,1.148.89.588.298,2.005,1.055,3.182,1.704,2.005,1.109,2.139,1.136,2.49.682s4.114-7.995,4.115-8.237c0-.054.353-.856.786-1.792s1.003-2.274,1.248-3.023c.272-.722.597-1.445.705-1.605.081-.134.461-1.097.788-2.141.353-1.017.733-1.98.842-2.14.081-.134.271-.696.381-1.204s.3-1.098.435-1.338c.108-.214.489-1.311.789-2.409.327-1.098.708-2.302.844-2.677.109-.375.381-1.204.545-1.874s.465-1.928.711-2.811c1.312-5.194,2.413-10.979,3.109-16.203.167-1.259.445-3.188.584-4.286.36-2.438.64-21.309.364-25.063Z" style="fill: #ae423c; stroke-width: 0px;"/>
    <path d="M468.434,143.884c-.38-4.452-.768-7.483-1.551-11.669-.157-.805-.391-2.254-.52-3.219-.156-.966-.366-1.986-.498-2.281s-.37-1.128-.5-1.879c-.13-.724-.446-2.066-.683-2.952s-.526-2.094-.684-2.684c-.131-.59-.342-1.315-.475-1.611s-.687-1.987-1.242-3.759c-.527-1.772-1.082-3.41-1.189-3.625s-.397-.994-.635-1.746c-.265-.725-.688-1.88-.979-2.552-.716-1.639-1.272-2.982-1.537-3.627-1.854-4.513-8.257-16.313-10.866-20.052-.373-.538-.878-1.264-1.091-1.587-1.33-2.044-6.551-8.905-8.604-11.301-2.799-3.257-10.454-11.069-12.964-13.226-.961-.809-1.922-1.645-2.162-1.86-1.121-1.078-6.409-5.152-9.107-7.041-1.683-1.161-3.152-2.214-3.313-2.322-.374-.35-7.189-4.458-9.088-5.513-6.149-3.408-17.384-8.369-21.534-9.515-.509-.137-1.178-.354-1.472-.49-.481-.217-2.918-.926-5.488-1.635-.509-.137-1.419-.409-2.008-.573-1.606-.437-7.498-1.699-10.846-2.305-2.303-.413-7.045-1.026-11.922-1.533-3.617-.366-199.094-1.323-202.393-.991-14.456,1.457-21.487,2.87-31.664,6.306-1.772.581-3.652,1.188-4.162,1.347-.51.132-1.047.37-1.209.503-.135.133-.403.239-.618.238-.295-.001-1.074.29-3.411,1.324-.296.133-1.128.504-1.88.795-2.821,1.193-3.331,1.458-3.359,1.699,0,.134.715,1.746,1.591,3.573,1.805,3.762,1.484,3.573,4.278,2.326.806-.371,2.686-1.14,4.164-1.722s2.928-1.165,3.223-1.271c1.612-.689,8.888-2.959,11.545-3.616,6.683-1.603,11.218-2.438,16.099-2.95,1.341-.154,3.621-.411,5.096-.592,3.916-.463,199.741.495,203.063.994,1.259.194,3.429.473,4.822.64,3.162.337,7.046.973,9.509,1.521,1.044.22,2.544.522,3.348.687s1.66.383,1.874.465c.214.108,1.017.327,1.74.518.75.165,2.008.519,2.811.791.803.245,1.954.573,2.543.709.562.164,1.178.381,1.338.489.133.135.695.325,1.204.435s1.098.3,1.338.409c.214.135,1.498.624,2.809,1.086,1.338.489,2.89,1.086,3.478,1.357.589.244,1.739.759,2.541,1.112,4.28,1.871,14.574,7.417,16.176,8.684.16.135,1.603,1.107,3.26,2.214,2.725,1.836,7.747,5.56,8.654,6.423.214.189.988.836,1.709,1.429,2.136,1.699,3.47,2.966,7.872,7.411,5.495,5.549,7.548,7.918,12.155,14.134,5.327,7.13,10.589,16.378,13.928,24.41.769,1.8,1.537,3.653,1.749,4.137.212.457.37.994.369,1.208s.105.483.238.618c.133.161.583,1.37,1.032,2.686.687,2.094,1.029,3.276,2.19,7.249.105.456.395,1.423.606,2.148.211.752.526,2.013.683,2.818s.471,2.335.681,3.354c1.046,5.313,1.512,8.693,2.176,15.559.305,3.379.246,15.469-.093,19.033-.933,9.78-2.446,17.708-4.789,25.524-1.526,4.979-1.907,6.13-2.149,6.37-.108.107-.189.374-.191.616s-.191.776-.408,1.204c-.216.401-.406.883-.407,1.017,0,.161-.191.642-.381,1.097-.217.481-.84,1.926-1.383,3.237s-1.085,2.568-1.22,2.809c-.108.241-1.164,2.3-2.301,4.573-3.194,6.365-7.004,12.458-11.375,18.227l-1.97,2.591,2.804,2.239c1.522,1.241,2.991,2.266,3.259,2.321.75.111,5.393-6.327,9.96-13.838,2.135-3.555,6.167-11.175,7.387-14.038,1.03-2.354,1.383-3.21,2.17-5.217.489-1.258.977-2.515,1.113-2.809s.489-1.311.789-2.275c.326-.963.68-1.98.815-2.275s.326-.963.436-1.472c.083-.509.273-1.098.409-1.338.108-.214.353-.937.517-1.606s.492-1.874.71-2.677c1.746-6.291,3.318-15.157,3.968-22.097.284-3.162.367-20.211.087-23.322Z" style="fill: #ae423c; stroke-width: 0px;"/>
    <path d="M460.378,223.249c-.134-.081-1.283-.703-2.62-1.434-1.31-.703-2.647-1.434-2.914-1.623-.721-.486-1.232-.14-2.044,1.411-.379.695-.757,1.337-.838,1.417-.108.08-.459.668-.811,1.31-.866,1.577-1.244,2.219-1.595,2.7-.135.214-.864,1.309-1.62,2.405q-1.755,2.645-3.752,5.316c-3.67,4.888-6.124,7.798-9.627,11.507-.916.961-2.021,2.135-2.425,2.615-1.213,1.388-8.08,7.627-10.475,9.519-.727.586-1.4,1.146-1.48,1.226-.917,1.041-10.762,7.882-14.795,10.275-3.898,2.313-12.445,6.695-15.722,8.046-.296.133-1.128.477-1.88.795-.725.291-1.558.663-1.8.795-.269.16-.618.265-.806.264s-.698.184-1.101.397-1.128.504-1.612.635-2.282.739-4.028,1.321c-1.719.608-3.356,1.083-3.624,1.081s-.59.104-.725.238c-.161.133-.806.371-1.477.502-.671.158-1.932.473-2.818.71-8.563,2.29-21.091,4.025-29.133,4.013-2.842-.014-3.432.064-3.567.411-.244.615-.221,6.888.018,7.265.16.269,1.607.303,6.782.114,3.593-.143,6.784-.315,7.079-.367.295-.079,1.932-.312,3.622-.518,5.633-.723,12.529-1.976,16.636-3.082.805-.237,2.174-.606,3.033-.816.832-.237,2.174-.579,2.953-.79,1.691-.447,9.586-3.143,10.929-3.753,1.827-.795,2.015-.875,3.68-1.564,8.81-3.549,18.756-9.13,27.903-15.653,1.776-1.278,7.104-5.407,7.4-5.754.081-.08.727-.64,1.453-1.199,2.987-2.371,10.314-9.493,13.602-13.203,6.551-7.42,10.356-12.549,15.597-20.968,2.54-4.116,3.082-5.266,2.601-5.563Z" style="fill: #ae423c; stroke-width: 0px;"/>
    <path d="M459.062,147.082c-.123-2.199-.325-4.72-.482-5.632-.156-.912-.389-2.602-.544-3.783-.283-2.36-.805-5.419-1.434-8.317-.236-1.02-.55-2.549-.707-3.354-.13-.805-.368-1.583-.501-1.745-.133-.135-.239-.457-.238-.725.001-.241-.156-.993-.367-1.61-.211-.644-.633-2.067-.95-3.168-.316-1.101-.659-2.255-.792-2.551-.106-.295-.476-1.316-.82-2.283-.317-.967-.688-1.853-.821-2.015-.107-.135-.212-.43-.211-.671-.026-.215-.237-.886-.529-1.477s-.504-1.155-.53-1.263c-.024-.483-4.217-9.269-5.944-12.468-.983-1.855-3.615-6.291-3.935-6.694-.133-.135-.852-1.237-1.623-2.421-.745-1.183-1.437-2.205-1.517-2.286-.107-.081-.56-.7-1.012-1.399-.479-.673-1.012-1.399-1.172-1.614-.187-.189-.773-.915-1.306-1.615-3.809-5.032-10.262-12.006-14.907-16.077-3.283-2.884-4.004-3.478-7.609-6.31-.134-.108-.534-.405-.855-.674-2.297-1.807-11.462-7.884-11.918-7.886-.107,0-.642-.298-1.203-.649-1.123-.702-6.497-3.49-9.145-4.709-1.444-.677-3.451-1.518-7.089-3.064-.883-.353-7.654-2.611-9.367-3.102-.883-.246-2.142-.627-2.811-.818-.669-.191-2.41-.602-3.883-.93s-3.106-.712-3.615-.849c-1.874-.519-8.866-1.464-14.333-1.947-5.225-.455-202.258-1.231-204.807-.788-1.019.156-2.79.415-3.89.544-3.943.49-7.807,1.195-11.94,2.22-.886.21-2.335.552-3.221.762-2.738.684-5.315,1.448-6.712,2.058-.295.106-1.047.343-1.638.501-1.959.473-1.959.5-.264,4.69.185.457.503,1.262.688,1.853.212.564.531,1.102.718,1.156.268.109,4.643-1.103,7.302-2.055.376-.132,1.208-.343,1.879-.5s1.932-.473,2.818-.683c4.321-1.051,7.729-1.678,12.074-2.193,1.18-.155,2.924-.415,3.89-.571,2.388-.417,191.941.296,199.847.764,9.541.556,17.148,1.853,25.982,4.47,1.928.546,3.854,1.198,4.818,1.578.294.109,1.311.489,2.275.815.963.326,1.98.707,2.275.815.562.244,2.782,1.193,3.745,1.627.776.325,5.724,2.682,6.82,3.25,4.065,2.057,13.018,7.623,14.593,9.052.16.135.588.459.908.675.855.567,4.567,3.561,6.676,5.367,4.138,3.559,7.446,6.899,12.005,12.042.906,1.023,4.104,5.033,5.755,7.239,1.145,1.507,4.898,7.128,4.897,7.316,0,.107.159.376.372.592.186.242.718,1.103,1.17,1.909.425.806,1.302,2.446,1.966,3.629,1.7,3.145,3.849,7.739,4.988,10.613.318.806.742,1.853.927,2.283.185.457.529,1.423.794,2.148.238.752.555,1.584.688,1.88.265.645.793,2.363,1.425,4.564.237.886.606,2.201.817,2.899.211.725.501,1.799.632,2.416.131.617.419,1.986.655,3.006.498,2.281,1.098,5.742,1.46,8.452.129,1.1.388,2.79.518,3.756.416,2.71.529,17.83.162,21.715-.507,5.011-1.368,11.199-1.943,13.528-.137.589-.465,1.981-.712,3.079-.247,1.098-.684,2.865-.984,3.882-.3,1.044-.736,2.543-.955,3.346s-.518,1.686-.68,1.927c-.135.267-.245.669-.246.91s-.165.803-.381,1.258c-.19.482-.651,1.632-.978,2.596-.353.963-.706,1.873-.814,2.007-.108.16-.406.883-.678,1.605-.516,1.391-2.332,5.377-3.604,7.891-1.326,2.594-2.895,5.481-3.057,5.615-.081.08-.459.641-.81,1.256-1.514,2.593-3.108,5.105-4.025,6.361-.54.748-1.457,2.003-2.051,2.832-2.7,3.847-7.902,9.773-12.455,14.281-2.101,2.054-3.826,3.949-3.827,4.19s.158.537.345.645c.187.108,1.147,1.212,2.16,2.423.986,1.211,2,2.262,2.213,2.37.562.19,9.29-8.399,12.741-12.564,1.402-1.682,2.778-3.337,3.047-3.631.243-.32.459-.641.459-.722s.378-.588.836-1.095c1.563-1.735,6.938-9.912,9.048-13.708,1.704-3.101,6.064-11.98,6.066-12.409,0-.08.19-.508.407-.963.569-1.23,2.035-5.083,2.037-5.352,0-.134.164-.616.381-1.07.217-.481.652-1.766.979-2.864.327-1.098.681-2.302.817-2.677.136-.375.327-1.098.437-1.606.083-.509.273-1.044.381-1.204.108-.134.326-.937.491-1.74s.494-2.303.74-3.347c1.014-4.526,1.512-7.686,2.35-14.599.365-3.322.612-15.572.367-20.211Z" style="fill: #ae423c; stroke-width: 0px;"/>
    <path d="M449.813,152.747c-.053-.054-.23-2.226-.379-4.8s-.401-5.605-.557-6.705c-.518-3.782-1.299-8.451-1.536-9.256-.132-.43-.315-1.288-.393-1.878-.182-1.127-.261-1.449-1.183-4.697-1.475-5.262-4.384-13.559-5.526-15.763-.133-.269-1.062-2.177-2.043-4.246-1.672-3.493-5.658-10.536-7.256-12.796-.373-.538-.878-1.264-1.091-1.587-.585-.888-4.447-6.08-5.14-6.915-3.731-4.495-8.478-9.478-12.455-13.143-2.696-2.453-8.277-6.876-11.35-8.902-.882-.594-1.656-1.161-1.736-1.242-.187-.215-5.693-3.513-7.618-4.595-2.246-1.217-5.294-2.76-7.488-3.763-1.016-.488-2.22-1.03-2.675-1.246-1.284-.596-7.197-2.823-7.492-2.825-.134,0-.589-.164-.963-.38-.374-.189-1.151-.435-1.74-.545-.562-.137-1.151-.301-1.311-.435-.134-.108-.803-.326-1.472-.49-.67-.137-2.142-.52-3.267-.82-4.926-1.338-11.649-2.523-18.026-3.171-2.706-.255-25.492-.446-100.793-.815-100.607-.492-100.178-.49-107.099.521-1.395.208-3.38.52-4.427.675-1.019.129-2.066.338-2.281.418-.215.106-1.181.343-2.147.526s-2.335.471-3.032.655c-1.476.368-1.449.234-.606,3.321.237.886.579,2.228.763,2.953q.342,1.342,1.388,1.294c.563-.024,1.904-.232,2.924-.441,5.421-1.18,9.901-1.855,15.023-2.232,3.888-.276,195.13.66,198.774.973,3.671.34,8.466.98,10.984,1.501,1.098.247,2.678.549,3.481.714s2.142.466,2.945.711,1.847.545,2.275.655c2.731.764,5.166,1.553,7.762,2.504,2.596.978,3.639,1.385,5.886,2.388,1.418.624,4.868,2.222,5.269,2.438.267.162,1.604.866,2.941,1.596,3.423,1.813,4.224,2.299,4.223,2.541,0,.107.133.188.321.189.643.003,9.139,5.996,11.995,8.476.534.458,1.655,1.429,2.536,2.184,2.75,2.346,6.778,6.387,9.284,9.294,1.333,1.561,2.479,2.881,2.559,2.961.374.324,4.555,5.947,5.886,7.937,3.167,4.68,6.249,10.298,8.822,15.994,1.671,3.681,1.777,3.976,1.775,4.352-.001.214.105.483.211.618.133.161.504,1.048.821,2.015.344.967.714,1.987.82,2.283.133.296.475,1.45.792,2.551s.686,2.309.818,2.685c.423,1.208,1.446,5.717,1.942,8.588,1.59,9.149,2.089,16.819,1.618,25.395-.176,3.055-.433,6.298-.571,7.182-.58,3.482-.884,5.438-1.133,6.964-.112.884-.358,2.036-.495,2.544s-.465,1.847-.711,2.945c-.273,1.098-.629,2.49-.819,3.079s-.626,1.981-.953,3.078c-.681,2.275-1.741,5.219-2.473,6.877-.298.615-.516,1.257-.516,1.418,0,.134-.11.482-.272.749-.135.241-.515,1.07-.84,1.792-1.41,3.264-4.359,8.879-6.548,12.434-7.891,12.936-19.988,25.235-32.842,33.456-1.936,1.197-2.313,1.57-2.154,1.973.45,1.128,3.402,5.968,3.75,6.104.803.326,10.972-6.97,16.437-11.769,3.958-3.466,9.185-8.882,11.99-12.353.89-1.095,1.699-2.056,1.78-2.136.188-.16,2.806-3.632,4.128-5.475,1.943-2.725,6.593-10.53,8.325-14.033,2.22-4.466,3.196-6.579,3.197-6.874,0-.107.163-.509.353-.883s.624-1.445.977-2.408.733-1.98.869-2.274c.325-.695,1.55-4.442,2.041-6.209.218-.776.573-2.115.819-2.945,1.064-3.855,1.751-7.283,2.886-14.542.581-3.75,1.368-16.56,1.021-16.911Z" style="fill: #ae423c; stroke-width: 0px;"/>
    <path d="M439.987,150.045c-.129-1.1-.331-3.513-.483-5.364-.352-4.666-1.865-13.306-2.816-16.232-.132-.43-.448-1.53-.712-2.416-.237-.886-.527-1.852-.66-2.148s-.318-.833-.396-1.208c-.184-.698-1.295-3.84-1.851-5.237-1.112-2.793-1.722-4.164-3.341-7.522-2.362-4.891-5.153-9.783-7.203-12.635-5.751-7.963-7.031-9.471-12.392-14.939-3.841-3.906-8.112-7.626-12.359-10.757-1.256-.891-2.377-1.754-2.538-1.862-.134-.108-1.042-.675-2.004-1.243-.962-.594-1.924-1.216-2.138-1.404s-.935-.621-1.604-.973c-.668-.379-2.272-1.271-3.609-2.001-2.647-1.487-5-2.625-8.959-4.333-1.685-.732-1.98-.868-4.281-1.683-2.622-.978-4.068-1.441-6.156-2.041-.803-.245-2.142-.627-2.945-.872-1.419-.409-2.035-.546-6.025-1.397-2.33-.494-6.321-1.103-10.179-1.578-2.304-.253-24.58-.442-101.195-.817-101.25-.496-99.695-.515-106.295.498l-2.146.311.076.939c.05.804.57,4.104.989,6.117.131.617.158.617,2.464.441,1.287-.101,2.629-.309,3.005-.468.913-.398,197.57.404,201.455.825,3.912.421,8.037,1.031,10.18,1.497,1.044.22,2.598.549,3.481.741.884.165,1.714.411,1.847.545.16.135.535.244.883.246.617.003,8.138,2.453,9.635,3.157.455.217.91.38,1.017.38.643.003,9.655,4.524,12.836,6.443,2.646,1.595,7.536,4.809,7.883,5.186.08.081.908.755,1.842,1.483,5.956,4.56,12.385,10.998,16.833,16.837.506.673,1.039,1.345,1.199,1.507.133.161.453.592.666.915s.878,1.264,1.491,2.098c.932,1.345,2.581,3.927,3.299,5.163.133.215.744,1.317,1.382,2.419s1.7,3.172,2.39,4.569c1.194,2.499,1.459,3.09,2.599,5.776.318.752.662,1.585.795,1.88.716,1.612,3.275,9.988,3.721,12.082.785,3.864,1.073,5.34,1.41,7.728.207,1.449.442,2.737.495,2.844.08.108.254,2.87.399,6.168.265,6.113-.079,16.218-.625,18.253-.137.509-.384,1.848-.524,2.946-.166,1.098-.47,2.866-.689,3.884-.22,1.044-.549,2.598-.741,3.481-.165.884-.411,1.74-.519,1.874-.108.16-.298.696-.408,1.204-.33,1.607-2.831,8.833-3.671,10.571-.135.294-.488,1.15-.813,1.873-2.196,5.083-7.765,14.626-10.462,17.91-.135.16-1.187,1.522-2.374,3.071-2.428,3.151-10.807,11.635-13.875,14.033-1.103.852-2.314,1.838-2.691,2.185-.377.32-.753.586-.834.586s-.457.239-.807.559c-.754.667-5.783,3.966-8.31,5.482-2.312,1.383-10.239,5.204-12.038,5.839-1.719.581-1.936,1.116-1.167,2.836.318.672.556,1.397.555,1.584-.001.214.105.483.211.618.133.161.452.833.69,1.531.265.698.583,1.343.69,1.424.214.135.858-.103,3.357-1.19.296-.133,1.155-.504,1.881-.822,6.447-2.756,13.814-7.09,20.164-11.858,9.902-7.458,19.2-17.626,25.793-28.236,1.918-3.073,5.139-9.277,6.549-12.568.569-1.311,1.166-2.755,1.356-3.21.542-1.23,1.683-4.335,2.364-6.422.327-1.017.762-2.382.953-3.025.217-.616.382-1.365.383-1.607.001-.268.11-.589.245-.723.135-.16.38-.936.518-1.74.165-.803.494-2.437.742-3.615.851-4.151,1.239-6.723,1.524-10.045.17-1.849.423-4.314.563-5.52.307-2.465.333-7.88.026-10.83Z" style="fill: #ae423c; stroke-width: 0px;"/>
    <path d="M438.832,238.236c-.107,0-.508-.271-.855-.594-.374-.35-1.628-1.402-2.777-2.346l-2.109-1.726-.836.934c-.458.534-1.51,1.708-2.318,2.643-1.698,1.949-9.215,9.498-11.045,11.071-2.1,1.813-4.388,3.678-5.652,4.637-.673.506-1.507,1.199-1.884,1.519-.377.347-.754.613-.861.612-.08,0-.349.159-.538.346-3.016,2.773-17.99,11.359-23.899,13.716-1.128.45-3.062,1.272-4.191,1.776-.457.212-1.021.37-1.235.369-.241-.001-.483.105-.591.238-.081.134-.538.346-.994.451-.483.078-1.047.263-1.289.369-.511.292-3.169,1.137-5.236,1.717-.886.237-1.96.553-2.416.685-2.282.632-3.973,1.08-6.173,1.551-1.315.288-2.845.629-3.355.761s-1.664.314-2.549.416-1.905.259-2.281.391-2.066.365-3.756.518c-1.69.179-4.05.409-5.23.511-1.18.128-3.754.25-5.711.24-3.137.038-3.566.09-3.809.518-.325.615-.381,6.566-.062,7.184.212.403.668.432,4.636.291,8.768-.386,15.903-1.316,25.43-3.414,2.469-.524,6.764-1.709,7.248-1.975.242-.133.94-.317,1.557-.421s1.181-.262,1.262-.396.618-.292,1.208-.396,1.127-.289,1.235-.423c.081-.134.35-.24.591-.238s.805-.184,1.235-.396c.403-.212.887-.398,1.021-.397.161,0,.644-.158,1.101-.37.484-.212,2.498-1.06,4.486-1.881,3.197-1.325,10.693-4.88,11.42-5.44.161-.106,1.129-.638,2.15-1.196,2.607-1.381,12.315-7.634,13.043-8.381.081-.08,1.238-.986,2.557-1.998,1.345-1.012,2.476-1.918,2.557-1.998s.727-.64,1.48-1.199c3.149-2.478,11.041-10.16,14.384-14.004,1.105-1.255,2.265-2.589,2.615-2.99.647-.747.837-1.283.435-1.285Z" style="fill: #ae423c; stroke-width: 0px;"/>
    <path d="M430.342,148.925c-.128-1.261-.332-3.433-.486-4.828-.307-2.95-.854-6.358-1.431-8.854-.21-.966-.524-2.415-.681-3.22s-.368-1.583-.501-1.745c-.107-.135-.291-.698-.396-1.208-.078-.51-.342-1.422-.526-2.013-.766-2.256-2.062-5.935-2.38-6.714-.186-.43-.503-1.209-.689-1.719-1.589-4.002-6.372-12.631-9.46-17.096-4.738-6.832-11.245-13.888-17.413-18.851-1.095-.89-2.163-1.78-2.349-1.968-.214-.162-.935-.702-1.603-1.187-.695-.486-1.362-.972-1.523-1.08-.454-.378-3.874-2.592-6.146-3.998-2.165-1.324-6.871-3.76-9.359-4.871-.722-.325-1.685-.732-2.14-.922-1.498-.678-6.689-2.579-7.493-2.771-.428-.109-.91-.273-1.07-.381-.134-.108-.856-.353-1.606-.544-.723-.164-2.062-.493-2.945-.711-4.23-1.093-6.721-1.561-12.588-2.394-1.875-.25-24.259-.44-100.98-.816-54.204-.265-98.65-.402-98.758-.269-.269.267-.201,2.76.161,5.416l.284,2.146,97.497.504c71.843.352,98.14.561,100.015.811,6.778.864,12.536,2.099,17.675,3.786,2.302.762,5.753,2.092,6.02,2.335.134.108.428.217.669.218.268.001,2.702,1.139,5.456,2.547,12.194,6.225,22.258,14.773,30.488,25.911,2.983,4.036,6.333,9.682,8.322,13.981.902,1.988.981,2.149,1.882,4.298.318.752.662,1.585.795,1.88.478,1.021,2.562,7.814,3.14,10.202.604,2.496,1.102,4.965,1.334,6.708.129,1.046.388,2.844.543,4.024.415,2.844.345,17.051-.07,19.837-.941,6.108-1.409,8.545-2.364,11.918-.218.803-.546,2.008-.71,2.677s-.436,1.445-.545,1.74c-.135.294-.489,1.258-.788,2.141-.517,1.552-1.033,2.837-1.765,4.549-.19.455-.651,1.471-1.003,2.274-1.003,2.247-3.141,6.311-4.654,8.824-1.378,2.272-3.62,5.639-3.943,5.878-.081.08-.512.614-.917,1.229-.405.588-.945,1.309-1.214,1.603s-.62.721-.755.935c-.703,1.203-6.469,7.233-9.566,9.979-3.958,3.519-8.236,6.688-12.726,9.401-5.404,3.244-13.626,6.957-18.565,8.407-.886.237-2.094.606-2.685.791s-1.986.526-3.087.762c-4.267.944-4.106.865-3.95,1.964.361,2.87.752,5.124,1.017,5.903.237.805.344.886.988.755.376-.105,1.422-.342,2.308-.552.886-.183,2.281-.525,3.086-.736.805-.237,2.013-.553,2.684-.711s1.45-.422,1.745-.528c.296-.133.833-.318,1.208-.396.913-.237,4.189-1.427,5.559-2.01.618-.292,1.182-.504,1.262-.503.161,0,3.788-1.644,5.669-2.573.752-.345,2.661-1.381,4.247-2.285s3.091-1.754,3.36-1.914c1.72-.957,7.477-5.03,9.442-6.656,12.651-10.42,21.285-21.771,27.467-36.083,1.464-3.397,3.149-7.946,3.749-10.142,2.102-7.737,2.954-12.049,3.464-17.542.425-4.609.572-12.784.291-15.547Z" style="fill: #ae423c; stroke-width: 0px;"/>
    <path d="M420.695,148.208c-.876-7.216-1.474-10.945-2.318-13.951-.843-3.087-1.423-4.94-1.741-5.692-.212-.457-.37-1.074-.369-1.342s-.104-.617-.211-.752c-.133-.161-.452-.86-.716-1.612-1.692-4.78-5.331-11.795-8.95-17.174-4.817-7.154-11.965-14.669-19.016-19.904-1.309-.998-2.537-1.889-2.671-2.024-.24-.189-2.833-1.81-5.024-3.134-1.149-.676-4.037-2.272-5.534-3.03-1.096-.568-2.113-1.029-4.815-2.168-.508-.217-1.15-.515-1.391-.65-.267-.162-.615-.271-.803-.272s-.669-.164-1.07-.381-1.097-.461-1.579-.571c-.509-.11-1.071-.3-1.311-.435-.214-.108-1.124-.408-2.007-.653s-2.142-.627-2.811-.818-1.794-.465-2.544-.549c-.723-.111-1.527-.302-1.74-.411-.508-.271-3.267-.713-8.036-1.299-3.242-.418-13.214-.52-96.61-1.009-70.1-.397-93.074-.456-93.37-.243-.296.24-.354,1.097-.314,3.966l.063,3.646,94.226.622c63.264.417,94.842.732,96.101.926,7.152,1.107,14.729,3.021,17.992,4.565.455.217.963.407,1.124.408s.509.11.776.245c.241.135,2.032,1.002,3.931,1.923,8.478,4.116,14.355,8.354,21.37,15.492,4.562,4.606,9.435,11.118,12.066,16.01,1.647,3.064,4.3,8.653,4.299,9.055,0,.08.158.537.37.994.796,1.773,2.616,7.653,3.088,9.988,1.257,6.065,2.152,14.916,1.917,19.043-.294,5.333-.825,9.647-1.62,13.262-.137.67-.412,1.982-.604,2.946-.219.964-.493,2.115-.656,2.544-.136.455-.49,1.526-.736,2.409-.272.883-.571,1.74-.679,1.873-.108.16-.298.669-.408,1.151s-.354,1.205-.571,1.606-.379.829-.38.936c-.001.295-1.41,3.317-2.763,5.938-5.954,11.579-14.553,21.187-25.958,29.013-1.775,1.224-3.872,2.447-7.635,4.466-.457.266-3.788,1.751-5.4,2.44-2.713,1.166-8.781,3.094-11.492,3.67-3.703.786-5.34,1.046-8.505,1.433-1.904.232-4.56.487-5.901.588l-2.413.149-.018,3.753-.018,3.753,3.217.016c4.236.021,14.644-1.43,17.571-2.461.376-.132,1.584-.475,2.685-.791s2.255-.659,2.551-.792c.295-.106,1.316-.476,2.283-.82,1.611-.555,2.417-.873,5.909-2.411,6.098-2.651,13.493-7.279,19.065-11.917,2.611-2.159,9.265-8.882,11.396-11.472,2.401-2.991,6.963-9.563,6.966-10.072,0-.188.109-.348.216-.347.134,0,1.216-1.951,2.407-4.331,2.518-5.028,2.68-5.402,3.876-8.64.489-1.311.978-2.649,1.087-2.944.352-.803,1.28-4.042,1.772-6.023.246-.964.547-2.169.683-2.677.327-1.151,1.047-5.812,1.635-10.876.362-2.84.378-11.472.069-14.181Z" style="fill: #ae423c; stroke-width: 0px;"/>
    <path d="M415.226,246.913c-.56-.646-1.493-1.696-2.053-2.316s-1.2-1.373-1.413-1.669c-.532-.753-.855-.674-2.174.526-2.424,2.213-10.171,7.698-14.634,10.357-3.495,2.074-14.405,7.436-15.183,7.459-.107.026-.698.238-1.289.53s-1.236.503-1.423.529c-.188,0-.537.105-.806.264-.618.345-4.216,1.561-5.558,1.903-.59.131-1.315.369-1.611.501s-1.02.344-1.611.475c-.591.158-1.798.447-2.684.684-1.825.5-4.08.999-6.441,1.416-.886.183-2.147.418-2.817.549s-1.932.312-2.817.388c-.885.103-2.199.257-2.951.388-.724.13-3.808.357-6.839.529-3.459.171-5.578.402-5.686.589-.297.427-.275,6.915-.009,7.372.213.35.91.353,4.905.078,10.325-.727,17.648-1.79,24.225-3.527.886-.237,2.147-.552,2.818-.683.671-.158,1.449-.368,1.745-.501.295-.106,2.121-.713,4.028-1.321,3.007-.924,7.599-2.617,9.4-3.439.296-.133,1.397-.61,2.418-1.06,5.588-2.466,13.383-6.77,17.875-9.885.968-.665,2.475-1.704,3.362-2.289,2.017-1.411,6.888-5.221,7.643-6.021l.593-.614-1.013-1.211Z" style="fill: #ae423c; stroke-width: 0px;"/>
    <path d="M411.229,148.805c-.08-.081-.314-1.583-.52-3.327-.233-1.77-.466-3.46-.518-3.756-.079-.295-.394-1.744-.708-3.22-.577-2.71-2.555-9.208-3.271-10.793-.212-.457-.398-.913-.397-1.021,0-.08-.662-1.585-1.485-3.305-3.715-7.766-9.013-15.351-14.615-20.901-6.856-6.789-14.845-12.297-22.71-15.633-1.311-.569-2.782-1.193-3.264-1.41-.455-.217-1.017-.38-1.231-.381-.241-.001-.482-.11-.562-.244s-.588-.325-1.124-.434c-.536-.083-1.178-.274-1.419-.409-.668-.352-4.256-1.281-8.595-2.187-6.052-1.263-3.988-1.226-105.078-1.721-88.356-.432-95.862-.442-99.322-.03-3.889.464-6.626.933-9.391,1.643-.886.237-2.094.526-2.657.684-1.637.394-6.766,2.165-8.351,2.854-2.767,1.22-8.088,3.928-9.675,4.939-6.561,4.123-9.656,6.547-14.397,11.296-4.391,4.402-10.003,11.639-11.924,15.383-.217.455-.974,1.872-1.678,3.182s-1.706,3.423-2.221,4.68-1.058,2.542-1.193,2.836c-.434.963-1.822,5.326-2.26,7.093-2.105,8.434-2.244,9.452-2.291,19.022-.04,8.23.035,9.356.924,13.81.157.751.419,2.12.601,3.086,1.15,5.984,4.194,13.907,7.836,20.332,5.581,9.893,13.661,18.618,23.173,25.045,3.847,2.619,7.965,4.891,12.165,6.681.588.271,1.311.569,1.605.705s1.445.57,2.542.978c6.717,2.392,12.796,3.655,20.353,4.228,4.502.344,186.977,1.237,191.536.938,5.578-.375,9.844-1.051,14.165-2.183.832-.237,2.174-.579,2.953-.79,1.718-.447,6.767-2.326,8.782-3.254.806-.371,2.015-.955,2.687-1.247,8.518-4.006,18.609-11.972,24.624-19.476.593-.721,1.187-1.469,1.348-1.629.135-.16.459-.588.675-.908s.891-1.256,1.511-2.084c2.321-3.232,5.783-9.435,7.546-13.555.244-.589.543-1.311.678-1.605.677-1.471,2.72-8.083,3.241-10.439.329-1.473.658-2.919.74-3.213.63-2.704,1.054-7.26,1.164-13.264.072-3.78.087-6.916.007-6.997ZM409.294,166.113c-.58,3.509-.992,5.464-1.401,6.963-.218.75-.573,2.061-.845,2.945-.246.883-.545,1.793-.653,2.007-.135.241-.326.803-.435,1.311-.11.482-.354,1.178-.571,1.579s-.379.856-.38,1.017c0,.134-.299.91-.678,1.659-.379.776-.677,1.444-.678,1.552-.003.563-5.222,9.893-6.274,11.202-.108.16-1.025,1.362-1.997,2.671-4.911,6.571-11.106,12.411-18.287,17.228-5.487,3.699-13.574,7.44-19.614,9.126-.886.237-2.148.606-2.819.79-1.154.343-3.972.892-7.379,1.438-4.427.729-11.826.746-104.873.237-91.277-.527-95.781-.576-98.325-1.044-6.99-1.321-12.934-2.905-15.582-4.151-.455-.217-.936-.407-1.07-.407s-.83-.299-1.578-.651c-.722-.352-1.899-.894-2.648-1.219-.722-.325-1.525-.678-1.739-.813-3.155-1.678-6.71-3.84-8.687-5.297-1.015-.756-2.191-1.566-2.565-1.809s-.855-.621-1.068-.809-1.335-1.159-2.509-2.157c-6.301-5.285-12.988-13.682-16.759-20.992-.664-1.29-1.328-2.553-1.461-2.822-.16-.269-.451-.914-.663-1.424-.795-1.907-1.51-3.653-1.749-4.164-.451-1.021-2.061-6.176-2.375-7.652-.184-.805-.499-2.067-.683-2.818-.211-.725-.499-2.174-.654-3.22-.129-1.019-.388-2.79-.544-3.89-.389-2.602-.33-14.826.085-17.425.166-1.098.443-2.839.582-3.884.166-1.018.468-2.464.686-3.214.191-.723.519-2.008.711-2.811.548-2.356,1.907-6.29,3.345-9.768.814-1.98,4.304-8.584,5.493-10.428,1.351-2.111,4.967-6.999,6.261-8.494,6.228-7.181,14.866-13.921,22.928-17.876,1.102-.558,2.23-1.115,2.499-1.248,1.075-.558,7.145-2.86,8.97-3.387,4.832-1.397,8.535-2.156,13.685-2.775,2.843-.335,15.148-.328,99.188.083,94.79.464,95.969.47,99.8,1.025,6.885.999,12.856,2.476,16.253,3.993.455.217.963.38,1.124.381s.509.11.776.272c.241.135,1.07.515,1.792.813,17.871,7.54,33.179,23.753,39.604,41.88.476,1.343.952,2.659,1.058,2.954.133.296.396,1.208.634,2.014.211.805.527,1.96.711,2.55.474,1.745.996,4.643,1.41,7.647.207,1.556.441,3.005.494,3.219.29,1.02-.158,15.816-.544,18.093Z" style="fill: #ae423c; stroke-width: 0px;"/>
    <path d="M391.543,249.264c-1.037-1.694-1.968-3.119-2.129-3.174-.134-.054-.967.317-1.8.822-1.748,1.037-8.546,4.328-10.829,5.228-.806.318-1.827.742-2.283.927-.43.186-1.397.529-2.148.767-.725.238-1.584.528-1.88.661-.457.212-1.719.581-5.101,1.583-.43.132-1.235.342-1.745.42-.51.105-1.101.289-1.342.422-.215.106-1.128.343-2.013.499s-2.442.471-3.488.68c-1.02.209-3.032.548-4.427.756-1.422.181-2.736.416-2.951.495s-3.004.253-6.168.399c-3.861.196-5.819.374-5.954.587-.135.187-.197,1.956-.18,3.94l.063,3.619,2.547-.014c2.868-.013,10.405-.673,14.08-1.218,5.58-.857,6.439-1.014,6.708-1.227.135-.133.484-.239.805-.237s1.717-.313,3.113-.682c1.369-.369,3.06-.789,3.731-.947s1.342-.369,1.477-.475c.161-.133.752-.291,1.316-.422.59-.104,1.369-.342,1.745-.528.376-.213.913-.371,1.155-.37s.537-.105.618-.265c.081-.134.377-.266.618-.265s.805-.184,1.235-.396c.403-.212.887-.398,1.021-.397.214.001,1.074-.343,3.304-1.324.296-.133,1.155-.504,1.88-.795,3.68-1.59,10.642-5.256,10.778-5.711.054-.134-.742-1.666-1.753-3.36Z" style="fill: #ae423c; stroke-width: 0px;"/>
    <path d="M371.085,249.914c-.344-.833-.689-1.612-.796-1.72s-.186-.376-.185-.564c.001-.214-.237-.913-.529-1.557-.53-1.155-.557-1.182-1.416-.918-.457.159-1.101.37-1.396.503-.484.212-2.094.66-5.906,1.714-.725.211-2.255.552-3.355.788s-2.496.551-3.086.682c-1.02.209-3.032.521-7.109,1.011-.966.103-3.513.278-5.685.374-2.655.121-4.049.302-4.238.515s-.276,1.688-.234,3.913l.063,3.593,2.815-.04c5.067-.029,12.577-.904,17.703-2.004,1.1-.236,2.683-.55,3.488-.707s1.583-.368,1.745-.501c.135-.133.457-.239.725-.238.241.001.993-.156,1.61-.367.644-.211,2.067-.633,3.168-.95,2.175-.66,3.223-1.217,3.198-1.7,0-.161-.263-.993-.581-1.826Z" style="fill: #ae423c; stroke-width: 0px;"/>
    <path d="M351.914,245.344c-.133-.215-.316-1.235-.418-2.281-.179-1.797-.707-3.381-1.136-3.383-.107,0-.617.104-1.127.236-.51.158-2.575.39-4.56.567-1.985.151-4.452.354-5.498.456l-1.877.152-.018,3.753-.018,3.753,2.815.014c3.217.016,8.929-.466,10.808-.939,1.154-.289,1.262-.369,1.265-1.12.002-.456-.102-.992-.235-1.207Z" style="fill: #ae423c; stroke-width: 0px;"/>
    <path d="M335.254,231.402c-.187-.055-1.983-.09-3.967-.073l-3.593.063-.153,3.833-.153,3.806,4.101.02,4.075.02.018-3.753c.014-2.842-.062-3.807-.329-3.916ZM334.186,236.062c-.431.427-4.827.405-5.254-.026-.187-.189-.212-.457-.023-.804.216-.374.592-.48,1.852-.473,1.34.007,1.609-.073,1.745-.528.272-.83,1.371-.69,1.688.223.37.994.369,1.235-.008,1.608Z" style="fill: #ae423c; stroke-width: 0px;"/>
    <path d="M335.394,241.134c-.107-.108-1.929-.197-4.02-.207l-3.833-.019-.099,3.887-.1,3.913,4.021-.061,4.021-.061.098-3.645c.037-1.984-.009-3.699-.089-3.807ZM334.326,245.767c-.406.749-1.132,1.335-1.722,1.332-.161,0-.748-.433-1.336-.945-.56-.512-1.094-.944-1.202-.944-.08,0-.163.375-.165.803-.003.617-.138.804-.513.802-.617-.003-.829-.513-.821-2.041.006-1.26.386-2.25.842-2.248.134,0,.881.675,1.628,1.482,1.947,2.127,2.457,1.942,1.692-.581-.158-.537-.104-.617.486-.614.509.002.75.218,1.067,1.024.239.537.424,1.021.424,1.074.027.054-.163.428-.379.856Z" style="fill: #ae423c; stroke-width: 0px;"/>
    <path d="M335.186,250.704c-.187-.135-2.009-.224-4.02-.181l-3.7.062-.018,3.619c-.015,2.976-.098,3.645-.42,3.751-.215.106-.59-.003-.83-.192-.347-.27-.398-.94-.33-3.701l.07-3.377-4.047-.1-4.074-.1-.018,3.619c-.018,3.673-.182,4.288-.983,3.614-.347-.27-.397-.967-.33-3.701l.07-3.377-4.182-.101-4.208-.101-.018,3.619c-.01,1.984-.125,3.672-.26,3.752-.645.399-.854-.728-.785-3.918l.07-3.297-4.37-.021-4.37-.021-.044,3.458c-.039,2.52-.124,3.484-.366,3.564-.269.106-.345-.725-.331-3.513l.018-3.646-74.174-.47c-46.322-.28-75.353-.583-77.283-.754-2.465-.227-3.43-.204-4.826.084-1.369.315-4.184.382-13.271.31-6.326-.031-11.741-.084-11.983-.059-.697-.003-.592.453.131.671.321.082.83.272,1.124.408.829.379,7.038,2.447,8.698,2.911,5.836,1.583,12.612,2.903,17.81,3.438,2.411.253,26.671.479,97.388.879l94.146.541.018-3.726c.013-2.654-.089-3.78-.302-3.942ZM334.063,255.684c-.298.562-.539.668-1.531.69-.67-.003-1.475.1-1.797.206-1.423.449-2.487-1.326-1.941-3.307.246-.964.381-1.097,1.078-1.094.885.004,1.017.38.396,1.181-.486.641-.545,1.767-.062,1.769.188,0,.537-.239.807-.532.593-.694.888-.666,1.287.033.478.941.91.219.595-1.069-.289-1.154-.235-1.368.462-1.365.938.005,1.356,2.205.707,3.488Z" style="fill: #ae423c; stroke-width: 0px;"/>
    <path d="M335.246,260.301c-.16-.242-1.151-.327-3.966-.287l-3.727.062-.098,3.619c-.037,1.984-.179,3.699-.314,3.832s-.483.105-.804-.058c-.535-.298-.56-.539-.544-3.943l.018-3.619-3.941.061-3.968.061-.097,3.485c-.101,4.128-.128,4.289-.904,3.883-.535-.298-.561-.485-.437-3.782.097-3.297.071-3.485-.438-3.621-.294-.082-2.171-.091-4.155-.074l-3.619.063-.099,3.699c-.07,3.351-.125,3.699-.554,3.616-.402-.082-.453-.512-.465-3.514-.017-1.903-.143-3.566-.277-3.701s-1.929-.224-4.261-.209l-3.995.061-.152,3.591c-.093,2.493-.259,3.645-.474,3.697-.242.079-.345-.806-.385-3.594l-.062-3.7-76.399-.562c-42.006-.313-77.069-.565-77.873-.569-10.589-.052-29.061.287-29.143.528-.082.268,2.353,1.271,5.351,2.171.696.218,1.901.572,2.677.817,4.792,1.444,8.728,2.348,14.38,3.26,2.598.442,4.634.666,10.851,1.259,2.572.227,27.395.429,95.7.683l92.217.371.098-3.619c.037-1.984-.035-3.78-.141-3.968ZM333.829,265.066c-.536-.003-1.659-.625-2.353-1.271-.214-.189-.481-.27-.642-.191-.188.106-.055.375.319.645.721.54.584,1.102-.384,1.767-.645.399-.753.398-1.367-.007-.668-.459-.904-1.586-.393-1.905.161-.08.271-.562.273-1.044.007-1.34,1.082-1.978,1.936-1.143.187.189.828.621,1.416.972,1.711,1.027,2.322,2.183,1.196,2.177Z" style="fill: #ae423c; stroke-width: 0px;"/>
    <path d="M335.199,269.952c-.186-.242-1.151-.327-3.966-.287l-3.727.062-.098,3.619c-.037,1.984-.206,3.725-.314,3.832-.135.133-.483.158-.804.05-.509-.163-.561-.405-.598-3.836l-.062-3.673-3.887-.019-3.887-.019-.098,3.619c-.099,3.699-.263,4.368-.984,3.775-.32-.27-.423-1.128-.464-3.863l-.063-3.539-4.021-.02-4.021-.02-.152,3.726c-.093,2.6-.26,3.779-.474,3.831-.483.158-.613-.727-.676-4.346l-.038-3.217-4.155-.02-4.155-.02-.099,3.699c-.068,2.975-.152,3.672-.474,3.67s-.399-.699-.438-3.675l-.062-3.7-75.997-.56c-88.569-.675-77.015-.618-94.977-.545-10.857.054-14.423.144-14.344.386.053.161.454.431.909.567.428.109,1.017.353,1.311.489.615.271,2.275.815,4.55,1.47.883.246,2.195.627,2.891.845.723.218,1.794.518,2.409.655s1.982.439,2.999.685c4.606,1.068,11.276,2.119,17.01,2.684,5.091.507,190.622,1.55,190.919,1.095.27-.454.302-6.942.036-7.399ZM333.725,275.467c-.455-.056-.642-.298-.693-.888-.127-1.475-.394-1.637-.614-.432-.275,1.366-.571,1.632-1.858,1.626-1.18-.006-1.5-.222-1.871-1.189-.503-1.343.122-3.109,1.114-3.104.724.004.829.406.316,1.262-.514.936-.33,1.687.447,1.691.563.003.617-.077.652-1.739q.032-1.072,1.212-1.147c1.824-.125,1.904-.044,1.893,2.1-.009,1.823-.036,1.903-.599,1.82Z" style="fill: #ae423c; stroke-width: 0px;"/>
    <path d="M335.205,279.629c-.106-.269-1.178-.354-4.019-.368l-3.86-.019-.019,3.887-.019,3.914,3.968-.061,3.941-.061.071-3.485c.036-1.903-.009-3.646-.062-3.807ZM333.816,284.099c-.268-.001-.67-.137-.883-.272-.294-.189-.59-.03-1.237.718-.755.881-.889.934-1.773.769-.804-.138-1.044-.354-1.281-1.105-.555-1.718.204-3.35,1.544-3.343.724.004,3.691,1.707,3.903,2.244.265.645.183.993-.273.991Z" style="fill: #ae423c; stroke-width: 0px;"/>
    <path d="M330.66,282.743c-.587-.512-1.126.048-.781.8.239.564.265.564.724.057.431-.454.432-.534.058-.858Z" style="fill: #ae423c; stroke-width: 0px;"/>
    <path d="M335.133,289.012c-.079-.268-1.151-.354-3.993-.368l-3.887-.019.061,3.968.061,3.941,3.726.099c2.814.067,3.78-.008,3.969-.249.216-.374.302-6.834.063-7.372ZM333.522,295.035c-.724.104-4.735-2.007-4.947-2.598-.397-1.047.622-1.15,2.119-.231.534.351,1.203.703,1.47.811.669.245.887-.478.355-1.258-.346-.565-.345-.699-.022-.965.242-.186.698-.238,1.073-.156.669.164.696.218.606,2.255-.089,1.849-.144,2.063-.654,2.141Z" style="fill: #ae423c; stroke-width: 0px;"/>
    <path d="M335.086,298.501c-.08-.108-1.929-.197-4.074-.208l-3.914-.019.115,3.941.115,3.968,3.726.099c2.814.067,3.78-.008,3.969-.249.243-.428.331-7.29.064-7.533ZM334.017,303.375c-.434,1.07-1.214,1.522-1.936,1.116-.241-.135-.75-.111-1.18.021-1.235.423-1.957.098-2.3-1.084-.607-2.04.421-3.858,1.893-3.368.348.109,1.152.22,1.822.223,1.099.032,1.259.113,1.657.973.557,1.129.559.861.043,2.118Z" style="fill: #ae423c; stroke-width: 0px;"/>
    <path d="M332.578,301.652c-.347-.216-.646.533-.434,1.097.212.537.696.245.699-.426.001-.268-.131-.59-.265-.671Z" style="fill: #ae423c; stroke-width: 0px;"/>
    <path d="M330.459,301.803c-.293-.457-.83-.138-.834.505s.531.968.829.513c.135-.214.243-.428.244-.508s-.106-.295-.239-.511Z" style="fill: #ae423c; stroke-width: 0px;"/>
    <path d="M341.956,238.566c-.904-.246-1.499-1.857-1.339-3.76l.318-3.349-22.472-.11-22.472-.11-.773,3.83-.773,3.803,24.584.12c13.423.066,24.433.093,24.433.066,0-.054-.753-.272-1.506-.49Z" style="fill: #ae423c; stroke-width: 0px;"/>
    <path d="M326.11,248.273c-.187-.135-.261-1.449-.196-3.727l.071-3.511-3.994-.02-3.994-.02-.153,3.833-.153,3.806,4.37.021c2.386.012,4.343-.032,4.343-.086,0-.08-.133-.215-.293-.296Z" style="fill: #ae423c; stroke-width: 0px;"/>
    <path d="M321.845,298.249l-4.396-.022.115,3.941.115,3.968,3.887.019,3.887.019.098-3.592c.037-2.118.206-3.752.395-3.966.216-.294-.508-.351-4.1-.369Z" style="fill: #ae423c; stroke-width: 0px;"/>
    <path d="M321.811,288.598l-4.209-.021.061,3.968.061,3.941,3.967.1,3.94.1.018-3.619c.01-1.984.099-3.779.181-4.02.136-.375-.32-.43-4.019-.449Z" style="fill: #ae423c; stroke-width: 0px;"/>
    <path d="M321.696,279.215l-4.021-.02-.019,3.887-.019,3.887,4.021.02,4.021.02.019-3.887.019-3.887-4.021-.02Z" style="fill: #ae423c; stroke-width: 0px;"/>
    <path d="M316.777,238.255c-.187-.189-.261-1.395-.197-3.54.093-2.519.043-3.27-.225-3.379-.214-.081-2.037-.144-4.101-.154-2.761-.014-3.78.062-3.862.33-.054.161-.17,1.929-.207,3.886l-.098,3.538,4.504.022c2.466.012,4.477-.085,4.478-.193s-.132-.349-.292-.511Z" style="fill: #ae423c; stroke-width: 0px;"/>
    <path d="M316.755,248.094c-.16-.242-.259-1.797-.196-3.754l.07-3.351-4.182-.101-4.208-.101-.1,3.913-.099,3.887,4.504.022c2.466.012,4.477-.005,4.477-.032,0-.054-.133-.269-.266-.484Z" style="fill: #ae423c; stroke-width: 0px;"/>
    <path d="M312.301,298.202l-4.504-.022.062,3.673c.017,2.037.115,3.861.168,4.049.106.269,1.044.327,4.073.288l3.968-.061.097-3.485c.036-1.903.205-3.591.34-3.725.162-.16.27-.374.27-.481s-2.009-.224-4.476-.236Z" style="fill: #ae423c; stroke-width: 0px;"/>
    <path d="M316.397,283.022l-.088-3.834-4.128-.02-4.155-.02-.019,3.887-.019,3.887,4.289.021c2.359.012,4.262-.006,4.236-.033-.027-.054-.098-1.797-.115-3.888Z" style="fill: #ae423c; stroke-width: 0px;"/>
    <path d="M312.295,288.551l-4.316-.021-.02,4.021-.02,4.021,4.155.02,4.155.02.017-3.404c.009-1.903.099-3.699.181-4.02l.164-.616-4.316-.021Z" style="fill: #ae423c; stroke-width: 0px;"/>
    <path d="M307.393,238.397c-.133-.215-.232-1.904-.196-3.754l.07-3.351-4.37-.021-4.37-.021.036,3.566c.038,3.137.009,3.539-.393,3.537s-.427-.404-.331-3.487c.063-1.93.098-3.511.098-3.538,0-.054-123.846-1.035-152.396-1.202-10.133-.076-25.897.168-26.113.382-.189.187-.162.267.079.268.322.002,2.408.87,3.291,1.356.267.162.615.271.776.272s.669.164,1.124.381c4.387,1.952,11.697,3.757,19.466,4.813,4.099.556,5.091.561,83.823.893,70.744.266,79.644.256,79.405-.094Z" style="fill: #ae423c; stroke-width: 0px;"/>
    <path d="M335.461,248.186c-.153-.215-.268-1.905-.228-3.754l.078-3.351-5.017-.025-5.017-.025.044,3.566c.046,3.11-.017,3.539-.448,3.536s-.49-.431-.414-3.541l.048-3.565-86.115-.609c-47.397-.339-87.592-.643-89.377-.652-8.956-.044-30.994.143-31.395.275-.278.106.398.431,1.75.866,1.198.408,2.304.816,2.427.95.123.108.43.19.676.191s.861.165,1.383.382c1.075.407,4.61,1.363,9.744,2.648,1.629.41,7.903,1.433,11.533,1.879,7.29.894,9.229.903,99.931,1.267,80.545.314,90.671.31,90.396-.04Z" style="fill: #ae423c; stroke-width: 0px;"/>
    <path d="M224.375,297.638c-45.679-.277-84.12-.546-85.46-.552-4.128-.02-33.269.239-32.707.322.295.028.883.246,1.311.462.428.243,1.23.542,1.739.679.535.137,1.633.437,2.436.682,4.309,1.335,9.718,2.648,12.852,3.146.964.166,1.928.358,2.142.466.375.136,1.553.329,7.5,1.163,1.259.167,3.134.444,4.152.583,5.17.749,18.948.924,87.923,1.181l71.039.267.098-3.672c.068-3.002.152-3.699.474-3.697s.399.699.438,3.702l.062,3.673,4.155.02,4.155.02.152-3.618c.09-1.983.26-3.779.368-3.939.162-.267-17.423-.461-82.831-.888Z" style="fill: #ae423c; stroke-width: 0px;"/>
    <path d="M302.832,288.505c-2.439-.012-4.477.032-4.531.085s-.09,1.876-.046,4.021l.061,3.914,4.289.021,4.262.021.017-3.404c.009-1.903.099-3.699.181-4.02l.164-.616-4.396-.022Z" style="fill: #ae423c; stroke-width: 0px;"/>
    <path d="M302.663,279.121l-4.289-.021-.019,3.887-.019,3.887,4.289.021,4.289.021.019-3.887.019-3.887-4.289-.021Z" style="fill: #ae423c; stroke-width: 0px;"/>
    <path d="M297.39,288.586c-.134-.054-35.304-.307-78.142-.57-57.42-.361-78.329-.571-79.561-.792-1.419-.275-1.822-.25-2.467.068-.672.345-2.924.388-15.202.328q-14.395-.07-13.379.444c.535.298,1.685.732,2.515.977.83.272,2.061.627,2.73.844,3.105.927,4.042,1.199,6.291,1.72,1.339.328,2.651.656,2.945.738s1.446.329,2.544.522,3.107.578,4.419.799c2.357.44,6.67,1.078,10.983,1.609,1.286.167,32.971.456,79.266.763l77.123.512.1-3.94c.066-2.439-.007-3.968-.168-4.022Z" style="fill: #ae423c; stroke-width: 0px;"/>
    <path d="M225.674,278.745c-68.76-.337-81.654-.534-85.403-1.222-1.661-.303-2.654-.093-1.637.367.481.217-3.165.306-13.942.361-10.831.054-14.477.144-14.21.359.214.162,1.284.569,2.381.896,1.097.354,2.302.708,2.677.844s1.392.436,2.275.681,2.222.627,2.945.845c.75.218,1.874.519,2.544.656s2.062.439,3.08.685c2.705.603,6.24,1.237,9.643,1.682,1.634.222,3.724.554,4.688.72,1.232.194,24.5.442,79.293.79l77.525.487.019-3.914.019-3.887-71.896-.352Z" style="fill: #ae423c; stroke-width: 0px;"/>
    <path d="M154.019,70.232c-.32-.43-.614-.459-2.089-.332-.939.103-3.111.28-4.801.432-3.191.252-5.337.564-8.316,1.166-.966.21-2.174.445-2.683.523-.993.183-2.442.578-7.221,1.975-1.074.316-2.282.766-2.685.952-.376.213-.833.371-.967.371-.965-.005-9.671,4.081-13.3,6.235-2.689,1.622-6.535,4.177-8.176,5.482-9.231,7.3-15.538,14.32-21.186,23.594-1.621,2.646-5.14,9.438-5.142,9.867,0,.107-.218.696-.516,1.311-.705,1.605-1.873,4.736-2.092,5.673-.109.455-.273.937-.381,1.07-.108.16-.326.803-.49,1.472s-.492,1.928-.738,2.811c-.491,1.74-1.067,4.364-1.509,7.097-.166.964-.414,2.464-.579,3.348-.468,2.464-.689,14.821-.357,18.093.564,5.337,1.319,9.872,2.24,13.281.237.886.526,2.094.684,2.684.131.59.448,1.611.686,2.282,1.031,2.981,1.771,5.049,2.195,6.042.238.591.662,1.612.954,2.283,1.298,3.143,5.496,10.83,6.988,12.795.24.323.612.861.825,1.184.585.888,3.728,5.112,4.528,6.054,1.945,2.342,8.455,8.807,10.671,10.588,1.388,1.16,2.777,2.292,3.07,2.562s1.736,1.295,3.206,2.268,2.993,1.998,3.393,2.268c.695.486,2.593,1.568,5.106,2.893.963.514,1.364.596,1.58.383.242-.24,3.004-.307,9.84-.3,9.275.045,12.064-.129,9.412-.597-.67-.111-1.794-.384-2.544-.602-2.811-.872-6.183-2.014-6.691-2.258-.294-.135-1.124-.488-1.873-.813-2.862-1.247-3.264-1.41-4.761-2.195-8.664-4.466-15.688-9.835-22.354-17.132-7.839-8.59-13.738-19.422-16.845-30.884-.237-.886-.553-2.04-.711-2.55-.132-.51-.368-1.53-.471-2.281-.13-.724-.339-2.012-.496-2.817-.756-4.293-.932-6.733-.903-12.738.034-6.943.287-9.354,1.66-15.942,1.482-6.99,4.252-14.348,7.687-20.47.703-1.283,3.163-5.373,3.352-5.613.108-.134,1.295-1.709,2.617-3.472,2.24-3.018,7.793-9.318,8.357-9.529.134-.026.915-.693,1.696-1.439.781-.72,2.288-1.999,3.311-2.772,1.049-.799,1.938-1.519,2.018-1.599.458-.48,5.837-4.019,7.557-4.976,2.124-1.196,5.832-3.081,7.229-3.664.671-.265,1.719-.715,2.337-.98s1.289-.476,1.477-.475c.214.001.483-.105.618-.211.323-.266,2.122-.901,4.162-1.454.805-.237,2.148-.606,2.953-.843,1.745-.474,2.711-.684,8.319-1.702.805-.157,3.38-.359,5.712-.455,3.244-.145,4.291-.274,4.506-.568.405-.641.328-6.781-.071-7.372Z" style="fill: #ae423c; stroke-width: 0px;"/>
    <path d="M146.448,66.978c-.052-.429-.232-1.985-.412-3.433l-.282-2.655-1.502.127c-2.306.176-5.955.668-7.001.958-.51.132-1.852.42-2.952.656s-2.684.603-3.489.841c-2.819.764-5.235,1.476-5.772,1.661-.296.133-1.316.476-2.283.82s-2.041.767-2.417.953-.833.344-1.02.344-.537.105-.806.264c-.242.133-2.123,1.035-4.192,2.017-2.042.955-4.488,2.203-5.429,2.788-.968.558-1.801,1.037-1.882,1.036-.054,0-.457.212-.86.505-.403.266-1.64,1.064-2.743,1.783-1.775,1.117-7.155,5.005-7.533,5.405-.081.08-1.158,1.013-2.423,2.079-4.28,3.544-9.319,8.935-14.175,15.157-1.052,1.335-5.023,7.428-6.023,9.246-1.163,2.058-3.654,7.059-4.467,8.932s-.922,2.113-1.52,3.746c-.326.883-.706,1.793-.814,2.007s-.462,1.311-.789,2.409-.708,2.248-.843,2.543-.381,1.151-.545,1.874c-.165.75-.493,2.062-.711,2.945-1.231,4.98-1.866,8.864-2.322,14.331-.314,3.805-.353,11.954-.073,15.012.33,3.808.742,7.295,1.056,8.852.864,4.32,2.019,9.285,2.337,10.064.133.296.502,1.45.819,2.551s.686,2.202.792,2.417.397,1.021.635,1.746c.423,1.182.82,2.202,1.721,4.298.954,2.23,2.998,6.368,4.327,8.734,1.834,3.253,5.878,9.411,7.317,11.161.24.296.933,1.13,1.519,1.884,3.064,3.848,9.573,10.421,13.445,13.55,2.51,2.023,2.857,2.239,3.609,2.082.456-.078,3.378-.144,6.515-.102,3.485.017,5.737-.052,5.845-.213.081-.16-.373-.538-.988-.863-2.059-1.056-9.218-6.291-12.101-8.852-1.868-1.671-7.71-7.651-8.963-9.158-.639-.807-1.306-1.588-1.439-1.75-2.267-2.451-7.454-10.599-9.843-15.489-2.362-4.81-2.521-5.159-2.52-5.454-.026-.188-.237-.805-.529-1.397s-.503-1.262-.529-1.477c.001-.241-.105-.537-.211-.671-.4-.458-1.165-2.901-2.561-8.055-.184-.725-.473-1.932-.63-2.684-.157-.725-.445-2.174-.654-3.22-.419-1.932-.728-4.668-1.208-10.595-.278-3.513-.11-10.348.361-13.536.139-1.018.389-2.84.556-4.018.334-2.545,1.405-7.741,1.922-9.346.136-.455.518-1.74.818-2.838.327-1.098.681-2.249.817-2.543.109-.294.489-1.311.842-2.275s.787-2.034.977-2.408.352-.803.353-.99c0-.161.299-.883.651-1.605.352-.695,1.11-2.246,1.679-3.423,1.029-2.059,5.111-9.009,6.028-10.184.243-.321.621-.855.837-1.175,3.132-4.569,9.088-11.081,14.15-15.479,4.415-3.839,11.274-8.416,16.81-11.204,2.096-1.062,2.956-1.46,6.771-3.13.699-.318,1.45-.556,1.665-.555s.483-.105.564-.265c.081-.134.35-.266.591-.265.214.001.778-.157,1.235-.369,2.633-1.167,9.37-2.876,14.279-3.603,6.278-.961,5.794-.749,5.615-2.492Z" style="fill: #ae423c; stroke-width: 0px;"/>
    <path d="M139.958,248.3c-.214-.001-.403.132-.403.266,0,.161.186.269.401.27s.403-.105.403-.266c0-.134-.186-.269-.401-.27Z" style="fill: #ae423c; stroke-width: 0px;"/>
    <path d="M136.738,57.28c-.131-.59-.339-1.851-.522-2.817-.156-.939-.34-1.771-.393-1.852-.16-.135-2.253.311-7.38,1.546-1.449.341-6.362,1.792-7.114,2.11-.295.106-1.128.423-1.88.661-1.504.529-2.686,1.006-4.325,1.748-.618.265-1.182.504-1.289.503-.241-.001-6.825,3.184-8.948,4.353-9.865,5.367-20.145,13.546-27.424,21.875-1.024,1.175-1.941,2.189-2.022,2.269-.35.32-4.613,5.929-5.963,7.879-3.024,4.355-7.161,11.707-9.113,16.174-.352.803-.868,1.98-1.139,2.595-.298.615-.516,1.284-.517,1.472-.001.214-.11.482-.244.642-.135.133-.515,1.097-.868,2.114-.327,1.044-.707,2.007-.815,2.141-.081.16-.271.696-.354,1.205-.11.509-.301,1.178-.436,1.472-.352.749-1.635,5.514-2.048,7.63-.192.964-.412,1.928-.52,2.142-.081.214-.301,1.258-.467,2.276-2.018,12.509-2.074,23.929-.178,36.458.156,1.046.365,2.066.445,2.281.106.215.316,1.181.499,2.147.785,4.025,3.738,13.931,4.378,14.632.133.135.239.403.238.618,0,.188.237.913.555,1.611.291.698.875,1.988,1.246,2.875,4.109,9.349,10.601,19.407,17.48,27.027,3.28,3.635,5.788,5.98,6.084,5.686.189-.187,2.012-.285,5.309-.269,2.761.014,5.094-.082,5.175-.216.081-.107-.826-1.05-2.027-2.074-4.351-3.721-9.365-9-12.722-13.412-.826-1.05-1.545-1.965-1.625-2.045s-.373-.484-.692-.942c-.293-.43-1.065-1.587-1.73-2.555-2.422-3.55-4.203-6.615-6.38-11.022-1.513-3.09-2.892-6.18-2.89-6.555,0-.188-.105-.429-.239-.564-.133-.161-.477-1.048-.794-2.014s-.687-1.987-.793-2.283c-.981-2.203-2.191-6.927-3.578-13.823-1.177-5.957-1.803-20.57-1.108-25.607.167-1.179.418-3.215.585-4.554.615-5.198,3.023-15.158,4.405-18.208.135-.294.434-1.124.679-1.873.381-1.178.842-2.328,1.737-4.281.135-.294.515-1.204.841-2.006.949-2.247,3.682-7.381,5.573-10.428,1.378-2.245,5.374-7.989,5.724-8.282.108-.08.701-.801,1.348-1.602,3.857-4.86,10.053-10.969,15.112-14.885,1.561-1.199,3.014-2.344,3.229-2.531.215-.16,1.533-1.065,2.958-1.969,1.399-.931,2.689-1.783,2.851-1.916,1.211-1.013,8.817-4.863,14.351-7.275,3.331-1.431,11.815-3.99,16.108-4.827.376-.079.939-.183,1.288-.262.483-.105.591-.292.568-1.123-.024-.536-.127-1.475-.231-2.065Z" style="fill: #ae423c; stroke-width: 0px;"/>
    <path d="M135.05,237.741c-.67-.137-1.74-.411-2.41-.602-5.113-1.553-6.933-2.152-7.682-2.477-.455-.217-.963-.38-1.124-.381s-.509-.11-.776-.272c-.241-.135-.883-.433-1.391-.65-1.846-.786-4.173-1.843-6.125-2.818-1.605-.785-2.033-.921-2.463-.655-.35.213-2.414.31-6.677.289-3.378-.017-6.166.077-6.167.184-.002.483,6.519,4.562,10.958,6.863,2.727,1.434,3.129,1.57,3.613,1.251.403-.266,2.897-.361,10.993-.429,6.863-.047,10.054-.165,9.25-.303Z" style="fill: #ae423c; stroke-width: 0px;"/>
    <path d="M133.931,247.279c-.803-.165-2.196-.52-3.079-.766s-2.142-.573-2.811-.711c-.669-.164-1.446-.382-1.74-.518s-.963-.353-1.472-.517c-1.098-.3-4.71-1.578-5.486-1.93-.294-.135-.963-.407-1.471-.651-.508-.217-1.525-.651-2.274-.976-.722-.325-1.926-.867-2.621-1.246-1.391-.704-2.194-.815-2.464-.387-.108.16-2.575.255-6.542.236-3.512-.017-6.461.049-6.542.156-.269.24,7.349,4.808,11.387,6.811,2.942,1.462,3.477,1.652,3.854,1.332.35-.266,2.843-.361,11.583-.426,9.41-.061,10.911-.134,9.68-.408Z" style="fill: #ae423c; stroke-width: 0px;"/>
    <path d="M133.214,256.926c-3.963-.85-6.213-1.398-9.371-2.378-.723-.218-1.82-.545-2.409-.709-.589-.191-1.177-.435-1.338-.543-.134-.108-.669-.298-1.151-.408-.803-.165-1.954-.653-3.05-1.248-.267-.135-.615-.244-.776-.245s-.669-.164-1.124-.381c-5.216-2.385-5.055-2.33-5.674-1.904-.404.293-1.905.366-7.159.34-3.646-.018-6.649.048-6.649.182-.001.295,4.73,3.026,8.688,5.029,5.509,2.788,6.579,3.222,7.357,2.985.376-.105,5.979-.239,12.467-.287,10.295-.084,11.582-.158,10.189-.433Z" style="fill: #ae423c; stroke-width: 0px;"/>
    <path d="M132.63,266.574c-2.973-.524-6.106-1.263-8.569-1.999-.428-.136-1.713-.518-2.811-.845-3.935-1.145-7.789-2.531-11.935-4.321-2.14-.922-2.702-1.086-3.159-.847-.349.186-3.111.306-7.374.339-4.262.006-6.863.127-6.918.288-.028.161.667.673,1.603,1.161,3.262,1.785,8.637,4.546,10.081,5.17.803.352,2.006.894,2.675,1.193s1.579.517,2.008.492c.456-.025,6.542-.102,13.539-.175,11.126-.106,12.493-.18,10.859-.456Z" style="fill: #ae423c; stroke-width: 0px;"/>
    <path d="M132.26,276.464c-.482-.029-1.393-.221-2.008-.439-1.07-.381-1.927-.572-5.355-1.259-.777-.165-1.66-.41-1.954-.546s-.963-.326-1.472-.409c-2.464-.495-11.536-3.622-15.067-5.221-1.284-.596-1.659-.652-2.089-.412-.35.24-2.655.309-7.749.284-5.71-.028-7.238.045-7.24.313-.002.322,7.966,4.543,11.096,5.872.749.325,1.578.678,1.873.813,2.595,1.165,3.237,1.383,3.988,1.36.456-.025,6.676-.101,13.833-.147,7.158-.072,12.627-.153,12.145-.209Z" style="fill: #ae423c; stroke-width: 0px;"/>
    <path d="M129.32,285.591c-.428-.163-1.526-.436-2.41-.602-2.116-.386-4.713-.988-6.694-1.534-.883-.246-2.142-.573-2.811-.738s-1.312-.382-1.472-.49c-.134-.108-.722-.298-1.312-.382-.562-.11-1.232-.301-1.472-.436s-1.204-.488-2.167-.815c-.964-.3-1.981-.653-2.275-.789s-1.124-.461-1.873-.706c-.722-.272-1.846-.706-2.488-1.004-.615-.271-1.498-.57-1.927-.68-.67-.137-.777-.084-.645.292.159.403-.538.426-7.508.392-6.005-.029-7.614.043-7.508.312.106.295,6.657,3.652,9.867,5.061.749.299,1.578.678,1.873.813,2.14.976,3.157,1.383,4.655,1.899,1.526.517,1.74.545,2.144.171s2.12-.419,12.655-.421c9.678-.006,12.01-.075,11.368-.346Z" style="fill: #ae423c; stroke-width: 0px;"/>
    <path d="M128.416,295.077c-.134-.081-.884-.219-1.687-.33-.804-.084-1.822-.277-2.277-.413-.428-.109-2.008-.492-3.481-.821s-2.919-.684-3.213-.82-.963-.326-1.472-.409c-.509-.11-1.526-.383-2.276-.601-2.596-.79-6.424-2.042-6.959-2.286-.294-.135-1.311-.489-2.275-.815s-1.846-.679-2.007-.787c-.134-.108-.856-.353-1.552-.544-.964-.273-1.366-.275-1.608-.035-.216.213-2.629.282-8.178.255-7.747-.038-7.881-.039-7.267.474,1.469,1.133,12.221,6.065,17.038,7.777,1.151.408,1.499.436,1.929.17.403-.239,3.54-.304,12.842-.259,11.071.054,13.297-.042,12.441-.556Z" style="fill: #ae423c; stroke-width: 0px;"/>
    <path d="M126.36,304.423c-1.42-.168-2.625-.415-5.169-1.017-.723-.164-2.062-.466-2.945-.685-1.714-.384-3.668-.903-6.024-1.611-.803-.245-1.954-.546-2.543-.709-.589-.137-1.312-.355-1.606-.49s-1.498-.57-2.676-.951c-1.178-.408-3.265-1.115-4.63-1.604-2.061-.707-2.57-.79-3-.524-.403.239-2.87.308-9.384.276l-8.873-.043.061,3.968.061,3.941,23.965.117c17.398.085,23.993.037,24.074-.177.055-.187-.454-.378-1.311-.489Z" style="fill: #ae423c; stroke-width: 0px;"/>
    <path d="M126.016,51.464c-.238-.752-.87-3.034-1.29-4.751-.21-.886-.423-1.155-.825-1.157-.536-.003-2.818.63-3.865,1.053-.296.133-1.37.503-2.417.819-1.02.317-1.987.687-2.122.821-.161.106-.457.212-.671.211-.241.026-.913.237-1.504.529s-1.155.504-1.263.53c-.643.024-9.618,4.349-12.199,5.865-1.21.718-2.258,1.303-2.365,1.302-.08,0-.672.345-1.291.771-.645.426-2.232,1.463-3.577,2.315-2.205,1.41-7.263,5.085-9.551,6.923-1.238,1.013-6.624,5.892-7.674,6.932-2.748,2.775-6.009,6.351-7.547,8.247-.567.748-1.133,1.388-1.214,1.468-.807.666-6.882,9.322-8.828,12.556-4,6.656-8.065,15.536-10.216,22.334-.572,1.767-1.143,3.453-1.251,3.747-.135.294-.354,1.071-.518,1.74-.137.67-.465,1.928-.711,2.811-.929,3.534-1.782,8.034-2.339,12.32-.14,1.179-.418,3.268-.586,4.662-.445,3.295-.511,16.86-.099,20.132.154,1.395.412,3.514.54,4.694.567,4.721,1.01,7.27,2.14,11.806.289,1.181.63,2.684.788,3.355.131.671.341,1.449.474,1.745.106.295.66,1.987,1.215,3.759.527,1.772,1.056,3.41,1.162,3.625s.583,1.424,1.059,2.686c2.064,5.479,7.56,16.443,9.345,18.677.133.161.985,1.426,1.89,2.824s2.422,3.577,3.381,4.842c1.838,2.422,2.024,2.691,4.157,5.194l1.386,1.588,5.04-.002c2.761-.013,5.148-.109,5.255-.162.134-.08-.771-1.237-2.025-2.557-4.801-5.063-11.832-14.427-13.264-17.57-.159-.376-.399-.699-.533-.7-.107,0-.214-.135-.213-.296s-.504-1.182-1.142-2.231c-1.17-1.963-3.187-6.021-4.168-8.358-.318-.725-.662-1.585-.795-1.88-1.034-2.364-1.325-3.116-1.323-3.465.001-.214-.105-.456-.239-.564-.134-.081-.346-.538-.451-.994-.078-.483-.263-1.047-.369-1.289-.478-.914-1.506-4.431-3.164-10.739-.711-2.684-1.515-8.077-2.362-15.828-.385-3.487-.083-15.817.501-20.103.723-5.358,1.687-10.527,2.506-13.526.246-.883.546-2.088.683-2.704.137-.589.355-1.365.518-1.74.136-.348.544-1.552.871-2.65.354-1.097.707-2.114.842-2.248.108-.16.217-.455.218-.669.001-.241.191-.776.408-1.204.216-.401.406-.883.407-1.017.001-.214.354-1.071,1.356-3.291.135-.294.488-1.124.813-1.873.786-1.819,3.709-7.515,4.493-8.744.351-.561.649-1.069.649-1.176,0-.161.973-1.684,3.485-5.452,1.594-2.432,4.4-6.117,6.746-8.948,2.724-3.257,10.374-10.806,13.496-13.338,1.265-1.039,2.449-1.999,2.638-2.185s.969-.773,1.749-1.278c.78-.532,2.259-1.544,3.282-2.263,5.219-3.701,13.927-8.376,19.756-10.626.806-.318,1.692-.689,1.934-.822.269-.133.618-.238.779-.237s.671-.158,1.128-.37c.86-.371,2.793-1.032,5.639-1.903,1.584-.502,1.692-.662,1.243-1.978Z" style="fill: #ae423c; stroke-width: 0px;"/>
    <path d="M112.76,43.169c-.661-1.799-1.378-3.331-1.592-3.412s-.939.076-1.637.394c-1.263.53-2.66,1.14-3.68,1.564-3.17,1.298-10.534,5.096-14.513,7.516-3.872,2.34-11.457,7.557-12.239,8.411-.081.107-1.023.88-2.126,1.732-3.364,2.664-8.697,7.732-12.981,12.295-1.455,1.548-6.984,8.276-7.794,9.479-.216.321-.594.855-.837,1.175-4.263,5.636-10.483,16.623-13.358,23.552-.543,1.338-1.166,2.782-1.383,3.264-.19.455-.38.963-.381,1.124s-.11.509-.272.776c-.514.936-2.936,8.376-3.702,11.429-2.488,9.853-3.292,15.237-3.989,26.386-.32,5.199-.159,10.535.582,18.098.46,4.667,1.524,11.722,1.843,12.233.053.107.29,1.02.499,2.04.498,2.415,1.049,4.723,1.577,6.522.237.805.553,1.96.711,2.55s.369,1.208.476,1.343c.106.161.292.672.396,1.155s.343,1.208.555,1.611.371.94.37,1.181.131.537.265.618c.16.081.266.35.265.591-.001.214.184.778.369,1.235.212.484.822,1.881,1.325,3.143,2.702,6.662,7.138,14.967,11.263,21.046,3.593,5.326,4.792,6.806,5.223,6.379.162-.16,1.905-.259,4.478-.246,2.332.011,4.29-.086,4.398-.22.081-.134-.025-.402-.211-.618-.187-.189-.8-.942-1.386-1.696-.586-.727-1.119-1.399-1.199-1.48-.961-.916-5.831-8.124-8.304-12.265-2.207-3.71-3.906-7.07-6.717-13.41-.822-1.854-1.405-3.304-1.854-4.566-.238-.725-.529-1.531-.662-1.746-.106-.242-.291-.832-.396-1.342s-.289-1.101-.422-1.342c-.691-1.237-2.401-7.786-3.631-13.958-1.257-6.091-2.096-15.317-2.063-22.234.033-6.729,1.017-16.106,2.361-22.4,1.097-5.061,2.518-10.604,2.923-11.245.108-.134.271-.696.381-1.204s.3-1.044.408-1.204c.108-.134.298-.696.408-1.204s.3-1.098.409-1.338c.108-.214.597-1.418,1.085-2.675,1.412-3.585,2.252-5.485,4.201-9.362,2.437-4.894,5.005-9.305,7.462-12.831.675-.962,1.728-2.458,2.349-3.339,2.97-4.221,9.17-11.322,13.425-15.349,1.858-1.76,4.82-4.373,7.242-6.372,3.015-2.505,9.524-7.057,13.45-9.397,4.436-2.659,12.659-6.667,15.935-7.803.806-.291,1.531-.69,1.666-.903.135-.241-.233-1.61-.974-3.677Z" style="fill: #ae423c; stroke-width: 0px;"/>
    <path d="M106.025,236.205c-2.967-1.757-7.216-4.593-8.764-5.86-.828-.674-1.095-.756-1.526-.517-.349.186-2.494.283-5.658.267-2.815-.014-5.121.082-5.121.189-.001.214,1.253,1.373,3.469,3.18.507.431.988.836,1.068.917.213.269,4.353,3.345,5.182,3.886.615.405.802.433.991.139.162-.294,1.637-.394,6.651-.477l6.408-.103-2.7-1.622Z" style="fill: #ae423c; stroke-width: 0px;"/>
    <path d="M105.65,247.033c-3.182-1.704-6.871-3.84-7.485-4.353-.133-.135-1.229-.864-2.405-1.62-1.176-.783-2.218-1.512-2.324-1.673s-.401-.163-.885.049c-.457.212-2.441.31-5.899.293-3.11-.015-5.228.082-5.229.216,0,.161,1.04,1.077,2.349,2.102,1.282.998,2.377,1.888,2.457,1.996.133.161,2.217,1.673,4.541,3.239,1.176.81,1.55.946,1.846.706.269-.213,2.522-.363,7.106-.421,6.354-.103,6.676-.128,5.927-.534Z" style="fill: #ae423c; stroke-width: 0px;"/>
    <path d="M102.897,256.376c-2.728-1.3-7.807-4.247-11.441-6.677-1.683-1.134-1.844-1.189-2.168-.761-.297.427-.833.478-4.774.432-4.235-.074-4.45-.049-5.016.512-.323.32-.486.668-.352.776.107.081,1.362,1.025,2.751,2.051,5.075,3.778,7.32,5.129,7.965,4.811.242-.106,3.647-.25,7.534-.312l7.051-.1-1.551-.731Z" style="fill: #ae423c; stroke-width: 0px;"/>
    <path d="M99.181,265.258c-1.658-.812-3.717-1.895-4.599-2.408-4.09-2.352-6.683-3.92-6.816-4.081-.266-.377-1.15-.542-1.446-.302-.188.16-1.717.313-3.406.332l-3.056.065-.168,1.474c-.084.804-.249,1.661-.331,1.875-.298.642,6.971,5.369,7.616,4.943.188-.106,3.701-.25,7.776-.31l7.399-.098-2.968-1.489Z" style="fill: #ae423c; stroke-width: 0px;"/>
    <path d="M100.011,276.307c-.214-.028-2.274-1.003-4.547-2.167-4.813-2.463-4.359-2.22-8.181-4.49-2.86-1.703-3.85-2.11-3.853-1.52,0,.134-.806.264-1.798.313l-1.823.071-.092,2.278c-.061,1.474-.226,2.412-.469,2.678-.35.374-.217.535.959,1.318,2.458,1.62,3.929,2.298,4.333,1.978.242-.213,2.897-.334,8.124-.362,4.262-.006,7.56-.043,7.346-.098Z" style="fill: #ae423c; stroke-width: 0px;"/>
    <path d="M98.842,38.678c-1.088-2.311-1.647-3.171-1.995-3.173-.617-.003-8.733,4.22-10.67,5.577-.377.266-1.909,1.251-3.389,2.208s-3.523,2.342-4.572,3.087c-1.022.746-2.179,1.571-2.529,1.811-6.968,5.006-16.96,14.447-22.246,21.016-.593.748-1.214,1.495-1.429,1.709-.674.694-5.639,7.398-6.882,9.322-.702,1.042-1.809,2.726-2.458,3.741-2.269,3.447-5.921,10.212-7.899,14.625-1.328,2.942-1.355,3.023-2.006,4.547-.299.749-.651,1.525-.786,1.739-.135.241-.326.803-.408,1.285-.109.455-.326.91-.461.99-.135.107-.243.347-.244.589-.001.214-.165.777-.381,1.231-.569,1.23-2.338,6.556-2.34,7.012-.001.241-.11.616-.272.883-.135.241-.353.99-.517,1.66-.137.67-.493,2.142-.793,3.267-2.375,8.754-3.629,18.399-3.873,29.952-.206,9.194.32,16.73,1.677,24.269.13.751.339,2.012.496,2.817.469,2.683,1.257,6.065,2.258,9.796.184.752.5,1.879.658,2.55s.395,1.396.501,1.611c.133.242.318.833.422,1.342s.289,1.101.396,1.342c.133.215.477,1.182.794,2.148s.687,1.96.82,2.202c.133.269.238.618.238.752-.001.268.317,1.047,1.324,3.357.133.296.662,1.585,1.192,2.847,2.04,4.916,5.732,12.011,8.844,16.905,2.926,4.598,3.326,5.137,3.622,4.843.162-.16,1.905-.259,4.505-.246,2.922.014,4.236-.06,4.237-.274,0-.161-.345-.752-.771-1.291-.799-1.023-4.152-6.106-5.482-8.257-3.457-5.727-6.537-11.854-8.761-17.441-.53-1.316-1.139-2.794-1.351-3.277-.212-.457-.371-.967-.37-1.128s-.105-.51-.237-.779c-.478-.833-2.141-6.203-3.352-10.793-.974-3.624-.896-3.248-1.836-8.319-.679-3.703-1.17-7.351-1.396-10.596-.152-1.77-.354-4.425-.507-5.9-.332-3.406-.3-9.92.066-13.538.168-1.554.423-4.207.565-5.895.623-6.726,2.822-17.867,4.371-22.229.136-.375.707-2.114,1.252-3.881.572-1.767,1.142-3.319,1.25-3.452.135-.16.243-.455.245-.669.028-.241.246-.91.543-1.499s.515-1.231.543-1.418c0-.188.11-.536.272-.803.135-.241.514-1.043.813-1.792,2.386-5.591,5.687-11.794,9.47-17.754,6.782-10.797,16.917-22.087,26.685-29.787,1.103-.879,2.234-1.785,2.476-2.025.269-.213,1.157-.879,1.964-1.465.834-.559,2.448-1.704,3.578-2.502,3.013-2.157,10.111-6.358,14.249-8.428.752-.372,1.398-.824,1.399-.985-.026-.161-.689-1.719-1.511-3.439Z" style="fill: #ae423c; stroke-width: 0px;"/>
    <path d="M96.83,285.432c-.08-.188-.24-.35-.374-.35-.59-.003-6.393-2.846-11.072-5.416-5.053-2.786-4.571-2.623-5.192-1.875-.485.561-.541,1.043-.58,3.563-.011,2.225-.122,3.029-.419,3.376-.377.4-.271.508,1.066,1.212,1.364.677,1.525.704,1.821.304.27-.374,1.235-.423,7.589-.445,5.657-.026,7.239-.125,7.159-.367Z" style="fill: #ae423c; stroke-width: 0px;"/>
    <path d="M94.158,294.614c-.937-.246-4.628-1.98-9.843-4.632-2.46-1.272-4.573-2.301-4.68-2.302s-.142,1.715-.072,3.806l.115,3.834,7.586.118c6.353.085,7.56.037,7.561-.285,0-.188-.293-.457-.668-.539Z" style="fill: #ae423c; stroke-width: 0px;"/>
    <path d="M88.923,235.987c-1.202-.944-2.296-1.834-2.483-1.996-2.936-2.722-4.751-4.205-5.153-4.207-1.233-.006-1.396.476-1.495,4.148-.063,1.93-.206,3.725-.341,3.993-.217.455-.19.482.267.269.269-.133,2.923-.254,5.845-.266,2.949-.039,5.389-.081,5.416-.134.054-.053-.88-.862-2.055-1.806Z" style="fill: #ae423c; stroke-width: 0px;"/>
    <path d="M85.872,245.757c-1.202-.891-2.938-2.266-3.846-3.021-.908-.782-1.789-1.43-1.95-1.43s-.274,1.151-.283,3.081l-.015,3.083,4.155.02c2.279.011,4.155-.006,4.155-.033-.027-.054-1.015-.809-2.217-1.7Z" style="fill: #ae423c; stroke-width: 0px;"/>
    <path d="M84.078,256.337c-.534-.378-1.042-.729-1.122-.81s-.801-.594-1.603-1.161l-1.469-1.026-.089,1.796c-.058.965-.036,1.823.017,1.903.08.054,1.286.06,2.681.04l2.601-.068-1.015-.675Z" style="fill: #ae423c; stroke-width: 0px;"/>
    <path d="M83.897,35.977c-.931-1.559-1.755-2.931-1.808-3.065-.185-.51-1.422.208-8.388,4.892-2.985,1.996-9.848,7.378-12.621,9.857-3.608,3.226-10.747,10.429-13.228,13.339-1.456,1.682-2.885,3.364-3.208,3.737-.297.374-1.376,1.763-2.374,3.071-1.025,1.335-1.97,2.564-2.131,2.751-1.294,1.549-7.454,11.223-9.618,15.153-.866,1.604-4.412,8.637-5.09,10.162-1.111,2.461-1.572,3.531-2.088,4.896-.299.856-.787,2.034-1.058,2.649-.298.615-.516,1.284-.517,1.472-.001.214-.11.482-.218.642-.135.133-.515,1.15-.842,2.248-.354,1.097-.925,2.864-1.279,3.881-.762,2.302-1.117,3.56-1.663,5.621-3.445,13.735-4.587,22.523-4.68,36.033-.061,12.546.965,21.907,3.591,33.125,1.182,5.046,1.445,6.012,2.343,8.858.343,1.047.898,2.792,1.241,3.893.316,1.101.687,2.121.82,2.283.107.135.212.43.211.671-.001.214.157.698.343,1.074s.557,1.289.821,2.015c.264.752.715,1.88,1.006,2.552.265.671.636,1.504.795,1.88,1.881,4.593,5.519,11.742,8.204,16.232l1.436,2.393,4.289-.033c2.359-.015,4.397-.139,4.532-.273.162-.16-.103-.805-.689-1.665-3.806-5.648-8.586-14.867-11.499-22.253-.265-.671-.715-1.719-.98-2.337s-.476-1.289-.475-1.477c.001-.214-.105-.483-.211-.618-.24-.296-2.352-6.901-3.221-10.069-.869-3.221-1.027-3.785-1.42-5.637-.21-.966-.55-2.603-.786-3.623-.236-1.047-.523-2.683-.679-3.622-.129-.966-.414-2.951-.622-4.426-.234-1.476-.591-5.15-.845-8.18-1.188-14.616.338-30.8,4.296-45.15.246-.883.546-2.088.71-2.65.738-2.865,3.809-11.401,4.593-12.792.162-.267.271-.615.272-.749,0-.161.272-.857.571-1.552,4.851-10.646,8.069-16.313,14.142-24.916,1.188-1.656,4.21-5.663,4.452-5.876.081-.08.647-.721,1.24-1.468,1.079-1.335,1.429-1.736,3.613-4.245,1.375-1.548,8.702-8.831,10.533-10.457,4.739-4.186,10.955-8.954,16.36-12.466,1.936-1.277,3.551-2.476,3.552-2.637,0-.188-.796-1.586-1.727-3.145Z" style="fill: #ae423c; stroke-width: 0px;"/>
    <path d="M81.163,265.92c-.641-.432-1.283-.757-1.444-.758-.188,0-.243.267-.138.75.237.966.13.912,1.524.812l1.18-.075-1.122-.729Z" style="fill: #ae423c; stroke-width: 0px;"/>
    <path d="M76.701,262.869c-1.015-.729-2.805-2.105-4.006-3.022-2.19-1.753-2.457-1.889-2.754-1.434-.108.16-2.146.258-5.255.242-5.361-.026-5.764.079-4.456,1.158.32.296,1.361,1.213,2.322,2.049,3.39,2.992,6.729,5.421,7.186,5.209.242-.106,2.146-.231,4.264-.274l3.807-.062.004-.831c.002-.456.166-1.045.381-1.258.35-.374.164-.589-1.493-1.777Z" style="fill: #ae423c; stroke-width: 0px;"/>
    <path d="M78.076,239.419c-.32-.27-.508-.271-.724-.057s-1.878.312-5.229.296c-2.708-.013-4.906.083-4.907.19-.001.268,2.373,2.585,6.11,5.928,2.536,2.291,2.803,2.48,3.234,2.08.242-.213.645-.399.887-.398.375.002.431-.48.526-3.402.063-1.903.205-3.618.314-3.859.135-.267.056-.563-.211-.778Z" style="fill: #ae423c; stroke-width: 0px;"/>
    <path d="M77.801,251.669c-.347-.243-.801-.594-1.015-.782-.213-.216-.961-.836-1.682-1.375-1.175-.917-1.362-.972-1.766-.598-.35.32-1.342.396-5.176.377-2.681-.013-4.745.084-4.746.218s.933,1.077,2.054,2.101c1.148.998,2.189,1.968,2.349,2.129.133.188,1.281,1.132,2.509,2.13,1.602,1.295,2.351,1.727,2.673,1.595.242-.133,1.422-.261,2.629-.309l2.199-.07.091-2.064c.059-1.126.199-2.251.307-2.492.162-.294.03-.563-.425-.86Z" style="fill: #ae423c; stroke-width: 0px;"/>
    <path d="M75.575,273.721c-1.47-.972-3.954-2.7-5.504-3.834-1.576-1.16-2.939-2.105-3.046-2.106s-.269.133-.35.266c-.108.16-2.199.257-5.363.242-2.868-.014-5.255.082-5.336.215-.189.267,2.481,2.532,6.647,5.716,3.232,2.482,3.659,2.699,4.17,2.379.188-.133,2.762-.228,5.657-.214,4.772.023,5.308-.028,5.524-.429s-.184-.778-2.402-2.237Z" style="fill: #ae423c; stroke-width: 0px;"/>
    <path d="M74.637,230.02c-1.85-.009-3.351.064-3.352.144-.001.241,1.812,2.18,4.48,4.794l2.188,2.129.017-3.512.017-3.539-3.351-.016Z" style="fill: #ae423c; stroke-width: 0px;"/>
    <path d="M77.471,258.825c-.642-.244-2.708-.013-2.709.335-.002.322,2.455,2.237,2.857,2.239s.253-2.411-.148-2.574Z" style="fill: #ae423c; stroke-width: 0px;"/>
    <path d="M77.611,268.557c-.08-.108-1.473-.195-3.082-.203-2.252-.011-2.896.066-2.897.334-.001.214,1.227,1.212,2.75,2.238,1.496.999,2.886,1.944,3.073,2.079.24.189.323-.24.332-2.009.006-1.26-.069-2.359-.176-2.44Z" style="fill: #ae423c; stroke-width: 0px;"/>
    <path d="M73.061,277.998c-2.842-.014-4.692.084-4.693.245-.001.295,2.189,1.807,6.359,4.347l2.993,1.838.016-3.19.016-3.217-4.691-.023Z" style="fill: #ae423c; stroke-width: 0px;"/>
    <path d="M77.384,287.535c-.187-.081-14.69-.179-32.248-.238l-31.901-.076-.019,3.887-.019,3.887,32.168.157,32.168.157.099-3.833c.068-2.895.019-3.86-.249-3.942Z" style="fill: #ae423c; stroke-width: 0px;"/>
    <path d="M45.357,296.895l-32.329-.158.061,3.968.061,3.941,32.168.157,32.168.157.1-3.94.1-3.967-32.329-.158Z" style="fill: #ae423c; stroke-width: 0px;"/>
    <path d="M72.1,233.492c-2.321-2.37-4.162-4.042-4.217-3.827-.108.241-1.288.315-4.666.299-2.761-.014-4.531.085-4.532.246,0,.134,1.172,1.614,2.611,3.283,4.612,5.33,4.372,5.088,4.802,4.715.269-.213,1.986-.366,5.256-.43l4.853-.11-4.108-4.175Z" style="fill: #ae423c; stroke-width: 0px;"/>
    <path d="M75.68,285.141c-.213-.242-.534-.432-.695-.432-.134,0-.749-.352-1.363-.784s-2.565-1.728-4.329-2.89-3.26-2.161-3.34-2.241-.507-.431-.988-.755c-.908-.648-1.685-.812-1.687-.357,0,.188-8.526.226-25.066.145l-25.065-.123-.019,3.887-.019,3.887,31.498.154c17.317.085,31.499.101,31.499.047,0-.08-.186-.323-.426-.538Z" style="fill: #ae423c; stroke-width: 0px;"/>
    <path d="M70.62,245.522c-1.067-.997-3.015-2.856-4.296-4.149-1.76-1.805-2.428-2.291-2.644-2.077s-1.824.313-4.961.297c-2.547-.012-4.638.058-4.639.165,0,.188,3.385,3.984,5.946,6.597,1.307,1.374,1.788,1.724,2.03,1.484.216-.213,2.039-.365,5.417-.429l5.121-.109-1.975-1.779Z" style="fill: #ae423c; stroke-width: 0px;"/>
    <path d="M69.203,36.71c-.479-.673-1.384-1.964-2.023-2.878-.665-.968-1.359-1.696-1.627-1.697-.375-.002-2.769,1.568-3.227,2.129-.081.08-.888.719-1.803,1.412s-1.83,1.412-2.018,1.599c-.188.16-1.158.986-2.1,1.786-6.972,5.837-15.083,14.375-21.908,23.081-2.023,2.617-6.937,9.617-6.938,9.938,0,.08-.271.535-.621.989-.729.962-3.431,5.372-3.432,5.613,0,.08-.46.909-1.028,1.818-1.027,1.711-4.654,8.877-5.739,11.312-.299.749-.678,1.578-.813,1.873-.705,1.551-1.329,3.076-1.763,4.281-.272.749-.597,1.445-.732,1.605-.108.134-.216.401-.217.616s-.165.75-.381,1.204c-.217.481-.842,2.248-1.413,3.934-.544,1.686-1.089,3.319-1.224,3.613s-.353,1.017-.49,1.606c-.164.589-.655,2.463-1.119,4.15-.818,2.864-1.037,3.802-2.08,8.702-1.811,8.489-3.16,21.189-3.202,29.875-.044,8.954,1.155,21.452,2.908,30.173,1.021,5.045,1.152,5.635,2.39,10.199.184.752.5,1.879.658,2.55s.395,1.45.528,1.745.502,1.45.819,2.551c.343,1.101.686,2.148.793,2.283.106.161.265.671.37,1.155s.343,1.208.555,1.611.371.913.37,1.128c-.001.241.105.537.211.671.133.161.451.887.716,1.612.423,1.208,1.032,2.739,1.721,4.298.133.296.504,1.155.795,1.88,1.113,2.606,5.334,11.017,6.053,12.066l.719,1.022,4.155-.006c2.279-.016,4.263-.14,4.371-.247.135-.133-.502-1.477-1.379-2.982-2.553-4.275-6.162-11.665-8.148-16.661-.503-1.262-1.033-2.498-1.166-2.74-.16-.269-.265-.618-.264-.806s-.158-.644-.344-1.02-.609-1.504-.953-2.551c-.317-1.02-.687-2.121-.792-2.417-.133-.296-.502-1.45-.819-2.551s-.738-2.497-.923-3.087-.526-1.986-.789-3.087c-.236-1.1-.552-2.255-.685-2.55-.106-.295-.343-1.208-.499-2.013s-.444-2.388-.68-3.488c-.838-4.132-1.408-8.156-2.176-15.425-.692-6.518-.45-23.03.41-28.95.139-1.018.389-2.84.556-4.018.39-3.027,1.024-6.643,1.518-8.839.246-1.017.603-2.651.822-3.615.411-1.901,1.259-5.195,1.94-7.497.845-2.864,1.525-4.952,1.743-5.487.135-.294.516-1.365.843-2.409.353-1.017.788-2.168.978-2.542s.353-.856.354-1.071c.001-.241.11-.536.218-.669.135-.16.514-1.016.867-1.953.326-.91.732-1.739.84-1.819.134-.08.243-.321.244-.535.003-.67,5.067-11.127,5.497-11.286.107-.053.189-.214.189-.374,0-.134.515-1.123,1.163-2.166.622-1.069,1.217-2.139,1.325-2.379.461-1.097,7.266-11.197,9.127-13.547,7.58-9.56,12.107-14.363,20.83-22.095.7-.613,2.45-2.052,3.903-3.171,1.426-1.146,3.122-2.478,3.768-2.984.619-.48,1.131-.96,1.104-1.067,0-.107-.399-.726-.851-1.398Z" style="fill: #ae423c; stroke-width: 0px;"/>
    <path d="M67.381,255.505c-.934-.809-2.963-2.615-4.484-4.043-2.001-1.886-2.963-2.588-3.339-2.509-.322.025-2.681.148-5.255.242l-4.692.138,4.054,4.148c2.907,2.99,4.135,4.068,4.404,3.909.188-.133,2.736-.281,5.685-.347l5.308-.108-1.682-1.429Z" style="fill: #ae423c; stroke-width: 0px;"/>
    <path d="M63.662,264.923c-1.121-.917-3.364-2.831-4.938-4.287-2.135-1.914-2.99-2.535-3.206-2.321-.189.187-1.905.286-4.907.271-3.002-.015-4.692.084-4.8.271-.189.267,1.731,2.287,5.974,6.249,1.654,1.563,2.349,2.049,2.672,1.89.242-.106,2.87-.254,5.846-.32l5.416-.108-2.056-1.645Z" style="fill: #ae423c; stroke-width: 0px;"/>
    <path d="M61.497,236.255c-.667-.727-2.132-2.53-3.278-3.957-1.625-2.072-2.185-2.611-2.615-2.506-.295.079-2.44.122-4.745.111-2.332-.011-4.236.086-4.237.194-.001.295,3.088,4.465,4.953,6.699,1.039,1.265,1.44,1.589,1.682,1.349.216-.213,1.932-.366,4.881-.432l4.585-.112-1.227-1.346Z" style="fill: #ae423c; stroke-width: 0px;"/>
    <path d="M61.199,275.259c-.668-.513-1.335-1.079-1.495-1.214-.16-.162-1.121-.944-2.163-1.753-1.015-.809-1.976-1.618-2.136-1.78-.133-.161-.934-.862-1.762-1.537-1.468-1.24-2.11-1.538-2.113-1.002,0,.161-6.676.262-19.088.228l-19.114-.013-.099,3.833c-.068,2.895-.019,3.86.249,3.942.187.081,11.285.162,24.635.201l24.314.039-1.229-.944Z" style="fill: #ae423c; stroke-width: 0px;"/>
    <path d="M56.415,244.943c-1.173-1.266-2.773-3.096-3.599-4.092-1.492-1.83-1.786-2.046-2.083-1.565-.108.16-1.931.259-4.585.246-2.413-.012-4.397.059-4.397.193-.001.268,4.209,5.489,5.969,7.401.533.566.827.728,1.177.569.242-.133,2.521-.283,5.042-.351l4.611-.111-2.133-2.289Z" style="fill: #ae423c; stroke-width: 0px;"/>
    <path d="M52.16,254.278c-1.254-1.266-3.068-3.125-4.001-4.121-1.547-1.643-1.734-1.751-2.165-1.378-.35.32-1.262.396-4.64.379-2.305-.011-4.209.06-4.209.14-.001.241,3.517,4.387,5.304,6.245l1.493,1.589,5.308-.108c2.895-.039,5.282-.162,5.255-.242-.026-.107-1.066-1.238-2.347-2.505Z" style="fill: #ae423c; stroke-width: 0px;"/>
    <path d="M46.439,262.078c-3.388-3.341-4.296-4.096-4.592-3.856-.269.24-4.291.327-14.424.305l-14.047.012-.1,3.967-.1,3.94,18.792.092c10.321.051,18.738.011,18.739-.096-.026-.134-1.947-2.074-4.268-4.364Z" style="fill: #ae423c; stroke-width: 0px;"/>
    <path d="M47.86,234.714c-1.145-1.56-2.477-3.39-2.929-4.089-.559-.834-.932-1.184-1.094-1.024s-2.092.258-4.505.246c-3.431-.017-4.236.06-4.237.355,0,.188.185.51.399.699s.4.431.399.565.798,1.344,1.783,2.716c3.355,4.708,3.008,4.331,3.52,3.878.35-.32,1.316-.422,4.613-.46l4.182-.06-2.131-2.825Z" style="fill: #ae423c; stroke-width: 0px;"/>
    <path d="M44.721,246.092c-.56-.593-1.653-1.911-2.452-2.961-.799-1.023-1.598-2.045-1.785-2.234s-.533-.7-.799-1.157c-.319-.565-.586-.727-.882-.594-.215.106-2.307.23-4.612.272-2.332.042-4.236.167-4.237.274-.001.214,2.022,3.146,3.061,4.465.24.296.986,1.292,1.678,2.206,1.092,1.507,1.252,1.641,1.656,1.295.323-.293,1.423-.395,4.908-.432l4.45-.059-.987-1.077Z" style="fill: #ae423c; stroke-width: 0px;"/>
    <path d="M40.118,255.452c-1.786-1.966-2.853-3.204-3.918-4.576-1.865-2.341-1.892-2.368-2.483-2.05-.376.186-3.862.276-10.483.244l-9.945-.049-.019,3.887-.019,3.887,13.94.068c7.667.038,13.94-.012,13.941-.119,0-.134-.452-.699-1.012-1.292Z" style="fill: #ae423c; stroke-width: 0px;"/>
    <path d="M37.528,236.808c-.799-1.023-4.578-6.778-4.577-6.966s-8.9-.097-9.088.09c-.188.16.689,1.665,4.334,7.313.372.592.693.808.962.675.215-.106,2.307-.257,4.639-.326l4.263-.113-.533-.673Z" style="fill: #ae423c; stroke-width: 0px;"/>
    <path d="M30.792,243.879c-1.278-1.776-2.609-3.685-2.982-4.223-.585-.888-.692-.942-1.096-.595-.35.293-1.637.367-6.891.342l-6.487-.032-.019,3.887-.019,3.887,9.919.049c5.469.027,9.919.022,9.919-.032,0-.027-1.038-1.533-2.343-3.282Z" style="fill: #ae423c; stroke-width: 0px;"/>
    <path d="M25.948,236.751c-.293-.377-1.384-2.125-2.447-3.899l-1.888-3.226-3.78.062c-2.091.017-3.941.115-4.102.168-.268.079-.354,1.097-.368,3.885l-.018,3.753,6.568.032c3.619.018,6.568.005,6.568-.021,0-.054-.239-.376-.532-.753Z" style="fill: #ae423c; stroke-width: 0px;"/>
    <path d="M8.614,300.201c-.32-.27-.428-.243-.563.104-.082.241-.083.616-.004.858.132.349.239.376.562.11.215-.187.404-.427.405-.534s-.186-.349-.399-.538Z" style="fill: #ae423c; stroke-width: 0px;"/>
    <path d="M6.47,300.19c-.481-.404-.938-.139-.941.532-.001.268.131.59.265.671.294.189,1.074-.316,1.076-.665,0-.107-.186-.349-.399-.538Z" style="fill: #ae423c; stroke-width: 0px;"/>
    <path d="M6.51,281.05c-.589-.244-.966.183-.755.881.132.456.239.511.696.218.619-.399.675-.881.059-1.099Z" style="fill: #ae423c; stroke-width: 0px;"/>
  </g>
  <rect x="285.054" y="250.333" width="50.435" height="7.914" style="fill: #ae423c; stroke-width: 0px;"/>
  <rect x="280.867" y="259.806" width="54.521" height="8.04" style="fill: #ae423c; stroke-width: 0px;"/>
  <rect x="284.445" y="269.483" width="51.139" height="8.178" style="fill: #ae423c; stroke-width: 0px;"/>
  <rect x="287.478" y="279.242" width="47.91" height="7.869" style="fill: #ae423c; stroke-width: 0px;"/>
  <rect x="285.054" y="288.624" width="50.196" height="7.923" style="fill: #ae423c; stroke-width: 0px;"/>
  <rect x="286.172" y="298.274" width="48.851" height="7.759" style="fill: #ae423c; stroke-width: 0px;"/>
  <rect x="1.722" y="229.529" width="16.729" height="8.006" style="fill: #ae423c; stroke-width: 0px;"/>
  <rect x="1.722" y="239.271" width="19.617" height="7.913" style="fill: #ae423c; stroke-width: 0px;"/>
  <rect x="1.722" y="248.946" width="24.401" height="7.911" style="fill: #ae423c; stroke-width: 0px;"/>
  <rect x="1.929" y="258.191" width="31.206" height="8.368" style="fill: #ae423c; stroke-width: 0px;"/>
  <rect x="1.929" y="268.046" width="19.41" height="8.038" style="fill: #ae423c; stroke-width: 0px;"/>
  <rect x="2.385" y="277.533" width="23.738" height="8.009" style="fill: #ae423c; stroke-width: 0px;"/>
  <rect x="2.923" y="287.221" width="23.2" height="7.837" style="fill: #ae423c; stroke-width: 0px;"/>
  <rect x="2.923" y="296.737" width="23.2" height="7.972" style="fill: #ae423c; stroke-width: 0px;"/>
</svg>