<?xml version="1.0" encoding="UTF-8"?>
<svg id="Pieeeeeee" xmlns="http://www.w3.org/2000/svg" viewBox="0 0 751.902 561.619">
  <g id="Pieee">
    <path d="M297.352,249.584c30.161,0,54.612,24.451,54.612,54.612s-24.451,54.612-54.612,54.612-54.612-24.451-54.612-54.612c0-11.254,3.477-22.233,9.955-31.435l29.525,20.784c-5.883,8.357-3.877,19.901,4.48,25.783,8.357,5.883,19.901,3.877,25.783-4.48,5.883-8.357,3.877-19.901-4.48-25.783-3.118-2.195-6.838-3.373-10.652-3.373v-36.107Z" style="fill: #bc1b3a; stroke: #fff; stroke-width: .358px;"/>
    <path d="M298.248,391.303c31.649,0,57.305,25.656,57.305,57.305s-25.656,57.305-57.305,57.305-57.305-25.656-57.305-57.305c0-13.866,5.027-27.261,14.15-37.703l27.507,24.032c-7.55,8.642-6.665,21.769,1.977,29.319,8.642,7.55,21.769,6.665,29.319-1.977,7.55-8.642,6.665-21.769-1.977-29.319-3.786-3.308-8.643-5.131-13.671-5.131v-36.526Z" style="fill: #bc1b3a; stroke: #fff; stroke-width: .381px;"/>
    <path d="M507.586,391.638c31.399,0,56.853,25.454,56.853,56.853s-25.454,56.853-56.853,56.853-56.853-25.454-56.853-56.853c0-10.557,2.94-20.906,8.489-29.887l30.827,19.05c-5.985,9.685-2.985,22.389,6.7,28.374,9.685,5.985,22.389,2.985,28.374-6.7,5.985-9.685,2.985-22.389-6.7-28.374-3.256-2.012-7.009-3.078-10.837-3.078v-36.238Z" style="fill: #bc1b3a; stroke: #fff; stroke-width: .378px;"/>
    <path d="M254.351,407.13c10.392-11.915,25.442-18.723,41.299-18.723v34.938c-5.733,0-11.198,2.508-14.961,6.809l-26.338-23.024h0Z" style="fill: #cfcfcf; stroke: #fff; stroke-width: .358px;"/>
    <path d="M457.89,414.387c9.944-16.125,27.592-25.98,46.585-25.98v34.938c-6.898,0-13.259,3.583-16.932,9.406l-29.742-18.365h.09Z" style="fill: #cfcfcf; stroke: #fff; stroke-width: .358px;"/>
    <path d="M251.126,269.527c10.213-14.602,26.697-23.203,44.434-23.203v36.193c-6.002,0-11.557,2.956-15.05,7.884l-29.384-20.873h0Z" style="fill: #cfcfcf; stroke: #fff; stroke-width: .358px;"/>
    <path d="M507.251,248.116c30.011,0,54.289,24.546,54.289,54.737s-24.278,54.737-54.289,54.737-52.049-22.128-54.11-50.705l35.834-2.688c.717,10.213,9.586,17.917,19.709,17.111s17.738-9.675,16.932-19.888c-.717-9.675-8.69-17.2-18.365-17.2v-36.193.09Z" style="fill: #bc1b3a; stroke: #fff; stroke-width: .358px;"/>
    <path d="M450.364,305.182c-2.24-30.19,20.157-56.439,50.078-58.679,1.344-.09,2.688-.179,4.031-.179v36.193c-10.123,0-18.365,8.331-18.365,18.544,0,2.134,0,.896,0,1.344l-35.834,2.688.09.09Z" style="fill: #cfcfcf; stroke: #fff; stroke-width: .358px;"/>
    <path d="M297.352,109.408c30.011,0,54.289,24.546,54.289,54.737s-24.278,54.737-54.289,54.737-54.289-24.546-54.289-54.737,18.007-40.672,18.007-40.672l24.009,26.876c-7.812,7.161-8.19,19.537-.532,27.102,6.609,6.529,17.34,7.034,24.481,1.09,8.168-6.799,9.041-19.008,2.031-26.849-3.494-3.942-8.421-6.181-13.707-6.181v-36.193.09Z" style="fill: #bc1b3a; stroke: #fff; stroke-width: .358px;"/>
    <path d="M259.189,116.783c9.944-9.048,22.934-14.065,36.372-14.065v36.193c-4.569,0-8.959,1.702-12.273,4.748l-24.009-26.876h-.09Z" style="fill: #cfcfcf; stroke: #fff; stroke-width: .358px;"/>
    <path d="M505.908,102.718c30.754,0,55.633,25.154,55.633,56.092s-24.879,56.092-55.633,56.092-55.633-25.154-55.633-56.092,0-2.203.092-3.397l36.721,2.203c-.643,10.466,7.252,19.462,17.718,20.105,10.374.643,19.279-7.344,19.921-17.81s-7.252-19.462-17.718-20.105h-1.102v-37.089h0Z" style="fill: #bc1b3a; stroke: #fff; stroke-width: .367px;"/>
    <path d="M447.677,151.542c1.702-28.936,25.442-51.512,54.199-51.512v36.193c-9.765,0-17.738,7.615-18.365,17.469l-35.834-2.15Z" style="fill: #cfcfcf; stroke: #fff; stroke-width: .358px;"/>
  </g>
  <g id="axissssis">
    <text transform="translate(247.632 69.75)" style="fill: #333; font-family: Amiri-Bold, Amiri; font-size: 13.438px; font-weight: 700; isolation: isolate;"><tspan x="0" y="0" style="letter-spacing: -.012em;">W</tspan><tspan x="12.309" y="0">ithout PE Class</tspan></text>
    <text transform="translate(465.056 69.661)" style="fill: #333; font-family: Amiri-Bold, Amiri; font-size: 13.438px; font-weight: 700; isolation: isolate;"><tspan x="0" y="0" style="letter-spacing: -.012em;">W</tspan><tspan x="12.309" y="0" style="letter-spacing: 0em;">ith PE Class</tspan></text>
    <text transform="translate(84.497 156.828)" style="fill: #333; font-family: Amiri-Bold, Amiri; font-size: 13.438px; font-weight: 700; isolation: isolate;"><tspan x="0" y="0" style="letter-spacing: -.013em;">C</tspan><tspan x="8.667" y="0">yril Cheng</tspan></text>
    <text transform="translate(84.765 301.509)" style="fill: #333; font-family: Amiri-Bold, Amiri; font-size: 13.438px; font-weight: 700; isolation: isolate;"><tspan x="0" y="0">Ee</tspan><tspan x="13.921" y="0" style="letter-spacing: -.012em;">l</tspan><tspan x="17.765" y="0">yn </tspan><tspan x="36.51" y="0" style="letter-spacing: -.068em;">W</tspan><tspan x="48.066" y="0">ong</tspan></text>
    <text transform="translate(84.407 443.592)" style="fill: #333; font-family: Amiri-Bold, Amiri; font-size: 13.438px; font-weight: 700; isolation: isolate;"><tspan x="0" y="0" style="letter-spacing: -.068em;">T</tspan><tspan x="7.404" y="0">sz </tspan><tspan x="22.656" y="0" style="letter-spacing: -.012em;">Y</tspan><tspan x="30.678" y="0">ing Choi</tspan></text>
  </g>
  <g id="Seat">
    <path d="M327.862,144.769c-.742.272-1.57,1.063-1.978,1.879-.272.569-.346.865-.346,1.632,0,1.582.754,2.745,2.262,3.437.878.396,2.25.359,3.152-.099,1.286-.643,2.003-1.854,1.99-3.338,0-1.545-.779-2.757-2.188-3.412-.754-.346-2.052-.396-2.893-.099ZM330.607,145.079c.668.321,1.62,1.249,1.879,1.842.284.655.26,2.04-.049,2.732-1.224,2.72-4.945,2.819-6.293.161-.964-1.904.124-4.389,2.114-4.883.766-.185,1.78-.124,2.349.148Z" style="fill: #fff; stroke-width: 0px;"/>
    <path d="M325.847,153.337c-.692.21-1.36.655-1.891,1.249-.977,1.088-.952.841-.952,8.926,0,7.64-.012,7.504.606,8.06.334.309.334.087-.012-.581-.272-.519-.272-.544-.26-7.504.025-7.418.012-7.393.618-8.382.247-.396,1.014-1.063,1.125-.964.025.025-.099.309-.272.618s-.297.569-.26.569c.025,0,0,.148-.062.321-.074.185-.161,1.879-.198,3.783l-.074,3.449.383.779c.309.643.519.878,1.1,1.261.383.247.853.569,1.038.692s.371.223.408.223c.087,0,2.806,1.533,3.152,1.768.148.099.223.21.161.247-.049.025-.63.062-1.286.074-.94.025-1.212-.012-1.348-.161-.247-.309-1.595-1.088-1.755-1.038-.087.037.198.247.63.47.433.235.865.544.964.705.185.272.235.284,2.151.284,1.088,0,1.966-.037,1.966-.099,0-.049-.408-.297-.902-.544-2.003-1.038-5.118-2.856-5.489-3.214-.766-.742-.791-.853-.816-4.821-.025-3.462-.012-3.647.235-4.191.284-.618,1.038-1.521,1.446-1.743.309-.161,4.166-.136,4.797.025.692.185,1.595.865,1.99,1.471.396.643.556,1.137.655,2.102.099,1.088.223.915.161-.247-.062-1.199-.371-1.904-1.224-2.732-.853-.816-1.508-.964-4.166-.952-1.273,0-2.448.049-2.621.099Z" style="fill: #fff; stroke-width: 0px;"/>
    <path d="M331.435,157.948c-.111.111-.148,1.014-.148,3.313v3.152l.655.519c.964.779,1.558,1.434,1.681,1.842.111.433-.049,1.15-.297,1.249-.26.087-.235.284.037.284.235,0,1.212.729,1.471,1.113.433.618.544,1.286.532,3.301v2.015h.952l.025,4.265c.012,2.435.074,4.401.136,4.574.161.433.148.68-.049,1.038l-.161.297-2.398-.025c-2.361-.025-2.398-.025-2.707-.334-.359-.346-.371-.457-.371-6.206,0-2.151-.049-3.363-.124-3.363-.173,0-.161,8.864.012,9.383.26.742.321.754,5.786.754h4.945l.321-.284c.247-.21.334-.396.334-.742,0-.927-.742-1.496-1.793-1.372-.457.062-.606.025-.816-.185-.26-.26-.26-.346-.26-5.736,0-5.019-.025-5.501-.235-5.959-.124-.272-.321-.581-.457-.68-.223-.185-.223-.173-.012.124.556.791.569,1.051.581,9.482,0,2.46.012,2.646.247,2.88.148.148.408.247.68.247.556,0,1.397.334,1.545.63.223.396.148.952-.148,1.113-.272.148-4.512.185-4.661.037-.037-.037-.087-2.25-.111-4.908-.025-4.018-.062-4.871-.223-5.044-.124-.136-.173-.519-.173-1.372v-1.187l-.359-.124c-.334-.124-.359-.161-.26-.569.223-1.014-.495-2.448-1.484-2.942l-.556-.284,1.236-.037c.68-.012,1.286-.087,1.335-.136.062-.062-.111-.235-.371-.396-.902-.556-2.213-1.582-3.227-2.547l-1.026-.977-.012-1.657c-.012-3.016.025-4.141.148-4.327.099-.148.185-.136.593.099.272.148.668.272.878.272s.396.012.396.025c.012.025.037,1.076.062,2.361.037,1.706.087,2.398.223,2.658.185.359.964,1.076,2.448,2.275.964.779,1.212,1.15,1.212,1.805,0,.556.124.705.742.828.606.124,1.1.396,1.582.853.853.804.816.507.89,7.084.037,3.276.099,5.996.161,6.045.049.049.087-2.522.087-5.724,0-6.676-.012-6.738-.94-7.64-.532-.519-1.397-.927-1.978-.927-.247,0-.26-.049-.21-.532.087-.754-.087-1.014-1.434-2.139-.643-.532-1.459-1.236-1.793-1.545l-.63-.581.012-2.67c.012-2.435-.037-2.905-.26-2.547-.148.235-1.113.148-1.36-.124s-.68-.321-.902-.099ZM334.822,167.257c.359.247.692.495.729.556.099.161-.297.247-.865.185-.272-.025-.556-.049-.618-.049-.124-.012-.099-1.125.025-1.125.037,0,.371.198.729.433Z" style="fill: #fff; stroke-width: 0px;"/>
    <path d="M325.476,168.345c0,1.15.037,1.471.247,1.854.136.247.247.655.247.89s.062.433.124.433c.223,0,.136-.89-.136-1.323-.235-.371-.26-.593-.247-1.83.012-.915-.025-1.422-.111-1.422-.074,0-.124.507-.124,1.397Z" style="fill: #fff; stroke-width: 0px;"/>
    <path d="M317.119,172.437c-.346.346-.42.519-.42.94s.074.593.42.94c.383.383.495.42,1.113.42h.692v4.76c0,5.106.012,5.254.63,5.576.643.334,1.422.099,1.694-.507.111-.235.148-1.657.148-5.069v-4.76h4.945v9.668l.42.42c.272.272.544.42.742.42.433,0,1.026-.309,1.187-.606.074-.161.124-2.003.124-5.069v-4.834h1.731v-1.212c0-.779-.049-1.261-.148-1.36-.111-.111-1.731-.148-6.503-.148h-6.354l-.42.42ZM330.026,172.536c.148.136.21,1.162.074,1.508-.049.136-.235.198-.544.198-.284,0-.593.099-.791.26l-.321.247v4.426c0,2.435-.037,4.611-.074,4.821-.049.223-.21.482-.359.581-.334.223-.878.124-1.051-.198-.099-.173-.235-5.069-.247-8.901,0-1.199-.099-1.236-2.93-1.236-2.176,0-2.225.012-2.497.297s-.272.321-.297,5.007l-.025,4.735-.297.235c-.359.297-.655.297-1.014,0l-.297-.235-.025-4.747-.037-4.735-.309-.284c-.223-.185-.482-.272-.816-.272-.593,0-.977-.334-.977-.865,0-.853.841-1.063,3.61-.952.828.037,1.941.025,2.448-.012,1.372-.124,6.589-.025,6.775.124Z" style="fill: #fff; stroke-width: 0px;"/>
    <path d="M335.23,175.379c-.037.507.037,6.96.087,7.01.025.025.049-1.57.049-3.548,0-1.99-.025-3.61-.062-3.61s-.062.074-.074.148Z" style="fill: #fff; stroke-width: 0px;"/>
    <path d="M335.131,182.748c-.099.037-.012.124.235.223.519.223.692.223.507,0-.173-.198-.507-.309-.742-.223Z" style="fill: #fff; stroke-width: 0px;"/>
  </g>
  <g id="Stand">
    <path d="M282.02,110.577c-1.575.349-2.254,2.216-1.283,3.505.254.343.775.692,1.187.8.368.102,1.149.038,1.505-.114.87-.394,1.435-1.46,1.263-2.406-.229-1.232-1.454-2.051-2.673-1.784ZM283.099,110.831c.571.21,1.035.629,1.27,1.149.114.26.133.4.114.825-.044.857-.419,1.416-1.194,1.771-.362.165-.463.184-.857.159-.565-.038-1.003-.229-1.352-.597-.387-.419-.533-.743-.571-1.276-.057-.914.444-1.676,1.352-2.032.254-.102.965-.102,1.238,0Z" style="fill: #787878; stroke-width: 0px;"/>
    <path d="M282.115,111.091c-1.073.267-1.619,1.429-1.117,2.394.21.4.375.559.768.743,1.213.552,2.514-.337,2.394-1.638-.089-1.029-1.06-1.746-2.044-1.498ZM283.131,111.409c.603.279.883.762.844,1.448-.025.521-.241.87-.717,1.162-.26.165-.368.19-.724.19-1.606-.013-2.114-2.114-.686-2.819.368-.184.87-.178,1.283.019Z" style="fill: #787878; stroke-width: 0px;"/>
    <path d="M282.464,111.599c0,.013.102.038.222.051s.222,0,.222-.025-.102-.051-.222-.051-.222.013-.222.025Z" style="fill: #787878; stroke-width: 0px;"/>
    <path d="M281.417,112.837c0,.235.038.476.083.546q.089.127.044,0c-.114-.324-.083-.762.063-1.086.127-.273.203-.356.483-.495.19-.089.279-.165.21-.165-.063,0-.21.057-.324.127-.114.063-.286.241-.381.387" style="fill: #787878; stroke-width: 0px;"/>
    <path d="M280.02,115.282c-.876.279-1.543.952-1.822,1.835-.102.337-.114.641-.114,3.232,0,2.013.025,2.933.076,3.111.089.305.483.762.775.902.121.057.343.102.495.102s.311.032.356.076c.057.057.076.933.076,3.555v3.479h-1.086c-.641,0-1.13.025-1.206.07-.248.127-.26.489-.032.641.038.025,2.254.051,4.927.051,5.352,0,5.143.013,5.143-.381,0-.337-.152-.381-1.346-.381h-1.067l.013-3.543.019-3.536.349-.032c.571-.057.952-.343,1.213-.921.108-.235.121-.483.121-3.149,0-2.711-.006-2.927-.127-3.302-.26-.838-.933-1.517-1.759-1.771-.381-.114-.584-.127-2.584-.121-1.562,0-2.235.025-2.419.083ZM284.795,115.472c.533.14.908.362,1.257.756.184.203.4.527.483.73.152.362.152.375.171,3.219.013,1.994-.006,2.94-.057,3.117-.133.508-.686.978-1.13.978-.108,0-.26.063-.356.14l-.165.146-.006,3.479c-.013,3.454-.013,3.479.121,3.606.121.127.21.133,1.117.146.698.006,1.016.032,1.073.083.216.222.032.235-4.844.222-2.622-.006-4.787-.019-4.8-.038-.019-.019-.019-.076,0-.133.044-.102.14-.114,1.219-.127.883-.013.902-.013,1.048-.159.127-.127.127-.21.127-3.587v-3.467l-.159-.152c-.114-.121-.222-.159-.413-.159-.425,0-.787-.248-1.067-.73-.095-.171-.108-.463-.108-3.175,0-3.352-.006-3.276.483-3.943.375-.514.851-.838,1.422-.978.108-.032,1.105-.051,2.222-.057,1.524,0,2.114.019,2.362.083Z" style="fill: #787878; stroke-width: 0px;"/>
    <path d="M280.033,115.853c-.635.267-.978.597-1.263,1.219-.146.311-.146.324-.146,3.232,0,2.787.006,2.927.121,3.111.21.311.349.425.597.457.483.057.463.171.483-2.717.006-1.409.038-2.603.063-2.648.076-.127.292-.089.349.063.025.083.057,3.003.063,6.495.013,7.39-.063,6.654.724,6.686.819.032.743.444.743-4.228,0-3.016.019-4.006.076-4.063.114-.114,1.219-.102,1.314.013.051.057.076,1.244.095,4.076l.032,3.994.133.108c.102.083.254.114.571.114.762,0,.686.717.692-6.743.006-5.848.019-6.438.114-6.54.133-.146.254-.146.337.006.038.083.063,1.035.063,2.667,0,2.749,0,2.736.343,2.736.203,0,.559-.254.673-.476.14-.279.178-5.663.038-6.127-.197-.667-.629-1.124-1.314-1.403-.324-.127-.463-.14-2.438-.165l-2.095-.025-.368.159ZM285.048,116.094c.444.235.762.565.965.997l.165.356v2.857c0,2.546-.013,2.876-.108,3.054-.146.267-.267.356-.508.362l-.21.013-.013-2.667-.013-2.667-.146-.114c-.165-.14-.483-.102-.603.063-.063.083-.083,1.517-.083,6.667v6.559h-1.079v-4.089c0-3.638-.013-4.102-.102-4.19-.146-.152-1.46-.146-1.625.006-.108.095-.114.311-.114,4.19v4.089l-.521-.019-.527-.019-.032-6.546c-.032-6.33-.038-6.559-.152-6.686-.133-.146-.356-.171-.552-.07-.114.063-.121.165-.121,2.762,0,1.765-.025,2.705-.063,2.73-.152.095-.451-.051-.61-.279l-.159-.241.006-2.908c0-2.781.006-2.914.133-3.2.14-.324.483-.705.813-.908.47-.298.552-.305,2.8-.286l2.127.013.33.171Z" style="fill: #787878; stroke-width: 0px;"/>
    <path d="M280.445,116.463c-.279.063-.667.33-.857.584-.356.47-.362.571-.349,3.594l.013,2.775.038-2.857.032-2.857.152-.286c.235-.444.597-.768.978-.876.076-.019.724-.051,1.441-.076l1.302-.038-1.27-.006c-.698-.006-1.365.019-1.479.044Z" style="fill: #787878; stroke-width: 0px;"/>
    <path d="M282.242,123.853c-.083.127-.095.629-.102,3.905-.006,3.492.006,3.771.108,3.886.146.159.356.152.514-.025.133-.14.133-.178.146-3.841.006-3.714-.006-3.886-.216-4.025-.14-.095-.356-.051-.451.102ZM282.699,127.745l.019,3.828h-.381v-7.689l.178.019.171.019.013,3.822Z" style="fill: #787878; stroke-width: 0px;"/>
  </g>
  <g id="Percentageeeeee">
    <text transform="translate(282.464 489.176)" style="fill: #fff; font-family: Amiri-Bold, Amiri; font-size: 13.438px; font-weight: 700; isolation: isolate;"><tspan x="0" y="0">86.4%</tspan></text>
    <text transform="translate(280.33 343.348)" style="fill: #fff; font-family: Amiri-Bold, Amiri; font-size: 13.438px; font-weight: 700; isolation: isolate;"><tspan x="0" y="0">84.8%</tspan></text>
    <text transform="translate(491.215 344.337)" style="fill: #fff; font-family: Amiri-Bold, Amiri; font-size: 13.438px; font-weight: 700; isolation: isolate;"><tspan x="0" y="0">73.8% </tspan></text>
    <text transform="translate(282.602 202.856)" style="fill: #fff; font-family: Amiri-Bold, Amiri; font-size: 13.438px; font-weight: 700; isolation: isolate;"><tspan x="0" y="0">88.3%</tspan></text>
    <text transform="translate(489.936 201.558)" style="fill: #fff; font-family: Amiri-Bold, Amiri; font-size: 13.438px; font-weight: 700; isolation: isolate;"><tspan x="0" y="0">76.0%</tspan></text>
    <text transform="translate(490.229 489.267)" style="fill: #fff; font-family: Amiri-Bold, Amiri; font-size: 13.438px; font-weight: 700; isolation: isolate;"><tspan x="0" y="0">83.8%</tspan></text>
  </g>
  <text transform="translate(0 14.814)" style="fill: #000; font-family: Amiri-Bold, Amiri; font-size: 18px; font-weight: 700;"><tspan x="0" y="0">Comparison of the Sedentary </tspan><tspan x="232.862" y="0" style="letter-spacing: -.022em;">T</tspan><tspan x="243.608" y="0">ime P</tspan><tspan x="288.266" y="0" style="letter-spacing: -.007em;">r</tspan><tspan x="296.023" y="0" style="letter-spacing: 0em;">oport</tspan><tspan x="338.305" y="0" style="letter-spacing: -.004em;">i</tspan><tspan x="343.759" y="0">on On </tspan><tspan x="397.92" y="0" style="letter-spacing: -.046em;">T</tspan><tspan x="408.233" y="0" style="letter-spacing: -.019em;">w</tspan><tspan x="421.752" y="0">o Scho</tspan><tspan x="472.925" y="0" style="letter-spacing: -.006em;">o</tspan><tspan x="482.159" y="0" style="letter-spacing: 0em;">l D</tspan><tspan x="506.152" y="0" style="letter-spacing: -.021em;">a</tspan><tspan x="514.055" y="0" style="letter-spacing: -.008em;">y</tspan><tspan x="523.288" y="0" style="letter-spacing: 0em;">s: </tspan><tspan x="540.227" y="0" style="letter-spacing: -.012em;">W</tspan><tspan x="556.714" y="0" style="letter-spacing: 0em;">ith and </tspan><tspan x="617.354" y="0" style="letter-spacing: -.012em;">W</tspan><tspan x="633.843" y="0" style="letter-spacing: 0em;">ithout PE Class</tspan></text>
  <text transform="translate(18.172 534.319)" style="fill: #636363; font-size: 13px;"><tspan style="font-family: Amiri-Regular, Amiri;"><tspan x="0" y="0">Sou</tspan><tspan x="19.357" y="0" style="letter-spacing: -.008em;">r</tspan><tspan x="24.115" y="0">ce: Data f</tspan><tspan x="73.15" y="0" style="letter-spacing: -.004em;">r</tspan><tspan x="77.96" y="0">om Ap</tspan><tspan x="112.669" y="0" style="letter-spacing: -.004em;">p</tspan><tspan x="119.091" y="0">le </tspan><tspan x="131.571" y="0" style="letter-spacing: -.02em;">H</tspan><tspan x="140.515" y="0" style="letter-spacing: 0em;">ealth.</tspan></tspan><tspan style="font-family: Amiri-Italic, Amiri; font-style: italic;"><tspan x="0" y="15.6" style="letter-spacing: -.019em;">N</tspan><tspan x="9.035" y="15.6">ote: The du</tspan><tspan x="62.789" y="15.6" style="letter-spacing: -.011em;">r</tspan><tspan x="67.157" y="15.6">ation </tspan><tspan x="95.041" y="15.6" style="letter-spacing: -.004em;">o</tspan><tspan x="100.241" y="15.6">f school days is 7 hours, e</tspan><tspan x="222.971" y="15.6" style="letter-spacing: -.011em;">x</tspan><tspan x="228.938" y="15.6">cluding lunchtime but including b</tspan><tspan x="389.771" y="15.6" style="letter-spacing: -.004em;">r</tspan><tspan x="394.229" y="15.6">eaks.</tspan></tspan></text>
  <text transform="translate(37.796 96.805)" style="fill: #bc1b3a; font-family: Amiri-Bold, Amiri; font-size: 14.218px; font-weight: 700;"><tspan x="0" y="0" style="letter-spacing: -.009em;">S</tspan><tspan x="7.095" y="0">tudents</tspan></text>
</svg>