<?xml version="1.0" encoding="UTF-8"?>
<svg id="cyrilem" xmlns="http://www.w3.org/2000/svg" viewBox="0 0 742.727 600.914">
  <g>
    <g id="grillll">
      <line x1="67" y1="138.346" x2="692.3" y2="138.346" style="fill: none; stroke: #d1d1d1; stroke-miterlimit: 10; stroke-width: .5px;"/>
      <line x1="67.6" y1="255.748" x2="692.9" y2="255.748" style="fill: none; stroke: #d1d1d1; stroke-miterlimit: 10; stroke-width: .5px;"/>
      <line x1="66.5" y1="370.645" x2="691.8" y2="370.645" style="fill: none; stroke: #d1d1d1; stroke-miterlimit: 10; stroke-width: .5px;"/>
      <line x1="67" y1="489.747" x2="692.3" y2="489.747" style="fill: none; stroke: #d1d1d1; stroke-miterlimit: 10; stroke-width: .5px;"/>
    </g>
    <g id="axisssss">
      <g id="Xaxiss">
        <g style="isolation: isolate;">
          <g style="isolation: isolate;">
            <g style="isolation: isolate;">
              <g style="isolation: isolate;">
                <text transform="translate(50 558.345)" style="fill: #000; font-family: Amiri-Regular, Amiri; font-size: 13.4px; isolation: isolate;"><tspan x="0" y="0">6am</tspan></text>
              </g>
            </g>
          </g>
        </g>
        <g style="isolation: isolate;">
          <g style="isolation: isolate;">
            <g style="isolation: isolate;">
              <g style="isolation: isolate;">
                <text transform="translate(94.4 558.345)" style="fill: #000; font-family: Amiri-Regular, Amiri; font-size: 13.4px; isolation: isolate;"><tspan x="0" y="0">7</tspan></text>
              </g>
            </g>
          </g>
        </g>
        <g style="isolation: isolate;">
          <g style="isolation: isolate;">
            <g style="isolation: isolate;">
              <g style="isolation: isolate;">
                <text transform="translate(138.8 558.345)" style="fill: #000; font-family: Amiri-Regular, Amiri; font-size: 13.4px; isolation: isolate;"><tspan x="0" y="0">8</tspan></text>
              </g>
            </g>
          </g>
        </g>
        <g style="isolation: isolate;">
          <g style="isolation: isolate;">
            <g style="isolation: isolate;">
              <g style="isolation: isolate;">
                <text transform="translate(183.1 558.345)" style="fill: #000; font-family: Amiri-Regular, Amiri; font-size: 13.4px; isolation: isolate;"><tspan x="0" y="0">9</tspan></text>
              </g>
            </g>
          </g>
        </g>
        <g style="isolation: isolate;">
          <g style="isolation: isolate;">
            <g style="isolation: isolate;">
              <g style="isolation: isolate;">
                <text transform="translate(225 558.345)" style="fill: #000; font-family: Amiri-Regular, Amiri; font-size: 13.4px; isolation: isolate;"><tspan x="0" y="0">10</tspan></text>
              </g>
            </g>
          </g>
        </g>
        <g style="isolation: isolate;">
          <g style="isolation: isolate;">
            <g style="isolation: isolate;">
              <g style="isolation: isolate;">
                <text transform="translate(269.7 558.345)" style="fill: #000; font-family: Amiri-Regular, Amiri; font-size: 13.4px; isolation: isolate;"><tspan x="0" y="0">11</tspan></text>
              </g>
            </g>
          </g>
        </g>
        <g style="isolation: isolate;">
          <g style="isolation: isolate;">
            <g style="isolation: isolate;">
              <g style="isolation: isolate;">
                <text transform="translate(313.7 558.345)" style="fill: #000; font-family: Amiri-Regular, Amiri; font-size: 13.4px; isolation: isolate;"><tspan x="0" y="0">noon</tspan></text>
              </g>
            </g>
          </g>
        </g>
        <g style="isolation: isolate;">
          <g style="isolation: isolate;">
            <g style="isolation: isolate;">
              <g style="isolation: isolate;">
                <text transform="translate(358.1 558.345)" style="fill: #000; font-family: Amiri-Regular, Amiri; font-size: 13.4px; isolation: isolate;"><tspan x="0" y="0">1pm</tspan></text>
              </g>
            </g>
          </g>
        </g>
        <g style="isolation: isolate;">
          <g style="isolation: isolate;">
            <g style="isolation: isolate;">
              <g style="isolation: isolate;">
                <text transform="translate(402.5 558.345)" style="fill: #000; font-family: Amiri-Regular, Amiri; font-size: 13.4px; isolation: isolate;"><tspan x="0" y="0">2</tspan></text>
              </g>
            </g>
          </g>
        </g>
        <g style="isolation: isolate;">
          <g style="isolation: isolate;">
            <g style="isolation: isolate;">
              <g style="isolation: isolate;">
                <text transform="translate(446.8 558.345)" style="fill: #000; font-family: Amiri-Regular, Amiri; font-size: 13.4px; isolation: isolate;"><tspan x="0" y="0">3</tspan></text>
              </g>
            </g>
          </g>
        </g>
        <g style="isolation: isolate;">
          <g style="isolation: isolate;">
            <g style="isolation: isolate;">
              <g style="isolation: isolate;">
                <text transform="translate(491.2 558.345)" style="fill: #000; font-family: Amiri-Regular, Amiri; font-size: 13.4px; isolation: isolate;"><tspan x="0" y="0">4</tspan></text>
              </g>
            </g>
          </g>
        </g>
        <g style="isolation: isolate;">
          <g style="isolation: isolate;">
            <g style="isolation: isolate;">
              <g style="isolation: isolate;">
                <text transform="translate(535.5 558.345)" style="fill: #000; font-family: Amiri-Regular, Amiri; font-size: 13.4px; isolation: isolate;"><tspan x="0" y="0">5</tspan></text>
              </g>
            </g>
          </g>
        </g>
        <g style="isolation: isolate;">
          <g style="isolation: isolate;">
            <g style="isolation: isolate;">
              <g style="isolation: isolate;">
                <text transform="translate(579.9 558.345)" style="fill: #000; font-family: Amiri-Regular, Amiri; font-size: 13.4px; isolation: isolate;"><tspan x="0" y="0">6</tspan></text>
              </g>
            </g>
          </g>
        </g>
        <g style="isolation: isolate;">
          <g style="isolation: isolate;">
            <g style="isolation: isolate;">
              <g style="isolation: isolate;">
                <text transform="translate(624.3 558.345)" style="fill: #000; font-family: Amiri-Regular, Amiri; font-size: 13.4px; isolation: isolate;"><tspan x="0" y="0">7</tspan></text>
              </g>
            </g>
          </g>
        </g>
        <g style="isolation: isolate;">
          <g style="isolation: isolate;">
            <g style="isolation: isolate;">
              <g style="isolation: isolate;">
                <text transform="translate(668.6 558.345)" style="fill: #000; font-family: Amiri-Regular, Amiri; font-size: 13.4px; isolation: isolate;"><tspan x="0" y="0">8</tspan></text>
              </g>
            </g>
          </g>
        </g>
        <g style="isolation: isolate;">
          <g style="isolation: isolate;">
            <g style="isolation: isolate;">
              <g style="isolation: isolate;">
                <text transform="translate(682.1 577.044)" style="fill: #bc1b3a; font-family: Amiri-Bold, Amiri; font-size: 12.3px; font-weight: 700; isolation: isolate;"><tspan x="0" y="0">T</tspan></text>
              </g>
            </g>
          </g>
          <g style="isolation: isolate;">
            <g style="isolation: isolate;">
              <g style="isolation: isolate;">
                <text transform="translate(689.5 577.044)" style="fill: #bc1b3a; font-family: Amiri-Bold, Amiri; font-size: 12.3px; font-weight: 700; isolation: isolate;"><tspan x="0" y="0">ime</tspan></text>
              </g>
            </g>
          </g>
        </g>
      </g>
      <g id="Yaxisss2">
        <g style="isolation: isolate;">
          <g style="isolation: isolate;">
            <g style="isolation: isolate;">
              <text transform="translate(704.499 58.445)" style="fill: #bc1b3a; font-family: Amiri-Bold, Amiri; font-size: 12.3px; font-weight: 700; isolation: isolate;"><tspan x="0" y="0">Minute</tspan></text>
            </g>
          </g>
        </g>
        <g style="isolation: isolate;">
          <g style="isolation: isolate;">
            <g style="isolation: isolate;">
              <text transform="translate(704.399 374.65)" style="fill: #000; font-family: Amiri-Regular, Amiri; font-size: 13.4px; isolation: isolate;"><tspan x="0" y="0">12</tspan></text>
            </g>
          </g>
        </g>
        <g style="isolation: isolate;">
          <g style="isolation: isolate;">
            <g style="isolation: isolate;">
              <text transform="translate(707.499 539.745)" style="fill: #000; font-family: Amiri-Regular, Amiri; font-size: 13.4px; isolation: isolate;"><tspan x="0" y="0">0</tspan></text>
            </g>
          </g>
        </g>
        <g style="isolation: isolate;">
          <g style="isolation: isolate;">
            <g style="isolation: isolate;">
              <text transform="translate(702.483 141.346)" style="fill: #000; font-family: Amiri-Regular, Amiri; font-size: 13.4px; isolation: isolate;"><tspan x="0" y="0">28</tspan></text>
            </g>
          </g>
        </g>
        <g style="isolation: isolate;">
          <g style="isolation: isolate;">
            <g style="isolation: isolate;">
              <text transform="translate(702.708 88.106)" style="fill: #000; font-family: Amiri-Regular, Amiri; font-size: 13.4px; isolation: isolate;"><tspan x="0" y="0">32</tspan></text>
            </g>
          </g>
        </g>
        <g style="isolation: isolate;">
          <g style="isolation: isolate;">
            <g style="isolation: isolate;">
              <text transform="translate(705.499 434.649)" style="fill: #000; font-family: Amiri-Regular, Amiri; font-size: 13.4px; isolation: isolate;"><tspan x="0" y="0">8</tspan></text>
            </g>
          </g>
        </g>
        <g style="isolation: isolate;">
          <g style="isolation: isolate;">
            <g style="isolation: isolate;">
              <text transform="translate(705.599 491.447)" style="fill: #000; font-family: Amiri-Regular, Amiri; font-size: 13.4px; isolation: isolate;"><tspan x="0" y="0">4</tspan></text>
            </g>
          </g>
        </g>
        <g style="isolation: isolate;">
          <g style="isolation: isolate;">
            <g style="isolation: isolate;">
              <text transform="translate(704.499 313.05)" style="fill: #000; font-family: Amiri-Regular, Amiri; font-size: 13.4px; isolation: isolate;"><tspan x="0" y="0">16</tspan></text>
            </g>
          </g>
        </g>
        <g style="isolation: isolate;">
          <g style="isolation: isolate;">
            <g style="isolation: isolate;">
              <text transform="translate(704.599 259.253)" style="fill: #000; font-family: Amiri-Regular, Amiri; font-size: 13.4px; isolation: isolate;"><tspan x="0" y="0">20</tspan></text>
            </g>
          </g>
        </g>
        <g style="isolation: isolate;">
          <g style="isolation: isolate;">
            <g style="isolation: isolate;">
              <text transform="translate(703.099 198.351)" style="fill: #000; font-family: Amiri-Regular, Amiri; font-size: 13.4px; isolation: isolate;"><tspan x="0" y="0">24</tspan></text>
            </g>
          </g>
        </g>
      </g>
      <g id="Yaxiss">
        <g style="isolation: isolate;">
          <g style="isolation: isolate;">
            <g style="isolation: isolate;">
              <g style="isolation: isolate;">
                <text transform="translate(35.1 539.745)" style="fill: #000; font-family: Amiri-Regular, Amiri; font-size: 13.4px; isolation: isolate;"><tspan x="0" y="0">0</tspan></text>
              </g>
            </g>
          </g>
        </g>
        <g style="isolation: isolate;">
          <g style="isolation: isolate;">
            <g style="isolation: isolate;">
              <g style="isolation: isolate;">
                <text transform="translate(27.2 493.845)" style="fill: #000; font-family: Amiri-Regular, Amiri; font-size: 13.4px; isolation: isolate;"><tspan x="0" y="0">10</tspan></text>
              </g>
            </g>
          </g>
        </g>
        <g style="isolation: isolate;">
          <g style="isolation: isolate;">
            <g style="isolation: isolate;">
              <g style="isolation: isolate;">
                <text transform="translate(27.2 433.043)" style="fill: #000; font-family: Amiri-Regular, Amiri; font-size: 13.4px; isolation: isolate;"><tspan x="0" y="0">20</tspan></text>
              </g>
            </g>
          </g>
        </g>
        <g style="isolation: isolate;">
          <g style="isolation: isolate;">
            <g style="isolation: isolate;">
              <g style="isolation: isolate;">
                <text transform="translate(27.2 374.345)" style="fill: #000; font-family: Amiri-Regular, Amiri; font-size: 13.4px; isolation: isolate;"><tspan x="0" y="0">30</tspan></text>
              </g>
            </g>
          </g>
        </g>
        <g style="isolation: isolate;">
          <g style="isolation: isolate;">
            <g style="isolation: isolate;">
              <g style="isolation: isolate;">
                <text transform="translate(27.2 312.443)" style="fill: #000; font-family: Amiri-Regular, Amiri; font-size: 13.4px; isolation: isolate;"><tspan x="0" y="0">40</tspan></text>
              </g>
            </g>
          </g>
        </g>
        <g style="isolation: isolate;">
          <g style="isolation: isolate;">
            <g style="isolation: isolate;">
              <g style="isolation: isolate;">
                <text transform="translate(26.2 253.745)" style="fill: #000; font-family: Amiri-Regular, Amiri; font-size: 13.4px; isolation: isolate;"><tspan x="0" y="0">50</tspan></text>
              </g>
            </g>
          </g>
        </g>
        <g style="isolation: isolate;">
          <g style="isolation: isolate;">
            <g style="isolation: isolate;">
              <g style="isolation: isolate;">
                <text transform="translate(26.2 195.944)" style="fill: #000; font-family: Amiri-Regular, Amiri; font-size: 13.4px; isolation: isolate;"><tspan x="0" y="0">60</tspan></text>
              </g>
            </g>
          </g>
        </g>
        <g style="isolation: isolate;">
          <g style="isolation: isolate;">
            <g style="isolation: isolate;">
              <g style="isolation: isolate;">
                <text transform="translate(27.2 140.245)" style="fill: #000; font-family: Amiri-Regular, Amiri; font-size: 13.4px; isolation: isolate;"><tspan x="0" y="0">70</tspan></text>
              </g>
            </g>
          </g>
        </g>
        <g style="isolation: isolate;">
          <g style="isolation: isolate;">
            <g style="isolation: isolate;">
              <g style="isolation: isolate;">
                <text transform="translate(27 90.445)" style="fill: #000; font-family: Amiri-Regular, Amiri; font-size: 13.4px; isolation: isolate;"><tspan x="0" y="0">80</tspan></text>
              </g>
            </g>
          </g>
        </g>
      </g>
    </g>
    <g id="viz">
      <g id="Yes" style="opacity: .42;">
        <path d="M59.576,545.917c21.866,0,21.866-147.374,43.732-147.374s21.866,118.489,43.732,118.489,21.866-36.549,43.732-36.549,21.866-3.537,43.732-3.537,21.866-19.453,43.732-19.453,21.866-37.138,43.732-37.138,21.866-328.938,43.732-328.938,21.866,131.457,43.732,131.457,21.866,117.31,43.732,117.31,21.866,162.701,43.732,162.701,21.866,11.79,43.732,11.79,21.866.59,43.732.59,21.866-16.506,43.732-16.506,21.866,40.086,43.732,40.086" style="fill: none; stroke: #bc1b3a; stroke-width: 2px;"/>
      </g>
      <g id="No" style="opacity: .42;">
        <path d="M59.576,545.917c21.866,0,21.866-165.648,43.732-165.648s21.866,85.477,43.732,85.477,21.866-3.537,43.732-3.537,21.866,23.58,43.732,23.58,21.866,11.2,43.732,11.2,21.866-64.844,43.732-64.844,21.866-13.558,43.732-13.558,21.866-5.895,43.732-5.895,21.866-145.605,43.732-145.605,21.866,155.037,43.732,155.037,21.866-41.854,43.732-41.854,21.866,124.973,43.732,124.973,21.866-193.354,43.732-193.354,21.866,234.03,43.732,234.03" style="fill: none; stroke: #919191; stroke-width: 2px;"/>
      </g>
      <g style="isolation: isolate; opacity: .53;">
        <g style="isolation: isolate;">
          <text transform="translate(47.146 476.169)" style="fill: #bc1b3a; font-family: Amiri-Bold, Amiri; font-size: 10.2px; font-weight: 700; isolation: isolate;"><tspan x="0" y="0" style="letter-spacing: -.012em;">W</tspan><tspan x="9.343" y="0">ith PE class</tspan></text>
        </g>
      </g>
      <g style="isolation: isolate; opacity: .53;">
        <g style="isolation: isolate;">
          <text transform="translate(145.633 457.068)" style="fill: #919191; font-family: Amiri-Bold, Amiri; font-size: 10.2px; font-weight: 700; isolation: isolate;"><tspan x="0" y="0" style="letter-spacing: -.012em;">W</tspan><tspan x="9.343" y="0">ithout PE class</tspan></text>
        </g>
      </g>
    </g>
    <g id="Notessss">
      <line x1="142.7" y1="82.045" x2="142.7" y2="529.945" style="fill: none; stroke: #919191; stroke-dasharray: 0 0 0 0 0 0 3 3 0 0 0 0; stroke-width: .8px;"/>
      <g style="isolation: isolate;">
        <g style="isolation: isolate;">
          <g style="isolation: isolate;">
            <g style="isolation: isolate;">
              <text transform="translate(114.3 71.044)" style="fill: #333; font-family: Amiri-Bold, Amiri; font-size: 10.2px; font-weight: 700; isolation: isolate;"><tspan x="0" y="0">Classes Begin</tspan></text>
            </g>
          </g>
        </g>
      </g>
      <line x1="365.7" y1="79.545" x2="365.7" y2="534.445" style="fill: none; stroke: #919191; stroke-dasharray: 0 0 0 0 0 0 3 3 0 0 0 0; stroke-width: .8px;"/>
      <g style="isolation: isolate;">
        <g style="isolation: isolate;">
          <g style="isolation: isolate;">
            <g style="isolation: isolate;">
              <text transform="translate(336.5 71.044)" style="fill: #333; font-family: Amiri-Bold, Amiri; font-size: 10.2px; font-weight: 700; isolation: isolate;"><tspan x="0" y="0">Lunch</tspan></text>
            </g>
          </g>
        </g>
        <g style="isolation: isolate;">
          <g style="isolation: isolate;">
            <g style="isolation: isolate;">
              <text transform="translate(367.1 71.044)" style="fill: #333; font-family: Amiri-Bold, Amiri; font-size: 10.2px; font-weight: 700; isolation: isolate;"><tspan x="0" y="0">B</tspan></text>
            </g>
          </g>
        </g>
        <g style="isolation: isolate;">
          <g style="isolation: isolate;">
            <g style="isolation: isolate;">
              <text transform="translate(373.2 71.044)" style="fill: #333; font-family: Amiri-Bold, Amiri; font-size: 10.2px; font-weight: 700; isolation: isolate;"><tspan x="0" y="0">r</tspan></text>
            </g>
          </g>
        </g>
        <g style="isolation: isolate;">
          <g style="isolation: isolate;">
            <g style="isolation: isolate;">
              <text transform="translate(377.6 71.044)" style="fill: #333; font-family: Amiri-Bold, Amiri; font-size: 10.2px; font-weight: 700; isolation: isolate;"><tspan x="0" y="0">eak</tspan></text>
            </g>
          </g>
        </g>
      </g>
      <line x1="497.9" y1="82.045" x2="497.9" y2="538.345" style="fill: none; stroke: #919191; stroke-dasharray: 0 0 0 0 0 0 3 3 0 0 0 0; stroke-width: .8px;"/>
      <g style="isolation: isolate;">
        <g style="isolation: isolate;">
          <g style="isolation: isolate;">
            <g style="isolation: isolate;">
              <text transform="translate(471.4 71.145)" style="fill: #333; font-family: Amiri-Bold, Amiri; font-size: 10.2px; font-weight: 700; isolation: isolate;"><tspan x="0" y="0">Classes End</tspan></text>
            </g>
          </g>
        </g>
      </g>
      <g style="isolation: isolate;">
        <g style="isolation: isolate; opacity: .42;">
          <g style="isolation: isolate;">
            <g style="isolation: isolate;">
              <text transform="translate(316.837 86.828)" style="fill: #bc1b3a; font-family: Amiri-Bold, Amiri; font-size: 11.2px; font-weight: 700; isolation: isolate;"><tspan x="0" y="0">Going out</tspan></text>
            </g>
          </g>
        </g>
        <g style="isolation: isolate; opacity: .44;">
          <g style="isolation: isolate;">
            <g style="isolation: isolate;">
              <text transform="translate(368.137 86.828)" style="fill: #bc1b3a; font-family: Amiri-Bold, Amiri; font-size: 11.2px; font-weight: 700; isolation: isolate;"><tspan x="0" y="0">f</tspan></text>
            </g>
          </g>
        </g>
        <g style="isolation: isolate; opacity: .44;">
          <g style="isolation: isolate;">
            <g style="isolation: isolate;">
              <text transform="translate(371.937 86.828)" style="fill: #bc1b3a; font-family: Amiri-Bold, Amiri; font-size: 11.2px; font-weight: 700; isolation: isolate;"><tspan x="0" y="0">or lunch</tspan></text>
            </g>
          </g>
        </g>
      </g>
      <g style="isolation: isolate;">
        <g style="isolation: isolate;">
          <g style="isolation: isolate;">
            <g style="isolation: isolate;">
              <text transform="translate(413.3 199.142)" style="fill: #bc1b3a; font-family: Amiri-Bold, Amiri; font-size: 11.2px; font-weight: 700; isolation: isolate;"><tspan x="0" y="0">PE Class</tspan></text>
            </g>
          </g>
        </g>
      </g>
      <g style="isolation: isolate; opacity: .58;">
        <g style="isolation: isolate;">
          <g style="isolation: isolate;">
            <g style="isolation: isolate;">
              <text transform="translate(75.337 365.944)" style="fill: #bc1b3a; font-family: Amiri-Bold, Amiri; font-size: 11.2px; font-weight: 700; isolation: isolate;"><tspan x="0" y="0">Commuting</tspan></text>
            </g>
          </g>
        </g>
      </g>
    </g>
  </g>
  <g style="isolation: isolate;">
    <g style="isolation: isolate;">
      <g style="isolation: isolate;">
        <g style="isolation: isolate;">
          <text transform="translate(0 588.044)" style="fill: #636363; font-family: Amiri-Regular, Amiri; font-size: 14.3px; isolation: isolate;"><tspan x="0" y="0">Sou</tspan></text>
        </g>
      </g>
    </g>
    <g style="isolation: isolate;">
      <g style="isolation: isolate;">
        <g style="isolation: isolate;">
          <text transform="translate(21.3 588.044)" style="fill: #636363; font-family: Amiri-Regular, Amiri; font-size: 14.3px; isolation: isolate;"><tspan x="0" y="0">r</tspan></text>
        </g>
      </g>
    </g>
    <g style="isolation: isolate;">
      <g style="isolation: isolate;">
        <g style="isolation: isolate;">
          <text transform="translate(26.5 588.044)" style="fill: #636363; font-family: Amiri-Regular, Amiri; font-size: 14.3px; isolation: isolate;"><tspan x="0" y="0">ce: Data f</tspan></text>
        </g>
      </g>
    </g>
    <g style="isolation: isolate;">
      <g style="isolation: isolate;">
        <g style="isolation: isolate;">
          <text transform="translate(80.4 588.044)" style="fill: #636363; font-family: Amiri-Regular, Amiri; font-size: 14.3px; isolation: isolate;"><tspan x="0" y="0">r</tspan></text>
        </g>
      </g>
    </g>
    <g style="isolation: isolate;">
      <g style="isolation: isolate;">
        <g style="isolation: isolate;">
          <text transform="translate(85.7 588.044)" style="fill: #636363; font-family: Amiri-Regular, Amiri; font-size: 14.3px; isolation: isolate;"><tspan x="0" y="0">om Ap</tspan></text>
        </g>
      </g>
    </g>
    <g style="isolation: isolate;">
      <g style="isolation: isolate;">
        <g style="isolation: isolate;">
          <text transform="translate(123.8 588.044)" style="fill: #636363; font-family: Amiri-Regular, Amiri; font-size: 14.3px; isolation: isolate;"><tspan x="0" y="0">p</tspan></text>
        </g>
      </g>
    </g>
    <g style="isolation: isolate;">
      <g style="isolation: isolate;">
        <g style="isolation: isolate;">
          <text transform="translate(130.9 588.044)" style="fill: #636363; font-family: Amiri-Regular, Amiri; font-size: 14.3px; isolation: isolate;"><tspan x="0" y="0">le</tspan></text>
        </g>
      </g>
    </g>
    <g style="isolation: isolate;">
      <g style="isolation: isolate;">
        <g style="isolation: isolate;">
          <text transform="translate(144.6 588.044)" style="fill: #636363; font-family: Amiri-Regular, Amiri; font-size: 14.3px; isolation: isolate;"><tspan x="0" y="0">H</tspan></text>
        </g>
      </g>
    </g>
    <g style="isolation: isolate;">
      <g style="isolation: isolate;">
        <g style="isolation: isolate;">
          <text transform="translate(154.5 588.044)" style="fill: #636363; font-family: Amiri-Regular, Amiri; font-size: 14.3px; isolation: isolate;"><tspan x="0" y="0">ealth.</tspan></text>
        </g>
      </g>
    </g>
  </g>
  <g style="isolation: isolate;">
    <g style="isolation: isolate;">
      <g style="isolation: isolate;">
        <text transform="translate(13.9 56.945)" style="fill: #bc1b3a; font-family: Amiri-Bold, Amiri; font-size: 12.3px; font-weight: 700; isolation: isolate;"><tspan x="0" y="0">Ki</tspan></text>
      </g>
      <g style="isolation: isolate;">
        <text transform="translate(26.311 56.945)" style="fill: #bc1b3a; font-family: Amiri-Bold, Amiri; font-size: 12.3px; font-weight: 700; isolation: isolate; letter-spacing: -.006em;"><tspan x="0" y="0">l</tspan></text>
      </g>
      <g style="isolation: isolate;">
        <text transform="translate(29.902 56.945)" style="fill: #bc1b3a; font-family: Amiri-Bold, Amiri; font-size: 12.3px; font-weight: 700; isolation: isolate;"><tspan x="0" y="0">oca</tspan></text>
      </g>
      <g style="isolation: isolate;">
        <text transform="translate(47.306 56.945)" style="fill: #bc1b3a; font-family: Amiri-Bold, Amiri; font-size: 12.3px; font-weight: 700; isolation: isolate; letter-spacing: -.006em;"><tspan x="0" y="0">l</tspan></text>
      </g>
      <g style="isolation: isolate;">
        <text transform="translate(50.898 56.945)" style="fill: #bc1b3a; font-family: Amiri-Bold, Amiri; font-size: 12.3px; font-weight: 700; isolation: isolate;"><tspan x="0" y="0">or</tspan></text>
      </g>
      <g style="isolation: isolate;">
        <text transform="translate(62.669 56.945)" style="fill: #bc1b3a; font-family: Amiri-Bold, Amiri; font-size: 12.3px; font-weight: 700; isolation: isolate; letter-spacing: -.004em;"><tspan x="0" y="0">i</tspan></text>
      </g>
      <g style="isolation: isolate;">
        <text transform="translate(66.396 56.945)" style="fill: #bc1b3a; font-family: Amiri-Bold, Amiri; font-size: 12.3px; font-weight: 700; isolation: isolate;"><tspan x="0" y="0">e</tspan></text>
      </g>
    </g>
  </g>
  <g id="bar">
    <g id="noPEE">
      <path d="M103.2,489.747h6.9c1.657,0,3,.526,3,1.174v49.65c0,.648-1.343,1.174-3,1.174h-6.9c-1.657,0-3-.526-3-1.174v-49.65c0-.648,1.343-1.174,3-1.174Z" style="fill: #9c9c9c; stroke-width: 0px;"/>
      <path d="M144.7,514.245h10.9c.552,0,1,.753,1,1.681v24.038c0,.928-.448,1.681-1,1.681h-10.9c-.552,0-1-.753-1-1.681v-24.038c0-.928.448-1.681,1-1.681Z" style="fill: #9c9c9c; stroke-width: 0px;"/>
      <path d="M189,527.695h9.3c.994,0,1.8.223,1.8.499v12.952c0,.276-.806.499-1.8.499h-9.3c-.994,0-1.8-.223-1.8-.499v-12.952c0-.276.806-.499,1.8-.499Z" style="fill: #9c9c9c; stroke-width: 0px;"/>
      <path d="M236.3,527.945h9.3c.994,0,1.8.215,1.8.48v12.64c0,.265-.806.48-1.8.48h-9.3c-.994,0-1.8-.215-1.8-.48v-12.64c0-.265.806-.48,1.8-.48Z" style="fill: #9c9c9c; stroke-width: 0px;"/>
      <path d="M279.9,527.695h8.1c1.325,0,2.4.172,2.4.385v12.98c0,.213-1.075.385-2.4.385h-8.1c-1.325,0-2.4-.172-2.4-.385v-12.98c0-.213,1.075-.385,2.4-.385Z" style="fill: #9c9c9c; stroke-width: 0px;"/>
      <path d="M324.7,527.695h9.3c.994,0,1.8.221,1.8.494v13.062c0,.273-.806.494-1.8.494h-9.3c-.994,0-1.8-.221-1.8-.494v-13.062c0-.273.806-.494,1.8-.494Z" style="fill: #9c9c9c; stroke-width: 0px;"/>
      <path d="M370.2,505.817h5.9c1.933,0,3.5.294,3.5.656v34.416c0,.362-1.567.656-3.5.656h-5.9c-1.933,0-3.5-.294-3.5-.656v-34.416c0-.362,1.567-.656,3.5-.656Z" style="fill: #9c9c9c; stroke-width: 0px;"/>
      <path d="M412.2,514.985h12.1c.221,0,.4,2.495.4,5.57v15.318c0,3.076-.179,5.57-.4,5.57h-12.1c-.221,0-.4-2.495-.4-5.57v-15.318c0-3.076.179-5.57.4-5.57Z" style="fill: #9c9c9c; stroke-width: 0px;"/>
      <path d="M501.2,505.817h8.1c1.325,0,2.4.444,2.4.992v33.443c0,.548-1.075.992-2.4.992h-8.1c-1.325,0-2.4-.444-2.4-.992v-33.443c0-.548,1.075-.992,2.4-.992Z" style="fill: #9c9c9c; stroke-width: 0px;"/>
      <path d="M589.4,538.991h9.3c.994,0,1.8.033,1.8.073v1.907c0,.04-.806.073-1.8.073h-9.3c-.994,0-1.8-.033-1.8-.073v-1.907c0-.04.806-.073,1.8-.073Z" style="fill: #9c9c9c; stroke-width: 0px;"/>
      <rect x="677.2" y="538.345" width="12.9" height="2.5" rx=".4" ry=".4" style="fill: #9c9c9c; stroke-width: 0px;"/>
    </g>
    <g id="PEEEE">
      <path d="M88.1,489.747h7.5c1.491,0,2.7.56,2.7,1.25v49.597c0,.691-1.209,1.25-2.7,1.25h-7.5c-1.491,0-2.7-.56-2.7-1.25v-49.597c0-.691,1.209-1.25,2.7-1.25Z" style="fill: #bc1b3a; stroke-width: 0px;"/>
      <path d="M129.9,538.345h10.9c.552,0,1,.095,1,.212v3.076c0,.117-.448.212-1,.212h-10.9c-.552,0-1-.095-1-.212v-3.076c0-.117.448-.212,1-.212Z" style="fill: #bc1b3a; stroke-width: 0px;"/>
      <path d="M175.1,538.345h7.7c1.436,0,2.6.039,2.6.088v3.225c0,.048-1.164.088-2.6.088h-7.7c-1.436,0-2.6-.039-2.6-.088v-3.225c0-.048,1.164-.088,2.6-.088Z" style="fill: #bc1b3a; stroke-width: 0px;"/>
      <path d="M220.8,538.345h10.9c.552,0,1,.091,1,.202v2.895c0,.112-.448.202-1,.202h-10.9c-.552,0-1-.091-1-.202v-2.895c0-.112.448-.202,1-.202Z" style="fill: #bc1b3a; stroke-width: 0px;"/>
      <path d="M264,538.345h10.3c.718,0,1.3.07,1.3.157v2.987c0,.086-.582.157-1.3.157h-10.3c-.718,0-1.3-.07-1.3-.157v-2.987c0-.086.582-.157,1.3-.157Z" style="fill: #bc1b3a; stroke-width: 0px;"/>
      <path d="M311.6,528.08h5.9c1.933,0,3.5.113,3.5.252v13.26c0,.139-1.567.252-3.5.252h-5.9c-1.933,0-3.5-.113-3.5-.252v-13.26c0-.139,1.567-.252,3.5-.252Z" style="fill: #bc1b3a; stroke-width: 0px;"/>
      <path d="M356.2,310.195h4.3c2.375,0,4.3,1.576,4.3,3.519v224.511c0,1.944-1.925,3.519-4.3,3.519h-4.3c-2.375,0-4.3-1.576-4.3-3.519v-224.511c0-1.944,1.925-3.519,4.3-3.519Z" style="fill: #bc1b3a; stroke-width: 0px;"/>
      <path d="M399.5,341.251h8.1c1.325,0,2.4,2.516,2.4,5.618v189.157c0,3.103-1.075,5.619-2.4,5.619h-8.1c-1.325,0-2.4-2.516-2.4-5.619v-189.157c0-3.103,1.075-5.618,2.4-5.618Z" style="fill: #bc1b3a; stroke-width: 0px;"/>
      <path d="M441.2,505.817h10.9c.552,0,1,.991,1,2.213v31.202c0,1.222-.448,2.213-1,2.213h-10.9c-.552,0-1-.991-1-2.213v-31.202c0-1.222.448-2.213,1-2.213Z" style="fill: #bc1b3a; stroke-width: 0px;"/>
      <path d="M485.1,538.745h10.9c.552,0,1,.073,1,.163v2.275c0,.09-.448.163-1,.163h-10.9c-.552,0-1-.073-1-.163v-2.275c0-.09.448-.163,1-.163Z" style="fill: #bc1b3a; stroke-width: 0px;"/>
      <path d="M573.8,538.745h10.9c.552,0,1,.068,1,.152v2.096c0,.084-.448.152-1,.152h-10.9c-.552,0-1-.068-1-.152v-2.096c0-.084.448-.152,1-.152Z" style="fill: #bc1b3a; stroke-width: 0px;"/>
      <path d="M618.3,538.745h10.3c.718,0,1.3.052,1.3.116v2.168c0,.064-.582.116-1.3.116h-10.3c-.718,0-1.3-.052-1.3-.116v-2.168c0-.064.582-.116,1.3-.116Z" style="fill: #bc1b3a; stroke-width: 0px;"/>
      <rect x="530" y="538.745" width="12.9" height="2.4" rx=".4" ry=".4" style="fill: #bc1b3a; stroke-width: 0px;"/>
      <rect x="662.6" y="538.445" width="12.9" height="2.4" rx=".4" ry=".4" style="fill: #bc1b3a; stroke-width: 0px;"/>
    </g>
    <path d="M456.984,400.295h8.1c1.325,0,2.4,1.767,2.4,3.947v133.055c0,2.18-1.075,3.947-2.4,3.947h-8.1c-1.325,0-2.4-1.767-2.4-3.947v-133.055c0-2.18,1.075-3.947,2.4-3.947Z" style="fill: #9c9c9c; stroke-width: 0px;"/>
    <path d="M633.412,445.911h9.3c.994,0,1.8,1.518,1.8,3.391v88.352c0,1.873-.806,3.391-1.8,3.391h-9.3c-.994,0-1.8-1.518-1.8-3.391v-88.352c0-1.873.806-3.391,1.8-3.391Z" style="fill: #9c9c9c; stroke-width: 0px;"/>
    <path d="M546.22,489.747h9.3c.994,0,1.8.819,1.8,1.828v47.641c0,1.01-.806,1.828-1.8,1.828h-9.3c-.994,0-1.8-.819-1.8-1.828v-47.641c0-1.01.806-1.828,1.8-1.828Z" style="fill: #9c9c9c; stroke-width: 0px;"/>
  </g>
  <polyline points="416.7 220.542 416.7 213.242 428.6 213.242 432.4 209.142 437 213.742 448.8 213.742 448.8 220.542" style="fill: none; stroke: #bc1b3a; stroke-miterlimit: 10;"/>
  <polyline points="413.501 336.638 413.501 326.838 429.501 326.838 434.601 321.338 440.701 327.538 456.601 327.538 456.601 336.638" style="fill: none; stroke: #bc1b3a; stroke-miterlimit: 10; stroke-width: 1.3px;"/>
  <g style="isolation: isolate;">
    <g style="isolation: isolate;">
      <g style="isolation: isolate;">
        <text transform="translate(397.763 309.649)" style="fill: #bc1b3a; font-family: Amiri-Bold, Amiri; font-size: 16px; font-weight: 700; isolation: isolate;"><tspan x="0" y="0">17 minutes</tspan></text>
      </g>
    </g>
  </g>
  <g style="isolation: isolate;">
    <g style="isolation: isolate;">
      <g style="isolation: isolate;">
        <text transform="translate(320.551 295.084)" style="fill: #bc1b3a; font-family: Amiri-Bold, Amiri; font-size: 16px; font-weight: 700; isolation: isolate;"><tspan x="0" y="0">16 minutes</tspan></text>
      </g>
    </g>
  </g>
  <rect x="393.232" y="93.652" width="79.035" height="450.029" style="fill: #ab5555; isolation: isolate; opacity: .2; stroke-width: 0px;"/>
  <text transform="translate(7.417 15.637)" style="fill: #000; font-family: Amiri-Bold, Amiri; font-size: 19px; font-weight: 700;"><tspan x="0" y="0" style="letter-spacing: -.068em;">T</tspan><tspan x="10.469" y="0" style="letter-spacing: 0em;">sz </tspan><tspan x="32.034" y="0" style="letter-spacing: -.012em;">Y</tspan><tspan x="43.376" y="0">ing Choi</tspan><tspan x="113.675" y="0" style="letter-spacing: -.013em;">’</tspan><tspan x="117.323" y="0">s</tspan><tspan x="124.809" y="0"> </tspan><tspan x="130.357" y="0" style="letter-spacing: -.017em;">A</tspan><tspan x="142.555" y="0">ct</tspan><tspan x="157.166" y="0" style="letter-spacing: -.006em;">i</tspan><tspan x="162.884" y="0" style="letter-spacing: -.021em;">v</tspan><tspan x="172.365" y="0">e Ene</tspan><tspan x="217.185" y="0" style="letter-spacing: -.005em;">r</tspan><tspan x="225.412" y="0">gy Expenditu</tspan><tspan x="333.843" y="0" style="letter-spacing: -.007em;">r</tspan><tspan x="342.032" y="0">e and E</tspan><tspan x="402.755" y="0" style="letter-spacing: -.024em;">x</tspan><tspan x="412.635" y="0">e</tspan><tspan x="421.166" y="0" style="letter-spacing: -.011em;">r</tspan><tspan x="429.279" y="0" style="letter-spacing: 0em;">cise Minute on </tspan><tspan x="556.025" y="0" style="letter-spacing: -.046em;">T</tspan><tspan x="566.912" y="0" style="letter-spacing: -.019em;">w</tspan><tspan x="581.182" y="0" style="letter-spacing: 0em;">o Scho</tspan><tspan x="635.197" y="0" style="letter-spacing: -.006em;">o</tspan><tspan x="644.944" y="0">l D</tspan><tspan x="670.271" y="0" style="letter-spacing: -.021em;">a</tspan><tspan x="678.612" y="0" style="letter-spacing: -.008em;">y</tspan><tspan x="688.359" y="0" style="letter-spacing: 0em;">s: </tspan><tspan x="0" y="22.8" style="letter-spacing: -.012em;">W</tspan><tspan x="17.404" y="22.8">ith and </tspan><tspan x="81.414" y="22.8" style="letter-spacing: -.012em;">W</tspan><tspan x="98.817" y="22.8">ithout PE Class</tspan></text>
  <rect x="7.437" y="2.109" width="128.985" height="20.978" style="fill: #ab5555; isolation: isolate; opacity: .31; stroke-width: 0px;"/>
</svg>